%TF.GenerationSoftware,KiCad,Pcbnew,9.0.1*%
%TF.CreationDate,2025-04-16T09:50:42-06:00*%
%TF.ProjectId,SparkFun_GNSS_ZED-X20P,53706172-6b46-4756-9e5f-474e53535f5a,rev?*%
%TF.SameCoordinates,Original*%
%TF.FileFunction,Soldermask,Top*%
%TF.FilePolarity,Negative*%
%FSLAX46Y46*%
G04 Gerber Fmt 4.6, Leading zero omitted, Abs format (unit mm)*
G04 Created by KiCad (PCBNEW 9.0.1) date 2025-04-16 09:50:42*
%MOMM*%
%LPD*%
G01*
G04 APERTURE LIST*
G04 Aperture macros list*
%AMRoundRect*
0 Rectangle with rounded corners*
0 $1 Rounding radius*
0 $2 $3 $4 $5 $6 $7 $8 $9 X,Y pos of 4 corners*
0 Add a 4 corners polygon primitive as box body*
4,1,4,$2,$3,$4,$5,$6,$7,$8,$9,$2,$3,0*
0 Add four circle primitives for the rounded corners*
1,1,$1+$1,$2,$3*
1,1,$1+$1,$4,$5*
1,1,$1+$1,$6,$7*
1,1,$1+$1,$8,$9*
0 Add four rect primitives between the rounded corners*
20,1,$1+$1,$2,$3,$4,$5,0*
20,1,$1+$1,$4,$5,$6,$7,0*
20,1,$1+$1,$6,$7,$8,$9,0*
20,1,$1+$1,$8,$9,$2,$3,0*%
G04 Aperture macros list end*
%ADD10C,0.000000*%
%ADD11RoundRect,0.050000X0.150000X0.350000X-0.150000X0.350000X-0.150000X-0.350000X0.150000X-0.350000X0*%
%ADD12RoundRect,0.243750X0.281250X-0.243750X0.281250X0.243750X-0.281250X0.243750X-0.281250X-0.243750X0*%
%ADD13C,1.979600*%
%ADD14C,0.600000*%
%ADD15RoundRect,0.225000X0.225000X0.300000X-0.225000X0.300000X-0.225000X-0.300000X0.225000X-0.300000X0*%
%ADD16RoundRect,0.225000X0.300000X-0.225000X0.300000X0.225000X-0.300000X0.225000X-0.300000X-0.225000X0*%
%ADD17RoundRect,0.250000X0.250000X0.275000X-0.250000X0.275000X-0.250000X-0.275000X0.250000X-0.275000X0*%
%ADD18C,0.750000*%
%ADD19RoundRect,0.050000X0.500000X-0.150000X0.500000X0.150000X-0.500000X0.150000X-0.500000X-0.150000X0*%
%ADD20RoundRect,0.050000X-0.500000X0.150000X-0.500000X-0.150000X0.500000X-0.150000X0.500000X0.150000X0*%
%ADD21RoundRect,0.050000X0.500000X-0.300000X0.500000X0.300000X-0.500000X0.300000X-0.500000X-0.300000X0*%
%ADD22RoundRect,0.050000X-0.500000X0.300000X-0.500000X-0.300000X0.500000X-0.300000X0.500000X0.300000X0*%
%ADD23O,1.700000X1.100000*%
%ADD24O,2.200000X1.100000*%
%ADD25C,3.200000*%
%ADD26RoundRect,0.250000X-0.275000X0.250000X-0.275000X-0.250000X0.275000X-0.250000X0.275000X0.250000X0*%
%ADD27RoundRect,0.225000X-0.225000X-0.300000X0.225000X-0.300000X0.225000X0.300000X-0.225000X0.300000X0*%
%ADD28RoundRect,0.250000X-0.250000X-0.275000X0.250000X-0.275000X0.250000X0.275000X-0.250000X0.275000X0*%
%ADD29RoundRect,0.050000X-0.315000X-0.415000X0.315000X-0.415000X0.315000X0.415000X-0.315000X0.415000X0*%
%ADD30RoundRect,0.050000X-0.850000X0.300000X-0.850000X-0.300000X0.850000X-0.300000X0.850000X0.300000X0*%
%ADD31RoundRect,0.050000X-1.350000X0.500000X-1.350000X-0.500000X1.350000X-0.500000X1.350000X0.500000X0*%
%ADD32RoundRect,0.165000X-0.195000X0.165000X-0.195000X-0.165000X0.195000X-0.165000X0.195000X0.165000X0*%
%ADD33RoundRect,0.050000X-2.000000X0.750000X-2.000000X-0.750000X2.000000X-0.750000X2.000000X0.750000X0*%
%ADD34RoundRect,0.050000X0.300000X0.675000X-0.300000X0.675000X-0.300000X-0.675000X0.300000X-0.675000X0*%
%ADD35RoundRect,0.050000X0.600000X1.000000X-0.600000X1.000000X-0.600000X-1.000000X0.600000X-1.000000X0*%
%ADD36RoundRect,0.050000X-0.600000X0.275000X-0.600000X-0.275000X0.600000X-0.275000X0.600000X0.275000X0*%
%ADD37RoundRect,0.050000X0.525000X0.500000X-0.525000X0.500000X-0.525000X-0.500000X0.525000X-0.500000X0*%
%ADD38RoundRect,0.050000X1.100000X0.425000X-1.100000X0.425000X-1.100000X-0.425000X1.100000X-0.425000X0*%
%ADD39RoundRect,0.250000X0.275000X-0.250000X0.275000X0.250000X-0.275000X0.250000X-0.275000X-0.250000X0*%
%ADD40RoundRect,0.050000X0.400000X0.600000X-0.400000X0.600000X-0.400000X-0.600000X0.400000X-0.600000X0*%
%ADD41RoundRect,0.165000X0.195000X-0.165000X0.195000X0.165000X-0.195000X0.165000X-0.195000X-0.165000X0*%
%ADD42RoundRect,0.087500X-0.087500X0.375000X-0.087500X-0.375000X0.087500X-0.375000X0.087500X0.375000X0*%
%ADD43RoundRect,0.087500X-0.375000X0.087500X-0.375000X-0.087500X0.375000X-0.087500X0.375000X0.087500X0*%
%ADD44RoundRect,0.050000X-1.350000X1.350000X-1.350000X-1.350000X1.350000X-1.350000X1.350000X1.350000X0*%
%ADD45RoundRect,0.050000X-0.300000X-0.675000X0.300000X-0.675000X0.300000X0.675000X-0.300000X0.675000X0*%
%ADD46RoundRect,0.050000X-0.600000X-1.000000X0.600000X-1.000000X0.600000X1.000000X-0.600000X1.000000X0*%
%ADD47RoundRect,0.050000X0.315000X0.415000X-0.315000X0.415000X-0.315000X-0.415000X0.315000X-0.415000X0*%
%ADD48RoundRect,0.050000X-0.635000X0.330200X-0.635000X-0.330200X0.635000X-0.330200X0.635000X0.330200X0*%
%ADD49RoundRect,0.050000X0.635000X-0.330200X0.635000X0.330200X-0.635000X0.330200X-0.635000X-0.330200X0*%
%ADD50RoundRect,0.050000X0.760000X0.425000X-0.760000X0.425000X-0.760000X-0.425000X0.760000X-0.425000X0*%
%ADD51RoundRect,0.050000X0.425000X-0.760000X0.425000X0.760000X-0.425000X0.760000X-0.425000X-0.760000X0*%
%ADD52RoundRect,0.050000X-0.760000X-0.425000X0.760000X-0.425000X0.760000X0.425000X-0.760000X0.425000X0*%
%ADD53RoundRect,0.050000X-0.425000X0.760000X-0.425000X-0.760000X0.425000X-0.760000X0.425000X0.760000X0*%
%ADD54RoundRect,0.050000X0.550000X-0.550000X0.550000X0.550000X-0.550000X0.550000X-0.550000X-0.550000X0*%
%ADD55RoundRect,0.050000X-0.550000X0.550000X-0.550000X-0.550000X0.550000X-0.550000X0.550000X0.550000X0*%
G04 APERTURE END LIST*
D10*
%TO.C,BT1*%
G36*
X12797855Y29045000D02*
G01*
X10312500Y29045000D01*
X10312500Y31530355D01*
X12797855Y29045000D01*
G37*
G36*
X14517500Y32750000D02*
G01*
X10317500Y32750000D01*
X10317500Y34450000D01*
X14517500Y34450000D01*
X14517500Y32750000D01*
G37*
%TO.C,JP1*%
G36*
X36753000Y15824200D02*
G01*
X36272000Y15824200D01*
X36272000Y16332200D01*
X36753000Y16332200D01*
X36753000Y15824200D01*
G37*
%TD*%
D11*
%TO.C,D13*%
X19223750Y8102500D03*
X18573750Y8102500D03*
X17923750Y8102500D03*
X17923750Y6502500D03*
X19223750Y6502500D03*
%TD*%
D12*
%TO.C,D4*%
X37782500Y30327500D03*
X37782500Y31902500D03*
%TD*%
D13*
%TO.C,J2*%
X8255000Y34290000D03*
X8255000Y31750000D03*
X8255000Y29210000D03*
X8255000Y26670000D03*
X8255000Y24130000D03*
X8255000Y21590000D03*
%TD*%
%TO.C,J11*%
X24130000Y1270000D03*
X26670000Y1270000D03*
X29210000Y1270000D03*
X31750000Y1270000D03*
X34290000Y1270000D03*
X36830000Y1270000D03*
%TD*%
D14*
%TO.C,FID3*%
X635000Y42545000D03*
%TD*%
D15*
%TO.C,R8*%
X5270000Y26987500D03*
X3620000Y26987500D03*
%TD*%
D16*
%TO.C,R3*%
X39687500Y33465000D03*
X39687500Y35115000D03*
%TD*%
D17*
%TO.C,C5*%
X14427500Y21907500D03*
X12877500Y21907500D03*
%TD*%
D18*
%TO.C,J1*%
X4905000Y15590000D03*
X4905000Y9810000D03*
D19*
X6010000Y13950000D03*
X6010000Y12950000D03*
D20*
X6010000Y12450000D03*
X6010000Y11450000D03*
X6010000Y10950000D03*
X6010000Y11950000D03*
D19*
X6010000Y13450000D03*
X6010000Y14450000D03*
D21*
X6010000Y15925000D03*
D22*
X6010000Y9475000D03*
D23*
X1255000Y17018000D03*
D24*
X5435000Y17018000D03*
X5435000Y8382000D03*
D23*
X1255000Y8382000D03*
D21*
X6010000Y15150000D03*
D22*
X6010000Y10250000D03*
%TD*%
D25*
%TO.C,ST2*%
X40640000Y2540000D03*
%TD*%
D26*
%TO.C,C9*%
X14605000Y27127500D03*
X14605000Y25577500D03*
%TD*%
D27*
%TO.C,R13*%
X8700000Y8572500D03*
X10350000Y8572500D03*
%TD*%
D28*
%TO.C,C3*%
X35102500Y11430000D03*
X36652500Y11430000D03*
%TD*%
D29*
%TO.C,D7*%
X13137500Y36195000D03*
X15437500Y36195000D03*
%TD*%
%TO.C,D5*%
X10915000Y25400000D03*
X13215000Y25400000D03*
%TD*%
D30*
%TO.C,J8*%
X4762500Y34290000D03*
X4762500Y33040000D03*
X4762500Y31790000D03*
X4762500Y30540000D03*
D31*
X1562500Y36165000D03*
X1562500Y28665000D03*
%TD*%
D15*
%TO.C,R2*%
X4952500Y18415000D03*
X3302500Y18415000D03*
%TD*%
D16*
%TO.C,R5*%
X37782500Y33465000D03*
X37782500Y35115000D03*
%TD*%
D12*
%TO.C,D1*%
X35877500Y30327500D03*
X35877500Y31902500D03*
%TD*%
D13*
%TO.C,J6*%
X1270000Y19050000D03*
X1270000Y21590000D03*
X1270000Y24130000D03*
X1270000Y26670000D03*
%TD*%
D16*
%TO.C,R4*%
X35877500Y33465000D03*
X35877500Y35115000D03*
%TD*%
D17*
%TO.C,C2*%
X14427500Y20320000D03*
X12877500Y20320000D03*
%TD*%
D12*
%TO.C,D2*%
X39687500Y30327500D03*
X39687500Y31902500D03*
%TD*%
D14*
%TO.C,FID4*%
X42545000Y635000D03*
%TD*%
D32*
%TO.C,D3*%
X38100000Y20327500D03*
X38100000Y19367500D03*
%TD*%
D33*
%TO.C,J5*%
X40957500Y19367500D03*
X40957500Y21907500D03*
X40957500Y16827500D03*
%TD*%
D13*
%TO.C,J9*%
X13970000Y1270000D03*
X16510000Y1270000D03*
X19050000Y1270000D03*
X21590000Y1270000D03*
%TD*%
D15*
%TO.C,R10*%
X18922500Y9525000D03*
X17272500Y9525000D03*
%TD*%
%TO.C,R1*%
X4952500Y6985000D03*
X3302500Y6985000D03*
%TD*%
D34*
%TO.C,J7*%
X10390000Y38100000D03*
X9390000Y38100000D03*
X8390000Y38100000D03*
X7390000Y38100000D03*
D35*
X6090000Y41775000D03*
X11690000Y41775000D03*
%TD*%
D25*
%TO.C,ST1*%
X40640000Y40640000D03*
%TD*%
D36*
%TO.C,U2*%
X12352400Y19047500D03*
X12352400Y18097500D03*
X12352400Y17147500D03*
X14952600Y17147500D03*
X14952600Y19047500D03*
%TD*%
D37*
%TO.C,J10*%
X39432500Y13017500D03*
D38*
X40957500Y11642500D03*
X40957500Y14392500D03*
%TD*%
D17*
%TO.C,C8*%
X14427500Y23495000D03*
X12877500Y23495000D03*
%TD*%
%TO.C,L1*%
X36652500Y19367500D03*
X35102500Y19367500D03*
%TD*%
D28*
%TO.C,C7*%
X8750000Y15240000D03*
X10300000Y15240000D03*
%TD*%
D11*
%TO.C,D12*%
X33670000Y8102500D03*
X33020000Y8102500D03*
X32370000Y8102500D03*
X32370000Y6502500D03*
X33670000Y6502500D03*
%TD*%
D13*
%TO.C,J3*%
X34290000Y41910000D03*
X31750000Y41910000D03*
X29210000Y41910000D03*
X26670000Y41910000D03*
X24130000Y41910000D03*
X21590000Y41910000D03*
X19050000Y41910000D03*
X16510000Y41910000D03*
X13970000Y41910000D03*
%TD*%
D16*
%TO.C,R11*%
X41592500Y33465000D03*
X41592500Y35115000D03*
%TD*%
D11*
%TO.C,D10*%
X33670000Y36995000D03*
X33020000Y36995000D03*
X32370000Y36995000D03*
X32370000Y35395000D03*
X33670000Y35395000D03*
%TD*%
D39*
%TO.C,C10*%
X15557500Y11766250D03*
X15557500Y13316250D03*
%TD*%
D40*
%TO.C,F1*%
X10425000Y19050000D03*
X8625000Y19050000D03*
%TD*%
D41*
%TO.C,D14*%
X38100000Y11902500D03*
X38100000Y12862500D03*
%TD*%
D42*
%TO.C,U4*%
X15162500Y10197500D03*
X14662500Y10197500D03*
X14162500Y10197500D03*
X13662500Y10197500D03*
X13162500Y10197500D03*
X12662500Y10197500D03*
D43*
X11950000Y9485000D03*
X11950000Y8985000D03*
X11950000Y8485000D03*
X11950000Y7985000D03*
X11950000Y7485000D03*
X11950000Y6985000D03*
D42*
X12662500Y6272500D03*
X13162500Y6272500D03*
X13662500Y6272500D03*
X14162500Y6272500D03*
X14662500Y6272500D03*
X15162500Y6272500D03*
D43*
X15875000Y6985000D03*
X15875000Y7485000D03*
X15875000Y7985000D03*
X15875000Y8485000D03*
X15875000Y8985000D03*
X15875000Y9485000D03*
D44*
X13912500Y8235000D03*
%TD*%
D45*
%TO.C,J4*%
X7390000Y5080000D03*
X8390000Y5080000D03*
X9390000Y5080000D03*
X10390000Y5080000D03*
D46*
X11690000Y1405000D03*
X6090000Y1405000D03*
%TD*%
D36*
%TO.C,U1*%
X8224900Y13650000D03*
X8224900Y12700000D03*
X8224900Y11750000D03*
X10825100Y11750000D03*
X10825000Y12700000D03*
X10825100Y13650000D03*
%TD*%
D12*
%TO.C,D9*%
X41592500Y30327500D03*
X41592500Y31902500D03*
%TD*%
D39*
%TO.C,C1*%
X10795000Y20815000D03*
X10795000Y22365000D03*
%TD*%
D11*
%TO.C,D8*%
X18430000Y36995000D03*
X17780000Y36995000D03*
X17130000Y36995000D03*
X17130000Y35395000D03*
X18430000Y35395000D03*
%TD*%
D28*
%TO.C,C13*%
X8750000Y10160000D03*
X10300000Y10160000D03*
%TD*%
D15*
%TO.C,R9*%
X14477500Y15875000D03*
X12827500Y15875000D03*
%TD*%
D47*
%TO.C,D6*%
X10675000Y17145000D03*
X8375000Y17145000D03*
%TD*%
D27*
%TO.C,R6*%
X35052500Y20955000D03*
X36702500Y20955000D03*
%TD*%
D25*
%TO.C,ST3*%
X2540000Y40640000D03*
%TD*%
D17*
%TO.C,L2*%
X36652500Y13017500D03*
X35102500Y13017500D03*
%TD*%
D27*
%TO.C,R12*%
X8700000Y6985000D03*
X10350000Y6985000D03*
%TD*%
D48*
%TO.C,JP1*%
X36512500Y16598900D03*
X36512500Y15557500D03*
D49*
X36512500Y14516100D03*
%TD*%
D15*
%TO.C,R7*%
X12890000Y27305000D03*
X11240000Y27305000D03*
%TD*%
D50*
%TO.C,U5*%
X32850000Y14440000D03*
X32850000Y15540000D03*
X32850000Y16640000D03*
X32850000Y17740000D03*
X32850000Y18840000D03*
X32850000Y19940000D03*
X32850000Y21040000D03*
X32850000Y22140000D03*
X32850000Y23240000D03*
X32850000Y24340000D03*
X32850000Y25440000D03*
X32850000Y26540000D03*
X32850000Y27640000D03*
X32850000Y28740000D03*
D51*
X32000000Y31540000D03*
X30900000Y31540000D03*
X29800000Y31540000D03*
X28700000Y31540000D03*
X27600000Y31540000D03*
X26500000Y31540000D03*
X25400000Y31540000D03*
X24300000Y31540000D03*
X23200000Y31540000D03*
X22100000Y31540000D03*
X21000000Y31540000D03*
X19900000Y31540000D03*
X18800000Y31540000D03*
D52*
X17950000Y28740000D03*
X17950000Y27640000D03*
X17950000Y26540000D03*
X17950000Y25440000D03*
X17950000Y24340000D03*
X17950000Y23240000D03*
X17950000Y22140000D03*
X17950000Y21040000D03*
X17950000Y19940000D03*
X17950000Y18840000D03*
X17950000Y17740000D03*
X17950000Y16640000D03*
X17950000Y15540000D03*
X17950000Y14440000D03*
D53*
X18800000Y11640000D03*
X19900000Y11640000D03*
X21000000Y11640000D03*
X22100000Y11640000D03*
X23200000Y11640000D03*
X24300000Y11640000D03*
X25400000Y11640000D03*
X26500000Y11640000D03*
X27600000Y11640000D03*
X28700000Y11640000D03*
X29800000Y11640000D03*
X30900000Y11640000D03*
X32000000Y11640000D03*
D54*
X26450000Y20540000D03*
X26450000Y18440000D03*
X26450000Y16340000D03*
X26450000Y14240000D03*
X28500000Y20540000D03*
X28500000Y18440000D03*
X28500000Y16340000D03*
X28500000Y14240000D03*
X30550000Y20540000D03*
X30550000Y18440000D03*
X30550000Y16340000D03*
X30550000Y14240000D03*
X20250000Y20540000D03*
X20250000Y18440000D03*
X20250000Y16340000D03*
X20250000Y14240000D03*
X22300000Y20540000D03*
X22300000Y18440000D03*
X22300000Y16340000D03*
X22300000Y14240000D03*
X24350000Y20540000D03*
X24350000Y18440000D03*
X24350000Y16340000D03*
X24350000Y14240000D03*
D55*
X24350000Y22640000D03*
X24350000Y24740000D03*
X24350000Y26840000D03*
X24350000Y28940000D03*
X22300000Y22640000D03*
X22300000Y24740000D03*
X22300000Y26840000D03*
X22300000Y28940000D03*
X20250000Y22640000D03*
X20250000Y24740000D03*
X20250000Y26840000D03*
X20250000Y28940000D03*
X30550000Y22640000D03*
X30550000Y24740000D03*
X30550000Y26840000D03*
X30550000Y28940000D03*
X28500000Y22640000D03*
X28500000Y24740000D03*
X28500000Y26840000D03*
X28500000Y28940000D03*
X26450000Y22640000D03*
X26450000Y24740000D03*
X26450000Y26840000D03*
X26450000Y28940000D03*
%TD*%
D25*
%TO.C,ST4*%
X2540000Y2540000D03*
%TD*%
M02*
