%TF.GenerationSoftware,KiCad,Pcbnew,9.0.1*%
%TF.CreationDate,2025-04-16T09:50:42-06:00*%
%TF.ProjectId,SparkFun_GNSS_ZED-X20P,53706172-6b46-4756-9e5f-474e53535f5a,rev?*%
%TF.SameCoordinates,Original*%
%TF.FileFunction,Copper,L4,Bot*%
%TF.FilePolarity,Positive*%
%FSLAX46Y46*%
G04 Gerber Fmt 4.6, Leading zero omitted, Abs format (unit mm)*
G04 Created by KiCad (PCBNEW 9.0.1) date 2025-04-16 09:50:42*
%MOMM*%
%LPD*%
G01*
G04 APERTURE LIST*
G04 Aperture macros list*
%AMRoundRect*
0 Rectangle with rounded corners*
0 $1 Rounding radius*
0 $2 $3 $4 $5 $6 $7 $8 $9 X,Y pos of 4 corners*
0 Add a 4 corners polygon primitive as box body*
4,1,4,$2,$3,$4,$5,$6,$7,$8,$9,$2,$3,0*
0 Add four circle primitives for the rounded corners*
1,1,$1+$1,$2,$3*
1,1,$1+$1,$4,$5*
1,1,$1+$1,$6,$7*
1,1,$1+$1,$8,$9*
0 Add four rect primitives between the rounded corners*
20,1,$1+$1,$2,$3,$4,$5,0*
20,1,$1+$1,$4,$5,$6,$7,0*
20,1,$1+$1,$6,$7,$8,$9,0*
20,1,$1+$1,$8,$9,$2,$3,0*%
G04 Aperture macros list end*
%ADD10C,0.250000*%
%TA.AperFunction,EtchedComponent*%
%ADD11C,0.000000*%
%TD*%
%TA.AperFunction,ComponentPad*%
%ADD12C,1.879600*%
%TD*%
%TA.AperFunction,ComponentPad*%
%ADD13O,1.600000X1.000000*%
%TD*%
%TA.AperFunction,ComponentPad*%
%ADD14O,2.100000X1.000000*%
%TD*%
%TA.AperFunction,SMDPad,CuDef*%
%ADD15R,4.000000X1.500000*%
%TD*%
%TA.AperFunction,SMDPad,CuDef*%
%ADD16R,0.635000X1.270000*%
%TD*%
%TA.AperFunction,SMDPad,CuDef*%
%ADD17R,1.270000X0.660400*%
%TD*%
%TA.AperFunction,SMDPad,CuDef*%
%ADD18R,0.660400X1.270000*%
%TD*%
%TA.AperFunction,SMDPad,CuDef*%
%ADD19RoundRect,0.508000X0.000010X0.000010X-0.000010X0.000010X-0.000010X-0.000010X0.000010X-0.000010X0*%
%TD*%
%TA.AperFunction,SMDPad,CuDef*%
%ADD20R,1.270000X0.635000*%
%TD*%
%TA.AperFunction,ViaPad*%
%ADD21C,0.560000*%
%TD*%
%TA.AperFunction,Conductor*%
%ADD22C,0.177800*%
%TD*%
%TA.AperFunction,Conductor*%
%ADD23C,0.406400*%
%TD*%
%TA.AperFunction,Conductor*%
%ADD24C,0.261620*%
%TD*%
G04 APERTURE END LIST*
D10*
G36*
X8101668Y1670031D02*
G01*
X8120600Y1651098D01*
X8153010Y1586277D01*
X8193570Y1424040D01*
X8193570Y1216723D01*
X8153010Y1054487D01*
X8120599Y989664D01*
X8101668Y970732D01*
X8050967Y945381D01*
X8014746Y945381D01*
X7964044Y970732D01*
X7945112Y989664D01*
X7912701Y1054485D01*
X7872142Y1216723D01*
X7872142Y1424040D01*
X7912701Y1586278D01*
X7945111Y1651099D01*
X7964044Y1670031D01*
X8014746Y1695381D01*
X8050967Y1695381D01*
X8101668Y1670031D01*
G37*
G36*
X10329132Y570381D02*
G01*
X7497142Y570381D01*
X7497142Y1439429D01*
X7622142Y1439429D01*
X7622142Y1201334D01*
X7622561Y1197080D01*
X7622290Y1195258D01*
X7623639Y1186130D01*
X7624544Y1176948D01*
X7625248Y1175247D01*
X7625874Y1171017D01*
X7673493Y980541D01*
X7674136Y978742D01*
X7674200Y977842D01*
X7678082Y967696D01*
X7681738Y957466D01*
X7682274Y956742D01*
X7682958Y954956D01*
X7730576Y859719D01*
X7737183Y849223D01*
X7738446Y846175D01*
X7741263Y842742D01*
X7743631Y838981D01*
X7746125Y836818D01*
X7753991Y827233D01*
X7801610Y779613D01*
X7811198Y771744D01*
X7813360Y769251D01*
X7817114Y766888D01*
X7820551Y764067D01*
X7823604Y762803D01*
X7834097Y756197D01*
X7929335Y708578D01*
X7952221Y699820D01*
X7956701Y699502D01*
X7960851Y697783D01*
X7985237Y695381D01*
X8080475Y695381D01*
X8104861Y697783D01*
X8109009Y699502D01*
X8113491Y699820D01*
X8136377Y708578D01*
X8231614Y756196D01*
X8242110Y762804D01*
X8245160Y764067D01*
X8248593Y766886D01*
X8252352Y769251D01*
X8254514Y771745D01*
X8264102Y779613D01*
X8311721Y827232D01*
X8319588Y836820D01*
X8322081Y838981D01*
X8324447Y842741D01*
X8326110Y844767D01*
X8576925Y844767D01*
X8576925Y795995D01*
X8595589Y750935D01*
X8630077Y716447D01*
X8675137Y697783D01*
X8699523Y695381D01*
X9270951Y695381D01*
X9295337Y697783D01*
X9340397Y716447D01*
X9374885Y750935D01*
X9393549Y795995D01*
X9393549Y844767D01*
X9374885Y889827D01*
X9340397Y924315D01*
X9295337Y942979D01*
X9270951Y945381D01*
X9110237Y945381D01*
X9110237Y1476510D01*
X9119811Y1470483D01*
X9215049Y1422864D01*
X9237935Y1414106D01*
X9286584Y1410649D01*
X9332855Y1426072D01*
X9369700Y1458028D01*
X9375075Y1468779D01*
X9480627Y1468779D01*
X9486567Y1445006D01*
X9724662Y778339D01*
X9735126Y756182D01*
X9739336Y751531D01*
X9742023Y745859D01*
X9755582Y733584D01*
X9767858Y720024D01*
X9773530Y717338D01*
X9778181Y713127D01*
X9795405Y706976D01*
X9811936Y699145D01*
X9818201Y698834D01*
X9824111Y696723D01*
X9842386Y697632D01*
X9860649Y696724D01*
X9866555Y698834D01*
X9872823Y699145D01*
X9889355Y706976D01*
X9906579Y713127D01*
X9911230Y717338D01*
X9916902Y720024D01*
X9929177Y733584D01*
X9942737Y745859D01*
X9945423Y751531D01*
X9949634Y756182D01*
X9960098Y778339D01*
X10198193Y1445006D01*
X10204132Y1468779D01*
X10201711Y1517491D01*
X10180832Y1561570D01*
X10144674Y1594302D01*
X10098744Y1610705D01*
X10050031Y1608284D01*
X10005953Y1587405D01*
X9973221Y1551247D01*
X9962757Y1529090D01*
X9842380Y1192034D01*
X9722003Y1529090D01*
X9711539Y1551247D01*
X9678807Y1587405D01*
X9634728Y1608284D01*
X9586016Y1610706D01*
X9540086Y1594302D01*
X9503928Y1561570D01*
X9483049Y1517491D01*
X9480627Y1468779D01*
X9375075Y1468779D01*
X9391511Y1501651D01*
X9394969Y1550301D01*
X9379546Y1596571D01*
X9347590Y1633416D01*
X9326852Y1646471D01*
X9249756Y1685019D01*
X9177615Y1757160D01*
X9089243Y1889719D01*
X9089187Y1889787D01*
X9089171Y1889827D01*
X9089080Y1889918D01*
X9073718Y1908677D01*
X9063433Y1915565D01*
X9054683Y1924315D01*
X9043370Y1929001D01*
X9033194Y1935816D01*
X9021055Y1938244D01*
X9009623Y1942979D01*
X8997378Y1942979D01*
X8985367Y1945381D01*
X8973225Y1942979D01*
X8960851Y1942979D01*
X8949537Y1938294D01*
X8937522Y1935916D01*
X8927223Y1929051D01*
X8915791Y1924315D01*
X8907132Y1915656D01*
X8896941Y1908862D01*
X8890053Y1898578D01*
X8881303Y1889827D01*
X8876617Y1878515D01*
X8869802Y1868338D01*
X8867374Y1856200D01*
X8862639Y1844767D01*
X8860262Y1820638D01*
X8860237Y1820511D01*
X8860245Y1820468D01*
X8860237Y1820381D01*
X8860237Y945381D01*
X8699523Y945381D01*
X8675137Y942979D01*
X8630077Y924315D01*
X8595589Y889827D01*
X8576925Y844767D01*
X8326110Y844767D01*
X8327266Y846175D01*
X8328528Y849224D01*
X8335135Y859718D01*
X8382754Y954956D01*
X8383437Y956742D01*
X8383974Y957466D01*
X8387629Y967696D01*
X8391512Y977842D01*
X8391575Y978742D01*
X8392219Y980541D01*
X8439838Y1171017D01*
X8440463Y1175247D01*
X8441168Y1176948D01*
X8442072Y1186128D01*
X8443422Y1195257D01*
X8443150Y1197080D01*
X8443570Y1201334D01*
X8443570Y1439429D01*
X8443150Y1443684D01*
X8443422Y1445506D01*
X8442072Y1454636D01*
X8441168Y1463815D01*
X8440463Y1465517D01*
X8439838Y1469746D01*
X8392219Y1660222D01*
X8391575Y1662022D01*
X8391512Y1662921D01*
X8387629Y1673068D01*
X8383974Y1683297D01*
X8383437Y1684022D01*
X8382754Y1685807D01*
X8335135Y1781045D01*
X8328528Y1791540D01*
X8327265Y1794590D01*
X8324446Y1798025D01*
X8322081Y1801782D01*
X8319589Y1803944D01*
X8311720Y1813532D01*
X8264101Y1861150D01*
X8254515Y1869017D01*
X8252352Y1871511D01*
X8248590Y1873880D01*
X8245159Y1876695D01*
X8242112Y1877957D01*
X8231614Y1884566D01*
X8136377Y1932184D01*
X8113491Y1940942D01*
X8109009Y1941261D01*
X8104861Y1942979D01*
X8080475Y1945381D01*
X7985237Y1945381D01*
X7960851Y1942979D01*
X7956701Y1941261D01*
X7952221Y1940942D01*
X7929335Y1932184D01*
X7834097Y1884565D01*
X7823602Y1877959D01*
X7820552Y1876695D01*
X7817117Y1873877D01*
X7813360Y1871511D01*
X7811198Y1869020D01*
X7801610Y1861150D01*
X7753992Y1813531D01*
X7746125Y1803946D01*
X7743631Y1801782D01*
X7741262Y1798021D01*
X7738447Y1794589D01*
X7737185Y1791543D01*
X7730576Y1781044D01*
X7682958Y1685807D01*
X7682274Y1684022D01*
X7681738Y1683297D01*
X7678082Y1673068D01*
X7674200Y1662921D01*
X7674136Y1662022D01*
X7673493Y1660222D01*
X7625874Y1469746D01*
X7625248Y1465517D01*
X7624544Y1463815D01*
X7623639Y1454634D01*
X7622290Y1445505D01*
X7622561Y1443684D01*
X7622142Y1439429D01*
X7497142Y1439429D01*
X7497142Y2070381D01*
X10329132Y2070381D01*
X10329132Y570381D01*
G37*
D11*
%TA.AperFunction,EtchedComponent*%
%TO.C,JP4*%
G36*
X5547500Y32020700D02*
G01*
X5247500Y32020700D01*
X5247500Y32520700D01*
X5547500Y32520700D01*
X5547500Y32020700D01*
G37*
%TD.AperFunction*%
%TA.AperFunction,EtchedComponent*%
%TO.C,JP12*%
G36*
X18347500Y6517500D02*
G01*
X17847500Y6517500D01*
X17847500Y6817500D01*
X18347500Y6817500D01*
X18347500Y6517500D01*
G37*
%TD.AperFunction*%
%TA.AperFunction,EtchedComponent*%
%TO.C,JP3*%
G36*
X37297500Y34040000D02*
G01*
X36997500Y34040000D01*
X36997500Y34540000D01*
X37297500Y34540000D01*
X37297500Y34040000D01*
G37*
%TD.AperFunction*%
%TA.AperFunction,EtchedComponent*%
%TO.C,JP7*%
G36*
X1416250Y12450000D02*
G01*
X1116250Y12450000D01*
X1116250Y12950000D01*
X1416250Y12950000D01*
X1416250Y12450000D01*
G37*
%TD.AperFunction*%
%TA.AperFunction,EtchedComponent*%
%TO.C,JP8*%
G36*
X41742500Y34040000D02*
G01*
X41442500Y34040000D01*
X41442500Y34540000D01*
X41742500Y34540000D01*
X41742500Y34040000D01*
G37*
%TD.AperFunction*%
%TA.AperFunction,EtchedComponent*%
%TO.C,JP11*%
G36*
X18347500Y8740000D02*
G01*
X17847500Y8740000D01*
X17847500Y9040000D01*
X18347500Y9040000D01*
X18347500Y8740000D01*
G37*
%TD.AperFunction*%
%TA.AperFunction,EtchedComponent*%
%TO.C,JP2*%
G36*
X35075000Y34040000D02*
G01*
X34775000Y34040000D01*
X34775000Y34540000D01*
X35075000Y34540000D01*
X35075000Y34040000D01*
G37*
%TD.AperFunction*%
%TA.AperFunction,EtchedComponent*%
%TO.C,JP5*%
G36*
X39520000Y34040000D02*
G01*
X39220000Y34040000D01*
X39220000Y34540000D01*
X39520000Y34540000D01*
X39520000Y34040000D01*
G37*
%TD.AperFunction*%
%TD*%
D12*
%TO.P,J2,1,Pin_1*%
%TO.N,unconnected-(J2-Pin_1-Pad1)*%
X8255000Y34290000D03*
%TO.P,J2,2,Pin_2*%
%TO.N,TX2*%
X8255000Y31750000D03*
%TO.P,J2,3,Pin_3*%
%TO.N,HV-RX2*%
X8255000Y29210000D03*
%TO.P,J2,4,Pin_4*%
%TO.N,VOUT*%
X8255000Y26670000D03*
%TO.P,J2,5,Pin_5*%
%TO.N,unconnected-(J2-Pin_5-Pad5)*%
X8255000Y24130000D03*
%TO.P,J2,6,Pin_6*%
%TO.N,GND*%
X8255000Y21590000D03*
%TD*%
%TO.P,J11,1,Pin_1*%
%TO.N,GEO_STAT*%
X24130000Y1270000D03*
%TO.P,J11,2,Pin_2*%
%TO.N,RTK_STAT*%
X26670000Y1270000D03*
%TO.P,J11,3,Pin_3*%
%TO.N,PPS*%
X29210000Y1270000D03*
%TO.P,J11,4,Pin_4*%
%TO.N,~{RESET}*%
X31750000Y1270000D03*
%TO.P,J11,5,Pin_5*%
%TO.N,3V3_EN*%
X34290000Y1270000D03*
%TO.P,J11,6,Pin_6*%
%TO.N,EVENT*%
X36830000Y1270000D03*
%TD*%
D13*
%TO.P,J1,NC1,NC*%
%TO.N,unconnected-(J1-NC-PadNC1)*%
X1255000Y17018000D03*
D14*
%TO.P,J1,NC2,NC*%
%TO.N,unconnected-(J1-NC-PadNC2)*%
X5435000Y17018000D03*
%TO.P,J1,NC3,NC*%
%TO.N,unconnected-(J1-NC-PadNC3)*%
X5435000Y8382000D03*
D13*
%TO.P,J1,S,SHIELD*%
%TO.N,Net-(J1-SHIELD)*%
X1255000Y8382000D03*
%TD*%
D12*
%TO.P,J6,1,Pin_1*%
%TO.N,VUSB*%
X1270000Y19050000D03*
%TO.P,J6,2,Pin_2*%
%TO.N,GND*%
X1270000Y21590000D03*
%TO.P,J6,3,Pin_3*%
%TO.N,/D+*%
X1270000Y24130000D03*
%TO.P,J6,4,Pin_4*%
%TO.N,/D-*%
X1270000Y26670000D03*
%TD*%
D15*
%TO.P,J5,2,Ext*%
%TO.N,GND*%
X40957500Y21907500D03*
X40957500Y16827500D03*
%TD*%
D12*
%TO.P,J9,1,Pin_1*%
%TO.N,GND*%
X13970000Y1270000D03*
%TO.P,J9,2,Pin_2*%
%TO.N,3.3V*%
X16510000Y1270000D03*
%TO.P,J9,3,Pin_3*%
%TO.N,SDA{slash}~{CS}*%
X19050000Y1270000D03*
%TO.P,J9,4,Pin_4*%
%TO.N,SCL{slash}SCK*%
X21590000Y1270000D03*
%TD*%
%TO.P,J3,1,Pin_1*%
%TO.N,SCL{slash}SCK*%
X34290000Y41910000D03*
%TO.P,J3,2,Pin_2*%
%TO.N,TX1{slash}POCI*%
X31750000Y41910000D03*
%TO.P,J3,3,Pin_3*%
%TO.N,RX1{slash}PICO*%
X29210000Y41910000D03*
%TO.P,J3,4,Pin_4*%
%TO.N,SDA{slash}~{CS}*%
X26670000Y41910000D03*
%TO.P,J3,5,Pin_5*%
%TO.N,RX2*%
X24130000Y41910000D03*
%TO.P,J3,6,Pin_6*%
%TO.N,TX2*%
X21590000Y41910000D03*
%TO.P,J3,7,Pin_7*%
%TO.N,3.3V*%
X19050000Y41910000D03*
%TO.P,J3,8,Pin_8*%
%TO.N,VIN*%
X16510000Y41910000D03*
%TO.P,J3,9,Pin_9*%
%TO.N,GND*%
X13970000Y41910000D03*
%TD*%
D16*
%TO.P,JP9,1,A*%
%TO.N,Net-(JP9-A)*%
X9702800Y3492500D03*
%TO.P,JP9,2,B*%
%TO.N,3.3V*%
X8890000Y3492500D03*
%TO.P,JP9,3,C*%
%TO.N,Net-(JP9-C)*%
X8077200Y3492500D03*
%TD*%
D17*
%TO.P,JP4,1,A*%
%TO.N,3.3V*%
X5397500Y32791400D03*
%TO.P,JP4,2,B*%
%TO.N,VOUT*%
X5397500Y31750000D03*
%TO.P,JP4,3,C*%
%TO.N,5V*%
X5397500Y30708600D03*
%TD*%
D18*
%TO.P,JP12,1,A*%
%TO.N,Net-(JP12-A)*%
X17576800Y6667500D03*
%TO.P,JP12,2,B*%
%TO.N,TX1{slash}POCI*%
X18618200Y6667500D03*
%TD*%
D17*
%TO.P,JP3,1,A*%
%TO.N,Net-(JP3-A)*%
X37147500Y34810700D03*
%TO.P,JP3,2,B*%
%TO.N,PPS*%
X37147500Y33769300D03*
%TD*%
%TO.P,JP7,1,A*%
%TO.N,GND*%
X1266250Y13220700D03*
%TO.P,JP7,2,B*%
%TO.N,Net-(J1-SHIELD)*%
X1266250Y12179300D03*
%TD*%
%TO.P,JP8,1,A*%
%TO.N,Net-(JP8-A)*%
X41592500Y34810700D03*
%TO.P,JP8,2,B*%
%TO.N,GEO_STAT*%
X41592500Y33769300D03*
%TD*%
D19*
%TO.P,TP4,1,1*%
%TO.N,~{SAFEBOOT}*%
X33020000Y8572500D03*
%TD*%
D18*
%TO.P,JP11,1,A*%
%TO.N,Net-(JP11-A)*%
X17576800Y8890000D03*
%TO.P,JP11,2,B*%
%TO.N,Net-(JP11-B)*%
X18618200Y8890000D03*
%TD*%
D20*
%TO.P,JP10,1,A*%
%TO.N,GND*%
X29210000Y8978900D03*
%TO.P,JP10,2,B*%
%TO.N,Net-(JP10-B)*%
X29210000Y8166100D03*
%TD*%
D17*
%TO.P,JP2,1,A*%
%TO.N,Net-(JP2-A)*%
X34925000Y34810700D03*
%TO.P,JP2,2,B*%
%TO.N,3.3V*%
X34925000Y33769300D03*
%TD*%
D19*
%TO.P,TP1,1,1*%
%TO.N,TX_READY*%
X31432500Y8572500D03*
%TD*%
D17*
%TO.P,JP5,1,A*%
%TO.N,Net-(JP5-A)*%
X39370000Y34810700D03*
%TO.P,JP5,2,B*%
%TO.N,3.3V*%
X39370000Y33769300D03*
%TD*%
D21*
%TO.N,GND*%
X34290000Y16192500D03*
X34290000Y14922500D03*
X12065000Y20320000D03*
X31432500Y23812500D03*
X23177500Y21590000D03*
X17780000Y4603750D03*
X31432500Y19367500D03*
X23177500Y15240000D03*
X38417500Y16827500D03*
X21272500Y23812500D03*
X6032500Y18415000D03*
X31432500Y13017500D03*
X39370000Y11747500D03*
X42545000Y12382500D03*
X34607500Y26670000D03*
X23177500Y17462500D03*
X35877500Y22225000D03*
X23177500Y13017500D03*
X25400000Y15240000D03*
X31432500Y15240000D03*
X33020000Y13335000D03*
X10477500Y39370000D03*
X29527500Y25717500D03*
X23177500Y25717500D03*
X25400000Y17462500D03*
X17780000Y13335000D03*
X21272500Y17462500D03*
X25400000Y29845000D03*
X23177500Y19367500D03*
X38100000Y11112500D03*
X21272500Y21590000D03*
X34607500Y23812500D03*
X6985000Y15875000D03*
X31432500Y21590000D03*
X10795000Y23495000D03*
X25400000Y25717500D03*
X12065000Y21907500D03*
X15875000Y25400000D03*
X29527500Y21590000D03*
X25400000Y19367500D03*
X14461772Y17981632D03*
X27305000Y19367500D03*
X12382500Y32067500D03*
X12065000Y23495000D03*
X31432500Y29845000D03*
X11430000Y10160000D03*
X6033100Y27940000D03*
X13017500Y8255000D03*
X6985000Y9525000D03*
X29527500Y27940000D03*
X33020000Y9842500D03*
X17780000Y36195000D03*
X38417500Y21907500D03*
X11906250Y12700000D03*
X29527500Y15240000D03*
X21272500Y27940000D03*
X27305000Y13017500D03*
X31432500Y25717500D03*
X16510000Y24447500D03*
X29527500Y13017500D03*
X38100000Y18415000D03*
X27305000Y21590000D03*
X35877500Y18415000D03*
X39370000Y23177500D03*
X6032500Y6985000D03*
X6350000Y5397500D03*
X25400000Y27940000D03*
X34607500Y30162500D03*
X21272500Y13017500D03*
X27305000Y29845000D03*
X31432500Y27940000D03*
X40957500Y15557500D03*
X21272500Y29845000D03*
X29527500Y23812500D03*
X21272500Y15240000D03*
X29527500Y17462500D03*
X40957500Y10477500D03*
X42545000Y15557500D03*
X34607500Y22225000D03*
X7311365Y12537635D03*
X25400000Y21590000D03*
X21272500Y19367500D03*
X33020000Y38100000D03*
X37782500Y15557500D03*
X27305000Y25717500D03*
X42545000Y31115000D03*
X27305000Y15240000D03*
X23177500Y23812500D03*
X37147500Y17780000D03*
X16510000Y18732500D03*
X27305000Y27940000D03*
X42545000Y23177500D03*
X38100000Y13652500D03*
X23177500Y27940000D03*
X39370000Y15557500D03*
X34607500Y28257500D03*
X39370000Y14287500D03*
X23177500Y29845000D03*
X42545000Y13817500D03*
X21272500Y25717500D03*
X29527500Y29845000D03*
X31432500Y17462500D03*
X11430000Y15240000D03*
X29527500Y19367500D03*
X40957500Y23177500D03*
X25400000Y23812500D03*
X27305000Y23812500D03*
X25400000Y13017500D03*
X27305000Y17462500D03*
X34607500Y25400000D03*
X15716250Y10795000D03*
%TO.N,V_BCKP*%
X14605000Y28257500D03*
X15557500Y20002500D03*
%TO.N,5V*%
X11430000Y19050000D03*
%TO.N,PPS*%
X30797500Y9525000D03*
%TO.N,RTK_STAT*%
X26670000Y33337500D03*
X18415000Y5080000D03*
X20320000Y6985000D03*
%TO.N,VUSB*%
X7937500Y15150000D03*
X7302500Y10250000D03*
X9525000Y12700000D03*
%TO.N,~{RESET}*%
X34290000Y9525000D03*
%TO.N,3.3V*%
X38735000Y32702500D03*
X5238750Y35242500D03*
X15875000Y21907500D03*
X8890000Y2505230D03*
X13099290Y10963791D03*
X16510000Y17740000D03*
X9525000Y39370000D03*
X15875000Y23495000D03*
X34290000Y32702500D03*
%TO.N,Net-(C3-Pad1)*%
X35242500Y14287500D03*
X35242500Y17780000D03*
%TO.N,Net-(U4-V3)*%
X12382500Y10953750D03*
X12382500Y14287500D03*
%TO.N,Net-(U1-I{slash}O1)*%
X5080000Y11747500D03*
X7070810Y13249190D03*
%TO.N,Net-(JP2-A)*%
X35877500Y36195000D03*
%TO.N,Net-(JP3-A)*%
X37782500Y36195000D03*
%TO.N,Net-(JP5-A)*%
X39687500Y36195000D03*
%TO.N,SDA{slash}~{CS}*%
X8572500Y35877500D03*
X15875000Y3175000D03*
X15398750Y34766250D03*
%TO.N,TX1{slash}POCI*%
X17462500Y11747500D03*
X24765000Y34925000D03*
%TO.N,SCL{slash}SCK*%
X7302500Y36512500D03*
X20518803Y34726197D03*
X16510000Y3810000D03*
%TO.N,RX1{slash}PICO*%
X19467500Y10475270D03*
%TO.N,RX2*%
X1904400Y31432500D03*
%TO.N,TX2*%
X19367500Y35560000D03*
X19367500Y37147500D03*
%TO.N,3V3_EN*%
X31750000Y5715000D03*
X14605000Y14605000D03*
%TO.N,GEO_STAT*%
X22860000Y6032500D03*
X27622500Y33337500D03*
X19754161Y9205032D03*
%TO.N,Net-(JP9-A)*%
X7620000Y8572500D03*
%TO.N,Net-(JP9-C)*%
X7620000Y6985000D03*
%TO.N,Net-(JP10-B)*%
X24447500Y8572500D03*
%TO.N,TX_READY*%
X23177500Y8572500D03*
%TO.N,~{SAFEBOOT}*%
X30848615Y6083615D03*
%TO.N,VOUT*%
X2540000Y34290000D03*
%TO.N,Net-(JP8-A)*%
X41592500Y36195000D03*
%TO.N,Net-(JP11-A)*%
X16827500Y7937500D03*
%TO.N,Net-(JP11-B)*%
X17145000Y10477500D03*
%TO.N,Net-(JP12-A)*%
X16827500Y6667500D03*
%TO.N,/D+*%
X16827500Y15557500D03*
%TO.N,/D-*%
X16827500Y16510000D03*
%TD*%
D22*
%TO.N,V_BCKP*%
X15557500Y20002500D02*
X14605000Y20955000D01*
X14605000Y20955000D02*
X14605000Y28257500D01*
D23*
%TO.N,5V*%
X7937500Y19050000D02*
X11430000Y19050000D01*
X5397500Y21590000D02*
X7937500Y19050000D01*
X5397500Y30708600D02*
X5397500Y21590000D01*
D22*
%TO.N,PPS*%
X37147500Y33769300D02*
X36512500Y33134300D01*
X36512500Y10477500D02*
X31750000Y10477500D01*
X31750000Y10477500D02*
X30797500Y9525000D01*
X36512500Y33134300D02*
X36512500Y10477500D01*
%TO.N,RTK_STAT*%
X26670000Y4127500D02*
X26670000Y1270000D01*
X18415000Y5080000D02*
X18428700Y5066300D01*
X25731200Y5066300D02*
X26670000Y4127500D01*
X21272500Y33337500D02*
X26670000Y33337500D01*
X20320000Y32385000D02*
X21272500Y33337500D01*
X18428700Y5066300D02*
X25731200Y5066300D01*
X20320000Y6985000D02*
X20320000Y32385000D01*
D23*
%TO.N,VUSB*%
X9525000Y14287500D02*
X9525000Y12700000D01*
X1271600Y19051600D02*
X1270000Y19050000D01*
X7937500Y15150000D02*
X8662500Y15150000D01*
X8345000Y10250000D02*
X7302500Y10250000D01*
X9525000Y11430000D02*
X8345000Y10250000D01*
X7937500Y15150000D02*
X7937500Y17462500D01*
X9525000Y12700000D02*
X9525000Y11430000D01*
X7937500Y17462500D02*
X6348400Y19051600D01*
X6348400Y19051600D02*
X1271600Y19051600D01*
X8662500Y15150000D02*
X9525000Y14287500D01*
D22*
%TO.N,~{RESET}*%
X34290000Y6985000D02*
X31750000Y4445000D01*
X34290000Y9525000D02*
X34290000Y6985000D01*
X31750000Y4445000D02*
X31750000Y1270000D01*
%TO.N,3.3V*%
X34925000Y33769300D02*
X34925000Y33337500D01*
D23*
X5397500Y35083750D02*
X5238750Y35242500D01*
D22*
X39370000Y33337500D02*
X38735000Y32702500D01*
D23*
X5397500Y32791400D02*
X5397500Y35083750D01*
X8890000Y2505230D02*
X8890000Y3492500D01*
D22*
X34925000Y33337500D02*
X34290000Y32702500D01*
X39370000Y33769300D02*
X39370000Y33337500D01*
D23*
%TO.N,Net-(C3-Pad1)*%
X35242500Y14287500D02*
X35242500Y17780000D01*
D22*
%TO.N,Net-(U4-V3)*%
X12599673Y14070327D02*
X12382500Y14287500D01*
X12382500Y10953750D02*
X12599673Y11170923D01*
X12599673Y11170923D02*
X12599673Y14070327D01*
D23*
%TO.N,Net-(J1-SHIELD)*%
X1266250Y8393250D02*
X1255000Y8382000D01*
X1266250Y12179300D02*
X1266250Y8393250D01*
D24*
%TO.N,Net-(U1-I{slash}O1)*%
X5080000Y11747500D02*
X5715000Y11747500D01*
X5715000Y11747500D02*
X7070810Y13103310D01*
X7070810Y13103310D02*
X7070810Y13249190D01*
D22*
%TO.N,Net-(JP2-A)*%
X35242500Y36195000D02*
X34925000Y35877500D01*
X34925000Y35877500D02*
X34925000Y34810700D01*
X35877500Y36195000D02*
X35242500Y36195000D01*
%TO.N,Net-(JP3-A)*%
X37147500Y35560000D02*
X37147500Y34810700D01*
X37782500Y36195000D02*
X37147500Y35560000D01*
%TO.N,Net-(JP5-A)*%
X39370000Y35877500D02*
X39370000Y34810700D01*
X39687500Y36195000D02*
X39370000Y35877500D01*
%TO.N,SDA{slash}~{CS}*%
X13017500Y34607500D02*
X11747500Y35877500D01*
X13321300Y17462500D02*
X13321300Y14467812D01*
X13321300Y33337500D02*
X13321300Y17462500D01*
X14212056Y7060444D02*
X15557500Y5715000D01*
X13321300Y14467812D02*
X14212056Y13577056D01*
X15875000Y5397500D02*
X15875000Y3175000D01*
X21907500Y35877500D02*
X24765000Y35877500D01*
X26670000Y37782500D02*
X26670000Y41910000D01*
X11747500Y35877500D02*
X8572500Y35877500D01*
X14212056Y13577056D02*
X14212056Y7060444D01*
X13017500Y34607500D02*
X13321300Y34303700D01*
X20931462Y35877500D02*
X21907500Y35877500D01*
X15398750Y34766250D02*
X19820212Y34766250D01*
X13321300Y34303700D02*
X13321300Y33337500D01*
X19820212Y34766250D02*
X20931462Y35877500D01*
X24765000Y35877500D02*
X26670000Y37782500D01*
X15557500Y5715000D02*
X15875000Y5397500D01*
%TO.N,TX1{slash}POCI*%
X19326398Y13611398D02*
X19326398Y32796563D01*
X19324320Y11747500D02*
X19326399Y11749579D01*
X17462500Y11580888D02*
X17462500Y11747500D01*
X21454836Y34925000D02*
X24765000Y34925000D01*
X18891250Y10636250D02*
X19326399Y11071399D01*
X18618200Y6972300D02*
X19190700Y7544800D01*
X17462500Y11747500D02*
X19324320Y11747500D01*
X18618200Y6667500D02*
X18618200Y6972300D01*
X18891250Y10152138D02*
X18891250Y10636250D01*
X19326398Y32796563D02*
X21454836Y34925000D01*
X19326399Y11749579D02*
X19326398Y13611398D01*
X19190700Y9852688D02*
X18891250Y10152138D01*
X19190700Y7544800D02*
X19190700Y9852688D01*
X19326399Y11071399D02*
X19326399Y11749579D01*
%TO.N,SCL{slash}SCK*%
X20637500Y34607500D02*
X20637500Y34576052D01*
X13652500Y14605000D02*
X14591300Y13666200D01*
X7302500Y36512500D02*
X12065000Y36512500D01*
X13652500Y33655000D02*
X13652500Y14605000D01*
X16510000Y3810000D02*
X19050000Y3810000D01*
X14591299Y7439687D02*
X14591300Y7165312D01*
X20518803Y34726197D02*
X20637500Y34607500D01*
X12065000Y36512500D02*
X13652500Y34925000D01*
X14591300Y13666200D02*
X14591299Y7439687D01*
X16510000Y5246612D02*
X16510000Y3810000D01*
X19716448Y33655000D02*
X13652500Y33655000D01*
X13652500Y33655000D02*
X13652500Y34925000D01*
X19050000Y3810000D02*
X21590000Y1270000D01*
X14591300Y7165312D02*
X16510000Y5246612D01*
X20637500Y34576052D02*
X19716448Y33655000D01*
%TO.N,RX1{slash}PICO*%
X19657598Y32659374D02*
X21288224Y34290000D01*
X25717500Y34290000D02*
X29210000Y37782500D01*
X19467500Y10475270D02*
X19657599Y10665369D01*
X29210000Y37782500D02*
X29210000Y41910000D01*
X21288224Y34290000D02*
X25717500Y34290000D01*
X19657599Y32384999D02*
X19657598Y32659374D01*
X19657599Y10665369D02*
X19657599Y32384999D01*
%TO.N,RX2*%
X1904400Y31432500D02*
X1904400Y35241900D01*
X18311356Y37465000D02*
X19263856Y36512500D01*
X23495000Y36512500D02*
X24130000Y37147500D01*
X19263856Y36512500D02*
X23495000Y36512500D01*
X4127500Y37465000D02*
X18311356Y37465000D01*
X24130000Y37147500D02*
X24130000Y41910000D01*
X1904400Y35241900D02*
X4127500Y37465000D01*
%TO.N,TX2*%
X17892700Y37034800D02*
X19367500Y35560000D01*
X21590000Y39370000D02*
X21590000Y41910000D01*
X6350000Y33655000D02*
X6350000Y36512500D01*
X19367500Y37147500D02*
X21590000Y39370000D01*
X8255000Y31750000D02*
X6350000Y33655000D01*
X6350000Y36512500D02*
X6872300Y37034800D01*
X6872300Y37034800D02*
X17892700Y37034800D01*
%TO.N,3V3_EN*%
X31750000Y5715000D02*
X31432500Y5397500D01*
X14922500Y14287500D02*
X14605000Y14605000D01*
X18836144Y5397500D02*
X18631344Y5602300D01*
X25868387Y5397501D02*
X18836144Y5397500D01*
X14922500Y7302500D02*
X14922500Y14287500D01*
X18631344Y5602300D02*
X18198656Y5602300D01*
X31432500Y5397500D02*
X25868388Y5397500D01*
X25868388Y5397500D02*
X25868387Y5397501D01*
X16827500Y5397500D02*
X14922500Y7302500D01*
X17993856Y5397500D02*
X16827500Y5397500D01*
X18198656Y5602300D02*
X17993856Y5397500D01*
%TO.N,GEO_STAT*%
X21326412Y33859800D02*
X27100200Y33859800D01*
X19988799Y32522187D02*
X21326412Y33859800D01*
X40640000Y34290000D02*
X40640000Y35560000D01*
X41160700Y33769300D02*
X40640000Y34290000D01*
X34607500Y36830000D02*
X33972500Y36195000D01*
X19988799Y7606299D02*
X19988799Y9207500D01*
X40640000Y35560000D02*
X40640000Y36512500D01*
X19797700Y6554800D02*
X19797700Y7415200D01*
X40322500Y36830000D02*
X34607500Y36830000D01*
X19988799Y9207500D02*
X19988799Y32522187D01*
X19797700Y7415200D02*
X19988799Y7606299D01*
X20320000Y6032500D02*
X19797700Y6554800D01*
X40640000Y36512500D02*
X40322500Y36830000D01*
X19754161Y9205032D02*
X19756629Y9207500D01*
X33972500Y36195000D02*
X33972500Y33972500D01*
X33972500Y33972500D02*
X33337500Y33337500D01*
X33337500Y33337500D02*
X27622500Y33337500D01*
X22860000Y6032500D02*
X20320000Y6032500D01*
X41592500Y33769300D02*
X41160700Y33769300D01*
X19756629Y9207500D02*
X19988799Y9207500D01*
X27100200Y33859800D02*
X27622500Y33337500D01*
%TO.N,Net-(JP9-A)*%
X9702800Y6489700D02*
X7620000Y8572500D01*
X9702800Y3492500D02*
X9702800Y6489700D01*
%TO.N,Net-(JP9-C)*%
X8077200Y6527800D02*
X7620000Y6985000D01*
X8077200Y3492500D02*
X8077200Y6527800D01*
%TO.N,Net-(JP10-B)*%
X24853900Y8166100D02*
X29210000Y8166100D01*
X24447500Y8572500D02*
X24853900Y8166100D01*
%TO.N,TX_READY*%
X31432500Y7937500D02*
X31432500Y8572500D01*
X23177500Y8572500D02*
X25082500Y6667500D01*
X25082500Y6667500D02*
X30162500Y6667500D01*
X30162500Y6667500D02*
X31432500Y7937500D01*
%TO.N,~{SAFEBOOT}*%
X30848615Y6083615D02*
X30848615Y6401115D01*
X30848615Y6401115D02*
X33020000Y8572500D01*
D23*
%TO.N,VOUT*%
X3175000Y31750000D02*
X2540000Y32385000D01*
X6667500Y31273750D02*
X6667500Y28257500D01*
X5397500Y31750000D02*
X3175000Y31750000D01*
X2540000Y32385000D02*
X2540000Y34290000D01*
X6191250Y31750000D02*
X6667500Y31273750D01*
X5397500Y31750000D02*
X6191250Y31750000D01*
X6667500Y28257500D02*
X8255000Y26670000D01*
D22*
%TO.N,Net-(JP8-A)*%
X41592500Y36195000D02*
X41592500Y34810700D01*
%TO.N,Net-(JP11-A)*%
X16827500Y8572500D02*
X17145000Y8890000D01*
X17145000Y8890000D02*
X17576800Y8890000D01*
X16827500Y7937500D02*
X16827500Y8572500D01*
%TO.N,Net-(JP11-B)*%
X18097500Y10477500D02*
X18618200Y9956800D01*
X17145000Y10477500D02*
X18097500Y10477500D01*
X18618200Y9956800D02*
X18618200Y8890000D01*
%TO.N,Net-(JP12-A)*%
X16827500Y6667500D02*
X17576800Y6667500D01*
%TD*%
%TA.AperFunction,Conductor*%
%TO.N,GND*%
G36*
X13440929Y43031935D02*
G01*
X13470993Y42979864D01*
X13460552Y42920650D01*
X13424334Y42886281D01*
X13384252Y42865859D01*
X13384245Y42865855D01*
X13241931Y42762458D01*
X13117542Y42638069D01*
X13014145Y42495755D01*
X13014141Y42495748D01*
X12934280Y42339013D01*
X12934277Y42339006D01*
X12879918Y42171704D01*
X12852549Y41998900D01*
X13467900Y41998900D01*
X13462000Y41976880D01*
X13462000Y41843120D01*
X13467900Y41821100D01*
X12852549Y41821100D01*
X12879918Y41648297D01*
X12934277Y41480995D01*
X12934280Y41480988D01*
X13014141Y41324253D01*
X13014145Y41324246D01*
X13117542Y41181932D01*
X13241931Y41057543D01*
X13384245Y40954146D01*
X13384252Y40954142D01*
X13540987Y40874281D01*
X13540994Y40874278D01*
X13708297Y40819919D01*
X13708295Y40819919D01*
X13881099Y40792550D01*
X13881100Y40792550D01*
X13881100Y41407901D01*
X13903120Y41402000D01*
X14036880Y41402000D01*
X14058900Y41407901D01*
X14058900Y40792550D01*
X14231703Y40819919D01*
X14399005Y40874278D01*
X14399012Y40874281D01*
X14555747Y40954142D01*
X14555754Y40954146D01*
X14698068Y41057543D01*
X14822457Y41181932D01*
X14925854Y41324246D01*
X14925858Y41324253D01*
X15005719Y41480988D01*
X15005722Y41480995D01*
X15060081Y41648297D01*
X15087451Y41821100D01*
X14472100Y41821100D01*
X14478000Y41843120D01*
X14478000Y41976880D01*
X14472100Y41998900D01*
X15087450Y41998900D01*
X15060081Y42171704D01*
X15005722Y42339006D01*
X15005719Y42339013D01*
X14925858Y42495748D01*
X14925854Y42495755D01*
X14822457Y42638069D01*
X14698068Y42762458D01*
X14555754Y42865855D01*
X14555747Y42865859D01*
X14515666Y42886281D01*
X14474659Y42930255D01*
X14471513Y42990300D01*
X14507699Y43038319D01*
X14555572Y43052500D01*
X15923325Y43052500D01*
X15979826Y43031935D01*
X16009890Y42979864D01*
X15999449Y42920650D01*
X15963231Y42886281D01*
X15955293Y42882237D01*
X15923986Y42866285D01*
X15781606Y42762839D01*
X15657161Y42638394D01*
X15553715Y42496013D01*
X15553713Y42496009D01*
X15473814Y42339197D01*
X15473813Y42339194D01*
X15419431Y42171821D01*
X15409019Y42106081D01*
X15391900Y41997996D01*
X15391900Y41822004D01*
X15396357Y41793863D01*
X15419431Y41648180D01*
X15473754Y41480988D01*
X15473816Y41480799D01*
X15553715Y41323988D01*
X15657161Y41181607D01*
X15781607Y41057161D01*
X15923988Y40953715D01*
X16080799Y40873816D01*
X16248178Y40819432D01*
X16422004Y40791900D01*
X16422006Y40791900D01*
X16597994Y40791900D01*
X16597996Y40791900D01*
X16771822Y40819432D01*
X16939201Y40873816D01*
X17096012Y40953715D01*
X17238393Y41057161D01*
X17362839Y41181607D01*
X17466285Y41323988D01*
X17546184Y41480799D01*
X17600568Y41648178D01*
X17628100Y41822004D01*
X17628100Y41997996D01*
X17600568Y42171822D01*
X17546184Y42339201D01*
X17466285Y42496012D01*
X17362839Y42638393D01*
X17238393Y42762839D01*
X17096013Y42866285D01*
X17069972Y42879553D01*
X17056768Y42886281D01*
X17015763Y42930255D01*
X17012616Y42990299D01*
X17048801Y43038319D01*
X17096675Y43052500D01*
X18463325Y43052500D01*
X18519826Y43031935D01*
X18549890Y42979864D01*
X18539449Y42920650D01*
X18503231Y42886281D01*
X18495293Y42882237D01*
X18463986Y42866285D01*
X18321606Y42762839D01*
X18197161Y42638394D01*
X18093715Y42496013D01*
X18093713Y42496009D01*
X18013814Y42339197D01*
X18013813Y42339194D01*
X17959431Y42171821D01*
X17949019Y42106081D01*
X17931900Y41997996D01*
X17931900Y41822004D01*
X17936357Y41793863D01*
X17959431Y41648180D01*
X18013754Y41480988D01*
X18013816Y41480799D01*
X18093715Y41323988D01*
X18197161Y41181607D01*
X18321607Y41057161D01*
X18463988Y40953715D01*
X18620799Y40873816D01*
X18788178Y40819432D01*
X18962004Y40791900D01*
X18962006Y40791900D01*
X19137994Y40791900D01*
X19137996Y40791900D01*
X19311822Y40819432D01*
X19479201Y40873816D01*
X19636012Y40953715D01*
X19778393Y41057161D01*
X19902839Y41181607D01*
X20006285Y41323988D01*
X20086184Y41480799D01*
X20140568Y41648178D01*
X20168100Y41822004D01*
X20168100Y41997996D01*
X20140568Y42171822D01*
X20086184Y42339201D01*
X20006285Y42496012D01*
X19902839Y42638393D01*
X19778393Y42762839D01*
X19636013Y42866285D01*
X19609972Y42879553D01*
X19596768Y42886281D01*
X19555763Y42930255D01*
X19552616Y42990299D01*
X19588801Y43038319D01*
X19636675Y43052500D01*
X21003325Y43052500D01*
X21059826Y43031935D01*
X21089890Y42979864D01*
X21079449Y42920650D01*
X21043231Y42886281D01*
X21035293Y42882237D01*
X21003986Y42866285D01*
X20861606Y42762839D01*
X20737161Y42638394D01*
X20633715Y42496013D01*
X20633713Y42496009D01*
X20553814Y42339197D01*
X20553813Y42339194D01*
X20499431Y42171821D01*
X20489019Y42106081D01*
X20471900Y41997996D01*
X20471900Y41822004D01*
X20476357Y41793863D01*
X20499431Y41648180D01*
X20553754Y41480988D01*
X20553816Y41480799D01*
X20633715Y41323988D01*
X20737161Y41181607D01*
X20861607Y41057161D01*
X21003988Y40953715D01*
X21160799Y40873816D01*
X21160804Y40873815D01*
X21160809Y40873812D01*
X21241113Y40847721D01*
X21262061Y40840915D01*
X21309443Y40803898D01*
X21322800Y40757317D01*
X21322800Y39517089D01*
X21302235Y39460588D01*
X21297055Y39454934D01*
X19473666Y37631545D01*
X19419172Y37606134D01*
X19411511Y37605800D01*
X19307164Y37605800D01*
X19190606Y37574570D01*
X19086095Y37514231D01*
X19000769Y37428905D01*
X18957228Y37353489D01*
X18911167Y37314840D01*
X18851040Y37314840D01*
X18818951Y37335283D01*
X18462713Y37691521D01*
X18364505Y37732200D01*
X4180649Y37732200D01*
X4074351Y37732200D01*
X4033673Y37715351D01*
X3976144Y37691522D01*
X1753043Y35468421D01*
X1753042Y35468422D01*
X1677880Y35393259D01*
X1677878Y35393257D01*
X1637200Y35295049D01*
X1637200Y31849845D01*
X1616635Y31793344D01*
X1611455Y31787690D01*
X1537669Y31713905D01*
X1477330Y31609394D01*
X1446100Y31492836D01*
X1446100Y31372165D01*
X1477330Y31255607D01*
X1477331Y31255604D01*
X1477332Y31255603D01*
X1537668Y31151097D01*
X1622997Y31065768D01*
X1727503Y31005432D01*
X1727505Y31005432D01*
X1727506Y31005431D01*
X1844064Y30974200D01*
X1964735Y30974200D01*
X1964736Y30974200D01*
X2081297Y31005432D01*
X2185803Y31065768D01*
X2271132Y31151097D01*
X2331468Y31255603D01*
X2362700Y31372164D01*
X2362700Y31492836D01*
X2331468Y31609397D01*
X2271132Y31713903D01*
X2197345Y31787690D01*
X2189234Y31805082D01*
X2176901Y31819781D01*
X2173569Y31838678D01*
X2171934Y31842184D01*
X2171600Y31849845D01*
X2171600Y32001667D01*
X2192165Y32058168D01*
X2244236Y32088232D01*
X2303450Y32077791D01*
X2321655Y32063822D01*
X2940753Y31444724D01*
X3027747Y31394498D01*
X3124775Y31368499D01*
X3124776Y31368499D01*
X3230607Y31368499D01*
X3230623Y31368500D01*
X4535355Y31368500D01*
X4560051Y31359511D01*
X4585470Y31352814D01*
X4589377Y31348838D01*
X4591856Y31347935D01*
X4607147Y31331319D01*
X4607786Y31330415D01*
X4633953Y31291253D01*
X4636793Y31289356D01*
X4643389Y31280019D01*
X4649437Y31257817D01*
X4659163Y31236961D01*
X4657158Y31229479D01*
X4659194Y31222006D01*
X4649555Y31201108D01*
X4643600Y31178883D01*
X4634078Y31167534D01*
X4634054Y31167499D01*
X4634012Y31167406D01*
X4633984Y31167393D01*
X4633953Y31167348D01*
X4633953Y31167347D01*
X4594545Y31108369D01*
X4584200Y31056360D01*
X4584200Y30360837D01*
X4584201Y30360835D01*
X4594543Y30308835D01*
X4594543Y30308834D01*
X4594544Y30308832D01*
X4594545Y30308831D01*
X4633953Y30249853D01*
X4692931Y30210445D01*
X4744939Y30200100D01*
X4928100Y30200101D01*
X4984601Y30179537D01*
X5014665Y30127465D01*
X5016000Y30112201D01*
X5016000Y21539776D01*
X5041997Y21442750D01*
X5092225Y21355752D01*
X7632222Y18815756D01*
X7632222Y18815755D01*
X7703249Y18744727D01*
X7703251Y18744726D01*
X7703253Y18744724D01*
X7790246Y18694499D01*
X7790248Y18694499D01*
X7790249Y18694498D01*
X7887275Y18668500D01*
X7987725Y18668500D01*
X11150623Y18668500D01*
X11194572Y18656724D01*
X11215997Y18644355D01*
X11253103Y18622932D01*
X11369664Y18591700D01*
X11490335Y18591700D01*
X11490336Y18591700D01*
X11606897Y18622932D01*
X11711403Y18683268D01*
X11796732Y18768597D01*
X11857068Y18873103D01*
X11888300Y18989664D01*
X11888300Y19110336D01*
X11857068Y19226897D01*
X11796732Y19331403D01*
X11711403Y19416732D01*
X11606897Y19477068D01*
X11606896Y19477069D01*
X11606893Y19477070D01*
X11490336Y19508300D01*
X11369664Y19508300D01*
X11253104Y19477069D01*
X11194572Y19443276D01*
X11150623Y19431500D01*
X8131932Y19431500D01*
X8075431Y19452065D01*
X8069777Y19457245D01*
X6061805Y21465218D01*
X5848123Y21678900D01*
X7137549Y21678900D01*
X7752900Y21678900D01*
X7747000Y21656880D01*
X7747000Y21523120D01*
X7752900Y21501100D01*
X7137549Y21501100D01*
X7164918Y21328297D01*
X7219277Y21160995D01*
X7219280Y21160988D01*
X7299141Y21004253D01*
X7299145Y21004246D01*
X7402542Y20861932D01*
X7526931Y20737543D01*
X7669245Y20634146D01*
X7669252Y20634142D01*
X7825987Y20554281D01*
X7825994Y20554278D01*
X7993297Y20499919D01*
X7993295Y20499919D01*
X8166099Y20472550D01*
X8166100Y20472550D01*
X8166100Y21087901D01*
X8188120Y21082000D01*
X8321880Y21082000D01*
X8343900Y21087901D01*
X8343900Y20472550D01*
X8516703Y20499919D01*
X8684005Y20554278D01*
X8684012Y20554281D01*
X8840747Y20634142D01*
X8840754Y20634146D01*
X8983068Y20737543D01*
X9107457Y20861932D01*
X9210854Y21004246D01*
X9210858Y21004253D01*
X9290719Y21160988D01*
X9290722Y21160995D01*
X9345081Y21328297D01*
X9372451Y21501100D01*
X8757100Y21501100D01*
X8763000Y21523120D01*
X8763000Y21656880D01*
X8757100Y21678900D01*
X9372450Y21678900D01*
X9345081Y21851704D01*
X9290722Y22019006D01*
X9290719Y22019013D01*
X9210858Y22175748D01*
X9210854Y22175755D01*
X9107457Y22318069D01*
X8983068Y22442458D01*
X8840754Y22545855D01*
X8840747Y22545859D01*
X8684012Y22625720D01*
X8684005Y22625723D01*
X8516703Y22680082D01*
X8343900Y22707451D01*
X8343900Y22092100D01*
X8321880Y22098000D01*
X8188120Y22098000D01*
X8166100Y22092100D01*
X8166100Y22707451D01*
X7993296Y22680082D01*
X7825994Y22625723D01*
X7825987Y22625720D01*
X7669252Y22545859D01*
X7669245Y22545855D01*
X7526931Y22442458D01*
X7402542Y22318069D01*
X7299145Y22175755D01*
X7299141Y22175748D01*
X7219280Y22019013D01*
X7219277Y22019006D01*
X7164918Y21851704D01*
X7137549Y21678900D01*
X5848123Y21678900D01*
X5804745Y21722278D01*
X5779334Y21776772D01*
X5779000Y21784433D01*
X5779000Y24217995D01*
X7136900Y24217995D01*
X7136900Y24042006D01*
X7164431Y23868180D01*
X7166526Y23861731D01*
X7218816Y23700799D01*
X7298715Y23543988D01*
X7402161Y23401607D01*
X7526607Y23277161D01*
X7668988Y23173715D01*
X7825799Y23093816D01*
X7993178Y23039432D01*
X8167004Y23011900D01*
X8167006Y23011900D01*
X8342994Y23011900D01*
X8342996Y23011900D01*
X8516822Y23039432D01*
X8684201Y23093816D01*
X8841012Y23173715D01*
X8983393Y23277161D01*
X9107839Y23401607D01*
X9211285Y23543988D01*
X9291184Y23700799D01*
X9345568Y23868178D01*
X9373100Y24042004D01*
X9373100Y24217996D01*
X9345568Y24391822D01*
X9291184Y24559201D01*
X9211285Y24716012D01*
X9107839Y24858393D01*
X8983393Y24982839D01*
X8841012Y25086285D01*
X8684201Y25166184D01*
X8684198Y25166185D01*
X8684196Y25166186D01*
X8684193Y25166187D01*
X8516820Y25220569D01*
X8398058Y25239379D01*
X8342996Y25248100D01*
X8167004Y25248100D01*
X8119470Y25240572D01*
X7993179Y25220569D01*
X7825806Y25166187D01*
X7825803Y25166186D01*
X7668991Y25086287D01*
X7668987Y25086285D01*
X7526606Y24982839D01*
X7402161Y24858394D01*
X7298715Y24716013D01*
X7298713Y24716009D01*
X7218814Y24559197D01*
X7218813Y24559194D01*
X7164431Y24391821D01*
X7136900Y24217995D01*
X5779000Y24217995D01*
X5779000Y30112201D01*
X5799565Y30168702D01*
X5851636Y30198766D01*
X5866900Y30200101D01*
X6050064Y30200101D01*
X6050065Y30200102D01*
X6102065Y30210444D01*
X6102066Y30210444D01*
X6102066Y30210445D01*
X6102069Y30210445D01*
X6149266Y30241982D01*
X6207669Y30256273D01*
X6261595Y30229679D01*
X6285812Y30174644D01*
X6286000Y30168895D01*
X6286000Y28207276D01*
X6311997Y28110250D01*
X6311998Y28110247D01*
X6311999Y28110246D01*
X6329113Y28080603D01*
X6362225Y28023252D01*
X7197271Y27188206D01*
X7222682Y27133712D01*
X7218714Y27098889D01*
X7164431Y26931821D01*
X7136900Y26757995D01*
X7136900Y26582006D01*
X7164431Y26408180D01*
X7164432Y26408178D01*
X7218816Y26240799D01*
X7298715Y26083988D01*
X7402161Y25941607D01*
X7526607Y25817161D01*
X7668988Y25713715D01*
X7825799Y25633816D01*
X7993178Y25579432D01*
X8167004Y25551900D01*
X8167006Y25551900D01*
X8342994Y25551900D01*
X8342996Y25551900D01*
X8516822Y25579432D01*
X8684201Y25633816D01*
X8841012Y25713715D01*
X8983393Y25817161D01*
X9107839Y25941607D01*
X9211285Y26083988D01*
X9291184Y26240799D01*
X9345568Y26408178D01*
X9373100Y26582004D01*
X9373100Y26757996D01*
X9345568Y26931822D01*
X9291184Y27099201D01*
X9211285Y27256012D01*
X9107839Y27398393D01*
X8983393Y27522839D01*
X8841012Y27626285D01*
X8684201Y27706184D01*
X8684198Y27706185D01*
X8684196Y27706186D01*
X8684193Y27706187D01*
X8516820Y27760569D01*
X8398058Y27779379D01*
X8342996Y27788100D01*
X8167004Y27788100D01*
X8119470Y27780572D01*
X7993179Y27760569D01*
X7826111Y27706286D01*
X7766020Y27708385D01*
X7736794Y27727729D01*
X7074745Y28389778D01*
X7049334Y28444272D01*
X7049000Y28451933D01*
X7049000Y28748868D01*
X7069565Y28805369D01*
X7121636Y28835433D01*
X7180850Y28824992D01*
X7217015Y28783758D01*
X7217249Y28783876D01*
X7217716Y28782958D01*
X7218106Y28782514D01*
X7218813Y28780807D01*
X7218816Y28780799D01*
X7298715Y28623988D01*
X7402161Y28481607D01*
X7526607Y28357161D01*
X7668988Y28253715D01*
X7825799Y28173816D01*
X7993178Y28119432D01*
X8167004Y28091900D01*
X8167006Y28091900D01*
X8342994Y28091900D01*
X8342996Y28091900D01*
X8516822Y28119432D01*
X8684201Y28173816D01*
X8841012Y28253715D01*
X8983393Y28357161D01*
X9107839Y28481607D01*
X9211285Y28623988D01*
X9291184Y28780799D01*
X9345568Y28948178D01*
X9373100Y29122004D01*
X9373100Y29297996D01*
X9345568Y29471822D01*
X9291184Y29639201D01*
X9211285Y29796012D01*
X9107839Y29938393D01*
X8983393Y30062839D01*
X8841012Y30166285D01*
X8684201Y30246184D01*
X8684198Y30246185D01*
X8684196Y30246186D01*
X8684193Y30246187D01*
X8516820Y30300569D01*
X8398058Y30319379D01*
X8342996Y30328100D01*
X8167004Y30328100D01*
X8119470Y30320572D01*
X7993179Y30300569D01*
X7825806Y30246187D01*
X7825803Y30246186D01*
X7668991Y30166287D01*
X7668987Y30166285D01*
X7526606Y30062839D01*
X7402161Y29938394D01*
X7298715Y29796013D01*
X7298713Y29796009D01*
X7218811Y29639191D01*
X7218103Y29637481D01*
X7217736Y29637082D01*
X7217249Y29636124D01*
X7216983Y29636260D01*
X7177474Y29593158D01*
X7117860Y29585320D01*
X7067155Y29617635D01*
X7049000Y29671133D01*
X7049000Y31288868D01*
X7069565Y31345369D01*
X7121636Y31375433D01*
X7180850Y31364992D01*
X7217015Y31323758D01*
X7217249Y31323876D01*
X7217716Y31322958D01*
X7218106Y31322514D01*
X7218813Y31320807D01*
X7218816Y31320799D01*
X7298715Y31163988D01*
X7402161Y31021607D01*
X7526607Y30897161D01*
X7668988Y30793715D01*
X7825799Y30713816D01*
X7993178Y30659432D01*
X8167004Y30631900D01*
X8167006Y30631900D01*
X8342994Y30631900D01*
X8342996Y30631900D01*
X8516822Y30659432D01*
X8684201Y30713816D01*
X8841012Y30793715D01*
X8983393Y30897161D01*
X9107839Y31021607D01*
X9211285Y31163988D01*
X9291184Y31320799D01*
X9345568Y31488178D01*
X9373100Y31662004D01*
X9373100Y31837996D01*
X9345568Y32011822D01*
X9291184Y32179201D01*
X9211285Y32336012D01*
X9107839Y32478393D01*
X8983393Y32602839D01*
X8841012Y32706285D01*
X8684201Y32786184D01*
X8684198Y32786185D01*
X8684196Y32786186D01*
X8684193Y32786187D01*
X8516820Y32840569D01*
X8398058Y32859379D01*
X8342996Y32868100D01*
X8167004Y32868100D01*
X8119470Y32860572D01*
X7993179Y32840569D01*
X7825806Y32786187D01*
X7825803Y32786186D01*
X7730928Y32737845D01*
X7671249Y32730518D01*
X7628868Y32754010D01*
X6642945Y33739933D01*
X6617534Y33794427D01*
X6617200Y33802088D01*
X6617200Y36365413D01*
X6623763Y36383446D01*
X6625436Y36402561D01*
X6636442Y36418282D01*
X6637765Y36421914D01*
X6642935Y36427558D01*
X6699213Y36483836D01*
X6753706Y36509246D01*
X6811784Y36493683D01*
X6846272Y36444430D01*
X6875430Y36335607D01*
X6875431Y36335604D01*
X6875432Y36335603D01*
X6935768Y36231097D01*
X7021097Y36145768D01*
X7125603Y36085432D01*
X7125605Y36085432D01*
X7125606Y36085431D01*
X7242164Y36054200D01*
X7362835Y36054200D01*
X7362836Y36054200D01*
X7479397Y36085432D01*
X7583903Y36145768D01*
X7657690Y36219555D01*
X7712184Y36244966D01*
X7719845Y36245300D01*
X8103403Y36245300D01*
X8159904Y36224735D01*
X8189968Y36172664D01*
X8179527Y36113453D01*
X8162709Y36084322D01*
X8145430Y36054394D01*
X8114200Y35937836D01*
X8114200Y35817165D01*
X8145430Y35700607D01*
X8145431Y35700604D01*
X8145432Y35700603D01*
X8201198Y35604012D01*
X8205769Y35596096D01*
X8243710Y35558155D01*
X8269121Y35503661D01*
X8253558Y35445583D01*
X8204305Y35411095D01*
X8181555Y35408100D01*
X8167004Y35408100D01*
X8119470Y35400572D01*
X7993179Y35380569D01*
X7825806Y35326187D01*
X7825803Y35326186D01*
X7668991Y35246287D01*
X7668987Y35246285D01*
X7526606Y35142839D01*
X7402161Y35018394D01*
X7298715Y34876013D01*
X7298713Y34876009D01*
X7218814Y34719197D01*
X7218813Y34719194D01*
X7164431Y34551821D01*
X7141260Y34405527D01*
X7136900Y34377996D01*
X7136900Y34202004D01*
X7145621Y34146942D01*
X7164431Y34028180D01*
X7198865Y33922200D01*
X7218816Y33860799D01*
X7298715Y33703988D01*
X7402161Y33561607D01*
X7526607Y33437161D01*
X7668988Y33333715D01*
X7825799Y33253816D01*
X7993178Y33199432D01*
X8167004Y33171900D01*
X8167006Y33171900D01*
X8342994Y33171900D01*
X8342996Y33171900D01*
X8516822Y33199432D01*
X8684201Y33253816D01*
X8841012Y33333715D01*
X8983393Y33437161D01*
X9107839Y33561607D01*
X9211285Y33703988D01*
X9291184Y33860799D01*
X9345568Y34028178D01*
X9373100Y34202004D01*
X9373100Y34377996D01*
X9345568Y34551822D01*
X9291184Y34719201D01*
X9211285Y34876012D01*
X9107839Y35018393D01*
X8983393Y35142839D01*
X8841012Y35246285D01*
X8748762Y35293289D01*
X8707756Y35337262D01*
X8704609Y35397307D01*
X8740794Y35445327D01*
X8744719Y35447732D01*
X8749394Y35450432D01*
X8749397Y35450432D01*
X8853903Y35510768D01*
X8927690Y35584555D01*
X8982184Y35609966D01*
X8989845Y35610300D01*
X11600412Y35610300D01*
X11656913Y35589735D01*
X11662567Y35584555D01*
X13028355Y34218767D01*
X13053766Y34164273D01*
X13054100Y34156612D01*
X13054100Y33390649D01*
X13054100Y17515649D01*
X13054100Y14520961D01*
X13054100Y14414663D01*
X13094779Y14316455D01*
X13919111Y13492123D01*
X13944522Y13437630D01*
X13944856Y13429969D01*
X13944856Y7113593D01*
X13944856Y7007295D01*
X13985535Y6909087D01*
X14666715Y6227907D01*
X15330979Y5563643D01*
X15582055Y5312567D01*
X15607466Y5258073D01*
X15607800Y5250412D01*
X15607800Y3592345D01*
X15587235Y3535844D01*
X15582055Y3530190D01*
X15508269Y3456405D01*
X15447930Y3351894D01*
X15416700Y3235336D01*
X15416700Y3114665D01*
X15447930Y2998107D01*
X15447931Y2998104D01*
X15447932Y2998103D01*
X15508268Y2893597D01*
X15593597Y2808268D01*
X15698103Y2747932D01*
X15698105Y2747932D01*
X15698106Y2747931D01*
X15814664Y2716700D01*
X15935335Y2716700D01*
X15935336Y2716700D01*
X16051897Y2747932D01*
X16156403Y2808268D01*
X16241732Y2893597D01*
X16302068Y2998103D01*
X16333300Y3114664D01*
X16333300Y3235336D01*
X16330112Y3247234D01*
X16335352Y3307131D01*
X16377869Y3349647D01*
X16437766Y3354888D01*
X16449664Y3351700D01*
X16449666Y3351700D01*
X16570335Y3351700D01*
X16570336Y3351700D01*
X16686897Y3382932D01*
X16791403Y3443268D01*
X16865190Y3517055D01*
X16919684Y3542466D01*
X16927345Y3542800D01*
X18902912Y3542800D01*
X18959413Y3522235D01*
X18965067Y3517055D01*
X20585990Y1896132D01*
X20611401Y1841638D01*
X20602155Y1794072D01*
X20553814Y1699197D01*
X20553813Y1699194D01*
X20499431Y1531821D01*
X20471900Y1357995D01*
X20471900Y1182006D01*
X20499431Y1008180D01*
X20553754Y840988D01*
X20553816Y840799D01*
X20631188Y688947D01*
X20633713Y683992D01*
X20633715Y683988D01*
X20737161Y541607D01*
X20861606Y417162D01*
X21003986Y313716D01*
X21003988Y313715D01*
X21043231Y293720D01*
X21084237Y249745D01*
X21087384Y189701D01*
X21051199Y141681D01*
X21003325Y127500D01*
X19636675Y127500D01*
X19580174Y148065D01*
X19550110Y200136D01*
X19560551Y259350D01*
X19596768Y293720D01*
X19636012Y313715D01*
X19778393Y417161D01*
X19902839Y541607D01*
X20006285Y683988D01*
X20086184Y840799D01*
X20140568Y1008178D01*
X20168100Y1182004D01*
X20168100Y1357996D01*
X20140568Y1531822D01*
X20086184Y1699201D01*
X20006285Y1856012D01*
X19902839Y1998393D01*
X19778393Y2122839D01*
X19636012Y2226285D01*
X19479201Y2306184D01*
X19479198Y2306185D01*
X19479196Y2306186D01*
X19479193Y2306187D01*
X19311820Y2360569D01*
X19193058Y2379379D01*
X19137996Y2388100D01*
X18962004Y2388100D01*
X18914470Y2380572D01*
X18788179Y2360569D01*
X18620806Y2306187D01*
X18620803Y2306186D01*
X18463991Y2226287D01*
X18463987Y2226285D01*
X18321606Y2122839D01*
X18197161Y1998394D01*
X18093715Y1856013D01*
X18093713Y1856009D01*
X18013814Y1699197D01*
X18013813Y1699194D01*
X17959431Y1531821D01*
X17931900Y1357995D01*
X17931900Y1182006D01*
X17959431Y1008180D01*
X18013754Y840988D01*
X18013816Y840799D01*
X18091188Y688947D01*
X18093713Y683992D01*
X18093715Y683988D01*
X18197161Y541607D01*
X18321606Y417162D01*
X18463986Y313716D01*
X18463988Y313715D01*
X18503231Y293720D01*
X18544237Y249745D01*
X18547384Y189701D01*
X18511199Y141681D01*
X18463325Y127500D01*
X17096675Y127500D01*
X17040174Y148065D01*
X17010110Y200136D01*
X17020551Y259350D01*
X17056768Y293720D01*
X17096012Y313715D01*
X17238393Y417161D01*
X17362839Y541607D01*
X17466285Y683988D01*
X17546184Y840799D01*
X17600568Y1008178D01*
X17628100Y1182004D01*
X17628100Y1357996D01*
X17600568Y1531822D01*
X17546184Y1699201D01*
X17466285Y1856012D01*
X17362839Y1998393D01*
X17238393Y2122839D01*
X17096012Y2226285D01*
X16939201Y2306184D01*
X16939198Y2306185D01*
X16939196Y2306186D01*
X16939193Y2306187D01*
X16771820Y2360569D01*
X16653058Y2379379D01*
X16597996Y2388100D01*
X16422004Y2388100D01*
X16374470Y2380572D01*
X16248179Y2360569D01*
X16080806Y2306187D01*
X16080803Y2306186D01*
X15923991Y2226287D01*
X15923987Y2226285D01*
X15781606Y2122839D01*
X15657161Y1998394D01*
X15553715Y1856013D01*
X15553713Y1856009D01*
X15473814Y1699197D01*
X15473813Y1699194D01*
X15419431Y1531821D01*
X15391900Y1357995D01*
X15391900Y1182006D01*
X15419431Y1008180D01*
X15473754Y840988D01*
X15473816Y840799D01*
X15551188Y688947D01*
X15553713Y683992D01*
X15553715Y683988D01*
X15657161Y541607D01*
X15781606Y417162D01*
X15923986Y313716D01*
X15923988Y313715D01*
X15963231Y293720D01*
X16004237Y249745D01*
X16007384Y189701D01*
X15971199Y141681D01*
X15923325Y127500D01*
X14555572Y127500D01*
X14499071Y148065D01*
X14469007Y200136D01*
X14479448Y259350D01*
X14515666Y293719D01*
X14555747Y314142D01*
X14555754Y314146D01*
X14698068Y417543D01*
X14822457Y541932D01*
X14925854Y684246D01*
X14925858Y684253D01*
X15005719Y840988D01*
X15005722Y840995D01*
X15060081Y1008297D01*
X15087451Y1181100D01*
X14472100Y1181100D01*
X14478000Y1203120D01*
X14478000Y1336880D01*
X14472100Y1358900D01*
X15087450Y1358900D01*
X15060081Y1531704D01*
X15005722Y1699006D01*
X15005719Y1699013D01*
X14925858Y1855748D01*
X14925854Y1855755D01*
X14822457Y1998069D01*
X14698068Y2122458D01*
X14555754Y2225855D01*
X14555747Y2225859D01*
X14399012Y2305720D01*
X14399005Y2305723D01*
X14231703Y2360082D01*
X14058900Y2387451D01*
X14058900Y1772100D01*
X14036880Y1778000D01*
X13903120Y1778000D01*
X13881100Y1772100D01*
X13881100Y2387451D01*
X13708296Y2360082D01*
X13540994Y2305723D01*
X13540987Y2305720D01*
X13384252Y2225859D01*
X13384245Y2225855D01*
X13241931Y2122458D01*
X13117542Y1998069D01*
X13014145Y1855755D01*
X13014141Y1855748D01*
X12934280Y1699013D01*
X12934277Y1699006D01*
X12879918Y1531704D01*
X12852549Y1358900D01*
X13467900Y1358900D01*
X13462000Y1336880D01*
X13462000Y1203120D01*
X13467900Y1181100D01*
X12852549Y1181100D01*
X12879918Y1008297D01*
X12934277Y840995D01*
X12934280Y840988D01*
X13014141Y684253D01*
X13014145Y684246D01*
X13117542Y541932D01*
X13241931Y417543D01*
X13384245Y314146D01*
X13384252Y314142D01*
X13424334Y293719D01*
X13465341Y249745D01*
X13468487Y189700D01*
X13432301Y141681D01*
X13384428Y127500D01*
X215400Y127500D01*
X158899Y148065D01*
X128835Y200136D01*
X127500Y215400D01*
X127500Y2658013D01*
X739500Y2658013D01*
X739500Y2421988D01*
X764927Y2228852D01*
X770307Y2187986D01*
X831394Y1960007D01*
X834407Y1952734D01*
X921713Y1741957D01*
X921714Y1741955D01*
X921716Y1741951D01*
X959503Y1676502D01*
X1039728Y1537548D01*
X1094567Y1466081D01*
X1183408Y1350301D01*
X1350301Y1183408D01*
X1537550Y1039727D01*
X1741951Y921716D01*
X1960007Y831394D01*
X2187986Y770307D01*
X2367541Y746669D01*
X2421987Y739500D01*
X2421989Y739500D01*
X2658013Y739500D01*
X2706784Y745922D01*
X2892014Y770307D01*
X3119993Y831394D01*
X3338049Y921716D01*
X3542450Y1039727D01*
X3729699Y1183408D01*
X3896592Y1350301D01*
X4040273Y1537550D01*
X4158284Y1741951D01*
X4248606Y1960007D01*
X4309693Y2187986D01*
X4340500Y2421989D01*
X4340500Y2658011D01*
X4337710Y2679200D01*
X4328662Y2747932D01*
X4309693Y2892014D01*
X4248606Y3119993D01*
X4158284Y3338049D01*
X4040273Y3542450D01*
X4040004Y3542800D01*
X3896594Y3729696D01*
X3896592Y3729699D01*
X3729699Y3896592D01*
X3708208Y3913082D01*
X3542452Y4040272D01*
X3433899Y4102945D01*
X3338049Y4158284D01*
X3338047Y4158285D01*
X3338045Y4158286D01*
X3338043Y4158287D01*
X3236059Y4200530D01*
X3119993Y4248606D01*
X3092223Y4256047D01*
X2892026Y4309690D01*
X2892014Y4309693D01*
X2658013Y4340500D01*
X2658011Y4340500D01*
X2421989Y4340500D01*
X2421987Y4340500D01*
X2187985Y4309693D01*
X2187973Y4309690D01*
X1960013Y4248608D01*
X1960009Y4248607D01*
X1960007Y4248606D01*
X1960005Y4248605D01*
X1741956Y4158287D01*
X1741954Y4158286D01*
X1537547Y4040272D01*
X1350304Y3896595D01*
X1183405Y3729696D01*
X1039728Y3542453D01*
X921714Y3338046D01*
X921713Y3338044D01*
X831395Y3119995D01*
X831392Y3119987D01*
X770310Y2892027D01*
X770307Y2892015D01*
X739500Y2658013D01*
X127500Y2658013D01*
X127500Y8172808D01*
X148065Y8229309D01*
X200136Y8259373D01*
X259350Y8248932D01*
X297999Y8202872D01*
X301611Y8189956D01*
X302765Y8184151D01*
X302768Y8184143D01*
X353895Y8060710D01*
X353895Y8060708D01*
X378656Y8023651D01*
X428130Y7949609D01*
X522609Y7855130D01*
X633704Y7780898D01*
X633706Y7780897D01*
X633708Y7780896D01*
X757142Y7729769D01*
X757150Y7729766D01*
X821446Y7716977D01*
X888193Y7703700D01*
X888195Y7703700D01*
X1621805Y7703700D01*
X1621807Y7703700D01*
X1708380Y7720921D01*
X1752849Y7729766D01*
X1752850Y7729767D01*
X1752853Y7729767D01*
X1876291Y7780896D01*
X1876292Y7780896D01*
X1876293Y7780897D01*
X1876296Y7780898D01*
X1987391Y7855130D01*
X2081870Y7949609D01*
X2156102Y8060704D01*
X2207233Y8184147D01*
X2207489Y8185431D01*
X2220120Y8248932D01*
X2233300Y8315193D01*
X2233300Y8448807D01*
X4206700Y8448807D01*
X4206700Y8315193D01*
X4209084Y8303209D01*
X4232765Y8184151D01*
X4232768Y8184143D01*
X4283895Y8060710D01*
X4283895Y8060708D01*
X4308656Y8023651D01*
X4358130Y7949609D01*
X4452609Y7855130D01*
X4563704Y7780898D01*
X4563706Y7780897D01*
X4563708Y7780896D01*
X4687142Y7729769D01*
X4687150Y7729766D01*
X4751446Y7716977D01*
X4818193Y7703700D01*
X4818195Y7703700D01*
X6051805Y7703700D01*
X6051807Y7703700D01*
X6138380Y7720921D01*
X6182849Y7729766D01*
X6182850Y7729767D01*
X6182853Y7729767D01*
X6306291Y7780896D01*
X6306292Y7780896D01*
X6306293Y7780897D01*
X6306296Y7780898D01*
X6417391Y7855130D01*
X6511870Y7949609D01*
X6586102Y8060704D01*
X6637233Y8184147D01*
X6637489Y8185431D01*
X6650120Y8248932D01*
X6663300Y8315193D01*
X6663300Y8448807D01*
X6649732Y8517019D01*
X6637234Y8579850D01*
X6637233Y8579852D01*
X6637233Y8579853D01*
X6615287Y8632836D01*
X7161700Y8632836D01*
X7161700Y8512164D01*
X7165945Y8496323D01*
X7192930Y8395607D01*
X7192931Y8395605D01*
X7192932Y8395603D01*
X7253268Y8291097D01*
X7338597Y8205768D01*
X7443103Y8145432D01*
X7443105Y8145432D01*
X7443106Y8145431D01*
X7559664Y8114200D01*
X7664012Y8114200D01*
X7720513Y8093635D01*
X7726167Y8088455D01*
X9409855Y6404767D01*
X9435266Y6350273D01*
X9435600Y6342612D01*
X9435600Y4391436D01*
X9430616Y4377745D01*
X9430934Y4363179D01*
X9420652Y4350370D01*
X9415035Y4334935D01*
X9402135Y4327299D01*
X9393298Y4316288D01*
X9364846Y4305224D01*
X9313544Y4295021D01*
X9279251Y4295022D01*
X9233864Y4304049D01*
X9225061Y4305800D01*
X9225060Y4305800D01*
X8554939Y4305800D01*
X8500743Y4295021D01*
X8498183Y4295022D01*
X8496971Y4294356D01*
X8466451Y4295022D01*
X8415153Y4305225D01*
X8363749Y4336416D01*
X8344400Y4391436D01*
X8344400Y6580948D01*
X8344400Y6580949D01*
X8303721Y6679157D01*
X8266656Y6716222D01*
X8228557Y6754322D01*
X8228557Y6754321D01*
X8104045Y6878833D01*
X8078634Y6933327D01*
X8078300Y6940988D01*
X8078300Y7045336D01*
X8047069Y7161894D01*
X8047068Y7161895D01*
X8047068Y7161897D01*
X7986732Y7266403D01*
X7901403Y7351732D01*
X7796897Y7412068D01*
X7796896Y7412069D01*
X7796893Y7412070D01*
X7680336Y7443300D01*
X7559664Y7443300D01*
X7443106Y7412070D01*
X7338595Y7351731D01*
X7253269Y7266405D01*
X7192930Y7161894D01*
X7161700Y7045336D01*
X7161700Y6924665D01*
X7192930Y6808107D01*
X7192931Y6808104D01*
X7192932Y6808103D01*
X7253268Y6703597D01*
X7338597Y6618268D01*
X7443103Y6557932D01*
X7443105Y6557932D01*
X7443106Y6557931D01*
X7559664Y6526700D01*
X7664012Y6526700D01*
X7682044Y6520137D01*
X7701160Y6518464D01*
X7716880Y6507458D01*
X7720513Y6506135D01*
X7726167Y6500955D01*
X7784255Y6442867D01*
X7809666Y6388373D01*
X7810000Y6380712D01*
X7810000Y4391436D01*
X7789435Y4334935D01*
X7739247Y4305225D01*
X7690133Y4295457D01*
X7631154Y4256048D01*
X7631152Y4256046D01*
X7591745Y4197069D01*
X7581400Y4145060D01*
X7581400Y2839937D01*
X7581401Y2839935D01*
X7591743Y2787935D01*
X7591743Y2787934D01*
X7591744Y2787932D01*
X7591745Y2787931D01*
X7631153Y2728953D01*
X7690131Y2689545D01*
X7742139Y2679200D01*
X8347594Y2679201D01*
X8404095Y2658636D01*
X8434159Y2606565D01*
X8432501Y2568560D01*
X8431700Y2565573D01*
X8431700Y2444895D01*
X8462930Y2328337D01*
X8462931Y2328334D01*
X8462932Y2328333D01*
X8523268Y2223827D01*
X8608597Y2138498D01*
X8646251Y2116759D01*
X8684901Y2070699D01*
X8684901Y2010572D01*
X8646253Y1964512D01*
X8602302Y1952735D01*
X7614898Y1952735D01*
X7614898Y688946D01*
X7614899Y688946D01*
X10211548Y688946D01*
X10211549Y688946D01*
X10211549Y1952735D01*
X9177698Y1952735D01*
X9121197Y1973300D01*
X9091133Y2025371D01*
X9101574Y2084585D01*
X9133748Y2116759D01*
X9171403Y2138498D01*
X9256732Y2223827D01*
X9317068Y2328333D01*
X9348300Y2444894D01*
X9348300Y2565566D01*
X9347500Y2568552D01*
X9347662Y2570408D01*
X9347548Y2571278D01*
X9347740Y2571304D01*
X9352740Y2628449D01*
X9395257Y2670965D01*
X9432400Y2679201D01*
X10037860Y2679201D01*
X10037864Y2679201D01*
X10037865Y2679202D01*
X10089865Y2689544D01*
X10089866Y2689544D01*
X10089866Y2689545D01*
X10089869Y2689545D01*
X10148847Y2728953D01*
X10188255Y2787931D01*
X10198600Y2839939D01*
X10198599Y4145060D01*
X10198599Y4145061D01*
X10198599Y4145064D01*
X10198598Y4145066D01*
X10188256Y4197066D01*
X10188256Y4197067D01*
X10168025Y4227345D01*
X10148847Y4256047D01*
X10089869Y4295455D01*
X10040750Y4305226D01*
X9989348Y4336417D01*
X9970000Y4391436D01*
X9970000Y6542848D01*
X9970000Y6542849D01*
X9929321Y6641057D01*
X9929319Y6641059D01*
X9854157Y6716222D01*
X9854157Y6716221D01*
X8104045Y8466333D01*
X8078634Y8520827D01*
X8078300Y8528488D01*
X8078300Y8632836D01*
X8047069Y8749394D01*
X8047068Y8749395D01*
X8047068Y8749397D01*
X7986732Y8853903D01*
X7901403Y8939232D01*
X7796897Y8999568D01*
X7796896Y8999569D01*
X7796893Y8999570D01*
X7680336Y9030800D01*
X7559664Y9030800D01*
X7443106Y8999570D01*
X7338595Y8939231D01*
X7253269Y8853905D01*
X7192930Y8749394D01*
X7164662Y8643891D01*
X7161700Y8632836D01*
X6615287Y8632836D01*
X6586104Y8703292D01*
X6586104Y8703293D01*
X6578352Y8714895D01*
X6511870Y8814391D01*
X6417391Y8908870D01*
X6306296Y8983102D01*
X6306294Y8983103D01*
X6306291Y8983105D01*
X6182857Y9034232D01*
X6182849Y9034235D01*
X6084344Y9053828D01*
X6051807Y9060300D01*
X4998309Y9060300D01*
X4941808Y9080865D01*
X4911744Y9132936D01*
X4922185Y9192150D01*
X4968245Y9230799D01*
X4975559Y9233105D01*
X4980765Y9234500D01*
X4980766Y9234500D01*
X5127135Y9273719D01*
X5258365Y9349485D01*
X5365515Y9456635D01*
X5441281Y9587865D01*
X5480500Y9734234D01*
X5480500Y9885766D01*
X5441281Y10032135D01*
X5365515Y10163365D01*
X5258365Y10270515D01*
X5206244Y10300607D01*
X5127133Y10346282D01*
X4980766Y10385500D01*
X4829234Y10385500D01*
X4682866Y10346282D01*
X4551637Y10270517D01*
X4444483Y10163363D01*
X4368718Y10032134D01*
X4342189Y9933124D01*
X4329500Y9885766D01*
X4329500Y9734234D01*
X4337511Y9704337D01*
X4368718Y9587867D01*
X4440298Y9463886D01*
X4444485Y9456635D01*
X4551635Y9349485D01*
X4682865Y9273719D01*
X4829234Y9234500D01*
X4834799Y9233009D01*
X4833980Y9229955D01*
X4877232Y9207427D01*
X4900230Y9151872D01*
X4882137Y9094531D01*
X4831420Y9062236D01*
X4821034Y9060580D01*
X4818196Y9060301D01*
X4687150Y9034235D01*
X4687142Y9034232D01*
X4563709Y8983105D01*
X4563707Y8983105D01*
X4452611Y8908872D01*
X4358128Y8814389D01*
X4283895Y8703293D01*
X4283895Y8703291D01*
X4232768Y8579858D01*
X4232765Y8579850D01*
X4210186Y8466333D01*
X4206700Y8448807D01*
X2233300Y8448807D01*
X2219732Y8517019D01*
X2207234Y8579850D01*
X2207232Y8579854D01*
X2156104Y8703292D01*
X2156104Y8703293D01*
X2148352Y8714895D01*
X2081870Y8814391D01*
X1987391Y8908870D01*
X1876296Y8983102D01*
X1876294Y8983103D01*
X1876291Y8983105D01*
X1752859Y9034231D01*
X1752856Y9034232D01*
X1752853Y9034233D01*
X1718498Y9041067D01*
X1667097Y9072259D01*
X1647750Y9127277D01*
X1647750Y11582901D01*
X1668315Y11639402D01*
X1720386Y11669466D01*
X1735650Y11670801D01*
X1918814Y11670801D01*
X1918815Y11670802D01*
X1970815Y11681144D01*
X1970816Y11681144D01*
X1970816Y11681145D01*
X1970819Y11681145D01*
X2029797Y11720553D01*
X2069205Y11779531D01*
X2074835Y11807836D01*
X4621700Y11807836D01*
X4621700Y11687164D01*
X4623313Y11681145D01*
X4652930Y11570607D01*
X4652931Y11570604D01*
X4652932Y11570603D01*
X4713268Y11466097D01*
X4798597Y11380768D01*
X4903103Y11320432D01*
X4903105Y11320432D01*
X4903106Y11320431D01*
X5019664Y11289200D01*
X5140335Y11289200D01*
X5140336Y11289200D01*
X5256897Y11320432D01*
X5361403Y11380768D01*
X5393280Y11412645D01*
X5447774Y11438056D01*
X5455435Y11438390D01*
X5755694Y11438390D01*
X5755695Y11438390D01*
X5834312Y11459456D01*
X5904798Y11500151D01*
X7202453Y12797807D01*
X7241858Y12820555D01*
X7247707Y12822122D01*
X7352213Y12882458D01*
X7437542Y12967787D01*
X7497878Y13072293D01*
X7529110Y13188854D01*
X7529110Y13309526D01*
X7497878Y13426087D01*
X7437542Y13530593D01*
X7352213Y13615922D01*
X7247707Y13676258D01*
X7247706Y13676259D01*
X7247703Y13676260D01*
X7131146Y13707490D01*
X7010474Y13707490D01*
X6893916Y13676260D01*
X6789405Y13615921D01*
X6704079Y13530595D01*
X6643740Y13426084D01*
X6612510Y13309526D01*
X6612510Y13188853D01*
X6621922Y13153726D01*
X6616681Y13093828D01*
X6599172Y13068822D01*
X5612708Y12082355D01*
X5595316Y12074245D01*
X5580617Y12061911D01*
X5561720Y12058580D01*
X5558214Y12056944D01*
X5550553Y12056610D01*
X5455435Y12056610D01*
X5398934Y12077175D01*
X5393280Y12082355D01*
X5361404Y12114231D01*
X5361403Y12114232D01*
X5256897Y12174568D01*
X5256896Y12174569D01*
X5256893Y12174570D01*
X5140336Y12205800D01*
X5019664Y12205800D01*
X4903106Y12174570D01*
X4798595Y12114231D01*
X4713269Y12028905D01*
X4652930Y11924394D01*
X4628050Y11831535D01*
X4621700Y11807836D01*
X2074835Y11807836D01*
X2079550Y11831539D01*
X2079549Y12527060D01*
X2079549Y12527061D01*
X2079549Y12527064D01*
X2079548Y12527066D01*
X2069206Y12579066D01*
X2069206Y12579067D01*
X2069205Y12579069D01*
X2029797Y12638047D01*
X2029793Y12638050D01*
X2029637Y12638206D01*
X2029513Y12638471D01*
X2024987Y12645245D01*
X2026029Y12645942D01*
X2004226Y12692700D01*
X2019789Y12750778D01*
X2029313Y12762130D01*
X2068733Y12821125D01*
X2079050Y12872988D01*
X2079050Y13131799D01*
X2079049Y13131800D01*
X453452Y13131800D01*
X453451Y13131799D01*
X453451Y12872992D01*
X463766Y12821125D01*
X507873Y12755117D01*
X506683Y12754323D01*
X528274Y12708022D01*
X512711Y12649944D01*
X502863Y12638206D01*
X502702Y12638046D01*
X463295Y12579069D01*
X452950Y12527060D01*
X452950Y11831537D01*
X452951Y11831535D01*
X463293Y11779535D01*
X463293Y11779534D01*
X463294Y11779532D01*
X463295Y11779531D01*
X502703Y11720553D01*
X561681Y11681145D01*
X613689Y11670800D01*
X796850Y11670801D01*
X853351Y11650237D01*
X883415Y11598165D01*
X884750Y11582901D01*
X884750Y9131753D01*
X864185Y9075252D01*
X814000Y9045543D01*
X757147Y9034233D01*
X757144Y9034232D01*
X757140Y9034231D01*
X633709Y8983105D01*
X633707Y8983105D01*
X522611Y8908872D01*
X428128Y8814389D01*
X353895Y8703293D01*
X353895Y8703291D01*
X302768Y8579858D01*
X302766Y8579851D01*
X301611Y8574044D01*
X270418Y8522640D01*
X213481Y8503314D01*
X157443Y8525107D01*
X128523Y8577822D01*
X127500Y8591193D01*
X127500Y13568413D01*
X453450Y13568413D01*
X453450Y13309601D01*
X453451Y13309600D01*
X1177349Y13309600D01*
X1177350Y13309601D01*
X1177350Y13728699D01*
X1355150Y13728699D01*
X1355150Y13309601D01*
X1355151Y13309600D01*
X2079048Y13309600D01*
X2079049Y13309601D01*
X2079049Y13568409D01*
X2068733Y13620276D01*
X2029438Y13679083D01*
X2029432Y13679089D01*
X1970625Y13718384D01*
X1918763Y13728700D01*
X1355151Y13728700D01*
X1355150Y13728699D01*
X1177350Y13728699D01*
X1177349Y13728700D01*
X613736Y13728700D01*
X613734Y13728699D01*
X561878Y13718386D01*
X561874Y13718384D01*
X503067Y13679089D01*
X503061Y13679083D01*
X463766Y13620276D01*
X453450Y13568413D01*
X127500Y13568413D01*
X127500Y16808808D01*
X148065Y16865309D01*
X200136Y16895373D01*
X259350Y16884932D01*
X297999Y16838872D01*
X301611Y16825956D01*
X302765Y16820151D01*
X302768Y16820143D01*
X353895Y16696710D01*
X353895Y16696708D01*
X353898Y16696704D01*
X428130Y16585609D01*
X522609Y16491130D01*
X633704Y16416898D01*
X633706Y16416897D01*
X633708Y16416896D01*
X757142Y16365769D01*
X757150Y16365766D01*
X823116Y16352645D01*
X888193Y16339700D01*
X888195Y16339700D01*
X1621805Y16339700D01*
X1621807Y16339700D01*
X1708380Y16356921D01*
X1752849Y16365766D01*
X1752850Y16365767D01*
X1752853Y16365767D01*
X1876291Y16416896D01*
X1876292Y16416896D01*
X1876293Y16416897D01*
X1876296Y16416898D01*
X1987391Y16491130D01*
X2081870Y16585609D01*
X2156102Y16696704D01*
X2207233Y16820147D01*
X2208389Y16825956D01*
X2220120Y16884932D01*
X2233300Y16951193D01*
X2233300Y17084807D01*
X4206700Y17084807D01*
X4206700Y16951193D01*
X4209510Y16937068D01*
X4232765Y16820151D01*
X4232768Y16820143D01*
X4283895Y16696710D01*
X4283895Y16696708D01*
X4283898Y16696704D01*
X4358130Y16585609D01*
X4452609Y16491130D01*
X4563704Y16416898D01*
X4563706Y16416897D01*
X4563708Y16416896D01*
X4687142Y16365769D01*
X4687150Y16365766D01*
X4731027Y16357039D01*
X4818193Y16339700D01*
X4818202Y16339700D01*
X4821022Y16339422D01*
X4822035Y16338937D01*
X4822428Y16338858D01*
X4822407Y16338758D01*
X4875237Y16313423D01*
X4900056Y16258657D01*
X4883866Y16200751D01*
X4834756Y16167151D01*
X4834799Y16166991D01*
X4834344Y16166870D01*
X4834242Y16166799D01*
X4833657Y16166686D01*
X4682866Y16126282D01*
X4551637Y16050517D01*
X4444483Y15943363D01*
X4368718Y15812134D01*
X4329500Y15665766D01*
X4329500Y15514234D01*
X4331840Y15505501D01*
X4368718Y15367867D01*
X4421701Y15276097D01*
X4444485Y15236635D01*
X4551635Y15129485D01*
X4682865Y15053719D01*
X4829234Y15014500D01*
X4980765Y15014500D01*
X4980766Y15014500D01*
X5127135Y15053719D01*
X5258365Y15129485D01*
X5365515Y15236635D01*
X5441281Y15367865D01*
X5480500Y15514234D01*
X5480500Y15665766D01*
X5441281Y15812135D01*
X5365515Y15943365D01*
X5258365Y16050515D01*
X5241950Y16059992D01*
X5127133Y16126282D01*
X5020442Y16154869D01*
X4980766Y16165500D01*
X4980765Y16165500D01*
X4975559Y16166895D01*
X4926306Y16201382D01*
X4910743Y16259461D01*
X4936154Y16313954D01*
X4990648Y16339365D01*
X4998309Y16339700D01*
X6051805Y16339700D01*
X6051807Y16339700D01*
X6138380Y16356921D01*
X6182849Y16365766D01*
X6182850Y16365767D01*
X6182853Y16365767D01*
X6306291Y16416896D01*
X6306292Y16416896D01*
X6306293Y16416897D01*
X6306296Y16416898D01*
X6417391Y16491130D01*
X6511870Y16585609D01*
X6586102Y16696704D01*
X6637233Y16820147D01*
X6638389Y16825956D01*
X6650120Y16884932D01*
X6663300Y16951193D01*
X6663300Y17084807D01*
X6648123Y17161107D01*
X6637234Y17215850D01*
X6637231Y17215858D01*
X6597022Y17312932D01*
X6586104Y17339292D01*
X6586104Y17339293D01*
X6542077Y17405183D01*
X6511870Y17450391D01*
X6417391Y17544870D01*
X6306296Y17619102D01*
X6306294Y17619103D01*
X6306291Y17619105D01*
X6182857Y17670232D01*
X6182849Y17670235D01*
X6084344Y17689828D01*
X6051807Y17696300D01*
X4818193Y17696300D01*
X4789249Y17690543D01*
X4687150Y17670235D01*
X4687142Y17670232D01*
X4563709Y17619105D01*
X4563707Y17619105D01*
X4452611Y17544872D01*
X4358128Y17450389D01*
X4283895Y17339293D01*
X4283895Y17339291D01*
X4232768Y17215858D01*
X4232765Y17215850D01*
X4221386Y17158640D01*
X4206700Y17084807D01*
X2233300Y17084807D01*
X2218123Y17161107D01*
X2207234Y17215850D01*
X2207231Y17215858D01*
X2167022Y17312932D01*
X2156104Y17339292D01*
X2156104Y17339293D01*
X2112077Y17405183D01*
X2081870Y17450391D01*
X1987391Y17544870D01*
X1876296Y17619102D01*
X1876294Y17619103D01*
X1876291Y17619105D01*
X1752857Y17670232D01*
X1752849Y17670235D01*
X1654344Y17689828D01*
X1621807Y17696300D01*
X888193Y17696300D01*
X859249Y17690543D01*
X757150Y17670235D01*
X757142Y17670232D01*
X633709Y17619105D01*
X633707Y17619105D01*
X522611Y17544872D01*
X428128Y17450389D01*
X353895Y17339293D01*
X353895Y17339291D01*
X302768Y17215858D01*
X302766Y17215851D01*
X301611Y17210044D01*
X270418Y17158640D01*
X213481Y17139314D01*
X157443Y17161107D01*
X128523Y17213822D01*
X127500Y17227193D01*
X127500Y18463326D01*
X148065Y18519827D01*
X200136Y18549891D01*
X259350Y18539450D01*
X293720Y18503231D01*
X313712Y18463992D01*
X313715Y18463988D01*
X417161Y18321607D01*
X541607Y18197161D01*
X683988Y18093715D01*
X840799Y18013816D01*
X1008178Y17959432D01*
X1182004Y17931900D01*
X1182006Y17931900D01*
X1357994Y17931900D01*
X1357996Y17931900D01*
X1531822Y17959432D01*
X1699201Y18013816D01*
X1856012Y18093715D01*
X1998393Y18197161D01*
X2122839Y18321607D01*
X2226285Y18463988D01*
X2306184Y18620799D01*
X2306184Y18620802D01*
X2306849Y18622105D01*
X2350823Y18663112D01*
X2385169Y18670100D01*
X6153967Y18670100D01*
X6210468Y18649535D01*
X6216122Y18644355D01*
X7530255Y17330222D01*
X7555666Y17275728D01*
X7556000Y17268067D01*
X7556000Y15429377D01*
X7544224Y15385428D01*
X7510431Y15326896D01*
X7479200Y15210336D01*
X7479200Y15089665D01*
X7510430Y14973107D01*
X7510431Y14973104D01*
X7510432Y14973103D01*
X7570768Y14868597D01*
X7656097Y14783268D01*
X7760603Y14722932D01*
X7760605Y14722932D01*
X7760606Y14722931D01*
X7877164Y14691700D01*
X7997835Y14691700D01*
X7997836Y14691700D01*
X8114397Y14722932D01*
X8157704Y14747935D01*
X8172928Y14756724D01*
X8216877Y14768500D01*
X8468067Y14768500D01*
X8524568Y14747935D01*
X8530222Y14742755D01*
X9117755Y14155222D01*
X9143166Y14100728D01*
X9143500Y14093067D01*
X9143500Y12979377D01*
X9131724Y12935428D01*
X9097931Y12876896D01*
X9067181Y12762130D01*
X9066700Y12760336D01*
X9066700Y12639664D01*
X9067134Y12638046D01*
X9097931Y12523105D01*
X9131724Y12464574D01*
X9143500Y12420624D01*
X9143500Y11624433D01*
X9122935Y11567932D01*
X9117755Y11562278D01*
X8212722Y10657245D01*
X8158228Y10631834D01*
X8150567Y10631500D01*
X7581877Y10631500D01*
X7537928Y10643276D01*
X7479395Y10677069D01*
X7362836Y10708300D01*
X7242164Y10708300D01*
X7125606Y10677070D01*
X7021095Y10616731D01*
X6935769Y10531405D01*
X6875430Y10426894D01*
X6844200Y10310336D01*
X6844200Y10189665D01*
X6875430Y10073107D01*
X6875431Y10073104D01*
X6875432Y10073103D01*
X6935768Y9968597D01*
X7021097Y9883268D01*
X7125603Y9822932D01*
X7125605Y9822932D01*
X7125606Y9822931D01*
X7242164Y9791700D01*
X7362835Y9791700D01*
X7362836Y9791700D01*
X7479397Y9822932D01*
X7520253Y9846521D01*
X7537928Y9856724D01*
X7581877Y9868500D01*
X8395224Y9868500D01*
X8395225Y9868500D01*
X8492254Y9894499D01*
X8579247Y9944724D01*
X8650276Y10015753D01*
X9830276Y11195753D01*
X9832533Y11199663D01*
X9880501Y11282746D01*
X9906500Y11379775D01*
X9906500Y12420624D01*
X9918276Y12464574D01*
X9952068Y12523103D01*
X9983300Y12639664D01*
X9983300Y12760336D01*
X9952068Y12876897D01*
X9918276Y12935428D01*
X9906500Y12979377D01*
X9906500Y14337725D01*
X9903791Y14347836D01*
X11924200Y14347836D01*
X11924200Y14227164D01*
X11925731Y14221451D01*
X11955430Y14110607D01*
X11955431Y14110604D01*
X11955432Y14110603D01*
X12015768Y14006097D01*
X12101097Y13920768D01*
X12205603Y13860432D01*
X12267322Y13843895D01*
X12316576Y13809408D01*
X12332473Y13758990D01*
X12332473Y11482261D01*
X12311908Y11425760D01*
X12267323Y11397356D01*
X12205606Y11380820D01*
X12101095Y11320481D01*
X12015769Y11235155D01*
X11955430Y11130644D01*
X11924200Y11014086D01*
X11924200Y10893415D01*
X11955430Y10776857D01*
X11955431Y10776854D01*
X11955432Y10776853D01*
X12015768Y10672347D01*
X12101097Y10587018D01*
X12205603Y10526682D01*
X12205605Y10526682D01*
X12205606Y10526681D01*
X12322164Y10495450D01*
X12442835Y10495450D01*
X12442836Y10495450D01*
X12559397Y10526682D01*
X12663903Y10587018D01*
X12683760Y10606876D01*
X12738249Y10632287D01*
X12796328Y10616728D01*
X12808069Y10606877D01*
X12817887Y10597059D01*
X12922393Y10536723D01*
X12922395Y10536723D01*
X12922396Y10536722D01*
X13038954Y10505491D01*
X13159625Y10505491D01*
X13159626Y10505491D01*
X13276187Y10536723D01*
X13380693Y10597059D01*
X13466022Y10682388D01*
X13526358Y10786894D01*
X13557590Y10903455D01*
X13557590Y11024127D01*
X13529049Y11130644D01*
X13526359Y11140685D01*
X13526358Y11140686D01*
X13526358Y11140688D01*
X13466022Y11245194D01*
X13380693Y11330523D01*
X13276187Y11390859D01*
X13276186Y11390860D01*
X13276183Y11390861D01*
X13159626Y11422091D01*
X13038954Y11422091D01*
X12977523Y11405631D01*
X12917624Y11410872D01*
X12875108Y11453388D01*
X12866873Y11490536D01*
X12866873Y14123475D01*
X12866873Y14123476D01*
X12845588Y14174861D01*
X12842574Y14221119D01*
X12840048Y14221451D01*
X12840800Y14227163D01*
X12840800Y14347836D01*
X12809569Y14464394D01*
X12809568Y14464396D01*
X12809568Y14464397D01*
X12749232Y14568903D01*
X12663903Y14654232D01*
X12559397Y14714568D01*
X12559396Y14714569D01*
X12559393Y14714570D01*
X12442836Y14745800D01*
X12322164Y14745800D01*
X12205606Y14714570D01*
X12101095Y14654231D01*
X12015769Y14568905D01*
X11955430Y14464394D01*
X11924200Y14347836D01*
X9903791Y14347836D01*
X9880502Y14434751D01*
X9880501Y14434752D01*
X9880501Y14434754D01*
X9830276Y14521747D01*
X9759247Y14592776D01*
X8896747Y15455276D01*
X8809754Y15505501D01*
X8809753Y15505502D01*
X8809750Y15505503D01*
X8712725Y15531500D01*
X8406900Y15531500D01*
X8350399Y15552065D01*
X8320335Y15604136D01*
X8319000Y15619400D01*
X8319000Y17405183D01*
X8319001Y17405196D01*
X8319001Y17512725D01*
X8293002Y17609753D01*
X8258084Y17670232D01*
X8242776Y17696747D01*
X6582647Y19356876D01*
X6559083Y19370481D01*
X6559083Y19370482D01*
X6495652Y19407102D01*
X6398625Y19433100D01*
X2383538Y19433100D01*
X2327037Y19453665D01*
X2305220Y19481092D01*
X2226285Y19636012D01*
X2122839Y19778393D01*
X1998393Y19902839D01*
X1856012Y20006285D01*
X1699201Y20086184D01*
X1699198Y20086185D01*
X1699196Y20086186D01*
X1699193Y20086187D01*
X1531820Y20140569D01*
X1413058Y20159379D01*
X1357996Y20168100D01*
X1182004Y20168100D01*
X1134470Y20160572D01*
X1008179Y20140569D01*
X840806Y20086187D01*
X840803Y20086186D01*
X683991Y20006287D01*
X683987Y20006285D01*
X541606Y19902839D01*
X417161Y19778394D01*
X313715Y19636014D01*
X293720Y19596769D01*
X249745Y19555763D01*
X189701Y19552616D01*
X141681Y19588801D01*
X127500Y19636675D01*
X127500Y21004429D01*
X148065Y21060930D01*
X200136Y21090994D01*
X259350Y21080553D01*
X293720Y21044335D01*
X314147Y21004245D01*
X417542Y20861932D01*
X541931Y20737543D01*
X684245Y20634146D01*
X684252Y20634142D01*
X840987Y20554281D01*
X840994Y20554278D01*
X1008297Y20499919D01*
X1008295Y20499919D01*
X1181099Y20472550D01*
X1181100Y20472550D01*
X1181100Y21087901D01*
X1203120Y21082000D01*
X1336880Y21082000D01*
X1358900Y21087901D01*
X1358900Y20472550D01*
X1531703Y20499919D01*
X1699005Y20554278D01*
X1699012Y20554281D01*
X1855747Y20634142D01*
X1855754Y20634146D01*
X1998068Y20737543D01*
X2122457Y20861932D01*
X2225854Y21004246D01*
X2225858Y21004253D01*
X2305719Y21160988D01*
X2305722Y21160995D01*
X2360081Y21328297D01*
X2387451Y21501100D01*
X1772100Y21501100D01*
X1778000Y21523120D01*
X1778000Y21656880D01*
X1772100Y21678900D01*
X2387450Y21678900D01*
X2360081Y21851704D01*
X2305722Y22019006D01*
X2305719Y22019013D01*
X2225858Y22175748D01*
X2225854Y22175755D01*
X2122457Y22318069D01*
X1998068Y22442458D01*
X1855754Y22545855D01*
X1855747Y22545859D01*
X1699012Y22625720D01*
X1699005Y22625723D01*
X1531703Y22680082D01*
X1358900Y22707451D01*
X1358900Y22092100D01*
X1336880Y22098000D01*
X1203120Y22098000D01*
X1181100Y22092100D01*
X1181100Y22707451D01*
X1008296Y22680082D01*
X840994Y22625723D01*
X840987Y22625720D01*
X684252Y22545859D01*
X684245Y22545855D01*
X541931Y22442458D01*
X417542Y22318069D01*
X314145Y22175755D01*
X314141Y22175748D01*
X293719Y22135666D01*
X249745Y22094659D01*
X189700Y22091513D01*
X141681Y22127699D01*
X127500Y22175572D01*
X127500Y23543326D01*
X148065Y23599827D01*
X200136Y23629891D01*
X259350Y23619450D01*
X293720Y23583231D01*
X313712Y23543992D01*
X313715Y23543988D01*
X417161Y23401607D01*
X541607Y23277161D01*
X683988Y23173715D01*
X840799Y23093816D01*
X1008178Y23039432D01*
X1182004Y23011900D01*
X1182006Y23011900D01*
X1357994Y23011900D01*
X1357996Y23011900D01*
X1531822Y23039432D01*
X1699201Y23093816D01*
X1856012Y23173715D01*
X1998393Y23277161D01*
X2122839Y23401607D01*
X2226285Y23543988D01*
X2306184Y23700799D01*
X2360568Y23868178D01*
X2388100Y24042004D01*
X2388100Y24217996D01*
X2360568Y24391822D01*
X2306184Y24559201D01*
X2226285Y24716012D01*
X2122839Y24858393D01*
X1998393Y24982839D01*
X1856012Y25086285D01*
X1699201Y25166184D01*
X1699198Y25166185D01*
X1699196Y25166186D01*
X1699193Y25166187D01*
X1531820Y25220569D01*
X1413058Y25239379D01*
X1357996Y25248100D01*
X1182004Y25248100D01*
X1134470Y25240572D01*
X1008179Y25220569D01*
X840806Y25166187D01*
X840803Y25166186D01*
X683991Y25086287D01*
X683987Y25086285D01*
X541606Y24982839D01*
X417161Y24858394D01*
X313715Y24716014D01*
X293720Y24676769D01*
X249745Y24635763D01*
X189701Y24632616D01*
X141681Y24668801D01*
X127500Y24716675D01*
X127500Y26083326D01*
X148065Y26139827D01*
X200136Y26169891D01*
X259350Y26159450D01*
X293720Y26123231D01*
X313712Y26083992D01*
X313715Y26083988D01*
X417161Y25941607D01*
X541607Y25817161D01*
X683988Y25713715D01*
X840799Y25633816D01*
X1008178Y25579432D01*
X1182004Y25551900D01*
X1182006Y25551900D01*
X1357994Y25551900D01*
X1357996Y25551900D01*
X1531822Y25579432D01*
X1699201Y25633816D01*
X1856012Y25713715D01*
X1998393Y25817161D01*
X2122839Y25941607D01*
X2226285Y26083988D01*
X2306184Y26240799D01*
X2360568Y26408178D01*
X2388100Y26582004D01*
X2388100Y26757996D01*
X2360568Y26931822D01*
X2306184Y27099201D01*
X2226285Y27256012D01*
X2122839Y27398393D01*
X1998393Y27522839D01*
X1856012Y27626285D01*
X1699201Y27706184D01*
X1699198Y27706185D01*
X1699196Y27706186D01*
X1699193Y27706187D01*
X1531820Y27760569D01*
X1413058Y27779379D01*
X1357996Y27788100D01*
X1182004Y27788100D01*
X1134470Y27780572D01*
X1008179Y27760569D01*
X840806Y27706187D01*
X840803Y27706186D01*
X683991Y27626287D01*
X683987Y27626285D01*
X541606Y27522839D01*
X417161Y27398394D01*
X313715Y27256014D01*
X293720Y27216769D01*
X249745Y27175763D01*
X189701Y27172616D01*
X141681Y27208801D01*
X127500Y27256675D01*
X127500Y40758011D01*
X739500Y40758011D01*
X739500Y40521989D01*
X770307Y40287986D01*
X831394Y40060007D01*
X879470Y39943941D01*
X921713Y39841957D01*
X921714Y39841955D01*
X921716Y39841951D01*
X947628Y39797070D01*
X1039728Y39637548D01*
X1132160Y39517089D01*
X1183408Y39450301D01*
X1350301Y39283408D01*
X1537550Y39139727D01*
X1741951Y39021716D01*
X1960007Y38931394D01*
X2187986Y38870307D01*
X2367541Y38846669D01*
X2421987Y38839500D01*
X2421989Y38839500D01*
X2658013Y38839500D01*
X2706784Y38845922D01*
X2892014Y38870307D01*
X3119993Y38931394D01*
X3338049Y39021716D01*
X3542450Y39139727D01*
X3729699Y39283408D01*
X3876627Y39430336D01*
X9066700Y39430336D01*
X9066700Y39309665D01*
X9097930Y39193107D01*
X9097931Y39193104D01*
X9097932Y39193103D01*
X9158268Y39088597D01*
X9243597Y39003268D01*
X9348103Y38942932D01*
X9348105Y38942932D01*
X9348106Y38942931D01*
X9464664Y38911700D01*
X9585335Y38911700D01*
X9585336Y38911700D01*
X9701897Y38942932D01*
X9806403Y39003268D01*
X9891732Y39088597D01*
X9952068Y39193103D01*
X9983300Y39309664D01*
X9983300Y39430336D01*
X9952069Y39546894D01*
X9952068Y39546895D01*
X9952068Y39546897D01*
X9891732Y39651403D01*
X9806403Y39736732D01*
X9701897Y39797068D01*
X9701896Y39797069D01*
X9701893Y39797070D01*
X9585336Y39828300D01*
X9464664Y39828300D01*
X9348106Y39797070D01*
X9243595Y39736731D01*
X9158269Y39651405D01*
X9097930Y39546894D01*
X9066700Y39430336D01*
X3876627Y39430336D01*
X3896592Y39450301D01*
X4040273Y39637550D01*
X4158284Y39841951D01*
X4248606Y40060007D01*
X4309693Y40287986D01*
X4340500Y40521989D01*
X4340500Y40758011D01*
X4336038Y40791900D01*
X4332184Y40821180D01*
X4309693Y40992014D01*
X4248606Y41219993D01*
X4158284Y41438049D01*
X4040273Y41642450D01*
X4035876Y41648180D01*
X3924090Y41793863D01*
X3903190Y41821100D01*
X3896592Y41829699D01*
X3729699Y41996592D01*
X3587010Y42106081D01*
X3542452Y42140272D01*
X3401033Y42221920D01*
X3338049Y42258284D01*
X3338047Y42258285D01*
X3338045Y42258286D01*
X3338043Y42258287D01*
X3236059Y42300530D01*
X3119993Y42348606D01*
X3119986Y42348608D01*
X2892026Y42409690D01*
X2892014Y42409693D01*
X2658013Y42440500D01*
X2658011Y42440500D01*
X2421989Y42440500D01*
X2421987Y42440500D01*
X2187985Y42409693D01*
X2187973Y42409690D01*
X1960013Y42348608D01*
X1960009Y42348607D01*
X1960007Y42348606D01*
X1936848Y42339013D01*
X1741956Y42258287D01*
X1741954Y42258286D01*
X1537547Y42140272D01*
X1350304Y41996595D01*
X1183405Y41829696D01*
X1039728Y41642453D01*
X921714Y41438046D01*
X921713Y41438044D01*
X831395Y41219995D01*
X831392Y41219987D01*
X770310Y40992027D01*
X770307Y40992015D01*
X743962Y40791900D01*
X739500Y40758011D01*
X127500Y40758011D01*
X127500Y42964600D01*
X148065Y43021101D01*
X200136Y43051165D01*
X215400Y43052500D01*
X13384428Y43052500D01*
X13440929Y43031935D01*
G37*
%TD.AperFunction*%
%TA.AperFunction,Conductor*%
G36*
X17925301Y5109735D02*
G01*
X17955365Y5057664D01*
X17956700Y5042400D01*
X17956700Y5019665D01*
X17987930Y4903107D01*
X17987931Y4903104D01*
X17987932Y4903103D01*
X18048268Y4798597D01*
X18133597Y4713268D01*
X18238103Y4652932D01*
X18238105Y4652932D01*
X18238106Y4652931D01*
X18354664Y4621700D01*
X18475335Y4621700D01*
X18475336Y4621700D01*
X18591897Y4652932D01*
X18696403Y4713268D01*
X18756489Y4773354D01*
X18810982Y4798765D01*
X18818644Y4799100D01*
X25584112Y4799100D01*
X25640613Y4778535D01*
X25646267Y4773355D01*
X26377055Y4042567D01*
X26402466Y3988073D01*
X26402800Y3980412D01*
X26402800Y2422685D01*
X26382235Y2366184D01*
X26342063Y2339087D01*
X26240803Y2306186D01*
X26083991Y2226287D01*
X26083987Y2226285D01*
X25941606Y2122839D01*
X25817161Y1998394D01*
X25713715Y1856013D01*
X25713713Y1856009D01*
X25633814Y1699197D01*
X25633813Y1699194D01*
X25579431Y1531821D01*
X25551900Y1357995D01*
X25551900Y1182006D01*
X25579431Y1008180D01*
X25633754Y840988D01*
X25633816Y840799D01*
X25711188Y688947D01*
X25713713Y683992D01*
X25713715Y683988D01*
X25817161Y541607D01*
X25941606Y417162D01*
X26083986Y313716D01*
X26083988Y313715D01*
X26123231Y293720D01*
X26164237Y249745D01*
X26167384Y189701D01*
X26131199Y141681D01*
X26083325Y127500D01*
X24716675Y127500D01*
X24660174Y148065D01*
X24630110Y200136D01*
X24640551Y259350D01*
X24676768Y293720D01*
X24716012Y313715D01*
X24858393Y417161D01*
X24982839Y541607D01*
X25086285Y683988D01*
X25166184Y840799D01*
X25220568Y1008178D01*
X25248100Y1182004D01*
X25248100Y1357996D01*
X25220568Y1531822D01*
X25166184Y1699201D01*
X25086285Y1856012D01*
X24982839Y1998393D01*
X24858393Y2122839D01*
X24716012Y2226285D01*
X24559201Y2306184D01*
X24559198Y2306185D01*
X24559196Y2306186D01*
X24559193Y2306187D01*
X24391820Y2360569D01*
X24273058Y2379379D01*
X24217996Y2388100D01*
X24042004Y2388100D01*
X23994470Y2380572D01*
X23868179Y2360569D01*
X23700806Y2306187D01*
X23700803Y2306186D01*
X23543991Y2226287D01*
X23543987Y2226285D01*
X23401606Y2122839D01*
X23277161Y1998394D01*
X23173715Y1856013D01*
X23173713Y1856009D01*
X23093814Y1699197D01*
X23093813Y1699194D01*
X23039431Y1531821D01*
X23011900Y1357995D01*
X23011900Y1182006D01*
X23039431Y1008180D01*
X23093754Y840988D01*
X23093816Y840799D01*
X23171188Y688947D01*
X23173713Y683992D01*
X23173715Y683988D01*
X23277161Y541607D01*
X23401606Y417162D01*
X23543986Y313716D01*
X23543988Y313715D01*
X23583231Y293720D01*
X23624237Y249745D01*
X23627384Y189701D01*
X23591199Y141681D01*
X23543325Y127500D01*
X22176675Y127500D01*
X22120174Y148065D01*
X22090110Y200136D01*
X22100551Y259350D01*
X22136768Y293720D01*
X22176012Y313715D01*
X22318393Y417161D01*
X22442839Y541607D01*
X22546285Y683988D01*
X22626184Y840799D01*
X22680568Y1008178D01*
X22708100Y1182004D01*
X22708100Y1357996D01*
X22680568Y1531822D01*
X22626184Y1699201D01*
X22546285Y1856012D01*
X22442839Y1998393D01*
X22318393Y2122839D01*
X22176012Y2226285D01*
X22019201Y2306184D01*
X22019198Y2306185D01*
X22019196Y2306186D01*
X22019193Y2306187D01*
X21851820Y2360569D01*
X21733058Y2379379D01*
X21677996Y2388100D01*
X21502004Y2388100D01*
X21454470Y2380572D01*
X21328179Y2360569D01*
X21160806Y2306187D01*
X21160803Y2306186D01*
X21065928Y2257845D01*
X21006249Y2250518D01*
X20963868Y2274010D01*
X20117883Y3119995D01*
X19201357Y4036521D01*
X19201355Y4036522D01*
X19201356Y4036522D01*
X19143827Y4060351D01*
X19103149Y4077200D01*
X19103148Y4077200D01*
X16927345Y4077200D01*
X16909312Y4083764D01*
X16890197Y4085436D01*
X16874476Y4096443D01*
X16870844Y4097765D01*
X16865190Y4102945D01*
X16802945Y4165190D01*
X16777534Y4219684D01*
X16777200Y4227345D01*
X16777200Y5042400D01*
X16797765Y5098901D01*
X16849836Y5128965D01*
X16865100Y5130300D01*
X17868800Y5130300D01*
X17925301Y5109735D01*
G37*
%TD.AperFunction*%
%TA.AperFunction,Conductor*%
G36*
X31219826Y43031935D02*
G01*
X31249890Y42979864D01*
X31239449Y42920650D01*
X31203231Y42886281D01*
X31195293Y42882237D01*
X31163986Y42866285D01*
X31021606Y42762839D01*
X30897161Y42638394D01*
X30793715Y42496013D01*
X30793713Y42496009D01*
X30713814Y42339197D01*
X30713813Y42339194D01*
X30659431Y42171821D01*
X30649019Y42106081D01*
X30631900Y41997996D01*
X30631900Y41822004D01*
X30636357Y41793863D01*
X30659431Y41648180D01*
X30713754Y41480988D01*
X30713816Y41480799D01*
X30793715Y41323988D01*
X30897161Y41181607D01*
X31021607Y41057161D01*
X31163988Y40953715D01*
X31320799Y40873816D01*
X31488178Y40819432D01*
X31662004Y40791900D01*
X31662006Y40791900D01*
X31837994Y40791900D01*
X31837996Y40791900D01*
X32011822Y40819432D01*
X32179201Y40873816D01*
X32336012Y40953715D01*
X32478393Y41057161D01*
X32602839Y41181607D01*
X32706285Y41323988D01*
X32786184Y41480799D01*
X32840568Y41648178D01*
X32868100Y41822004D01*
X32868100Y41997996D01*
X32840568Y42171822D01*
X32786184Y42339201D01*
X32706285Y42496012D01*
X32602839Y42638393D01*
X32478393Y42762839D01*
X32336013Y42866285D01*
X32309972Y42879553D01*
X32296768Y42886281D01*
X32255763Y42930255D01*
X32252616Y42990299D01*
X32288801Y43038319D01*
X32336675Y43052500D01*
X33703325Y43052500D01*
X33759826Y43031935D01*
X33789890Y42979864D01*
X33779449Y42920650D01*
X33743231Y42886281D01*
X33735293Y42882237D01*
X33703986Y42866285D01*
X33561606Y42762839D01*
X33437161Y42638394D01*
X33333715Y42496013D01*
X33333713Y42496009D01*
X33253814Y42339197D01*
X33253813Y42339194D01*
X33199431Y42171821D01*
X33189019Y42106081D01*
X33171900Y41997996D01*
X33171900Y41822004D01*
X33176357Y41793863D01*
X33199431Y41648180D01*
X33253754Y41480988D01*
X33253816Y41480799D01*
X33333715Y41323988D01*
X33437161Y41181607D01*
X33561607Y41057161D01*
X33703988Y40953715D01*
X33860799Y40873816D01*
X34028178Y40819432D01*
X34202004Y40791900D01*
X34202006Y40791900D01*
X34377994Y40791900D01*
X34377996Y40791900D01*
X34551822Y40819432D01*
X34617941Y40840915D01*
X34628935Y40844487D01*
X34651045Y40851672D01*
X34719201Y40873816D01*
X34876012Y40953715D01*
X35018393Y41057161D01*
X35142839Y41181607D01*
X35246285Y41323988D01*
X35326184Y41480799D01*
X35380568Y41648178D01*
X35408100Y41822004D01*
X35408100Y41997996D01*
X35380568Y42171822D01*
X35326184Y42339201D01*
X35246285Y42496012D01*
X35142839Y42638393D01*
X35018393Y42762839D01*
X34876013Y42866285D01*
X34849972Y42879553D01*
X34836768Y42886281D01*
X34795763Y42930255D01*
X34792616Y42990299D01*
X34828801Y43038319D01*
X34876675Y43052500D01*
X42964600Y43052500D01*
X43021101Y43031935D01*
X43051165Y42979864D01*
X43052500Y42964600D01*
X43052500Y22923200D01*
X43031935Y22866699D01*
X42979864Y22836635D01*
X42964600Y22835300D01*
X41046401Y22835300D01*
X41046400Y22835299D01*
X41046400Y20979702D01*
X41046401Y20979701D01*
X42964600Y20979701D01*
X43021101Y20959136D01*
X43051165Y20907065D01*
X43052500Y20891801D01*
X43052500Y17843200D01*
X43031935Y17786699D01*
X42979864Y17756635D01*
X42964600Y17755300D01*
X41046401Y17755300D01*
X41046400Y17755299D01*
X41046400Y15899702D01*
X41046401Y15899701D01*
X42964600Y15899701D01*
X43021101Y15879136D01*
X43051165Y15827065D01*
X43052500Y15811801D01*
X43052500Y215400D01*
X43031935Y158899D01*
X42979864Y128835D01*
X42964600Y127500D01*
X37416675Y127500D01*
X37360174Y148065D01*
X37330110Y200136D01*
X37340551Y259350D01*
X37376768Y293720D01*
X37416012Y313715D01*
X37558393Y417161D01*
X37682839Y541607D01*
X37786285Y683988D01*
X37866184Y840799D01*
X37920568Y1008178D01*
X37948100Y1182004D01*
X37948100Y1357996D01*
X37920568Y1531822D01*
X37866184Y1699201D01*
X37786285Y1856012D01*
X37682839Y1998393D01*
X37558393Y2122839D01*
X37416012Y2226285D01*
X37259201Y2306184D01*
X37259198Y2306185D01*
X37259196Y2306186D01*
X37259193Y2306187D01*
X37091820Y2360569D01*
X36973058Y2379379D01*
X36917996Y2388100D01*
X36742004Y2388100D01*
X36694470Y2380572D01*
X36568179Y2360569D01*
X36400806Y2306187D01*
X36400803Y2306186D01*
X36243991Y2226287D01*
X36243987Y2226285D01*
X36101606Y2122839D01*
X35977161Y1998394D01*
X35873715Y1856013D01*
X35873713Y1856009D01*
X35793814Y1699197D01*
X35793813Y1699194D01*
X35739431Y1531821D01*
X35711900Y1357995D01*
X35711900Y1182006D01*
X35739431Y1008180D01*
X35793754Y840988D01*
X35793816Y840799D01*
X35871188Y688947D01*
X35873713Y683992D01*
X35873715Y683988D01*
X35977161Y541607D01*
X36101606Y417162D01*
X36243986Y313716D01*
X36243988Y313715D01*
X36283231Y293720D01*
X36324237Y249745D01*
X36327384Y189701D01*
X36291199Y141681D01*
X36243325Y127500D01*
X34876675Y127500D01*
X34820174Y148065D01*
X34790110Y200136D01*
X34800551Y259350D01*
X34836768Y293720D01*
X34876012Y313715D01*
X35018393Y417161D01*
X35142839Y541607D01*
X35246285Y683988D01*
X35326184Y840799D01*
X35380568Y1008178D01*
X35408100Y1182004D01*
X35408100Y1357996D01*
X35380568Y1531822D01*
X35326184Y1699201D01*
X35246285Y1856012D01*
X35142839Y1998393D01*
X35018393Y2122839D01*
X34876012Y2226285D01*
X34719201Y2306184D01*
X34719198Y2306185D01*
X34719196Y2306186D01*
X34719193Y2306187D01*
X34551820Y2360569D01*
X34433058Y2379379D01*
X34377996Y2388100D01*
X34202004Y2388100D01*
X34154470Y2380572D01*
X34028179Y2360569D01*
X33860806Y2306187D01*
X33860803Y2306186D01*
X33703991Y2226287D01*
X33703987Y2226285D01*
X33561606Y2122839D01*
X33437161Y1998394D01*
X33333715Y1856013D01*
X33333713Y1856009D01*
X33253814Y1699197D01*
X33253813Y1699194D01*
X33199431Y1531821D01*
X33171900Y1357995D01*
X33171900Y1182006D01*
X33199431Y1008180D01*
X33253754Y840988D01*
X33253816Y840799D01*
X33331188Y688947D01*
X33333713Y683992D01*
X33333715Y683988D01*
X33437161Y541607D01*
X33561606Y417162D01*
X33703986Y313716D01*
X33703988Y313715D01*
X33743231Y293720D01*
X33784237Y249745D01*
X33787384Y189701D01*
X33751199Y141681D01*
X33703325Y127500D01*
X32336675Y127500D01*
X32280174Y148065D01*
X32250110Y200136D01*
X32260551Y259350D01*
X32296768Y293720D01*
X32336012Y313715D01*
X32478393Y417161D01*
X32602839Y541607D01*
X32706285Y683988D01*
X32786184Y840799D01*
X32840568Y1008178D01*
X32868100Y1182004D01*
X32868100Y1357996D01*
X32840568Y1531822D01*
X32786184Y1699201D01*
X32706285Y1856012D01*
X32602839Y1998393D01*
X32478393Y2122839D01*
X32336012Y2226285D01*
X32179201Y2306184D01*
X32179198Y2306185D01*
X32179196Y2306186D01*
X32077937Y2339087D01*
X32030556Y2376105D01*
X32017200Y2422685D01*
X32017200Y2658013D01*
X38839500Y2658013D01*
X38839500Y2421988D01*
X38864927Y2228852D01*
X38870307Y2187986D01*
X38931394Y1960007D01*
X38934407Y1952734D01*
X39021713Y1741957D01*
X39021714Y1741955D01*
X39021716Y1741951D01*
X39059503Y1676502D01*
X39139728Y1537548D01*
X39194567Y1466081D01*
X39283408Y1350301D01*
X39450301Y1183408D01*
X39637550Y1039727D01*
X39841951Y921716D01*
X40060007Y831394D01*
X40287986Y770307D01*
X40467541Y746669D01*
X40521987Y739500D01*
X40521989Y739500D01*
X40758013Y739500D01*
X40806784Y745922D01*
X40992014Y770307D01*
X41219993Y831394D01*
X41438049Y921716D01*
X41642450Y1039727D01*
X41829699Y1183408D01*
X41996592Y1350301D01*
X42140273Y1537550D01*
X42258284Y1741951D01*
X42348606Y1960007D01*
X42409693Y2187986D01*
X42440500Y2421989D01*
X42440500Y2658011D01*
X42437710Y2679200D01*
X42428662Y2747932D01*
X42409693Y2892014D01*
X42348606Y3119993D01*
X42258284Y3338049D01*
X42140273Y3542450D01*
X42140004Y3542800D01*
X41996594Y3729696D01*
X41996592Y3729699D01*
X41829699Y3896592D01*
X41808208Y3913082D01*
X41642452Y4040272D01*
X41533899Y4102945D01*
X41438049Y4158284D01*
X41438047Y4158285D01*
X41438045Y4158286D01*
X41438043Y4158287D01*
X41336059Y4200530D01*
X41219993Y4248606D01*
X41192223Y4256047D01*
X40992026Y4309690D01*
X40992014Y4309693D01*
X40758013Y4340500D01*
X40758011Y4340500D01*
X40521989Y4340500D01*
X40521987Y4340500D01*
X40287985Y4309693D01*
X40287973Y4309690D01*
X40060013Y4248608D01*
X40060009Y4248607D01*
X40060007Y4248606D01*
X40060005Y4248605D01*
X39841956Y4158287D01*
X39841954Y4158286D01*
X39637547Y4040272D01*
X39450304Y3896595D01*
X39283405Y3729696D01*
X39139728Y3542453D01*
X39021714Y3338046D01*
X39021713Y3338044D01*
X38931395Y3119995D01*
X38931392Y3119987D01*
X38870310Y2892027D01*
X38870307Y2892015D01*
X38839500Y2658013D01*
X32017200Y2658013D01*
X32017200Y4297913D01*
X32037765Y4354414D01*
X32042934Y4360057D01*
X34516521Y6833643D01*
X34557200Y6931851D01*
X34557200Y7038149D01*
X34557200Y9107655D01*
X34577765Y9164156D01*
X34582945Y9169810D01*
X34619314Y9206179D01*
X34656732Y9243597D01*
X34717068Y9348103D01*
X34748300Y9464664D01*
X34748300Y9585336D01*
X34744055Y9601178D01*
X34717069Y9701894D01*
X34717068Y9701895D01*
X34717068Y9701897D01*
X34656732Y9806403D01*
X34571403Y9891732D01*
X34466897Y9952068D01*
X34466896Y9952069D01*
X34466893Y9952070D01*
X34350336Y9983300D01*
X34229664Y9983300D01*
X34113106Y9952070D01*
X34008595Y9891731D01*
X33923269Y9806405D01*
X33862930Y9701894D01*
X33835945Y9601178D01*
X33831700Y9585336D01*
X33831700Y9464664D01*
X33838695Y9438556D01*
X33862930Y9348107D01*
X33862931Y9348104D01*
X33862932Y9348103D01*
X33914491Y9258799D01*
X33923269Y9243596D01*
X33997055Y9169810D01*
X34022466Y9115316D01*
X34022800Y9107655D01*
X34022800Y7132088D01*
X34002235Y7075587D01*
X33997055Y7069933D01*
X32255551Y5328430D01*
X32136570Y5209449D01*
X31598643Y4671521D01*
X31598642Y4671522D01*
X31523480Y4596359D01*
X31523478Y4596357D01*
X31482800Y4498149D01*
X31482800Y2422685D01*
X31462235Y2366184D01*
X31422063Y2339087D01*
X31320803Y2306186D01*
X31163991Y2226287D01*
X31163987Y2226285D01*
X31021606Y2122839D01*
X30897161Y1998394D01*
X30793715Y1856013D01*
X30793713Y1856009D01*
X30713814Y1699197D01*
X30713813Y1699194D01*
X30659431Y1531821D01*
X30631900Y1357995D01*
X30631900Y1182006D01*
X30659431Y1008180D01*
X30713754Y840988D01*
X30713816Y840799D01*
X30791188Y688947D01*
X30793713Y683992D01*
X30793715Y683988D01*
X30897161Y541607D01*
X31021606Y417162D01*
X31163986Y313716D01*
X31163988Y313715D01*
X31203231Y293720D01*
X31244237Y249745D01*
X31247384Y189701D01*
X31211199Y141681D01*
X31163325Y127500D01*
X29796675Y127500D01*
X29740174Y148065D01*
X29710110Y200136D01*
X29720551Y259350D01*
X29756768Y293720D01*
X29796012Y313715D01*
X29938393Y417161D01*
X30062839Y541607D01*
X30166285Y683988D01*
X30246184Y840799D01*
X30300568Y1008178D01*
X30328100Y1182004D01*
X30328100Y1357996D01*
X30300568Y1531822D01*
X30246184Y1699201D01*
X30166285Y1856012D01*
X30062839Y1998393D01*
X29938393Y2122839D01*
X29796012Y2226285D01*
X29639201Y2306184D01*
X29639198Y2306185D01*
X29639196Y2306186D01*
X29639193Y2306187D01*
X29471820Y2360569D01*
X29353058Y2379379D01*
X29297996Y2388100D01*
X29122004Y2388100D01*
X29074470Y2380572D01*
X28948179Y2360569D01*
X28780806Y2306187D01*
X28780803Y2306186D01*
X28623991Y2226287D01*
X28623987Y2226285D01*
X28481606Y2122839D01*
X28357161Y1998394D01*
X28253715Y1856013D01*
X28253713Y1856009D01*
X28173814Y1699197D01*
X28173813Y1699194D01*
X28119431Y1531821D01*
X28091900Y1357995D01*
X28091900Y1182006D01*
X28119431Y1008180D01*
X28173754Y840988D01*
X28173816Y840799D01*
X28251188Y688947D01*
X28253713Y683992D01*
X28253715Y683988D01*
X28357161Y541607D01*
X28481606Y417162D01*
X28623986Y313716D01*
X28623988Y313715D01*
X28663231Y293720D01*
X28704237Y249745D01*
X28707384Y189701D01*
X28671199Y141681D01*
X28623325Y127500D01*
X27256675Y127500D01*
X27200174Y148065D01*
X27170110Y200136D01*
X27180551Y259350D01*
X27216768Y293720D01*
X27256012Y313715D01*
X27398393Y417161D01*
X27522839Y541607D01*
X27626285Y683988D01*
X27706184Y840799D01*
X27760568Y1008178D01*
X27788100Y1182004D01*
X27788100Y1357996D01*
X27760568Y1531822D01*
X27706184Y1699201D01*
X27626285Y1856012D01*
X27522839Y1998393D01*
X27398393Y2122839D01*
X27256012Y2226285D01*
X27099201Y2306184D01*
X27099198Y2306185D01*
X27099196Y2306186D01*
X26997937Y2339087D01*
X26950556Y2376105D01*
X26937200Y2422685D01*
X26937200Y4180648D01*
X26937200Y4180649D01*
X26896521Y4278857D01*
X26859090Y4316288D01*
X26821357Y4354022D01*
X26821357Y4354021D01*
X26195133Y4980245D01*
X26169722Y5034739D01*
X26185285Y5092817D01*
X26234538Y5127305D01*
X26257288Y5130300D01*
X31485648Y5130300D01*
X31485649Y5130300D01*
X31583857Y5170979D01*
X31643831Y5230955D01*
X31698324Y5256365D01*
X31705986Y5256700D01*
X31810335Y5256700D01*
X31810336Y5256700D01*
X31926897Y5287932D01*
X32031403Y5348268D01*
X32116732Y5433597D01*
X32177068Y5538103D01*
X32208300Y5654664D01*
X32208300Y5775336D01*
X32202616Y5796550D01*
X32177069Y5891894D01*
X32177068Y5891895D01*
X32177068Y5891897D01*
X32116732Y5996403D01*
X32031403Y6081732D01*
X31926897Y6142068D01*
X31926896Y6142069D01*
X31926893Y6142070D01*
X31810336Y6173300D01*
X31689664Y6173300D01*
X31573106Y6142070D01*
X31468595Y6081731D01*
X31456970Y6070105D01*
X31402476Y6044694D01*
X31344398Y6060257D01*
X31309910Y6109510D01*
X31306915Y6132260D01*
X31306915Y6143951D01*
X31275684Y6260509D01*
X31275683Y6260511D01*
X31275683Y6260512D01*
X31239936Y6322428D01*
X31229496Y6381639D01*
X31253904Y6428528D01*
X32722463Y7897087D01*
X32776956Y7922497D01*
X32810763Y7918852D01*
X32895382Y7892483D01*
X32964525Y7886200D01*
X33075474Y7886201D01*
X33075481Y7886201D01*
X33075483Y7886202D01*
X33092823Y7887778D01*
X33144610Y7892482D01*
X33144618Y7892483D01*
X33158953Y7896950D01*
X33303735Y7942066D01*
X33446363Y8028288D01*
X33564212Y8146137D01*
X33650434Y8288765D01*
X33700017Y8447882D01*
X33706300Y8517025D01*
X33706299Y8627974D01*
X33706299Y8627975D01*
X33706299Y8627982D01*
X33706298Y8627985D01*
X33700018Y8697111D01*
X33700017Y8697119D01*
X33650433Y8856238D01*
X33600260Y8939232D01*
X33564212Y8998863D01*
X33446363Y9116712D01*
X33388202Y9151872D01*
X33303737Y9202934D01*
X33144619Y9252517D01*
X33075481Y9258800D01*
X32964518Y9258800D01*
X32964515Y9258799D01*
X32895389Y9252519D01*
X32895381Y9252518D01*
X32736262Y9202934D01*
X32593638Y9116713D01*
X32475787Y8998862D01*
X32389566Y8856238D01*
X32339983Y8697120D01*
X32333700Y8627982D01*
X32333700Y8517019D01*
X32333701Y8517016D01*
X32339981Y8447890D01*
X32339983Y8447879D01*
X32366349Y8363269D01*
X32363525Y8303209D01*
X32344584Y8274964D01*
X32123200Y8053580D01*
X32068706Y8028169D01*
X32010628Y8043732D01*
X31976140Y8092985D01*
X31981381Y8152883D01*
X31985807Y8161183D01*
X32062934Y8288765D01*
X32112517Y8447882D01*
X32118800Y8517025D01*
X32118799Y8627974D01*
X32118799Y8627975D01*
X32118799Y8627982D01*
X32118798Y8627985D01*
X32112518Y8697111D01*
X32112517Y8697119D01*
X32062933Y8856238D01*
X32012760Y8939232D01*
X31976712Y8998863D01*
X31858863Y9116712D01*
X31800702Y9151872D01*
X31716237Y9202934D01*
X31557119Y9252517D01*
X31487981Y9258800D01*
X31377026Y9258800D01*
X31321701Y9253773D01*
X31263572Y9269142D01*
X31228920Y9318280D01*
X31228844Y9364063D01*
X31253649Y9456635D01*
X31255800Y9464664D01*
X31255800Y9569013D01*
X31276365Y9625514D01*
X31281545Y9631168D01*
X31556214Y9905836D01*
X31834933Y10184555D01*
X31889427Y10209966D01*
X31897088Y10210300D01*
X36565648Y10210300D01*
X36565649Y10210300D01*
X36663857Y10250979D01*
X36739021Y10326143D01*
X36779700Y10424351D01*
X36779700Y16738599D01*
X38779701Y16738599D01*
X38779701Y16059992D01*
X38790016Y16008125D01*
X38829311Y15949318D01*
X38829317Y15949312D01*
X38888124Y15910017D01*
X38939987Y15899701D01*
X40868598Y15899701D01*
X40868600Y15899702D01*
X40868600Y16738599D01*
X40868599Y16738600D01*
X38779702Y16738600D01*
X38779701Y16738599D01*
X36779700Y16738599D01*
X36779700Y17595013D01*
X38779700Y17595013D01*
X38779700Y16916401D01*
X38779701Y16916400D01*
X40868599Y16916400D01*
X40868600Y16916401D01*
X40868600Y17755299D01*
X40868599Y17755300D01*
X38939991Y17755300D01*
X38888124Y17744984D01*
X38829317Y17705689D01*
X38829311Y17705683D01*
X38790016Y17646876D01*
X38779700Y17595013D01*
X36779700Y17595013D01*
X36779700Y21818599D01*
X38779701Y21818599D01*
X38779701Y21139992D01*
X38790016Y21088125D01*
X38829311Y21029318D01*
X38829317Y21029312D01*
X38888124Y20990017D01*
X38939987Y20979701D01*
X40868598Y20979701D01*
X40868600Y20979702D01*
X40868600Y21818599D01*
X40868599Y21818600D01*
X38779702Y21818600D01*
X38779701Y21818599D01*
X36779700Y21818599D01*
X36779700Y22675013D01*
X38779700Y22675013D01*
X38779700Y21996401D01*
X38779701Y21996400D01*
X40868599Y21996400D01*
X40868600Y21996401D01*
X40868600Y22835299D01*
X40868599Y22835300D01*
X38939991Y22835300D01*
X38888124Y22824984D01*
X38829317Y22785689D01*
X38829311Y22785683D01*
X38790016Y22726876D01*
X38779700Y22675013D01*
X36779700Y22675013D01*
X36779700Y32987213D01*
X36800265Y33043714D01*
X36805435Y33049358D01*
X36991133Y33235057D01*
X37045627Y33260467D01*
X37053288Y33260801D01*
X37800064Y33260801D01*
X37800065Y33260802D01*
X37852065Y33271144D01*
X37852066Y33271144D01*
X37852066Y33271145D01*
X37852069Y33271145D01*
X37911047Y33310553D01*
X37950455Y33369531D01*
X37960800Y33421539D01*
X37960799Y34117060D01*
X37960799Y34117061D01*
X37960799Y34117064D01*
X37960798Y34117066D01*
X37950456Y34169066D01*
X37950456Y34169067D01*
X37934450Y34193022D01*
X37911047Y34228047D01*
X37911046Y34228048D01*
X37906237Y34235245D01*
X37907426Y34236040D01*
X37885837Y34282339D01*
X37901400Y34340417D01*
X37910921Y34351767D01*
X37911043Y34351951D01*
X37911047Y34351953D01*
X37950455Y34410931D01*
X37960800Y34462939D01*
X37960799Y35158460D01*
X37960799Y35158461D01*
X37960799Y35158464D01*
X37960798Y35158466D01*
X37950456Y35210466D01*
X37950456Y35210467D01*
X37950455Y35210469D01*
X37911047Y35269447D01*
X37852069Y35308855D01*
X37800061Y35319200D01*
X37800059Y35319200D01*
X37502600Y35319200D01*
X37481142Y35327010D01*
X37458650Y35330976D01*
X37453551Y35337053D01*
X37446099Y35339765D01*
X37434680Y35359542D01*
X37420001Y35377036D01*
X37417987Y35388454D01*
X37416035Y35391836D01*
X37414700Y35407100D01*
X37414700Y35412913D01*
X37435265Y35469414D01*
X37440435Y35475058D01*
X37676332Y35710956D01*
X37730826Y35736366D01*
X37738487Y35736700D01*
X37842835Y35736700D01*
X37842836Y35736700D01*
X37959397Y35767932D01*
X38063903Y35828268D01*
X38149232Y35913597D01*
X38209568Y36018103D01*
X38240800Y36134664D01*
X38240800Y36255336D01*
X38216411Y36346359D01*
X38209569Y36371894D01*
X38209568Y36371895D01*
X38209568Y36371897D01*
X38175472Y36430953D01*
X38165032Y36490164D01*
X38195096Y36542235D01*
X38251597Y36562800D01*
X39218403Y36562800D01*
X39274904Y36542235D01*
X39304968Y36490164D01*
X39294527Y36430953D01*
X39278136Y36402561D01*
X39260430Y36371894D01*
X39229200Y36255336D01*
X39229200Y36150988D01*
X39208635Y36094487D01*
X39203455Y36088834D01*
X39143478Y36028857D01*
X39102800Y35930649D01*
X39102800Y35407100D01*
X39082235Y35350599D01*
X39030164Y35320535D01*
X39014900Y35319200D01*
X38717436Y35319200D01*
X38717434Y35319199D01*
X38665434Y35308857D01*
X38665433Y35308857D01*
X38606454Y35269448D01*
X38606452Y35269446D01*
X38588552Y35242656D01*
X38567045Y35210469D01*
X38560316Y35176637D01*
X38556700Y35158460D01*
X38556700Y34462937D01*
X38556701Y34462935D01*
X38567043Y34410935D01*
X38567043Y34410934D01*
X38611263Y34344755D01*
X38610073Y34343961D01*
X38631663Y34297661D01*
X38616100Y34239583D01*
X38606578Y34228234D01*
X38567045Y34169069D01*
X38556700Y34117060D01*
X38556700Y33421537D01*
X38556701Y33421535D01*
X38567043Y33369535D01*
X38567043Y33369534D01*
X38567044Y33369532D01*
X38567045Y33369531D01*
X38606453Y33310553D01*
X38622398Y33299899D01*
X38624643Y33298399D01*
X38660197Y33249909D01*
X38656264Y33189911D01*
X38614685Y33146478D01*
X38598558Y33140408D01*
X38558106Y33129570D01*
X38453595Y33069231D01*
X38368269Y32983905D01*
X38307930Y32879394D01*
X38276700Y32762836D01*
X38276700Y32642165D01*
X38307930Y32525607D01*
X38307931Y32525604D01*
X38307932Y32525603D01*
X38368268Y32421097D01*
X38453597Y32335768D01*
X38558103Y32275432D01*
X38558105Y32275432D01*
X38558106Y32275431D01*
X38674664Y32244200D01*
X38795335Y32244200D01*
X38795336Y32244200D01*
X38911897Y32275432D01*
X39016403Y32335768D01*
X39101732Y32421097D01*
X39162068Y32525603D01*
X39193300Y32642164D01*
X39193300Y32746513D01*
X39213865Y32803014D01*
X39219045Y32808668D01*
X39381147Y32970770D01*
X39596521Y33186143D01*
X39604969Y33206538D01*
X39645590Y33250869D01*
X39686178Y33260801D01*
X40022564Y33260801D01*
X40022565Y33260802D01*
X40074565Y33271144D01*
X40074566Y33271144D01*
X40074566Y33271145D01*
X40074569Y33271145D01*
X40133547Y33310553D01*
X40172955Y33369531D01*
X40183300Y33421539D01*
X40183299Y34117060D01*
X40183299Y34117061D01*
X40183299Y34117064D01*
X40183298Y34117066D01*
X40172956Y34169066D01*
X40172956Y34169067D01*
X40156950Y34193022D01*
X40133547Y34228047D01*
X40133546Y34228048D01*
X40128737Y34235245D01*
X40129926Y34236040D01*
X40108337Y34282339D01*
X40123900Y34340417D01*
X40133421Y34351767D01*
X40133543Y34351951D01*
X40133547Y34351953D01*
X40172955Y34410931D01*
X40183300Y34462939D01*
X40183299Y35158460D01*
X40183299Y35158461D01*
X40183299Y35158464D01*
X40183298Y35158466D01*
X40172956Y35210466D01*
X40172956Y35210467D01*
X40172955Y35210469D01*
X40133547Y35269447D01*
X40074569Y35308855D01*
X40022561Y35319200D01*
X40022559Y35319200D01*
X39725100Y35319200D01*
X39668599Y35339765D01*
X39638535Y35391836D01*
X39637200Y35407100D01*
X39637200Y35648800D01*
X39657765Y35705301D01*
X39709836Y35735365D01*
X39725100Y35736700D01*
X39747835Y35736700D01*
X39747836Y35736700D01*
X39864397Y35767932D01*
X39968903Y35828268D01*
X40054232Y35913597D01*
X40114568Y36018103D01*
X40145800Y36134664D01*
X40145800Y36255336D01*
X40121411Y36346359D01*
X40114569Y36371894D01*
X40114568Y36371895D01*
X40114568Y36371897D01*
X40080472Y36430953D01*
X40077781Y36446214D01*
X40070032Y36459636D01*
X40072723Y36474900D01*
X40070032Y36490164D01*
X40077781Y36503587D01*
X40080473Y36518850D01*
X40092346Y36528814D01*
X40100096Y36542235D01*
X40114659Y36547536D01*
X40126533Y36557499D01*
X40156597Y36562800D01*
X40175412Y36562800D01*
X40231913Y36542235D01*
X40237567Y36537055D01*
X40347055Y36427567D01*
X40372466Y36373073D01*
X40372800Y36365413D01*
X40372800Y35613149D01*
X40372800Y34343149D01*
X40372800Y34236851D01*
X40413479Y34138643D01*
X40604177Y33947945D01*
X40753455Y33798667D01*
X40778866Y33744173D01*
X40779200Y33736512D01*
X40779200Y33421537D01*
X40779201Y33421535D01*
X40789543Y33369535D01*
X40789543Y33369534D01*
X40789544Y33369532D01*
X40789545Y33369531D01*
X40828953Y33310553D01*
X40887931Y33271145D01*
X40939939Y33260800D01*
X42245060Y33260801D01*
X42245063Y33260801D01*
X42245065Y33260802D01*
X42297065Y33271144D01*
X42297066Y33271144D01*
X42297066Y33271145D01*
X42297069Y33271145D01*
X42356047Y33310553D01*
X42395455Y33369531D01*
X42405800Y33421539D01*
X42405799Y34117060D01*
X42405799Y34117061D01*
X42405799Y34117064D01*
X42405798Y34117066D01*
X42395456Y34169066D01*
X42395456Y34169067D01*
X42379450Y34193022D01*
X42356047Y34228047D01*
X42356046Y34228048D01*
X42351237Y34235245D01*
X42352426Y34236040D01*
X42330837Y34282339D01*
X42346400Y34340417D01*
X42355921Y34351767D01*
X42356043Y34351951D01*
X42356047Y34351953D01*
X42395455Y34410931D01*
X42405800Y34462939D01*
X42405799Y35158460D01*
X42405799Y35158461D01*
X42405799Y35158464D01*
X42405798Y35158466D01*
X42395456Y35210466D01*
X42395456Y35210467D01*
X42395455Y35210469D01*
X42356047Y35269447D01*
X42297069Y35308855D01*
X42245061Y35319200D01*
X42245059Y35319200D01*
X41947600Y35319200D01*
X41891099Y35339765D01*
X41861035Y35391836D01*
X41859700Y35407100D01*
X41859700Y35777655D01*
X41880265Y35834156D01*
X41885445Y35839810D01*
X41887040Y35841405D01*
X41959232Y35913597D01*
X42019568Y36018103D01*
X42050800Y36134664D01*
X42050800Y36255336D01*
X42026411Y36346359D01*
X42019569Y36371894D01*
X42019568Y36371895D01*
X42019568Y36371897D01*
X41959232Y36476403D01*
X41873903Y36561732D01*
X41769397Y36622068D01*
X41769396Y36622069D01*
X41769393Y36622070D01*
X41652836Y36653300D01*
X41532164Y36653300D01*
X41415606Y36622070D01*
X41311095Y36561731D01*
X41225769Y36476405D01*
X41165430Y36371894D01*
X41134200Y36255336D01*
X41134200Y36134665D01*
X41165430Y36018107D01*
X41165431Y36018104D01*
X41165432Y36018103D01*
X41218185Y35926731D01*
X41225769Y35913596D01*
X41299555Y35839810D01*
X41324966Y35785316D01*
X41325300Y35777655D01*
X41325300Y35407100D01*
X41304735Y35350599D01*
X41252664Y35320535D01*
X41237400Y35319200D01*
X40995100Y35319200D01*
X40938599Y35339765D01*
X40908535Y35391836D01*
X40907200Y35407100D01*
X40907200Y36565648D01*
X40907200Y36565649D01*
X40866521Y36663857D01*
X40858339Y36672039D01*
X40791357Y36739022D01*
X40791357Y36739021D01*
X40473857Y37056521D01*
X40473855Y37056522D01*
X40473856Y37056522D01*
X40399878Y37087164D01*
X40375649Y37097200D01*
X34660649Y37097200D01*
X34554351Y37097200D01*
X34530122Y37087164D01*
X34456144Y37056522D01*
X33821143Y36421521D01*
X33821142Y36421522D01*
X33745980Y36346359D01*
X33745978Y36346357D01*
X33705300Y36248149D01*
X33705300Y34119588D01*
X33684735Y34063087D01*
X33679555Y34057433D01*
X33252567Y33630445D01*
X33198073Y33605034D01*
X33190412Y33604700D01*
X28039845Y33604700D01*
X27983344Y33625265D01*
X27977690Y33630445D01*
X27903904Y33704231D01*
X27903903Y33704232D01*
X27799397Y33764568D01*
X27799396Y33764569D01*
X27799393Y33764570D01*
X27682836Y33795800D01*
X27578488Y33795800D01*
X27521987Y33816365D01*
X27516333Y33821545D01*
X27389933Y33947945D01*
X27251557Y34086321D01*
X27251555Y34086322D01*
X27251556Y34086322D01*
X27186899Y34113103D01*
X27153349Y34127000D01*
X27153348Y34127000D01*
X26144588Y34127000D01*
X26088087Y34147565D01*
X26058023Y34199636D01*
X26068464Y34258850D01*
X26082433Y34277055D01*
X26907275Y35101897D01*
X29436521Y37631143D01*
X29477200Y37729351D01*
X29477200Y37835649D01*
X29477200Y40757317D01*
X29477453Y40758011D01*
X38839500Y40758011D01*
X38839500Y40521989D01*
X38870307Y40287986D01*
X38931394Y40060007D01*
X38979470Y39943941D01*
X39021713Y39841957D01*
X39021714Y39841955D01*
X39021716Y39841951D01*
X39047628Y39797070D01*
X39139728Y39637548D01*
X39232160Y39517089D01*
X39283408Y39450301D01*
X39450301Y39283408D01*
X39637550Y39139727D01*
X39841951Y39021716D01*
X40060007Y38931394D01*
X40287986Y38870307D01*
X40467541Y38846669D01*
X40521987Y38839500D01*
X40521989Y38839500D01*
X40758013Y38839500D01*
X40806784Y38845922D01*
X40992014Y38870307D01*
X41219993Y38931394D01*
X41438049Y39021716D01*
X41642450Y39139727D01*
X41829699Y39283408D01*
X41996592Y39450301D01*
X42140273Y39637550D01*
X42258284Y39841951D01*
X42348606Y40060007D01*
X42409693Y40287986D01*
X42440500Y40521989D01*
X42440500Y40758011D01*
X42436038Y40791900D01*
X42432184Y40821180D01*
X42409693Y40992014D01*
X42348606Y41219993D01*
X42258284Y41438049D01*
X42140273Y41642450D01*
X42135876Y41648180D01*
X42003190Y41821100D01*
X41996592Y41829699D01*
X41829699Y41996592D01*
X41687010Y42106081D01*
X41642452Y42140272D01*
X41501033Y42221920D01*
X41438049Y42258284D01*
X41438047Y42258285D01*
X41438045Y42258286D01*
X41438043Y42258287D01*
X41336059Y42300530D01*
X41219993Y42348606D01*
X41219986Y42348608D01*
X40992026Y42409690D01*
X40992014Y42409693D01*
X40758013Y42440500D01*
X40758011Y42440500D01*
X40521989Y42440500D01*
X40521987Y42440500D01*
X40287985Y42409693D01*
X40287973Y42409690D01*
X40060013Y42348608D01*
X40060009Y42348607D01*
X40060007Y42348606D01*
X40036848Y42339013D01*
X39841956Y42258287D01*
X39841954Y42258286D01*
X39637547Y42140272D01*
X39450304Y41996595D01*
X39283405Y41829696D01*
X39139728Y41642453D01*
X39021714Y41438046D01*
X39021713Y41438044D01*
X38931395Y41219995D01*
X38931392Y41219987D01*
X38870310Y40992027D01*
X38870307Y40992015D01*
X38843962Y40791900D01*
X38839500Y40758011D01*
X29477453Y40758011D01*
X29497765Y40813818D01*
X29537938Y40840915D01*
X29569831Y40851277D01*
X29639190Y40873812D01*
X29639192Y40873814D01*
X29639201Y40873816D01*
X29796012Y40953715D01*
X29938393Y41057161D01*
X30062839Y41181607D01*
X30166285Y41323988D01*
X30246184Y41480799D01*
X30300568Y41648178D01*
X30328100Y41822004D01*
X30328100Y41997996D01*
X30300568Y42171822D01*
X30246184Y42339201D01*
X30166285Y42496012D01*
X30062839Y42638393D01*
X29938393Y42762839D01*
X29796013Y42866285D01*
X29769972Y42879553D01*
X29756768Y42886281D01*
X29715763Y42930255D01*
X29712616Y42990299D01*
X29748801Y43038319D01*
X29796675Y43052500D01*
X31163325Y43052500D01*
X31219826Y43031935D01*
G37*
%TD.AperFunction*%
%TA.AperFunction,Conductor*%
G36*
X19384048Y33367235D02*
G01*
X19414112Y33315164D01*
X19403671Y33255950D01*
X19389703Y33237747D01*
X19175041Y33023085D01*
X19175041Y33023084D01*
X19175040Y33023085D01*
X19099878Y32947922D01*
X19099876Y32947920D01*
X19059198Y32849712D01*
X19059198Y13664547D01*
X19059198Y12872988D01*
X19059199Y12102600D01*
X19038634Y12046099D01*
X18986563Y12016035D01*
X18971299Y12014700D01*
X17879845Y12014700D01*
X17823344Y12035265D01*
X17817690Y12040445D01*
X17743904Y12114231D01*
X17743903Y12114232D01*
X17639397Y12174568D01*
X17639396Y12174569D01*
X17639393Y12174570D01*
X17522836Y12205800D01*
X17402164Y12205800D01*
X17285606Y12174570D01*
X17181095Y12114231D01*
X17095769Y12028905D01*
X17035430Y11924394D01*
X17010550Y11831535D01*
X17004200Y11807836D01*
X17004200Y11687164D01*
X17005813Y11681145D01*
X17035430Y11570607D01*
X17035431Y11570604D01*
X17035432Y11570603D01*
X17095768Y11466097D01*
X17181097Y11380768D01*
X17285603Y11320432D01*
X17285605Y11320432D01*
X17285606Y11320431D01*
X17402164Y11289200D01*
X17522835Y11289200D01*
X17522836Y11289200D01*
X17639397Y11320432D01*
X17743903Y11380768D01*
X17817690Y11454555D01*
X17872184Y11479966D01*
X17879845Y11480300D01*
X18971299Y11480300D01*
X18992756Y11472491D01*
X19015249Y11468524D01*
X19020347Y11462448D01*
X19027800Y11459735D01*
X19039218Y11439959D01*
X19053898Y11422464D01*
X19055911Y11411047D01*
X19057864Y11407664D01*
X19059199Y11392400D01*
X19059199Y11218487D01*
X19038634Y11161986D01*
X19033454Y11156332D01*
X18739893Y10862771D01*
X18739892Y10862772D01*
X18664730Y10787609D01*
X18664728Y10787607D01*
X18624050Y10689399D01*
X18624050Y10541038D01*
X18603485Y10484537D01*
X18551414Y10454473D01*
X18492200Y10464914D01*
X18473995Y10478883D01*
X18365858Y10587020D01*
X18248857Y10704021D01*
X18248855Y10704022D01*
X18248856Y10704022D01*
X18191327Y10727851D01*
X18150649Y10744700D01*
X18150648Y10744700D01*
X17562345Y10744700D01*
X17505844Y10765265D01*
X17500190Y10770445D01*
X17426404Y10844231D01*
X17426403Y10844232D01*
X17321897Y10904568D01*
X17321896Y10904569D01*
X17321893Y10904570D01*
X17205336Y10935800D01*
X17084664Y10935800D01*
X16968106Y10904570D01*
X16863595Y10844231D01*
X16778269Y10758905D01*
X16717930Y10654394D01*
X16686700Y10537836D01*
X16686700Y10417165D01*
X16717930Y10300607D01*
X16717931Y10300604D01*
X16717932Y10300603D01*
X16778268Y10196097D01*
X16863597Y10110768D01*
X16968103Y10050432D01*
X16968105Y10050432D01*
X16968106Y10050431D01*
X17084664Y10019200D01*
X17205335Y10019200D01*
X17205336Y10019200D01*
X17321897Y10050432D01*
X17426403Y10110768D01*
X17500190Y10184555D01*
X17554684Y10209966D01*
X17562345Y10210300D01*
X17950412Y10210300D01*
X18006913Y10189735D01*
X18012567Y10184555D01*
X18325255Y9871867D01*
X18333365Y9854476D01*
X18345699Y9839776D01*
X18349030Y9820880D01*
X18350666Y9817373D01*
X18351000Y9809712D01*
X18351000Y9790902D01*
X18330435Y9734401D01*
X18278364Y9704337D01*
X18271719Y9703426D01*
X18270440Y9703301D01*
X18218434Y9692957D01*
X18218433Y9692957D01*
X18179570Y9666989D01*
X18159455Y9653548D01*
X18152255Y9648737D01*
X18151460Y9649927D01*
X18105161Y9628337D01*
X18047083Y9643900D01*
X18035733Y9653422D01*
X18035547Y9653546D01*
X18035547Y9653547D01*
X17976569Y9692955D01*
X17924561Y9703300D01*
X17924559Y9703300D01*
X17229036Y9703300D01*
X17229034Y9703299D01*
X17177034Y9692957D01*
X17177033Y9692957D01*
X17118054Y9653548D01*
X17118052Y9653546D01*
X17103100Y9631168D01*
X17078645Y9594569D01*
X17071154Y9556906D01*
X17068300Y9542560D01*
X17068300Y9206179D01*
X17047735Y9149678D01*
X17014040Y9124971D01*
X16993645Y9116523D01*
X16676143Y8799021D01*
X16676142Y8799022D01*
X16600980Y8723859D01*
X16600978Y8723857D01*
X16560300Y8625649D01*
X16560300Y8354845D01*
X16539735Y8298344D01*
X16534555Y8292690D01*
X16460769Y8218905D01*
X16400430Y8114394D01*
X16369200Y7997836D01*
X16369200Y7877165D01*
X16400430Y7760607D01*
X16400431Y7760604D01*
X16400432Y7760603D01*
X16460768Y7656097D01*
X16546097Y7570768D01*
X16650603Y7510432D01*
X16650605Y7510432D01*
X16650606Y7510431D01*
X16767164Y7479200D01*
X16887834Y7479200D01*
X16887836Y7479200D01*
X16981865Y7504395D01*
X17041761Y7499155D01*
X17084277Y7456638D01*
X17089518Y7396740D01*
X17081879Y7379879D01*
X17078645Y7372071D01*
X17068300Y7320060D01*
X17068300Y7191999D01*
X17047735Y7135498D01*
X16995664Y7105434D01*
X16957651Y7107094D01*
X16887837Y7125800D01*
X16887836Y7125800D01*
X16767164Y7125800D01*
X16650606Y7094570D01*
X16546095Y7034231D01*
X16460769Y6948905D01*
X16400430Y6844394D01*
X16369200Y6727836D01*
X16369200Y6607164D01*
X16380631Y6564502D01*
X16400431Y6490605D01*
X16460227Y6387034D01*
X16470667Y6327821D01*
X16445876Y6284881D01*
X16480334Y6309009D01*
X16540232Y6303768D01*
X16547016Y6300237D01*
X16650603Y6240432D01*
X16650605Y6240432D01*
X16650606Y6240431D01*
X16767164Y6209200D01*
X16887835Y6209200D01*
X16887836Y6209200D01*
X16957651Y6227907D01*
X17017548Y6222667D01*
X17060064Y6180150D01*
X17068300Y6143003D01*
X17068300Y6014937D01*
X17068301Y6014935D01*
X17078643Y5962935D01*
X17078643Y5962934D01*
X17078644Y5962932D01*
X17078645Y5962931D01*
X17118053Y5903953D01*
X17177031Y5864545D01*
X17229039Y5854200D01*
X17860469Y5854201D01*
X17885330Y5845153D01*
X17910886Y5838304D01*
X17913191Y5835012D01*
X17916970Y5833636D01*
X17930200Y5810720D01*
X17945374Y5789051D01*
X17945023Y5785047D01*
X17947034Y5781565D01*
X17942438Y5755504D01*
X17940133Y5729153D01*
X17937004Y5724685D01*
X17936593Y5722351D01*
X17922624Y5704146D01*
X17908923Y5690445D01*
X17854429Y5665034D01*
X17846768Y5664700D01*
X16974588Y5664700D01*
X16918087Y5685265D01*
X16912433Y5690445D01*
X16440929Y6161949D01*
X16415518Y6216443D01*
X16430416Y6272042D01*
X16384102Y6255185D01*
X16327602Y6275750D01*
X16321948Y6280930D01*
X15215445Y7387433D01*
X15190034Y7441927D01*
X15189700Y7449588D01*
X15189700Y14340648D01*
X15189700Y14340649D01*
X15149021Y14438857D01*
X15119691Y14468187D01*
X15089045Y14498834D01*
X15063634Y14553328D01*
X15063300Y14560988D01*
X15063300Y14665336D01*
X15032069Y14781894D01*
X15032068Y14781895D01*
X15032068Y14781897D01*
X14971732Y14886403D01*
X14886403Y14971732D01*
X14781897Y15032068D01*
X14781896Y15032069D01*
X14781893Y15032070D01*
X14665336Y15063300D01*
X14544664Y15063300D01*
X14428106Y15032070D01*
X14323595Y14971731D01*
X14238269Y14886405D01*
X14177930Y14781894D01*
X14148772Y14673071D01*
X14139881Y14660375D01*
X14135870Y14645404D01*
X14123174Y14636514D01*
X14114284Y14623818D01*
X14099313Y14619807D01*
X14086617Y14610916D01*
X14071177Y14612267D01*
X14056206Y14608255D01*
X14042156Y14614807D01*
X14026719Y14616157D01*
X14001712Y14633666D01*
X13945445Y14689933D01*
X13920034Y14744427D01*
X13919700Y14752088D01*
X13919700Y16570336D01*
X16369200Y16570336D01*
X16369200Y16449665D01*
X16400430Y16333107D01*
X16400431Y16333104D01*
X16400432Y16333103D01*
X16460768Y16228597D01*
X16546097Y16143268D01*
X16603940Y16109873D01*
X16642588Y16063814D01*
X16642588Y16003687D01*
X16603938Y15957627D01*
X16555664Y15929756D01*
X16546095Y15924231D01*
X16460769Y15838905D01*
X16400430Y15734394D01*
X16369200Y15617836D01*
X16369200Y15497165D01*
X16400430Y15380607D01*
X16400431Y15380604D01*
X16400432Y15380603D01*
X16460768Y15276097D01*
X16546097Y15190768D01*
X16650603Y15130432D01*
X16650605Y15130432D01*
X16650606Y15130431D01*
X16767164Y15099200D01*
X16887835Y15099200D01*
X16887836Y15099200D01*
X17004397Y15130432D01*
X17108903Y15190768D01*
X17194232Y15276097D01*
X17254568Y15380603D01*
X17285800Y15497164D01*
X17285800Y15617836D01*
X17254568Y15734397D01*
X17194232Y15838903D01*
X17108903Y15924232D01*
X17051059Y15957628D01*
X17012411Y16003685D01*
X17012411Y16063813D01*
X17051057Y16109872D01*
X17108903Y16143268D01*
X17194232Y16228597D01*
X17254568Y16333103D01*
X17285800Y16449664D01*
X17285800Y16570336D01*
X17254568Y16686897D01*
X17194232Y16791403D01*
X17108903Y16876732D01*
X17004397Y16937068D01*
X17004396Y16937069D01*
X17004393Y16937070D01*
X16887836Y16968300D01*
X16767164Y16968300D01*
X16650606Y16937070D01*
X16546095Y16876731D01*
X16460769Y16791405D01*
X16400430Y16686894D01*
X16369200Y16570336D01*
X13919700Y16570336D01*
X13919700Y17800336D01*
X16051700Y17800336D01*
X16051700Y17679664D01*
X16054227Y17670233D01*
X16082930Y17563107D01*
X16082931Y17563104D01*
X16082932Y17563103D01*
X16143268Y17458597D01*
X16228597Y17373268D01*
X16333103Y17312932D01*
X16333105Y17312932D01*
X16333106Y17312931D01*
X16449664Y17281700D01*
X16570335Y17281700D01*
X16570336Y17281700D01*
X16686897Y17312932D01*
X16791403Y17373268D01*
X16876732Y17458597D01*
X16937068Y17563103D01*
X16968300Y17679664D01*
X16968300Y17800336D01*
X16937068Y17916897D01*
X16876732Y18021403D01*
X16791403Y18106732D01*
X16686897Y18167068D01*
X16686896Y18167069D01*
X16686893Y18167070D01*
X16570336Y18198300D01*
X16449664Y18198300D01*
X16333106Y18167070D01*
X16228595Y18106731D01*
X16143269Y18021405D01*
X16082930Y17916894D01*
X16051700Y17800336D01*
X13919700Y17800336D01*
X13919700Y28317836D01*
X14146700Y28317836D01*
X14146700Y28197165D01*
X14177930Y28080607D01*
X14177931Y28080604D01*
X14177932Y28080603D01*
X14211043Y28023252D01*
X14238269Y27976096D01*
X14312055Y27902310D01*
X14337466Y27847816D01*
X14337800Y27840155D01*
X14337800Y21008149D01*
X14337800Y20901851D01*
X14378479Y20803643D01*
X15073455Y20108667D01*
X15098866Y20054174D01*
X15099200Y20046513D01*
X15099200Y19942165D01*
X15130430Y19825607D01*
X15130431Y19825604D01*
X15130432Y19825603D01*
X15190768Y19721097D01*
X15276097Y19635768D01*
X15380603Y19575432D01*
X15380605Y19575432D01*
X15380606Y19575431D01*
X15497164Y19544200D01*
X15617835Y19544200D01*
X15617836Y19544200D01*
X15734397Y19575432D01*
X15838903Y19635768D01*
X15924232Y19721097D01*
X15984568Y19825603D01*
X16015800Y19942164D01*
X16015800Y20062836D01*
X16009544Y20086184D01*
X15984569Y20179394D01*
X15984568Y20179395D01*
X15984568Y20179397D01*
X15924232Y20283903D01*
X15838903Y20369232D01*
X15734397Y20429568D01*
X15734396Y20429569D01*
X15734393Y20429570D01*
X15617836Y20460800D01*
X15513488Y20460800D01*
X15456987Y20481365D01*
X15451333Y20486545D01*
X14897945Y21039933D01*
X14872534Y21094427D01*
X14872200Y21102088D01*
X14872200Y21967836D01*
X15416700Y21967836D01*
X15416700Y21847165D01*
X15447930Y21730607D01*
X15447931Y21730604D01*
X15447932Y21730603D01*
X15508268Y21626097D01*
X15593597Y21540768D01*
X15698103Y21480432D01*
X15698105Y21480432D01*
X15698106Y21480431D01*
X15814664Y21449200D01*
X15935335Y21449200D01*
X15935336Y21449200D01*
X16051897Y21480432D01*
X16156403Y21540768D01*
X16241732Y21626097D01*
X16302068Y21730603D01*
X16333300Y21847164D01*
X16333300Y21967836D01*
X16302068Y22084397D01*
X16241732Y22188903D01*
X16156403Y22274232D01*
X16051897Y22334568D01*
X16051896Y22334569D01*
X16051893Y22334570D01*
X15935336Y22365800D01*
X15814664Y22365800D01*
X15698106Y22334570D01*
X15593595Y22274231D01*
X15508269Y22188905D01*
X15447930Y22084394D01*
X15416700Y21967836D01*
X14872200Y21967836D01*
X14872200Y23555336D01*
X15416700Y23555336D01*
X15416700Y23434665D01*
X15447930Y23318107D01*
X15447931Y23318104D01*
X15447932Y23318103D01*
X15508268Y23213597D01*
X15593597Y23128268D01*
X15698103Y23067932D01*
X15698105Y23067932D01*
X15698106Y23067931D01*
X15814664Y23036700D01*
X15935335Y23036700D01*
X15935336Y23036700D01*
X16051897Y23067932D01*
X16156403Y23128268D01*
X16241732Y23213597D01*
X16302068Y23318103D01*
X16333300Y23434664D01*
X16333300Y23555336D01*
X16302068Y23671897D01*
X16241732Y23776403D01*
X16156403Y23861732D01*
X16051897Y23922068D01*
X16051896Y23922069D01*
X16051893Y23922070D01*
X15935336Y23953300D01*
X15814664Y23953300D01*
X15698106Y23922070D01*
X15593595Y23861731D01*
X15508269Y23776405D01*
X15447930Y23671894D01*
X15416700Y23555336D01*
X14872200Y23555336D01*
X14872200Y27840155D01*
X14892765Y27896656D01*
X14897945Y27902310D01*
X14971732Y27976097D01*
X15032068Y28080603D01*
X15063300Y28197164D01*
X15063300Y28317836D01*
X15052763Y28357162D01*
X15032069Y28434394D01*
X15032068Y28434395D01*
X15032068Y28434397D01*
X14971732Y28538903D01*
X14886403Y28624232D01*
X14781897Y28684568D01*
X14781896Y28684569D01*
X14781893Y28684570D01*
X14665336Y28715800D01*
X14544664Y28715800D01*
X14428106Y28684570D01*
X14323595Y28624231D01*
X14238269Y28538905D01*
X14177930Y28434394D01*
X14146700Y28317836D01*
X13919700Y28317836D01*
X13919700Y33299900D01*
X13940265Y33356401D01*
X13992336Y33386465D01*
X14007600Y33387800D01*
X19327547Y33387800D01*
X19384048Y33367235D01*
G37*
%TD.AperFunction*%
%TA.AperFunction,Conductor*%
G36*
X37327967Y36557499D02*
G01*
X37343466Y36557499D01*
X37355339Y36547537D01*
X37369904Y36542235D01*
X37377653Y36528813D01*
X37389527Y36518850D01*
X37392218Y36503587D01*
X37399968Y36490164D01*
X37397276Y36474901D01*
X37399968Y36459637D01*
X37389528Y36430955D01*
X37373136Y36402561D01*
X37355430Y36371894D01*
X37324200Y36255336D01*
X37324200Y36150989D01*
X37303635Y36094488D01*
X37298455Y36088834D01*
X36996143Y35786521D01*
X36996142Y35786522D01*
X36920980Y35711359D01*
X36920978Y35711357D01*
X36880300Y35613149D01*
X36880300Y35407100D01*
X36859735Y35350599D01*
X36807664Y35320535D01*
X36792400Y35319200D01*
X36494936Y35319200D01*
X36494934Y35319199D01*
X36442934Y35308857D01*
X36442933Y35308857D01*
X36383954Y35269448D01*
X36383952Y35269446D01*
X36366052Y35242656D01*
X36344545Y35210469D01*
X36337816Y35176637D01*
X36334200Y35158460D01*
X36334200Y34462937D01*
X36334201Y34462935D01*
X36344543Y34410935D01*
X36344543Y34410934D01*
X36388763Y34344755D01*
X36387573Y34343961D01*
X36409163Y34297661D01*
X36393600Y34239583D01*
X36384078Y34228234D01*
X36344545Y34169069D01*
X36334200Y34117060D01*
X36334200Y33421538D01*
X36339578Y33394499D01*
X36330428Y33335072D01*
X36315522Y33315201D01*
X36285979Y33285658D01*
X36245300Y33187449D01*
X36245300Y10832600D01*
X36224735Y10776099D01*
X36172664Y10746035D01*
X36157400Y10744700D01*
X31803149Y10744700D01*
X31696851Y10744700D01*
X31656173Y10727851D01*
X31598644Y10704022D01*
X30903666Y10009045D01*
X30849172Y9983634D01*
X30841511Y9983300D01*
X30737164Y9983300D01*
X30620606Y9952070D01*
X30516095Y9891731D01*
X30430769Y9806405D01*
X30370430Y9701894D01*
X30343445Y9601178D01*
X30339200Y9585336D01*
X30339200Y9464664D01*
X30346195Y9438556D01*
X30370430Y9348107D01*
X30370431Y9348104D01*
X30370432Y9348103D01*
X30430768Y9243597D01*
X30516097Y9158268D01*
X30620603Y9097932D01*
X30620605Y9097932D01*
X30620606Y9097931D01*
X30737164Y9066700D01*
X30773446Y9066700D01*
X30829947Y9046135D01*
X30860011Y8994064D01*
X30849570Y8934850D01*
X30848669Y8933326D01*
X30802066Y8856238D01*
X30752483Y8697120D01*
X30746200Y8627982D01*
X30746200Y8517019D01*
X30746201Y8517016D01*
X30752481Y8447890D01*
X30752482Y8447882D01*
X30802066Y8288763D01*
X30865310Y8184147D01*
X30888288Y8146137D01*
X31006137Y8028288D01*
X31006139Y8028287D01*
X31009897Y8024529D01*
X31009018Y8023651D01*
X31037918Y7977269D01*
X31029473Y7917738D01*
X31014070Y7896950D01*
X30077567Y6960445D01*
X30023073Y6935034D01*
X30015412Y6934700D01*
X25229588Y6934700D01*
X25173087Y6955265D01*
X25167433Y6960445D01*
X23661545Y8466333D01*
X23636134Y8520827D01*
X23635800Y8528488D01*
X23635800Y8632836D01*
X23989200Y8632836D01*
X23989200Y8512164D01*
X23993445Y8496323D01*
X24020431Y8395605D01*
X24073184Y8304232D01*
X24080768Y8291097D01*
X24166097Y8205768D01*
X24270603Y8145432D01*
X24270605Y8145432D01*
X24270606Y8145431D01*
X24387164Y8114200D01*
X24491512Y8114200D01*
X24548013Y8093635D01*
X24553666Y8088455D01*
X24638057Y8004065D01*
X24702543Y7939579D01*
X24800751Y7898900D01*
X24907049Y7898900D01*
X28311065Y7898900D01*
X28367566Y7878335D01*
X28397276Y7828148D01*
X28407045Y7779031D01*
X28446453Y7720053D01*
X28505431Y7680645D01*
X28557439Y7670300D01*
X29862560Y7670301D01*
X29862563Y7670301D01*
X29862565Y7670302D01*
X29914565Y7680644D01*
X29914566Y7680644D01*
X29914566Y7680645D01*
X29914569Y7680645D01*
X29973547Y7720053D01*
X30012955Y7779031D01*
X30023300Y7831039D01*
X30023299Y8501160D01*
X30023299Y8501161D01*
X30023299Y8501164D01*
X30012266Y8556636D01*
X30012266Y8590932D01*
X30022800Y8643888D01*
X30022800Y8889999D01*
X30022799Y8890000D01*
X28397202Y8890000D01*
X28397201Y8889999D01*
X28397201Y8643891D01*
X28407734Y8590925D01*
X28407733Y8588366D01*
X28408399Y8587153D01*
X28407733Y8556633D01*
X28397275Y8504053D01*
X28366084Y8452649D01*
X28311064Y8433300D01*
X25000988Y8433300D01*
X24944487Y8453865D01*
X24938833Y8459045D01*
X24931545Y8466333D01*
X24906134Y8520827D01*
X24905800Y8528488D01*
X24905800Y8632836D01*
X24874569Y8749394D01*
X24874568Y8749395D01*
X24874568Y8749397D01*
X24814232Y8853903D01*
X24728903Y8939232D01*
X24624397Y8999568D01*
X24624396Y8999569D01*
X24624393Y8999570D01*
X24507836Y9030800D01*
X24387164Y9030800D01*
X24270606Y8999570D01*
X24166095Y8939231D01*
X24080769Y8853905D01*
X24020430Y8749394D01*
X23992162Y8643891D01*
X23989200Y8632836D01*
X23635800Y8632836D01*
X23604569Y8749394D01*
X23604568Y8749395D01*
X23604568Y8749397D01*
X23544232Y8853903D01*
X23458903Y8939232D01*
X23354397Y8999568D01*
X23354396Y8999569D01*
X23354393Y8999570D01*
X23237836Y9030800D01*
X23117164Y9030800D01*
X23000606Y8999570D01*
X22896095Y8939231D01*
X22810769Y8853905D01*
X22750430Y8749394D01*
X22722162Y8643891D01*
X22719200Y8632836D01*
X22719200Y8512164D01*
X22723445Y8496323D01*
X22750430Y8395607D01*
X22750431Y8395605D01*
X22750432Y8395603D01*
X22810768Y8291097D01*
X22896097Y8205768D01*
X23000603Y8145432D01*
X23000605Y8145432D01*
X23000606Y8145431D01*
X23117164Y8114200D01*
X23221512Y8114200D01*
X23278013Y8093635D01*
X23283667Y8088455D01*
X24855979Y6516143D01*
X24855978Y6516143D01*
X24901935Y6470187D01*
X24931143Y6440979D01*
X25029351Y6400300D01*
X25029352Y6400300D01*
X30215648Y6400300D01*
X30215649Y6400300D01*
X30313857Y6440979D01*
X30343066Y6470189D01*
X30397557Y6495598D01*
X30455635Y6480037D01*
X30490124Y6430784D01*
X30484884Y6370886D01*
X30481343Y6364084D01*
X30421546Y6260511D01*
X30407851Y6209397D01*
X30390315Y6143951D01*
X30390315Y6023279D01*
X30392550Y6014939D01*
X30421545Y5906722D01*
X30421546Y5906719D01*
X30421547Y5906718D01*
X30481883Y5802212D01*
X30481884Y5802211D01*
X30484764Y5797223D01*
X30482172Y5795728D01*
X30496971Y5748732D01*
X30473940Y5693191D01*
X30420596Y5665448D01*
X30409156Y5664700D01*
X25931775Y5664700D01*
X25931767Y5664701D01*
X25921536Y5664701D01*
X25815238Y5664701D01*
X25815237Y5664701D01*
X23329098Y5664701D01*
X23272597Y5685266D01*
X23242533Y5737337D01*
X23252974Y5796550D01*
X23264618Y5816718D01*
X23287068Y5855603D01*
X23318300Y5972164D01*
X23318300Y6092836D01*
X23304604Y6143951D01*
X23287069Y6209394D01*
X23287068Y6209395D01*
X23287068Y6209397D01*
X23226732Y6313903D01*
X23141403Y6399232D01*
X23036897Y6459568D01*
X23036896Y6459569D01*
X23036893Y6459570D01*
X22920336Y6490800D01*
X22799664Y6490800D01*
X22683106Y6459570D01*
X22578595Y6399231D01*
X22504810Y6325445D01*
X22450316Y6300034D01*
X22442655Y6299700D01*
X20467088Y6299700D01*
X20449055Y6306264D01*
X20429940Y6307936D01*
X20414219Y6318943D01*
X20410587Y6320265D01*
X20404933Y6325445D01*
X20348665Y6381713D01*
X20323254Y6436207D01*
X20338817Y6494285D01*
X20388068Y6528772D01*
X20496897Y6557932D01*
X20601403Y6618268D01*
X20686732Y6703597D01*
X20747068Y6808103D01*
X20778300Y6924664D01*
X20778300Y7045336D01*
X20755055Y7132088D01*
X20747069Y7161894D01*
X20747068Y7161895D01*
X20747068Y7161897D01*
X20686732Y7266403D01*
X20612945Y7340190D01*
X20587534Y7394684D01*
X20587200Y7402345D01*
X20587200Y9313913D01*
X28397200Y9313913D01*
X28397200Y9067801D01*
X28397201Y9067800D01*
X29121099Y9067800D01*
X29121100Y9067801D01*
X29121100Y9474199D01*
X29298900Y9474199D01*
X29298900Y9067801D01*
X29298901Y9067800D01*
X30022798Y9067800D01*
X30022799Y9067801D01*
X30022799Y9313909D01*
X30012483Y9365776D01*
X29973188Y9424583D01*
X29973182Y9424589D01*
X29914375Y9463884D01*
X29862513Y9474200D01*
X29298901Y9474200D01*
X29298900Y9474199D01*
X29121100Y9474199D01*
X29121099Y9474200D01*
X28557486Y9474200D01*
X28557484Y9474199D01*
X28505628Y9463886D01*
X28505624Y9463884D01*
X28446817Y9424589D01*
X28446811Y9424583D01*
X28407516Y9365776D01*
X28397200Y9313913D01*
X20587200Y9313913D01*
X20587200Y17840336D01*
X34784200Y17840336D01*
X34784200Y17719665D01*
X34815431Y17603105D01*
X34849224Y17544574D01*
X34861000Y17500624D01*
X34861000Y14566877D01*
X34849224Y14522928D01*
X34815431Y14464396D01*
X34807489Y14434754D01*
X34784200Y14347836D01*
X34784200Y14227164D01*
X34785731Y14221451D01*
X34815430Y14110607D01*
X34815431Y14110604D01*
X34815432Y14110603D01*
X34875768Y14006097D01*
X34961097Y13920768D01*
X35065603Y13860432D01*
X35065605Y13860432D01*
X35065606Y13860431D01*
X35182164Y13829200D01*
X35302835Y13829200D01*
X35302836Y13829200D01*
X35419397Y13860432D01*
X35523903Y13920768D01*
X35609232Y14006097D01*
X35669568Y14110603D01*
X35700800Y14227164D01*
X35700800Y14347836D01*
X35669568Y14464397D01*
X35640918Y14514021D01*
X35635776Y14522928D01*
X35624000Y14566877D01*
X35624000Y17500624D01*
X35635776Y17544574D01*
X35635948Y17544872D01*
X35669568Y17603103D01*
X35700800Y17719664D01*
X35700800Y17840336D01*
X35669568Y17956897D01*
X35609232Y18061403D01*
X35523903Y18146732D01*
X35419397Y18207068D01*
X35419396Y18207069D01*
X35419393Y18207070D01*
X35302836Y18238300D01*
X35182164Y18238300D01*
X35065606Y18207070D01*
X34961095Y18146731D01*
X34875769Y18061405D01*
X34815430Y17956894D01*
X34784200Y17840336D01*
X20587200Y17840336D01*
X20587200Y32237912D01*
X20607765Y32294413D01*
X20612945Y32300067D01*
X21357433Y33044555D01*
X21411927Y33069966D01*
X21419588Y33070300D01*
X26252655Y33070300D01*
X26309156Y33049735D01*
X26314810Y33044555D01*
X26388597Y32970768D01*
X26493103Y32910432D01*
X26493105Y32910432D01*
X26493106Y32910431D01*
X26609664Y32879200D01*
X26730335Y32879200D01*
X26730336Y32879200D01*
X26846897Y32910432D01*
X26951403Y32970768D01*
X27036732Y33056097D01*
X27070127Y33113941D01*
X27116185Y33152589D01*
X27176313Y33152589D01*
X27222371Y33113943D01*
X27255768Y33056097D01*
X27341097Y32970768D01*
X27445603Y32910432D01*
X27445605Y32910432D01*
X27445606Y32910431D01*
X27562164Y32879200D01*
X27682835Y32879200D01*
X27682836Y32879200D01*
X27799397Y32910432D01*
X27903903Y32970768D01*
X27977690Y33044555D01*
X28032184Y33069966D01*
X28039845Y33070300D01*
X33390648Y33070300D01*
X33390649Y33070300D01*
X33488857Y33110979D01*
X33961647Y33583771D01*
X34016139Y33609180D01*
X34074217Y33593618D01*
X34108705Y33544364D01*
X34111700Y33521615D01*
X34111700Y33421537D01*
X34111701Y33421535D01*
X34122043Y33369535D01*
X34122043Y33369534D01*
X34122044Y33369532D01*
X34122045Y33369531D01*
X34161453Y33310553D01*
X34177398Y33299899D01*
X34179643Y33298399D01*
X34215197Y33249909D01*
X34211264Y33189911D01*
X34169685Y33146478D01*
X34153558Y33140408D01*
X34113106Y33129570D01*
X34008595Y33069231D01*
X33923269Y32983905D01*
X33862930Y32879394D01*
X33831700Y32762836D01*
X33831700Y32642165D01*
X33862930Y32525607D01*
X33862931Y32525604D01*
X33862932Y32525603D01*
X33923268Y32421097D01*
X34008597Y32335768D01*
X34113103Y32275432D01*
X34113105Y32275432D01*
X34113106Y32275431D01*
X34229664Y32244200D01*
X34350335Y32244200D01*
X34350336Y32244200D01*
X34466897Y32275432D01*
X34571403Y32335768D01*
X34656732Y32421097D01*
X34717068Y32525603D01*
X34748300Y32642164D01*
X34748300Y32746513D01*
X34768865Y32803014D01*
X34774045Y32808668D01*
X34936147Y32970770D01*
X35151521Y33186143D01*
X35159969Y33206538D01*
X35200590Y33250869D01*
X35241178Y33260801D01*
X35577564Y33260801D01*
X35577565Y33260802D01*
X35629565Y33271144D01*
X35629566Y33271144D01*
X35629566Y33271145D01*
X35629569Y33271145D01*
X35688547Y33310553D01*
X35727955Y33369531D01*
X35738300Y33421539D01*
X35738299Y34117060D01*
X35738299Y34117061D01*
X35738299Y34117064D01*
X35738298Y34117066D01*
X35727956Y34169066D01*
X35727956Y34169067D01*
X35711950Y34193022D01*
X35688547Y34228047D01*
X35688546Y34228048D01*
X35683737Y34235245D01*
X35684926Y34236040D01*
X35663337Y34282339D01*
X35678900Y34340417D01*
X35688421Y34351767D01*
X35688543Y34351951D01*
X35688547Y34351953D01*
X35727955Y34410931D01*
X35738300Y34462939D01*
X35738299Y35158460D01*
X35738299Y35158461D01*
X35738299Y35158464D01*
X35738298Y35158466D01*
X35727956Y35210466D01*
X35727956Y35210467D01*
X35727955Y35210469D01*
X35688547Y35269447D01*
X35629569Y35308855D01*
X35577561Y35319200D01*
X35577559Y35319200D01*
X35280100Y35319200D01*
X35223599Y35339765D01*
X35193535Y35391836D01*
X35192200Y35407100D01*
X35192200Y35730412D01*
X35198763Y35748445D01*
X35200436Y35767560D01*
X35211442Y35783281D01*
X35212765Y35786913D01*
X35217945Y35792567D01*
X35327433Y35902055D01*
X35381927Y35927466D01*
X35389588Y35927800D01*
X35460155Y35927800D01*
X35516656Y35907235D01*
X35522310Y35902055D01*
X35596097Y35828268D01*
X35700603Y35767932D01*
X35700605Y35767932D01*
X35700606Y35767931D01*
X35817164Y35736700D01*
X35937835Y35736700D01*
X35937836Y35736700D01*
X36054397Y35767932D01*
X36158903Y35828268D01*
X36244232Y35913597D01*
X36304568Y36018103D01*
X36335800Y36134664D01*
X36335800Y36255336D01*
X36311411Y36346359D01*
X36304569Y36371894D01*
X36304568Y36371895D01*
X36304568Y36371897D01*
X36270472Y36430953D01*
X36260032Y36490164D01*
X36290096Y36542235D01*
X36346597Y36562800D01*
X37313403Y36562800D01*
X37327967Y36557499D01*
G37*
%TD.AperFunction*%
%TA.AperFunction,Conductor*%
G36*
X17802113Y36747035D02*
G01*
X17807767Y36741855D01*
X18883455Y35666167D01*
X18908866Y35611673D01*
X18909200Y35604012D01*
X18909200Y35499665D01*
X18940430Y35383107D01*
X18940431Y35383106D01*
X18940432Y35383103D01*
X18993185Y35291731D01*
X19000769Y35278596D01*
X19086097Y35193268D01*
X19088937Y35191089D01*
X19090097Y35189268D01*
X19090171Y35189194D01*
X19090154Y35189178D01*
X19121246Y35140380D01*
X19113402Y35080767D01*
X19069074Y35040143D01*
X19035431Y35033450D01*
X15816095Y35033450D01*
X15759594Y35054015D01*
X15753940Y35059195D01*
X15680154Y35132981D01*
X15680153Y35132982D01*
X15575647Y35193318D01*
X15575646Y35193319D01*
X15575643Y35193320D01*
X15459086Y35224550D01*
X15338414Y35224550D01*
X15221856Y35193320D01*
X15117345Y35132981D01*
X15032019Y35047655D01*
X14971680Y34943144D01*
X14940450Y34826586D01*
X14940450Y34705915D01*
X14971680Y34589357D01*
X14971681Y34589354D01*
X14971682Y34589353D01*
X15032018Y34484847D01*
X15117347Y34399518D01*
X15221853Y34339182D01*
X15221855Y34339182D01*
X15221856Y34339181D01*
X15338414Y34307950D01*
X15459085Y34307950D01*
X15459086Y34307950D01*
X15575647Y34339182D01*
X15680153Y34399518D01*
X15753940Y34473305D01*
X15808434Y34498716D01*
X15816095Y34499050D01*
X19873360Y34499050D01*
X19873361Y34499050D01*
X19971569Y34539729D01*
X19971571Y34539732D01*
X19975008Y34542028D01*
X19975920Y34543606D01*
X20000771Y34552646D01*
X20024737Y34563824D01*
X20028634Y34562781D01*
X20032425Y34564159D01*
X20057271Y34555111D01*
X20082817Y34548268D01*
X20086202Y34544574D01*
X20088922Y34543583D01*
X20108536Y34520198D01*
X20109678Y34518222D01*
X20120106Y34459006D01*
X20095700Y34412132D01*
X19631515Y33947945D01*
X19577021Y33922535D01*
X19569360Y33922200D01*
X14007600Y33922200D01*
X13951099Y33942765D01*
X13921035Y33994836D01*
X13919700Y34010100D01*
X13919700Y34978148D01*
X13919700Y34978149D01*
X13879021Y35076357D01*
X13853481Y35101897D01*
X13803857Y35151522D01*
X13803857Y35151521D01*
X12337831Y36617547D01*
X12312421Y36672039D01*
X12327984Y36730117D01*
X12377237Y36764605D01*
X12399987Y36767600D01*
X17745612Y36767600D01*
X17802113Y36747035D01*
G37*
%TD.AperFunction*%
%TD*%
M02*
