%TF.GenerationSoftware,KiCad,Pcbnew,9.0.1*%
%TF.CreationDate,2025-04-16T09:50:42-06:00*%
%TF.ProjectId,SparkFun_GNSS_ZED-X20P,53706172-6b46-4756-9e5f-474e53535f5a,rev?*%
%TF.SameCoordinates,Original*%
%TF.FileFunction,Soldermask,Bot*%
%TF.FilePolarity,Negative*%
%FSLAX46Y46*%
G04 Gerber Fmt 4.6, Leading zero omitted, Abs format (unit mm)*
G04 Created by KiCad (PCBNEW 9.0.1) date 2025-04-16 09:50:42*
%MOMM*%
%LPD*%
G01*
G04 APERTURE LIST*
G04 Aperture macros list*
%AMRoundRect*
0 Rectangle with rounded corners*
0 $1 Rounding radius*
0 $2 $3 $4 $5 $6 $7 $8 $9 X,Y pos of 4 corners*
0 Add a 4 corners polygon primitive as box body*
4,1,4,$2,$3,$4,$5,$6,$7,$8,$9,$2,$3,0*
0 Add four circle primitives for the rounded corners*
1,1,$1+$1,$2,$3*
1,1,$1+$1,$4,$5*
1,1,$1+$1,$6,$7*
1,1,$1+$1,$8,$9*
0 Add four rect primitives between the rounded corners*
20,1,$1+$1,$2,$3,$4,$5,0*
20,1,$1+$1,$4,$5,$6,$7,0*
20,1,$1+$1,$6,$7,$8,$9,0*
20,1,$1+$1,$8,$9,$2,$3,0*%
G04 Aperture macros list end*
%ADD10C,0.000000*%
%ADD11C,1.979600*%
%ADD12C,0.750000*%
%ADD13O,1.700000X1.100000*%
%ADD14O,2.200000X1.100000*%
%ADD15C,3.200000*%
%ADD16RoundRect,0.050000X-2.000000X0.750000X-2.000000X-0.750000X2.000000X-0.750000X2.000000X0.750000X0*%
%ADD17RoundRect,0.050000X0.317500X0.635000X-0.317500X0.635000X-0.317500X-0.635000X0.317500X-0.635000X0*%
%ADD18RoundRect,0.050000X-0.635000X0.330200X-0.635000X-0.330200X0.635000X-0.330200X0.635000X0.330200X0*%
%ADD19RoundRect,0.050000X0.635000X-0.330200X0.635000X0.330200X-0.635000X0.330200X-0.635000X-0.330200X0*%
%ADD20RoundRect,0.050000X-0.330200X-0.635000X0.330200X-0.635000X0.330200X0.635000X-0.330200X0.635000X0*%
%ADD21RoundRect,0.558000X0.000010X0.000010X-0.000010X0.000010X-0.000010X-0.000010X0.000010X-0.000010X0*%
%ADD22RoundRect,0.050000X-0.635000X0.317500X-0.635000X-0.317500X0.635000X-0.317500X0.635000X0.317500X0*%
G04 APERTURE END LIST*
D10*
%TO.C,JP4*%
G36*
X5638000Y32016700D02*
G01*
X5157000Y32016700D01*
X5157000Y32524700D01*
X5638000Y32524700D01*
X5638000Y32016700D01*
G37*
%TO.C,JP12*%
G36*
X18351500Y6427000D02*
G01*
X17843500Y6427000D01*
X17843500Y6908000D01*
X18351500Y6908000D01*
X18351500Y6427000D01*
G37*
%TO.C,JP3*%
G36*
X37388000Y34036000D02*
G01*
X36907000Y34036000D01*
X36907000Y34544000D01*
X37388000Y34544000D01*
X37388000Y34036000D01*
G37*
%TO.C,JP7*%
G36*
X1506750Y12446000D02*
G01*
X1025750Y12446000D01*
X1025750Y12954000D01*
X1506750Y12954000D01*
X1506750Y12446000D01*
G37*
%TO.C,JP8*%
G36*
X41833000Y34036000D02*
G01*
X41352000Y34036000D01*
X41352000Y34544000D01*
X41833000Y34544000D01*
X41833000Y34036000D01*
G37*
%TO.C,JP11*%
G36*
X18351500Y8649500D02*
G01*
X17843500Y8649500D01*
X17843500Y9130500D01*
X18351500Y9130500D01*
X18351500Y8649500D01*
G37*
%TO.C,JP2*%
G36*
X35165500Y34036000D02*
G01*
X34684500Y34036000D01*
X34684500Y34544000D01*
X35165500Y34544000D01*
X35165500Y34036000D01*
G37*
%TO.C,JP5*%
G36*
X39610500Y34036000D02*
G01*
X39129500Y34036000D01*
X39129500Y34544000D01*
X39610500Y34544000D01*
X39610500Y34036000D01*
G37*
%TD*%
D11*
%TO.C,J2*%
X8255000Y34290000D03*
X8255000Y31750000D03*
X8255000Y29210000D03*
X8255000Y26670000D03*
X8255000Y24130000D03*
X8255000Y21590000D03*
%TD*%
%TO.C,J11*%
X24130000Y1270000D03*
X26670000Y1270000D03*
X29210000Y1270000D03*
X31750000Y1270000D03*
X34290000Y1270000D03*
X36830000Y1270000D03*
%TD*%
D12*
%TO.C,J1*%
X4905000Y15590000D03*
X4905000Y9810000D03*
D13*
X1255000Y17018000D03*
D14*
X5435000Y17018000D03*
X5435000Y8382000D03*
D13*
X1255000Y8382000D03*
%TD*%
D15*
%TO.C,ST2*%
X40640000Y2540000D03*
%TD*%
D11*
%TO.C,J6*%
X1270000Y19050000D03*
X1270000Y21590000D03*
X1270000Y24130000D03*
X1270000Y26670000D03*
%TD*%
D16*
%TO.C,J5*%
X40957500Y21907500D03*
X40957500Y16827500D03*
%TD*%
D11*
%TO.C,J9*%
X13970000Y1270000D03*
X16510000Y1270000D03*
X19050000Y1270000D03*
X21590000Y1270000D03*
%TD*%
D15*
%TO.C,ST1*%
X40640000Y40640000D03*
%TD*%
D11*
%TO.C,J3*%
X34290000Y41910000D03*
X31750000Y41910000D03*
X29210000Y41910000D03*
X26670000Y41910000D03*
X24130000Y41910000D03*
X21590000Y41910000D03*
X19050000Y41910000D03*
X16510000Y41910000D03*
X13970000Y41910000D03*
%TD*%
D15*
%TO.C,ST3*%
X2540000Y40640000D03*
%TD*%
%TO.C,ST4*%
X2540000Y2540000D03*
%TD*%
D17*
%TO.C,JP9*%
X9702800Y3492500D03*
X8890000Y3492500D03*
X8077200Y3492500D03*
%TD*%
D18*
%TO.C,JP4*%
X5397500Y32791400D03*
X5397500Y31750000D03*
D19*
X5397500Y30708600D03*
%TD*%
D20*
%TO.C,JP12*%
X17576800Y6667500D03*
X18618200Y6667500D03*
%TD*%
D18*
%TO.C,JP3*%
X37147500Y34810700D03*
X37147500Y33769300D03*
%TD*%
%TO.C,JP7*%
X1266250Y13220700D03*
X1266250Y12179300D03*
%TD*%
%TO.C,JP8*%
X41592500Y34810700D03*
X41592500Y33769300D03*
%TD*%
D21*
%TO.C,TP4*%
X33020000Y8572500D03*
%TD*%
D20*
%TO.C,JP11*%
X17576800Y8890000D03*
X18618200Y8890000D03*
%TD*%
D22*
%TO.C,JP10*%
X29210000Y8978900D03*
X29210000Y8166100D03*
%TD*%
D18*
%TO.C,JP2*%
X34925000Y34810700D03*
X34925000Y33769300D03*
%TD*%
D21*
%TO.C,TP1*%
X31432500Y8572500D03*
%TD*%
D18*
%TO.C,JP5*%
X39370000Y34810700D03*
X39370000Y33769300D03*
%TD*%
M02*
