%TF.GenerationSoftware,KiCad,Pcbnew,9.0.1*%
%TF.CreationDate,2025-04-16T09:50:42-06:00*%
%TF.ProjectId,SparkFun_GNSS_ZED-X20P,53706172-6b46-4756-9e5f-474e53535f5a,rev?*%
%TF.SameCoordinates,Original*%
%TF.FileFunction,Legend,Top*%
%TF.FilePolarity,Positive*%
%FSLAX46Y46*%
G04 Gerber Fmt 4.6, Leading zero omitted, Abs format (unit mm)*
G04 Created by KiCad (PCBNEW 9.0.1) date 2025-04-16 09:50:42*
%MOMM*%
%LPD*%
G01*
G04 APERTURE LIST*
%ADD10C,0.127000*%
%ADD11C,0.200000*%
%ADD12C,0.000000*%
%ADD13C,0.120000*%
%ADD14C,0.203200*%
%ADD15C,0.304800*%
%ADD16C,0.177800*%
%ADD17C,0.152400*%
%ADD18C,0.141418*%
G04 APERTURE END LIST*
D10*
%TO.C,D13*%
X17473750Y6702500D02*
X17473750Y7902500D01*
X19673750Y6702500D02*
X19673750Y7902500D01*
D11*
X19923750Y8152500D02*
G75*
G02*
X19723750Y8152500I-100000J0D01*
G01*
X19723750Y8152500D02*
G75*
G02*
X19923750Y8152500I100000J0D01*
G01*
D12*
%TO.C,kibuzzard-64C2E6A3*%
G36*
X36229925Y26763345D02*
G01*
X36273740Y26761440D01*
X36307395Y26749375D01*
X36333113Y26715720D01*
X36341685Y26650315D01*
X36329937Y26579830D01*
X36294695Y26546175D01*
X36228655Y26538555D01*
X35523805Y26538555D01*
X35479990Y26540460D01*
X35446335Y26552525D01*
X35420618Y26586180D01*
X35412045Y26651585D01*
X35412045Y26922095D01*
X35636835Y26922095D01*
X35636835Y26763345D01*
X35861625Y26763345D01*
X35861625Y26923365D01*
X35833685Y26998295D01*
X35749865Y27035125D01*
X35665410Y26998295D01*
X35636835Y26922095D01*
X35412045Y26922095D01*
X35412045Y26923365D01*
X35421076Y26997166D01*
X35448169Y27069556D01*
X35493325Y27140535D01*
X35539680Y27187843D01*
X35600005Y27225625D01*
X35671125Y27250390D01*
X35749865Y27258645D01*
X35828446Y27250390D01*
X35899090Y27225625D01*
X35958939Y27187843D01*
X36005135Y27140535D01*
X36050291Y27069415D01*
X36077384Y26996602D01*
X36086415Y26922095D01*
X36086415Y26763345D01*
X36229925Y26763345D01*
G37*
G36*
X35560635Y28524835D02*
G01*
X36265485Y28280995D01*
X36287075Y28272105D01*
X36320730Y28238450D01*
X36341685Y28173680D01*
X36320730Y28108910D01*
X36279455Y28072715D01*
X35841305Y27924125D01*
X35991571Y27873274D01*
X36109123Y27833498D01*
X36193959Y27804796D01*
X36246079Y27787168D01*
X36265485Y27780615D01*
X36287075Y27769185D01*
X36312475Y27748865D01*
X36341685Y27679015D01*
X36322635Y27612340D01*
X36284535Y27577415D01*
X36265485Y27568525D01*
X35560635Y27323415D01*
X35498405Y27309445D01*
X35453002Y27330717D01*
X35418395Y27394535D01*
X35405695Y27461210D01*
X35426015Y27506930D01*
X35488245Y27535505D01*
X35912425Y27675205D01*
X35494595Y27813635D01*
X35449510Y27838718D01*
X35420935Y27878405D01*
X35412045Y27931110D01*
X35433000Y27991435D01*
X35474275Y28026995D01*
X35914965Y28173045D01*
X35488245Y28312745D01*
X35445065Y28329255D01*
X35417760Y28352750D01*
X35404425Y28395295D01*
X35417125Y28454985D01*
X35452685Y28518803D01*
X35498405Y28540075D01*
X35560635Y28524835D01*
G37*
G36*
X36229925Y28834715D02*
G01*
X36273740Y28832810D01*
X36307395Y28820745D01*
X36333113Y28787090D01*
X36341685Y28721685D01*
X36329937Y28651200D01*
X36294695Y28617545D01*
X36228655Y28609925D01*
X35523805Y28609925D01*
X35479990Y28611830D01*
X35446335Y28623895D01*
X35420618Y28657550D01*
X35412045Y28722955D01*
X35412045Y28994735D01*
X35636835Y28994735D01*
X35636835Y28834715D01*
X35861625Y28834715D01*
X35861625Y28997275D01*
X35833685Y29070935D01*
X35749865Y29107765D01*
X35665410Y29070935D01*
X35636835Y28994735D01*
X35412045Y28994735D01*
X35412045Y28997275D01*
X35421076Y29071076D01*
X35448169Y29143466D01*
X35493325Y29214445D01*
X35539680Y29260800D01*
X35600005Y29298265D01*
X35671125Y29323030D01*
X35749865Y29331285D01*
X35839894Y29320702D01*
X35918634Y29288952D01*
X35986085Y29236035D01*
X36038155Y29258048D01*
X36104618Y29286835D01*
X36185475Y29322395D01*
X36251515Y29341445D01*
X36295965Y29321760D01*
X36332795Y29262705D01*
X36350575Y29197300D01*
X36338510Y29156660D01*
X36313745Y29133165D01*
X36277479Y29116514D01*
X36200856Y29083494D01*
X36083875Y29034105D01*
X36086415Y28994735D01*
X36086415Y28834715D01*
X36229925Y28834715D01*
G37*
D13*
%TO.C,D4*%
X37282500Y29715000D02*
X38282500Y29715000D01*
D12*
%TO.C,kibuzzard-67EC56CE*%
G36*
X38139052Y9120426D02*
G01*
X38219167Y9053902D01*
X38199138Y8961627D01*
X37771384Y8073215D01*
X37709868Y8003830D01*
X37611155Y8023144D01*
X37532471Y8085376D01*
X37548208Y8174789D01*
X37977393Y9071785D01*
X38041055Y9141170D01*
X38139052Y9120426D01*
G37*
G36*
X39648351Y9120426D02*
G01*
X39728466Y9053902D01*
X39708437Y8961627D01*
X39280683Y8073215D01*
X39219167Y8003830D01*
X39120454Y8023144D01*
X39041770Y8085376D01*
X39057507Y8174789D01*
X39486692Y9071785D01*
X39550354Y9141170D01*
X39648351Y9120426D01*
G37*
G36*
X41053215Y9120426D02*
G01*
X41133330Y9053902D01*
X41113301Y8961627D01*
X40685547Y8073215D01*
X40624031Y8003830D01*
X40525318Y8023144D01*
X40446634Y8085376D01*
X40462371Y8174789D01*
X40891556Y9071785D01*
X40955218Y9141170D01*
X41053215Y9120426D01*
G37*
G36*
X37455218Y9048180D02*
G01*
X37483830Y8945891D01*
X37483830Y8201971D01*
X37455218Y8101828D01*
X37353644Y8073215D01*
X37253501Y8101828D01*
X37224889Y8203401D01*
X37224889Y8686949D01*
X37210583Y8674074D01*
X37122600Y8632586D01*
X37037479Y8682657D01*
X36993129Y8777078D01*
X37009582Y8822858D01*
X37053215Y8871499D01*
X37234903Y9034589D01*
X37257793Y9053187D01*
X37355075Y9077507D01*
X37455218Y9048180D01*
G37*
G36*
X36446634Y9067493D02*
G01*
X36486692Y9034589D01*
X36500283Y8995247D01*
X36502428Y8945891D01*
X36502428Y8299253D01*
X36851499Y8299253D01*
X36892271Y8297107D01*
X36925175Y8285662D01*
X36953072Y8252042D01*
X36961656Y8187665D01*
X36953072Y8124717D01*
X36925175Y8090383D01*
X36890840Y8078222D01*
X36850068Y8076077D01*
X36370812Y8076077D01*
X36296420Y8086091D01*
X36256363Y8118995D01*
X36242772Y8158337D01*
X36240626Y8207693D01*
X36240626Y8947321D01*
X36242772Y8995247D01*
X36256363Y9034589D01*
X36296420Y9067493D01*
X36372242Y9077507D01*
X36446634Y9067493D01*
G37*
G36*
X40269238Y9078938D02*
G01*
X40318594Y9076077D01*
X40357221Y9062486D01*
X40389410Y9022428D01*
X40399424Y8944460D01*
X40390125Y8872929D01*
X40359367Y8835018D01*
X40322171Y8822142D01*
X40276391Y8819996D01*
X40056077Y8819996D01*
X40046062Y8744174D01*
X40070383Y8747035D01*
X40077536Y8747035D01*
X40164485Y8735829D01*
X40244123Y8702209D01*
X40316448Y8646177D01*
X40373673Y8575361D01*
X40408008Y8497393D01*
X40419453Y8412271D01*
X40408326Y8317453D01*
X40374945Y8233285D01*
X40319310Y8159768D01*
X40247302Y8102940D01*
X40164803Y8068844D01*
X40071813Y8057479D01*
X39994560Y8063737D01*
X39923029Y8082514D01*
X39825747Y8131871D01*
X39795705Y8157622D01*
X39741341Y8244889D01*
X39794274Y8342171D01*
X39882972Y8390812D01*
X39980254Y8343602D01*
X40063230Y8320712D01*
X40131899Y8342171D01*
X40156220Y8402257D01*
X40130469Y8461627D01*
X40067521Y8485232D01*
X40011727Y8465204D01*
X39931613Y8430869D01*
X39838623Y8459481D01*
X39774961Y8502400D01*
X39757078Y8543888D01*
X39810011Y8950182D01*
X39817164Y8990240D01*
X39833616Y9029582D01*
X39873673Y9067493D01*
X39941627Y9080368D01*
X40269238Y9078938D01*
G37*
G36*
X41759224Y9074646D02*
G01*
X41797135Y9060340D01*
X41827893Y9020998D01*
X41837192Y8945891D01*
X41827178Y8871499D01*
X41794274Y8831441D01*
X41754932Y8817851D01*
X41705576Y8815705D01*
X41611334Y8804260D01*
X41540340Y8769925D01*
X41489374Y8721999D01*
X41455218Y8669782D01*
X41531041Y8684088D01*
X41616798Y8674153D01*
X41694767Y8644349D01*
X41764946Y8594675D01*
X41820184Y8531807D01*
X41853327Y8462422D01*
X41864374Y8386520D01*
X41853327Y8299650D01*
X41820184Y8222158D01*
X41764946Y8154045D01*
X41693654Y8101192D01*
X41612347Y8069480D01*
X41521026Y8058909D01*
X41515304Y8059575D01*
X41416512Y8071069D01*
X41328052Y8107550D01*
X41255647Y8168351D01*
X41201999Y8250453D01*
X41169810Y8350834D01*
X41166971Y8382228D01*
X41428036Y8382228D01*
X41448065Y8322142D01*
X41515304Y8303544D01*
X41583974Y8321427D01*
X41605433Y8379367D01*
X41582543Y8430154D01*
X41523888Y8449467D01*
X41453788Y8430869D01*
X41428036Y8382228D01*
X41166971Y8382228D01*
X41159081Y8469496D01*
X41165204Y8573587D01*
X41183573Y8669553D01*
X41214188Y8757393D01*
X41257049Y8837107D01*
X41312157Y8908695D01*
X41394506Y8982550D01*
X41488480Y9035304D01*
X41594077Y9066956D01*
X41711298Y9077507D01*
X41759224Y9074646D01*
G37*
G36*
X38715590Y9079574D02*
G01*
X38803811Y9042854D01*
X38881541Y8981656D01*
X38941945Y8902972D01*
X38978187Y8813797D01*
X38990268Y8714131D01*
X38983294Y8641885D01*
X38962371Y8573931D01*
X38930004Y8513129D01*
X38888695Y8462343D01*
X38801427Y8387235D01*
X38715590Y8336448D01*
X38894417Y8336448D01*
X38943773Y8333587D01*
X38982400Y8319281D01*
X39014589Y8279224D01*
X39024603Y8203401D01*
X39014589Y8129725D01*
X38981685Y8090383D01*
X38940912Y8076077D01*
X38891556Y8073215D01*
X38375104Y8073215D01*
X38283544Y8112557D01*
X38244918Y8206263D01*
X38257793Y8278866D01*
X38296420Y8345032D01*
X38346134Y8395998D01*
X38415161Y8448752D01*
X38490626Y8497929D01*
X38559653Y8538165D01*
X38621706Y8578222D01*
X38676248Y8626863D01*
X38714338Y8680511D01*
X38727035Y8735590D01*
X38722028Y8773501D01*
X38690554Y8810697D01*
X38618308Y8830011D01*
X38534617Y8800325D01*
X38506720Y8711270D01*
X38504574Y8665490D01*
X38490984Y8629009D01*
X38450926Y8598966D01*
X38375104Y8589667D01*
X38300712Y8599682D01*
X38260655Y8632586D01*
X38247064Y8671928D01*
X38244918Y8721284D01*
X38256363Y8812684D01*
X38290697Y8898044D01*
X38347922Y8977364D01*
X38423586Y9040947D01*
X38513238Y9079097D01*
X38616878Y9091813D01*
X38715590Y9079574D01*
G37*
%TO.C,kibuzzard-67EC5083*%
G36*
X41355590Y26488308D02*
G01*
X41387064Y26461985D01*
X41397936Y26430511D01*
X41399653Y26391026D01*
X41399653Y26076291D01*
X41501513Y26076291D01*
X41501513Y26286878D01*
X41503230Y26324074D01*
X41512958Y26351541D01*
X41540426Y26373287D01*
X41593072Y26379582D01*
X41642858Y26373287D01*
X41669181Y26350969D01*
X41678337Y26322929D01*
X41680054Y26285733D01*
X41680054Y26076291D01*
X41887207Y26076291D01*
X41926692Y26074574D01*
X41957593Y26063702D01*
X41983344Y26031656D01*
X41991356Y25970998D01*
X41983344Y25911484D01*
X41957021Y25879438D01*
X41925547Y25868566D01*
X41886062Y25866849D01*
X41294360Y25866849D01*
X41212529Y25890311D01*
X41190211Y25974431D01*
X41190211Y26393315D01*
X41191928Y26431656D01*
X41202800Y26462557D01*
X41234846Y26488308D01*
X41295504Y26496320D01*
X41355590Y26488308D01*
G37*
G36*
X41926692Y27948108D02*
G01*
X41957593Y27937235D01*
X41983344Y27905190D01*
X41991356Y27844531D01*
X41985061Y27785590D01*
X41960454Y27751828D01*
X41569038Y27455404D01*
X41887207Y27455404D01*
X41926692Y27453687D01*
X41957593Y27442815D01*
X41983344Y27410769D01*
X41991356Y27350111D01*
X41983344Y27291170D01*
X41957593Y27260268D01*
X41926119Y27249396D01*
X41886062Y27247107D01*
X41292071Y27247107D01*
X41253730Y27249396D01*
X41223401Y27260840D01*
X41198795Y27292314D01*
X41191356Y27352400D01*
X41198222Y27404474D01*
X41212529Y27433659D01*
X41235991Y27454260D01*
X41620540Y27740383D01*
X41292071Y27740383D01*
X41254303Y27742672D01*
X41223974Y27754117D01*
X41199367Y27786162D01*
X41191356Y27845676D01*
X41199367Y27905190D01*
X41225690Y27937235D01*
X41257164Y27948108D01*
X41296649Y27949825D01*
X41887207Y27949825D01*
X41926692Y27948108D01*
G37*
G36*
X41946720Y29370139D02*
G01*
X41978766Y29343816D01*
X41989639Y29312343D01*
X41991356Y29272858D01*
X41991356Y28851685D01*
X41983344Y28792171D01*
X41957021Y28760125D01*
X41925547Y28749253D01*
X41886062Y28747536D01*
X41294360Y28747536D01*
X41212529Y28770998D01*
X41190211Y28855118D01*
X41190211Y29274002D01*
X41191928Y29313487D01*
X41202800Y29344388D01*
X41234846Y29370139D01*
X41295504Y29378151D01*
X41355018Y29370139D01*
X41387064Y29343816D01*
X41397936Y29312343D01*
X41399653Y29272858D01*
X41399653Y28956978D01*
X41501513Y28956978D01*
X41501513Y29168709D01*
X41503230Y29205905D01*
X41512386Y29233373D01*
X41539853Y29255118D01*
X41591928Y29261413D01*
X41642858Y29255118D01*
X41669181Y29232800D01*
X41678337Y29204188D01*
X41680054Y29166420D01*
X41680054Y28956978D01*
X41781913Y28956978D01*
X41781913Y29274002D01*
X41783630Y29313487D01*
X41794503Y29344388D01*
X41826549Y29370139D01*
X41887207Y29378151D01*
X41946720Y29370139D01*
G37*
G36*
X41946720Y27191026D02*
G01*
X41978766Y27164703D01*
X41989639Y27133230D01*
X41991356Y27093745D01*
X41991356Y26672572D01*
X41983344Y26613058D01*
X41957021Y26581012D01*
X41925547Y26570139D01*
X41886062Y26568423D01*
X41294360Y26568423D01*
X41212529Y26591885D01*
X41190211Y26676005D01*
X41190211Y27094889D01*
X41191928Y27134374D01*
X41202800Y27165275D01*
X41234846Y27191026D01*
X41295504Y27199038D01*
X41355018Y27191026D01*
X41387064Y27164703D01*
X41397936Y27133230D01*
X41399653Y27093745D01*
X41399653Y26777865D01*
X41501513Y26777865D01*
X41501513Y26989596D01*
X41503230Y27026792D01*
X41512386Y27054260D01*
X41539853Y27076005D01*
X41591928Y27082300D01*
X41642858Y27076005D01*
X41669181Y27053687D01*
X41678337Y27025075D01*
X41680054Y26987307D01*
X41680054Y26777865D01*
X41781913Y26777865D01*
X41781913Y27094889D01*
X41783630Y27134374D01*
X41794503Y27165275D01*
X41826549Y27191026D01*
X41887207Y27199038D01*
X41946720Y27191026D01*
G37*
G36*
X41390497Y28663988D02*
G01*
X41436849Y28621069D01*
X41452300Y28581584D01*
X41425976Y28519782D01*
X41420826Y28512343D01*
X41414531Y28502614D01*
X41408237Y28491742D01*
X41402514Y28476291D01*
X41397936Y28457979D01*
X41393931Y28435089D01*
X41392786Y28407622D01*
X41404231Y28342386D01*
X41437994Y28277722D01*
X41500368Y28226792D01*
X41543287Y28212200D01*
X41591928Y28207335D01*
X41654446Y28216062D01*
X41706949Y28242242D01*
X41747149Y28279295D01*
X41772758Y28320640D01*
X41791069Y28407622D01*
X41781627Y28467994D01*
X41753301Y28525504D01*
X41730411Y28582729D01*
X41746720Y28621642D01*
X41795647Y28662843D01*
X41862028Y28688022D01*
X41903802Y28671999D01*
X41938709Y28625075D01*
X41974315Y28557169D01*
X41995679Y28486210D01*
X42002800Y28412200D01*
X41999367Y28363702D01*
X41989067Y28312057D01*
X41970612Y28257979D01*
X41942715Y28202185D01*
X41906663Y28148537D01*
X41863745Y28100898D01*
X41810955Y28060125D01*
X41745290Y28027078D01*
X41669467Y28005190D01*
X41586205Y27997893D01*
X41506091Y28005046D01*
X41432843Y28026506D01*
X41369181Y28059124D01*
X41317822Y28099753D01*
X41276048Y28147393D01*
X41241141Y28201041D01*
X41214102Y28257121D01*
X41195933Y28312057D01*
X41185633Y28365132D01*
X41182200Y28415633D01*
X41189321Y28483794D01*
X41210685Y28553989D01*
X41246291Y28626220D01*
X41268036Y28657121D01*
X41292071Y28678294D01*
X41326406Y28689167D01*
X41390497Y28663988D01*
G37*
%TO.C,kibuzzard-6797CFEB*%
G36*
X31807725Y3032527D02*
G01*
X31830901Y2970724D01*
X31830901Y2829093D01*
X31642918Y2829093D01*
X31642918Y2968149D01*
X31669957Y3034458D01*
X31736910Y3062141D01*
X31807725Y3032527D01*
G37*
G36*
X32536052Y3675016D02*
G01*
X32536052Y3158707D01*
X32536052Y2593471D01*
X32536052Y1949694D01*
X30963948Y1949694D01*
X30963948Y2593471D01*
X30963948Y4828664D01*
X31178541Y4828664D01*
X31178541Y2593471D01*
X31285837Y2593471D01*
X31285837Y2970724D01*
X31407296Y2970724D01*
X31407296Y2711926D01*
X31416309Y2643686D01*
X31445923Y2607634D01*
X31481330Y2595402D01*
X31524464Y2593471D01*
X32188841Y2593471D01*
X32233262Y2595402D01*
X32268670Y2607634D01*
X32298283Y2643686D01*
X32307296Y2710638D01*
X32298283Y2778879D01*
X32269313Y2814930D01*
X32234549Y2827162D01*
X32190129Y2829093D01*
X32065236Y2829093D01*
X32065236Y2948836D01*
X32251931Y3086604D01*
X32311803Y3158707D01*
X32276395Y3250123D01*
X32200429Y3311926D01*
X32111588Y3277162D01*
X31987983Y3184458D01*
X31917883Y3247405D01*
X31834621Y3285173D01*
X31738197Y3297763D01*
X31661749Y3289716D01*
X31592060Y3265574D01*
X31532672Y3228718D01*
X31487124Y3182527D01*
X31453004Y3130703D01*
X31427897Y3076947D01*
X31412446Y3023031D01*
X31407296Y2970724D01*
X31285837Y2970724D01*
X31285837Y3663428D01*
X31393133Y3663428D01*
X31401788Y3580882D01*
X31427754Y3508349D01*
X31471030Y3445832D01*
X31527468Y3397906D01*
X31592918Y3369151D01*
X31667382Y3359565D01*
X31751073Y3369866D01*
X31820601Y3400767D01*
X31875966Y3452269D01*
X31917167Y3524372D01*
X31934710Y3573138D01*
X31951288Y3634458D01*
X31981545Y3735531D01*
X32021459Y3769008D01*
X32081330Y3745832D01*
X32100000Y3669866D01*
X32087768Y3619008D01*
X32040773Y3566862D01*
X31993848Y3508779D01*
X31985265Y3452985D01*
X32015021Y3399480D01*
X32097425Y3345402D01*
X32181116Y3377591D01*
X32190129Y3385317D01*
X32208155Y3399480D01*
X32230687Y3422012D01*
X32255794Y3452913D01*
X32280258Y3492827D01*
X32301502Y3542398D01*
X32315665Y3602913D01*
X32321459Y3675016D01*
X32311803Y3760638D01*
X32278970Y3848836D01*
X32221674Y3928020D01*
X32134764Y3984029D01*
X32079077Y4000445D01*
X32017597Y4005917D01*
X31921352Y3993847D01*
X31851502Y3957634D01*
X31802575Y3901143D01*
X31769099Y3828235D01*
X31749142Y3745832D01*
X31733047Y3667291D01*
X31710515Y3616432D01*
X31668670Y3593900D01*
X31629399Y3614501D01*
X31613305Y3662141D01*
X31617811Y3704630D01*
X31627468Y3729737D01*
X31642275Y3747763D01*
X31654506Y3762570D01*
X31678326Y3848836D01*
X31615880Y3924802D01*
X31536695Y3955703D01*
X31470386Y3909351D01*
X31427468Y3842541D01*
X31401717Y3760567D01*
X31393133Y3663428D01*
X31285837Y3663428D01*
X31285837Y4730810D01*
X31406009Y4730810D01*
X31406009Y4142398D01*
X31407940Y4105703D01*
X31418240Y4076089D01*
X31447854Y4050982D01*
X31503863Y4043256D01*
X31561803Y4050982D01*
X31592060Y4075445D01*
X31602361Y4104415D01*
X31604292Y4141111D01*
X31604292Y4320080D01*
X32192704Y4320080D01*
X32235837Y4322012D01*
X32270601Y4333600D01*
X32299571Y4368364D01*
X32308584Y4434673D01*
X32299571Y4501626D01*
X32271245Y4537677D01*
X32237124Y4549909D01*
X32193991Y4551840D01*
X31604292Y4551840D01*
X31604292Y4729523D01*
X31602361Y4766218D01*
X31592060Y4795832D01*
X31561803Y4820939D01*
X31505150Y4828664D01*
X31448498Y4820939D01*
X31418240Y4796475D01*
X31407940Y4767505D01*
X31406009Y4730810D01*
X31285837Y4730810D01*
X31285837Y4828664D01*
X31178541Y4828664D01*
X30963948Y4828664D01*
X30963948Y4828771D01*
X31750000Y5352806D01*
X32536052Y4828771D01*
X32536052Y4828664D01*
X32536052Y4434673D01*
X32536052Y3675016D01*
G37*
%TO.C,kibuzzard-6797CF40*%
G36*
X6035265Y35250522D02*
G01*
X6780615Y34911466D01*
X6832833Y34862110D01*
X6852146Y34788433D01*
X6834263Y34708319D01*
X6780615Y34659678D01*
X6035265Y34320622D01*
X5935837Y34306316D01*
X5867883Y34386431D01*
X5846423Y34493727D01*
X5927969Y34559535D01*
X6484478Y34785572D01*
X5927969Y35011609D01*
X5847139Y35078848D01*
X5867883Y35184714D01*
X5936552Y35266974D01*
X6035265Y35250522D01*
G37*
G36*
X6023820Y33562396D02*
G01*
X6057439Y33534499D01*
X6068884Y33501595D01*
X6071030Y33460823D01*
X6071030Y33263398D01*
X6726252Y33263398D01*
X6774177Y33261252D01*
X6812089Y33247661D01*
X6843562Y33207604D01*
X6853577Y33133212D01*
X6843562Y33059535D01*
X6811373Y33020908D01*
X6772747Y33008033D01*
X6724821Y33005887D01*
X6071030Y33005887D01*
X6071030Y32807031D01*
X6068884Y32766259D01*
X6057439Y32734070D01*
X6023820Y32706888D01*
X5959442Y32698305D01*
X5897210Y32706888D01*
X5864306Y32734785D01*
X5852861Y32767690D01*
X5850715Y32808462D01*
X5850715Y33462253D01*
X5852861Y33503026D01*
X5864306Y33535215D01*
X5897926Y33562396D01*
X5960873Y33570980D01*
X6023820Y33562396D01*
G37*
G36*
X6721960Y31452239D02*
G01*
X6771316Y31450093D01*
X6809943Y31436502D01*
X6842132Y31396445D01*
X6852146Y31320622D01*
X6842132Y31246230D01*
X6809227Y31206173D01*
X6769886Y31192582D01*
X6720529Y31190436D01*
X5982332Y31190436D01*
X5934406Y31192582D01*
X5895064Y31206173D01*
X5862160Y31246230D01*
X5852146Y31322053D01*
X5852146Y31606745D01*
X6113948Y31606745D01*
X6113948Y31452239D01*
X6322818Y31452239D01*
X6322818Y31609607D01*
X6297067Y31678276D01*
X6218383Y31711180D01*
X6143991Y31680422D01*
X6113948Y31606745D01*
X5852146Y31606745D01*
X5852146Y31609607D01*
X5857868Y31667725D01*
X5875036Y31727632D01*
X5902933Y31787361D01*
X5940844Y31844943D01*
X5991452Y31896266D01*
X6057439Y31937217D01*
X6134871Y31964041D01*
X6219814Y31972983D01*
X6326951Y31958995D01*
X6419464Y31917030D01*
X6497353Y31847089D01*
X6634692Y31950093D01*
X6733405Y31988720D01*
X6817811Y31920050D01*
X6857153Y31818476D01*
X6790629Y31738362D01*
X6583190Y31585286D01*
X6583190Y31452239D01*
X6721960Y31452239D01*
G37*
G36*
X6739843Y30369263D02*
G01*
X6779006Y30328848D01*
X6812089Y30276273D01*
X6843085Y30197113D01*
X6861683Y30102692D01*
X6867883Y29993011D01*
X6858137Y29893584D01*
X6828898Y29801309D01*
X6780168Y29716187D01*
X6711946Y29638219D01*
X6630132Y29573126D01*
X6540629Y29526631D01*
X6443437Y29498734D01*
X6338555Y29489435D01*
X6238546Y29498868D01*
X6145959Y29527167D01*
X6060792Y29574333D01*
X5983047Y29640365D01*
X5918267Y29719630D01*
X5871996Y29806495D01*
X5844233Y29900960D01*
X5834979Y30003026D01*
X5840165Y30077239D01*
X5855722Y30156817D01*
X5880579Y30232103D01*
X5913662Y30293441D01*
X5942275Y30333498D01*
X5972318Y30359964D01*
X6013805Y30373555D01*
X6093920Y30340651D01*
X6150787Y30287718D01*
X6169742Y30234785D01*
X6136838Y30157532D01*
X6106795Y30084213D01*
X6096781Y29995873D01*
X6114485Y29901810D01*
X6167597Y29822768D01*
X6246459Y29769120D01*
X6341416Y29751237D01*
X6439413Y29769835D01*
X6524535Y29825629D01*
X6583548Y29906102D01*
X6603219Y29998734D01*
X6598569Y30080994D01*
X6584621Y30141795D01*
X6461588Y30141795D01*
X6461588Y30035930D01*
X6459442Y29997303D01*
X6447997Y29967260D01*
X6414378Y29942940D01*
X6350000Y29935787D01*
X6287053Y29943655D01*
X6253433Y29970122D01*
X6241989Y30001595D01*
X6239843Y30040222D01*
X6239843Y30290579D01*
X6249857Y30345658D01*
X6268455Y30379278D01*
X6297067Y30396445D01*
X6328541Y30402883D01*
X6364306Y30403598D01*
X6657582Y30403598D01*
X6739843Y30369263D01*
G37*
%TO.C,kibuzzard-66CAA432*%
G36*
X14053362Y4878848D02*
G01*
X14122407Y4831530D01*
X14169242Y4762324D01*
X14184853Y4680887D01*
X14184853Y4576595D01*
X13756098Y4576595D01*
X13756098Y4679599D01*
X13771871Y4762003D01*
X13819188Y4831530D01*
X13888716Y4878848D01*
X13971120Y4894621D01*
X14053362Y4878848D01*
G37*
G36*
X14649231Y3594191D02*
G01*
X14649231Y3014792D01*
X14649231Y2561573D01*
X14649231Y2132389D01*
X13290433Y2132389D01*
X13290433Y2561573D01*
X13290433Y3023805D01*
X13505025Y3023805D01*
X13513354Y2931946D01*
X13538341Y2846927D01*
X13579985Y2768749D01*
X13638287Y2697410D01*
X13708257Y2637982D01*
X13784907Y2595533D01*
X13868236Y2570063D01*
X13958244Y2561573D01*
X14052638Y2569942D01*
X14140111Y2595050D01*
X14220664Y2636895D01*
X14294296Y2695479D01*
X14355696Y2765651D01*
X14399553Y2842260D01*
X14425867Y2925307D01*
X14434639Y3014792D01*
X14429059Y3113505D01*
X14412321Y3198483D01*
X14384424Y3269728D01*
X14354650Y3317045D01*
X14319403Y3353419D01*
X14245368Y3384320D01*
X13981420Y3384320D01*
X13949231Y3383676D01*
X13920905Y3377882D01*
X13895154Y3362432D01*
X13878416Y3332174D01*
X13869403Y3282603D01*
X13869403Y3057282D01*
X13871334Y3022518D01*
X13881635Y2994191D01*
X13911892Y2970372D01*
X13968544Y2963290D01*
X14026484Y2969728D01*
X14056742Y2991616D01*
X14067042Y3018655D01*
X14068974Y3053419D01*
X14068974Y3148698D01*
X14179703Y3148698D01*
X14192257Y3093977D01*
X14196441Y3019942D01*
X14178738Y2936573D01*
X14125626Y2864148D01*
X14049017Y2813934D01*
X13960819Y2797196D01*
X13875358Y2813290D01*
X13804381Y2861573D01*
X13756581Y2932711D01*
X13740647Y3017367D01*
X13749660Y3096874D01*
X13776699Y3162861D01*
X13806313Y3232389D01*
X13789253Y3280028D01*
X13738072Y3327668D01*
X13665969Y3357282D01*
X13628630Y3345050D01*
X13601592Y3321230D01*
X13575841Y3285179D01*
X13546066Y3229975D01*
X13523695Y3162217D01*
X13509693Y3090597D01*
X13505025Y3023805D01*
X13290433Y3023805D01*
X13290433Y4151702D01*
X13521763Y4151702D01*
X13530776Y4084749D01*
X13558459Y4048698D01*
X13592579Y4035822D01*
X13635068Y4033247D01*
X14004596Y4033247D01*
X13571978Y3711359D01*
X13545583Y3688183D01*
X13529489Y3655350D01*
X13521763Y3596767D01*
X13530132Y3529170D01*
X13557815Y3493762D01*
X13591935Y3480887D01*
X13635068Y3478312D01*
X14303308Y3478312D01*
X14348373Y3480887D01*
X14383780Y3493118D01*
X14412750Y3527882D01*
X14421763Y3594191D01*
X14412750Y3662432D01*
X14383780Y3698483D01*
X14349017Y3710715D01*
X14304596Y3712646D01*
X13946656Y3712646D01*
X14386999Y4046123D01*
X14414682Y4084106D01*
X14421763Y4150415D01*
X14412750Y4218655D01*
X14383780Y4254706D01*
X14349017Y4266938D01*
X14304596Y4268870D01*
X13640218Y4268870D01*
X13595798Y4266938D01*
X13560390Y4254706D01*
X13530776Y4218655D01*
X13521763Y4151702D01*
X13290433Y4151702D01*
X13290433Y4680887D01*
X13520476Y4680887D01*
X13520476Y4459427D01*
X13528845Y4391187D01*
X13557815Y4355136D01*
X13593223Y4342904D01*
X13636356Y4340973D01*
X14302021Y4340973D01*
X14347729Y4344191D01*
X14383780Y4357711D01*
X14411463Y4393118D01*
X14420476Y4458140D01*
X14420476Y4677024D01*
X14412147Y4767555D01*
X14387160Y4851166D01*
X14345516Y4927856D01*
X14287214Y4997625D01*
X14217163Y5055645D01*
X14140272Y5097088D01*
X14056541Y5121954D01*
X13965969Y5130243D01*
X13877772Y5121954D01*
X13796012Y5097088D01*
X13720690Y5055645D01*
X13651806Y4997625D01*
X13594349Y4928097D01*
X13553308Y4852131D01*
X13528684Y4769728D01*
X13520476Y4680887D01*
X13290433Y4680887D01*
X13290433Y5130243D01*
X13290433Y5344835D01*
X14649231Y5344835D01*
X14649231Y5130243D01*
X14649231Y4458140D01*
X14649231Y3594191D01*
G37*
D13*
%TO.C,R8*%
X4682258Y27510000D02*
X4207742Y27510000D01*
X4682258Y26465000D02*
X4207742Y26465000D01*
%TO.C,R3*%
X39165000Y34052742D02*
X39165000Y34527258D01*
X40210000Y34052742D02*
X40210000Y34527258D01*
%TO.C,C5*%
X13793080Y22417500D02*
X13511920Y22417500D01*
X13793080Y21397500D02*
X13511920Y21397500D01*
D12*
%TO.C,G\u002A\u002A\u002A*%
G36*
X7145471Y36740674D02*
G01*
X7187685Y36726789D01*
X7225971Y36702208D01*
X7235974Y36693652D01*
X7270191Y36655896D01*
X7294377Y36612561D01*
X7308992Y36562319D01*
X7314491Y36503841D01*
X7313803Y36467812D01*
X7311625Y36436009D01*
X7308140Y36412338D01*
X7302027Y36391642D01*
X7291966Y36368765D01*
X7284705Y36354234D01*
X7256214Y36308985D01*
X7222193Y36275334D01*
X7181283Y36252382D01*
X7132127Y36239229D01*
X7106662Y36236244D01*
X7079213Y36236443D01*
X7050931Y36240140D01*
X7042500Y36242150D01*
X6991710Y36262656D01*
X6949987Y36292778D01*
X6917536Y36332232D01*
X6894565Y36380730D01*
X6881280Y36437985D01*
X6878347Y36469566D01*
X6879362Y36533479D01*
X6889851Y36588820D01*
X6910213Y36636724D01*
X6940851Y36678327D01*
X6958047Y36695252D01*
X6995660Y36722334D01*
X7037261Y36738542D01*
X7085614Y36744872D01*
X7096121Y36745040D01*
X7145471Y36740674D01*
G37*
G36*
X9078989Y37386184D02*
G01*
X9258469Y37386176D01*
X9425572Y37386159D01*
X9580756Y37386131D01*
X9724476Y37386089D01*
X9857189Y37386029D01*
X9979351Y37385950D01*
X10091417Y37385848D01*
X10193844Y37385721D01*
X10287089Y37385566D01*
X10371606Y37385379D01*
X10447853Y37385159D01*
X10516285Y37384902D01*
X10577358Y37384606D01*
X10631530Y37384268D01*
X10679255Y37383884D01*
X10720989Y37383453D01*
X10757190Y37382972D01*
X10788313Y37382437D01*
X10814814Y37381846D01*
X10837149Y37381195D01*
X10855775Y37380484D01*
X10871147Y37379707D01*
X10883722Y37378864D01*
X10893955Y37377950D01*
X10902304Y37376964D01*
X10909223Y37375901D01*
X10915170Y37374761D01*
X10919741Y37373741D01*
X11027702Y37342087D01*
X11128643Y37299503D01*
X11222046Y37246384D01*
X11307398Y37183127D01*
X11384181Y37110125D01*
X11451879Y37027774D01*
X11509977Y36936469D01*
X11523198Y36911793D01*
X11564719Y36820251D01*
X11594320Y36728512D01*
X11612646Y36633891D01*
X11620343Y36533701D01*
X11620683Y36506156D01*
X11614721Y36395734D01*
X11596755Y36290959D01*
X11566668Y36191539D01*
X11524342Y36097177D01*
X11469657Y36007581D01*
X11402496Y35922455D01*
X11373802Y35891346D01*
X11298708Y35820687D01*
X11219427Y35761236D01*
X11134356Y35712100D01*
X11041890Y35672388D01*
X10940426Y35641208D01*
X10911097Y35634095D01*
X10846657Y35619275D01*
X9250437Y35617286D01*
X7654217Y35615296D01*
X7654217Y36309726D01*
X7654217Y37000834D01*
X7708657Y37000834D01*
X7892384Y36494343D01*
X8076111Y35987853D01*
X8242654Y35987739D01*
X8409197Y35987624D01*
X8504436Y36294909D01*
X8523500Y36356235D01*
X8541471Y36413690D01*
X8557949Y36466025D01*
X8572537Y36511990D01*
X8584837Y36550338D01*
X8594448Y36579817D01*
X8600974Y36599181D01*
X8604015Y36607178D01*
X8604085Y36607277D01*
X8606838Y36602145D01*
X8613054Y36585483D01*
X8622345Y36558480D01*
X8634323Y36522325D01*
X8648599Y36478206D01*
X8664787Y36427311D01*
X8682498Y36370830D01*
X8701343Y36309950D01*
X8704401Y36300001D01*
X8800306Y35987640D01*
X8966447Y35987632D01*
X9132587Y35987624D01*
X9316918Y36491596D01*
X9318487Y36495890D01*
X9547756Y36495890D01*
X9547756Y35987624D01*
X9713856Y35987624D01*
X9879956Y35987624D01*
X9879956Y36495890D01*
X9879956Y37004156D01*
X9946396Y37004156D01*
X9946396Y36495890D01*
X9946396Y35987624D01*
X10112496Y35987624D01*
X10278596Y35987624D01*
X10278596Y36492568D01*
X10348376Y36492568D01*
X10349020Y36439352D01*
X10351395Y36396050D01*
X10356194Y36359331D01*
X10364111Y36325859D01*
X10375840Y36292303D01*
X10392076Y36255330D01*
X10402091Y36234539D01*
X10441116Y36169809D01*
X10490225Y36113577D01*
X10548781Y36066485D01*
X10594455Y36039611D01*
X10655567Y36011559D01*
X10713780Y35992394D01*
X10773474Y35981115D01*
X10839031Y35976721D01*
X10869911Y35976696D01*
X10933029Y35977658D01*
X10934825Y36111380D01*
X10936621Y36245102D01*
X10877888Y36247910D01*
X10830401Y36253558D01*
X10792186Y36266204D01*
X10760580Y36286999D01*
X10740686Y36307353D01*
X10712478Y36349973D01*
X10692896Y36398875D01*
X10681867Y36451658D01*
X10679318Y36505919D01*
X10685175Y36559257D01*
X10699366Y36609268D01*
X10721818Y36653552D01*
X10752325Y36689587D01*
X10784603Y36714386D01*
X10817702Y36729664D01*
X10855918Y36736998D01*
X10884995Y36738250D01*
X10936621Y36738396D01*
X10934825Y36876259D01*
X10933029Y37014122D01*
X10849979Y37013054D01*
X10783849Y37009686D01*
X10725767Y37000738D01*
X10671296Y36985186D01*
X10616000Y36962002D01*
X10604151Y36956210D01*
X10550755Y36923591D01*
X10499549Y36881214D01*
X10453822Y36832323D01*
X10416864Y36780159D01*
X10406376Y36761274D01*
X10385472Y36717760D01*
X10370053Y36678090D01*
X10359376Y36638827D01*
X10352700Y36596531D01*
X10349282Y36547764D01*
X10348376Y36492568D01*
X10278596Y36492568D01*
X10278596Y36495890D01*
X10278596Y37004156D01*
X10112496Y37004156D01*
X9946396Y37004156D01*
X9879956Y37004156D01*
X9713856Y37004156D01*
X9547756Y37004156D01*
X9547756Y36495890D01*
X9318487Y36495890D01*
X9345504Y36569805D01*
X9372733Y36644403D01*
X9398265Y36714450D01*
X9421759Y36779007D01*
X9442873Y36837132D01*
X9461266Y36887888D01*
X9476599Y36930333D01*
X9488530Y36963528D01*
X9496718Y36986533D01*
X9500823Y36998409D01*
X9501248Y36999862D01*
X9494905Y37001052D01*
X9477078Y37002114D01*
X9449571Y37003003D01*
X9414189Y37003669D01*
X9372734Y37004065D01*
X9339728Y37004156D01*
X9178208Y37004156D01*
X9083030Y36680261D01*
X9064271Y36616552D01*
X9046437Y36556236D01*
X9029917Y36500608D01*
X9015100Y36450965D01*
X9002372Y36408601D01*
X8992123Y36374811D01*
X8984740Y36350893D01*
X8980612Y36338141D01*
X8980171Y36336941D01*
X8978698Y36333619D01*
X8977111Y36331710D01*
X8975173Y36331961D01*
X8972647Y36335119D01*
X8969298Y36341931D01*
X8964888Y36353145D01*
X8959182Y36369507D01*
X8951943Y36391765D01*
X8942934Y36420667D01*
X8931920Y36456959D01*
X8918664Y36501388D01*
X8902929Y36554703D01*
X8884480Y36617649D01*
X8863079Y36690974D01*
X8838490Y36775427D01*
X8810477Y36871752D01*
X8804821Y36891208D01*
X8772951Y37000834D01*
X8612661Y37002612D01*
X8452372Y37004390D01*
X8435811Y36949460D01*
X8430442Y36931354D01*
X8421881Y36902117D01*
X8410607Y36863391D01*
X8397093Y36816815D01*
X8381816Y36764032D01*
X8365253Y36706683D01*
X8347877Y36646408D01*
X8338019Y36612160D01*
X8321011Y36553256D01*
X8305020Y36498294D01*
X8290438Y36448590D01*
X8277657Y36405462D01*
X8267068Y36370227D01*
X8259065Y36344201D01*
X8254038Y36328701D01*
X8252492Y36324810D01*
X8249857Y36330023D01*
X8243875Y36346841D01*
X8234906Y36374107D01*
X8223311Y36410668D01*
X8209449Y36455367D01*
X8193680Y36507048D01*
X8176366Y36564556D01*
X8157867Y36626736D01*
X8149575Y36654834D01*
X8130601Y36719140D01*
X8112658Y36779665D01*
X8096111Y36835195D01*
X8081327Y36884521D01*
X8068670Y36926428D01*
X8058504Y36959707D01*
X8051196Y36983143D01*
X8047110Y36995525D01*
X8046458Y36997114D01*
X8039368Y36999601D01*
X8021258Y37001397D01*
X7991606Y37002518D01*
X7949892Y37002981D01*
X7895593Y37002803D01*
X7875310Y37002611D01*
X7708657Y37000834D01*
X7654217Y37000834D01*
X7654217Y37004156D01*
X7484795Y37004156D01*
X7315373Y37004156D01*
X7315373Y36939604D01*
X7315373Y36875052D01*
X7280492Y36909055D01*
X7228641Y36951960D01*
X7171173Y36984206D01*
X7135985Y36998158D01*
X7101755Y37006560D01*
X7058633Y37011932D01*
X7010679Y37014218D01*
X6961952Y37013361D01*
X6916512Y37009306D01*
X6878418Y37001996D01*
X6877444Y37001729D01*
X6805092Y36975081D01*
X6739894Y36937379D01*
X6682479Y36889147D01*
X6633479Y36830907D01*
X6596050Y36768294D01*
X6571067Y36706723D01*
X6552930Y36637018D01*
X6542201Y36562748D01*
X6539439Y36487488D01*
X6543102Y36431051D01*
X6550308Y36377638D01*
X6559262Y36332949D01*
X6571240Y36292429D01*
X6587517Y36251520D01*
X6602178Y36220164D01*
X6639731Y36157120D01*
X6686470Y36101696D01*
X6740738Y36055576D01*
X6797141Y36022206D01*
X6869581Y35994306D01*
X6945764Y35978511D01*
X7014717Y35974336D01*
X7087527Y35980149D01*
X7154235Y35997480D01*
X7214417Y36026166D01*
X7267649Y36066046D01*
X7276025Y36073975D01*
X7315373Y36112477D01*
X7315373Y35864019D01*
X7315373Y35615560D01*
X7154256Y35616677D01*
X7107684Y35617092D01*
X7064127Y35617650D01*
X7025812Y35618311D01*
X6994962Y35619033D01*
X6973805Y35619773D01*
X6966563Y35620219D01*
X6862046Y35636155D01*
X6761021Y35664127D01*
X6664495Y35703388D01*
X6573474Y35753187D01*
X6488966Y35812775D01*
X6411977Y35881404D01*
X6343516Y35958324D01*
X6284589Y36042785D01*
X6236203Y36134039D01*
X6218191Y36176978D01*
X6185609Y36277349D01*
X6164599Y36379075D01*
X6155457Y36480165D01*
X6158448Y36578293D01*
X6175015Y36688599D01*
X6203223Y36792533D01*
X6243183Y36890321D01*
X6295003Y36982190D01*
X6358792Y37068368D01*
X6430169Y37144781D01*
X6511027Y37214342D01*
X6597604Y37272370D01*
X6690903Y37319417D01*
X6791926Y37356036D01*
X6835185Y37368004D01*
X6906767Y37386186D01*
X8886678Y37386186D01*
X9078989Y37386184D01*
G37*
%TO.C,kibuzzard-66CAA426*%
G36*
X17195778Y3728812D02*
G01*
X17195778Y2891902D01*
X17195778Y2548126D01*
X17195778Y2118941D01*
X15831830Y2118941D01*
X15831830Y2548126D01*
X15831830Y2891902D01*
X16051572Y2891902D01*
X16057366Y2820443D01*
X16072817Y2761216D01*
X16095349Y2713576D01*
X16121744Y2675593D01*
X16149426Y2647267D01*
X16175177Y2626666D01*
X16196422Y2613791D01*
X16210585Y2606709D01*
X16215092Y2604778D01*
X16303933Y2586108D01*
X16374748Y2649842D01*
X16397781Y2718798D01*
X16382760Y2772875D01*
X16329684Y2812074D01*
X16291057Y2849413D01*
X16278182Y2904778D01*
X16294276Y2963362D01*
X16338697Y2984606D01*
X16371529Y2965937D01*
X16379898Y2906065D01*
X16379898Y2897053D01*
X16381830Y2855851D01*
X16392774Y2823018D01*
X16426250Y2795980D01*
X16490628Y2787611D01*
X16547280Y2795336D01*
X16580757Y2810786D01*
X16596851Y2839756D01*
X16602645Y2869370D01*
X16602645Y2904778D01*
X16621315Y2979134D01*
X16677323Y3003920D01*
X16730757Y2973662D01*
X16750714Y2893190D01*
X16743632Y2847482D01*
X16728182Y2816580D01*
X16708868Y2797267D01*
X16693418Y2787611D01*
X16686336Y2785035D01*
X16625821Y2747696D01*
X16611658Y2676881D01*
X16631937Y2580314D01*
X16692774Y2548126D01*
X16766093Y2559570D01*
X16833260Y2593905D01*
X16894276Y2651130D01*
X16942559Y2723662D01*
X16971529Y2803920D01*
X16981186Y2891902D01*
X16971529Y2986538D01*
X16942559Y3069585D01*
X16894276Y3141044D01*
X16831258Y3195765D01*
X16758082Y3228598D01*
X16674748Y3239542D01*
X16612946Y3230851D01*
X16561443Y3204778D01*
X16491916Y3132675D01*
X16427860Y3199306D01*
X16333546Y3221516D01*
X16264448Y3211573D01*
X16199641Y3181745D01*
X16139126Y3132031D01*
X16090485Y3065579D01*
X16061300Y2985536D01*
X16051572Y2891902D01*
X15831830Y2891902D01*
X15831830Y3463576D01*
X16059298Y3463576D01*
X16078611Y3367010D01*
X16139770Y3294907D01*
X16229255Y3307782D01*
X16900070Y3612932D01*
X16948353Y3656709D01*
X16964448Y3728812D01*
X16947066Y3795121D01*
X16900070Y3839542D01*
X16229255Y4144692D01*
X16140413Y4159499D01*
X16078611Y4085465D01*
X16059941Y3990186D01*
X16132688Y3929671D01*
X16633546Y3726237D01*
X16132688Y3522804D01*
X16059298Y3463576D01*
X15831830Y3463576D01*
X15831830Y4556709D01*
X16051572Y4556709D01*
X16057366Y4485250D01*
X16072817Y4426023D01*
X16095349Y4378383D01*
X16121744Y4340400D01*
X16149426Y4312074D01*
X16175177Y4291473D01*
X16196422Y4278598D01*
X16210585Y4271516D01*
X16215092Y4269585D01*
X16303933Y4250915D01*
X16374748Y4314649D01*
X16397781Y4383605D01*
X16382760Y4437682D01*
X16329684Y4476881D01*
X16291057Y4514220D01*
X16278182Y4569585D01*
X16294276Y4628168D01*
X16338697Y4649413D01*
X16371529Y4630744D01*
X16379898Y4570872D01*
X16379898Y4561859D01*
X16381830Y4520658D01*
X16392774Y4487825D01*
X16426250Y4460786D01*
X16490628Y4452417D01*
X16547280Y4460143D01*
X16580757Y4475593D01*
X16596851Y4504563D01*
X16602645Y4534177D01*
X16602645Y4569585D01*
X16621315Y4643941D01*
X16677323Y4668726D01*
X16730757Y4638469D01*
X16750714Y4557997D01*
X16743632Y4512289D01*
X16728182Y4481387D01*
X16708868Y4462074D01*
X16693418Y4452417D01*
X16686336Y4449842D01*
X16625821Y4412503D01*
X16611658Y4341688D01*
X16631937Y4245121D01*
X16692774Y4212932D01*
X16766093Y4224377D01*
X16833260Y4258712D01*
X16894276Y4315937D01*
X16942559Y4388469D01*
X16971529Y4468726D01*
X16981186Y4556709D01*
X16971529Y4651344D01*
X16942559Y4734392D01*
X16894276Y4805851D01*
X16831258Y4860572D01*
X16758082Y4893405D01*
X16674748Y4904349D01*
X16612946Y4895658D01*
X16561443Y4869585D01*
X16491916Y4797482D01*
X16427860Y4864113D01*
X16333546Y4886323D01*
X16264448Y4876380D01*
X16199641Y4846552D01*
X16139126Y4796838D01*
X16090485Y4730386D01*
X16061300Y4650343D01*
X16051572Y4556709D01*
X15831830Y4556709D01*
X15831830Y4904349D01*
X15831830Y5118941D01*
X17195778Y5118941D01*
X17195778Y4904349D01*
X17195778Y4556709D01*
X17195778Y3728812D01*
G37*
D14*
%TO.C,J1*%
X4150000Y17020000D02*
X2350000Y17020000D01*
X4150000Y8380000D02*
X2350000Y8380000D01*
D13*
%TO.C,C9*%
X14095000Y26493080D02*
X14095000Y26211920D01*
X15115000Y26493080D02*
X15115000Y26211920D01*
%TO.C,R13*%
X9287742Y9095000D02*
X9762258Y9095000D01*
X9287742Y8050000D02*
X9762258Y8050000D01*
D12*
%TO.C,kibuzzard-67EC5939*%
G36*
X2101062Y37950694D02*
G01*
X2150061Y37892754D01*
X2509145Y37150265D01*
X2528459Y37048691D01*
X2449059Y36978591D01*
X2343194Y36957847D01*
X2273094Y37040107D01*
X2207285Y37176016D01*
X1962650Y37176016D01*
X1855354Y37176016D01*
X1789546Y37038677D01*
X1718015Y36959278D01*
X1613580Y36980021D01*
X1533466Y37049406D01*
X1552064Y37150265D01*
X1672219Y37399192D01*
X1962650Y37399192D01*
X2097128Y37399192D01*
X2029889Y37537961D01*
X1962650Y37399192D01*
X1672219Y37399192D01*
X1911148Y37894185D01*
X1961220Y37949263D01*
X2031320Y37970007D01*
X2101062Y37950694D01*
G37*
G36*
X4229460Y37969292D02*
G01*
X4261649Y37957847D01*
X4288830Y37924227D01*
X4297414Y37861280D01*
X4288830Y37798333D01*
X4260933Y37764714D01*
X4228029Y37753269D01*
X4187257Y37751123D01*
X3989832Y37751123D01*
X3989832Y37095901D01*
X3987686Y37047976D01*
X3974095Y37010064D01*
X3934038Y36978591D01*
X3859646Y36968577D01*
X3785969Y36978591D01*
X3747343Y37010780D01*
X3734467Y37049406D01*
X3732321Y37097332D01*
X3732321Y37751123D01*
X3533466Y37751123D01*
X3492693Y37753269D01*
X3460504Y37764714D01*
X3433323Y37798333D01*
X3424739Y37862711D01*
X3433323Y37924943D01*
X3461220Y37957847D01*
X3494124Y37969292D01*
X3534896Y37971438D01*
X4188687Y37971438D01*
X4229460Y37969292D01*
G37*
G36*
X3066549Y37964285D02*
G01*
X3126456Y37947117D01*
X3186184Y37919220D01*
X3243766Y37881309D01*
X3295089Y37830701D01*
X3336041Y37764714D01*
X3362865Y37687282D01*
X3371806Y37602339D01*
X3357818Y37495202D01*
X3315853Y37402689D01*
X3245912Y37324800D01*
X3348916Y37187461D01*
X3387543Y37088748D01*
X3318873Y37004342D01*
X3217300Y36965000D01*
X3137185Y37031524D01*
X2984109Y37238963D01*
X2851062Y37238963D01*
X2851062Y37100193D01*
X2848916Y37050837D01*
X2835325Y37012210D01*
X2795268Y36980021D01*
X2719446Y36970007D01*
X2645054Y36980021D01*
X2604996Y37012926D01*
X2591406Y37052268D01*
X2589260Y37101624D01*
X2589260Y37499335D01*
X2851062Y37499335D01*
X3008430Y37499335D01*
X3077099Y37525086D01*
X3110004Y37603770D01*
X3079245Y37678162D01*
X3005569Y37708205D01*
X2851062Y37708205D01*
X2851062Y37499335D01*
X2589260Y37499335D01*
X2589260Y37839821D01*
X2591406Y37887747D01*
X2604996Y37927089D01*
X2645054Y37959993D01*
X2720876Y37970007D01*
X3008430Y37970007D01*
X3066549Y37964285D01*
G37*
G36*
X1426170Y37961423D02*
G01*
X1466227Y37927804D01*
X1479818Y37887747D01*
X1481964Y37838391D01*
X1481964Y37436388D01*
X1474632Y37349835D01*
X1452636Y37264714D01*
X1417049Y37183705D01*
X1368945Y37109492D01*
X1306534Y37045651D01*
X1228029Y36995758D01*
X1137006Y36963569D01*
X1037042Y36952840D01*
X937257Y36963748D01*
X846770Y36996474D01*
X768981Y37047082D01*
X707285Y37111638D01*
X659896Y37186388D01*
X625025Y37267575D01*
X603566Y37352697D01*
X596413Y37439249D01*
X596413Y37839821D01*
X598559Y37889177D01*
X612149Y37928519D01*
X652207Y37961423D01*
X728029Y37971438D01*
X803137Y37961423D01*
X842479Y37929235D01*
X856785Y37889177D01*
X859646Y37838391D01*
X859646Y37439249D01*
X873952Y37338391D01*
X931177Y37253984D01*
X980175Y37225551D01*
X1041334Y37216073D01*
X1114653Y37231452D01*
X1171520Y37277589D01*
X1208001Y37349120D01*
X1220161Y37440680D01*
X1220161Y37846974D01*
X1223022Y37893469D01*
X1237328Y37930665D01*
X1277386Y37961423D01*
X1351778Y37971438D01*
X1426170Y37961423D01*
G37*
G36*
X4809574Y37972074D02*
G01*
X4897796Y37935354D01*
X4975526Y37874156D01*
X5035930Y37795472D01*
X5072172Y37706297D01*
X5084253Y37606631D01*
X5077278Y37534385D01*
X5056356Y37466431D01*
X5023988Y37405629D01*
X4982679Y37354843D01*
X4895411Y37279735D01*
X4809574Y37228948D01*
X4988401Y37228948D01*
X5037758Y37226087D01*
X5076384Y37211781D01*
X5108573Y37171724D01*
X5118587Y37095901D01*
X5108573Y37022225D01*
X5075669Y36982883D01*
X5034896Y36968577D01*
X4985540Y36965715D01*
X4469088Y36965715D01*
X4377529Y37005057D01*
X4338902Y37098763D01*
X4351778Y37171366D01*
X4390404Y37237532D01*
X4440118Y37288498D01*
X4509145Y37341252D01*
X4584610Y37390429D01*
X4653637Y37430665D01*
X4715690Y37470722D01*
X4770232Y37519363D01*
X4808323Y37573011D01*
X4821019Y37628090D01*
X4816012Y37666001D01*
X4784539Y37703197D01*
X4712293Y37722511D01*
X4628602Y37692825D01*
X4600705Y37603770D01*
X4598559Y37557990D01*
X4584968Y37521509D01*
X4544911Y37491466D01*
X4469088Y37482167D01*
X4394696Y37492182D01*
X4354639Y37525086D01*
X4341048Y37564428D01*
X4338902Y37613784D01*
X4350347Y37705184D01*
X4384682Y37790544D01*
X4441906Y37869864D01*
X4517570Y37933447D01*
X4607222Y37971597D01*
X4710862Y37984313D01*
X4809574Y37972074D01*
G37*
D13*
%TO.C,C3*%
X35736920Y11940000D02*
X36018080Y11940000D01*
X35736920Y10920000D02*
X36018080Y10920000D01*
D14*
%TO.C,D7*%
X12517500Y36820000D02*
X12517500Y35570000D01*
X13387500Y36820000D02*
X15187500Y36820000D01*
X13387500Y35570000D02*
X15187500Y35570000D01*
D12*
%TO.C,kibuzzard-6797CFD5*%
G36*
X26619142Y2981388D02*
G01*
X26642318Y2919585D01*
X26642318Y2777954D01*
X26454335Y2777954D01*
X26454335Y2917010D01*
X26481373Y2983319D01*
X26548326Y3011001D01*
X26619142Y2981388D01*
G37*
G36*
X27351330Y3685680D02*
G01*
X27351330Y3107568D01*
X27351330Y2542332D01*
X27351330Y2113147D01*
X25988670Y2113147D01*
X25988670Y2542332D01*
X25988670Y2919585D01*
X26218712Y2919585D01*
X26218712Y2660787D01*
X26227725Y2592546D01*
X26257339Y2556495D01*
X26292747Y2544263D01*
X26335880Y2542332D01*
X27000258Y2542332D01*
X27044678Y2544263D01*
X27080086Y2556495D01*
X27109700Y2592546D01*
X27118712Y2659499D01*
X27109700Y2727740D01*
X27080730Y2763791D01*
X27045966Y2776023D01*
X27001545Y2777954D01*
X26876652Y2777954D01*
X26876652Y2897697D01*
X27063348Y3035465D01*
X27123219Y3107568D01*
X27087811Y3198984D01*
X27011845Y3260787D01*
X26923004Y3226023D01*
X26799399Y3133319D01*
X26729299Y3196266D01*
X26646037Y3234034D01*
X26549614Y3246624D01*
X26473165Y3238577D01*
X26403476Y3214435D01*
X26344088Y3177579D01*
X26298541Y3131388D01*
X26264421Y3079564D01*
X26239313Y3025808D01*
X26223863Y2971892D01*
X26218712Y2919585D01*
X25988670Y2919585D01*
X25988670Y3981817D01*
X26217425Y3981817D01*
X26217425Y3393405D01*
X26219356Y3356710D01*
X26229657Y3327096D01*
X26259270Y3301989D01*
X26315279Y3294263D01*
X26373219Y3301989D01*
X26403476Y3326452D01*
X26413777Y3355422D01*
X26415708Y3392117D01*
X26415708Y3571087D01*
X27004120Y3571087D01*
X27047253Y3573019D01*
X27082017Y3584607D01*
X27110987Y3619371D01*
X27120000Y3685680D01*
X27110987Y3752632D01*
X27082661Y3788684D01*
X27048541Y3800916D01*
X27005408Y3802847D01*
X26415708Y3802847D01*
X26415708Y3980529D01*
X26413777Y4017225D01*
X26403476Y4046838D01*
X26373219Y4071946D01*
X26316567Y4079671D01*
X26259914Y4071946D01*
X26229657Y4047482D01*
X26219356Y4018512D01*
X26217425Y3981817D01*
X25988670Y3981817D01*
X25988670Y4690615D01*
X26206481Y4690615D01*
X26258627Y4610143D01*
X26514850Y4386109D01*
X26337167Y4386109D01*
X26292747Y4384177D01*
X26257339Y4371946D01*
X26227725Y4335894D01*
X26218712Y4268941D01*
X26227725Y4200701D01*
X26257339Y4164649D01*
X26292747Y4152418D01*
X26335880Y4150486D01*
X27001545Y4150486D01*
X27045966Y4152418D01*
X27081373Y4164649D01*
X27110987Y4200701D01*
X27120000Y4267654D01*
X27110987Y4335894D01*
X27082017Y4371946D01*
X27047253Y4384177D01*
X27002833Y4386109D01*
X26821288Y4386109D01*
X27077511Y4611431D01*
X27132876Y4687396D01*
X27091674Y4778813D01*
X27009914Y4834821D01*
X26924292Y4790401D01*
X26670644Y4536753D01*
X26413133Y4789113D01*
X26330730Y4831602D01*
X26291137Y4817439D01*
X26247039Y4777525D01*
X26206481Y4690615D01*
X25988670Y4690615D01*
X25988670Y4838040D01*
X25988670Y5052632D01*
X25988670Y5506853D01*
X26670000Y5052632D01*
X27351330Y5506853D01*
X27351330Y5052632D01*
X27351330Y4838040D01*
X27351330Y4687396D01*
X27351330Y3685680D01*
G37*
%TO.C,kibuzzard-64C2E6BD*%
G36*
X38136195Y28153360D02*
G01*
X38180010Y28151455D01*
X38213665Y28139390D01*
X38239383Y28105735D01*
X38247955Y28040330D01*
X38236207Y27969845D01*
X38200965Y27936190D01*
X38134925Y27928570D01*
X37430075Y27928570D01*
X37386260Y27930475D01*
X37352605Y27942540D01*
X37326887Y27976195D01*
X37318315Y28041600D01*
X37318315Y28312110D01*
X37543105Y28312110D01*
X37543105Y28153360D01*
X37767895Y28153360D01*
X37767895Y28313380D01*
X37739955Y28388310D01*
X37656135Y28425140D01*
X37571680Y28388310D01*
X37543105Y28312110D01*
X37318315Y28312110D01*
X37318315Y28313380D01*
X37327346Y28387181D01*
X37354439Y28459571D01*
X37399595Y28530550D01*
X37445950Y28577858D01*
X37506275Y28615640D01*
X37577395Y28640405D01*
X37656135Y28648660D01*
X37734716Y28640405D01*
X37805360Y28615640D01*
X37865209Y28577858D01*
X37911405Y28530550D01*
X37956561Y28459430D01*
X37983654Y28386617D01*
X37992685Y28312110D01*
X37992685Y28153360D01*
X38136195Y28153360D01*
G37*
G36*
X38136195Y27350720D02*
G01*
X38180010Y27348815D01*
X38213665Y27336750D01*
X38239383Y27303095D01*
X38247955Y27237690D01*
X38236207Y27167205D01*
X38200965Y27133550D01*
X38134925Y27125930D01*
X37430075Y27125930D01*
X37386260Y27127835D01*
X37352605Y27139900D01*
X37326887Y27173555D01*
X37318315Y27238960D01*
X37318315Y27509470D01*
X37543105Y27509470D01*
X37543105Y27350720D01*
X37767895Y27350720D01*
X37767895Y27510740D01*
X37739955Y27585670D01*
X37656135Y27622500D01*
X37571680Y27585670D01*
X37543105Y27509470D01*
X37318315Y27509470D01*
X37318315Y27510740D01*
X37327346Y27584541D01*
X37354439Y27656931D01*
X37399595Y27727910D01*
X37445950Y27775217D01*
X37506275Y27813000D01*
X37577395Y27837765D01*
X37656135Y27846020D01*
X37734716Y27837765D01*
X37805360Y27813000D01*
X37865209Y27775217D01*
X37911405Y27727910D01*
X37956561Y27656790D01*
X37983654Y27583977D01*
X37992685Y27509470D01*
X37992685Y27350720D01*
X38136195Y27350720D01*
G37*
G36*
X38029674Y29380815D02*
G01*
X38097460Y29356050D01*
X38153181Y29317950D01*
X38194615Y29269690D01*
X38232009Y29199558D01*
X38254446Y29126321D01*
X38261925Y29049980D01*
X38258274Y28991878D01*
X38247320Y28936950D01*
X38211125Y28850590D01*
X38171120Y28793440D01*
X38132385Y28756610D01*
X38118415Y28745180D01*
X38045390Y28712160D01*
X38007766Y28725813D01*
X37959665Y28766770D01*
X37929185Y28834080D01*
X37945060Y28876625D01*
X37992685Y28933140D01*
X38033960Y28983940D01*
X38053645Y29044900D01*
X38042921Y29110517D01*
X38010747Y29149887D01*
X37957125Y29163010D01*
X37908230Y29130625D01*
X37879655Y29049980D01*
X37868066Y28999815D01*
X37851080Y28945840D01*
X37829649Y28891865D01*
X37804725Y28841700D01*
X37770276Y28797409D01*
X37720270Y28761055D01*
X37656611Y28736766D01*
X37581205Y28728670D01*
X37509873Y28737913D01*
X37444892Y28765641D01*
X37386260Y28811855D01*
X37340046Y28874014D01*
X37312318Y28949579D01*
X37303075Y29038550D01*
X37307996Y29111416D01*
X37322760Y29177615D01*
X37362765Y29264610D01*
X37386895Y29296360D01*
X37449125Y29335730D01*
X37518975Y29305250D01*
X37566600Y29261435D01*
X37582475Y29216350D01*
X37557075Y29150310D01*
X37544375Y29135705D01*
X37527865Y29116020D01*
X37511355Y29048075D01*
X37531040Y28979495D01*
X37585650Y28952190D01*
X37642165Y28984575D01*
X37671375Y29065220D01*
X37681059Y29115703D01*
X37694870Y29170630D01*
X37712491Y29225557D01*
X37733605Y29276040D01*
X37764879Y29320331D01*
X37812980Y29356685D01*
X37876004Y29380974D01*
X37952045Y29389070D01*
X38029674Y29380815D01*
G37*
D14*
%TO.C,D5*%
X10295000Y26025000D02*
X10295000Y24775000D01*
X11165000Y26025000D02*
X12965000Y26025000D01*
X11165000Y24775000D02*
X12965000Y24775000D01*
D12*
%TO.C,kibuzzard-67ED9A5A*%
G36*
X29160429Y38945131D02*
G01*
X29183605Y38883328D01*
X29183605Y38741697D01*
X28995622Y38741697D01*
X28995622Y38880753D01*
X29022661Y38947062D01*
X29089614Y38974744D01*
X29160429Y38945131D01*
G37*
G36*
X29891330Y39976461D02*
G01*
X29891330Y39071311D01*
X29891330Y38506075D01*
X29891330Y38291482D01*
X29210000Y37837262D01*
X28528670Y38291482D01*
X28528670Y38506075D01*
X28528670Y38883328D01*
X28760000Y38883328D01*
X28760000Y38624530D01*
X28769013Y38556289D01*
X28798627Y38520238D01*
X28834034Y38508006D01*
X28877167Y38506075D01*
X29541545Y38506075D01*
X29585966Y38508006D01*
X29621373Y38520238D01*
X29650987Y38556289D01*
X29660000Y38623242D01*
X29650987Y38691482D01*
X29622017Y38727534D01*
X29587253Y38739766D01*
X29542833Y38741697D01*
X29417940Y38741697D01*
X29417940Y38861440D01*
X29604635Y38999208D01*
X29664506Y39071311D01*
X29629099Y39162727D01*
X29553133Y39224530D01*
X29464292Y39189766D01*
X29340687Y39097062D01*
X29270587Y39160009D01*
X29187325Y39197777D01*
X29090901Y39210367D01*
X29014453Y39202319D01*
X28944764Y39178178D01*
X28885376Y39141322D01*
X28839828Y39095131D01*
X28805708Y39043307D01*
X28780601Y38989551D01*
X28765150Y38935635D01*
X28760000Y38883328D01*
X28528670Y38883328D01*
X28528670Y39977749D01*
X28745193Y39977749D01*
X28798627Y39899208D01*
X29036824Y39682899D01*
X28798627Y39465302D01*
X28745193Y39386761D01*
X28790901Y39299208D01*
X28874592Y39249637D01*
X28956996Y39292770D01*
X29210644Y39524530D01*
X29464292Y39294058D01*
X29547339Y39249637D01*
X29629099Y39300495D01*
X29674807Y39388049D01*
X29621373Y39466590D01*
X29384464Y39682899D01*
X29621373Y39897920D01*
X29674807Y39976461D01*
X29629099Y40064015D01*
X29547339Y40114873D01*
X29464292Y40070452D01*
X29210644Y39839980D01*
X28956996Y40071740D01*
X28874592Y40115517D01*
X28790901Y40065302D01*
X28745193Y39977749D01*
X28528670Y39977749D01*
X28528670Y40460581D01*
X28760000Y40460581D01*
X28781888Y40373028D01*
X28798627Y40352427D01*
X28945408Y40188907D01*
X28989185Y40149637D01*
X29030386Y40134830D01*
X29115365Y40174744D01*
X29160429Y40251354D01*
X29123090Y40330538D01*
X29111502Y40343414D01*
X29546695Y40343414D01*
X29638112Y40369165D01*
X29663863Y40459294D01*
X29638112Y40550710D01*
X29547983Y40576461D01*
X28878455Y40576461D01*
X28786395Y40550710D01*
X28760000Y40460581D01*
X28528670Y40460581D01*
X28528670Y40576461D01*
X28528670Y41220238D01*
X29891330Y41220238D01*
X29891330Y40576461D01*
X29891330Y40459294D01*
X29891330Y39976461D01*
G37*
D14*
%TO.C,J8*%
X537500Y34915000D02*
X537500Y29915000D01*
X3462500Y36490000D02*
X4412500Y36490000D01*
X3462500Y28340000D02*
X4412500Y28340000D01*
X4412500Y36490000D02*
X4412500Y35440000D01*
X4412500Y29390000D02*
X4412500Y28340000D01*
D13*
%TO.C,R2*%
X4364758Y18937500D02*
X3890242Y18937500D01*
X4364758Y17892500D02*
X3890242Y17892500D01*
%TO.C,R5*%
X37260000Y34052742D02*
X37260000Y34527258D01*
X38305000Y34052742D02*
X38305000Y34527258D01*
D12*
%TO.C,kibuzzard-67ED93D1*%
G36*
X37860801Y16211577D02*
G01*
X37892275Y16185254D01*
X37903147Y16153780D01*
X37904864Y16114295D01*
X37904864Y15799560D01*
X38006724Y15799560D01*
X38006724Y16010147D01*
X38008441Y16047343D01*
X38018169Y16074810D01*
X38045637Y16096556D01*
X38098283Y16102851D01*
X38148069Y16096556D01*
X38174392Y16074238D01*
X38183548Y16046198D01*
X38185265Y16009002D01*
X38185265Y15799560D01*
X38392418Y15799560D01*
X38431903Y15797843D01*
X38462804Y15786971D01*
X38488555Y15754925D01*
X38496567Y15694267D01*
X38488555Y15634753D01*
X38462232Y15602707D01*
X38430758Y15591835D01*
X38391273Y15590118D01*
X37799571Y15590118D01*
X37717740Y15613580D01*
X37695422Y15697700D01*
X37695422Y16116584D01*
X37697139Y16154925D01*
X37708011Y16185826D01*
X37740057Y16211577D01*
X37800715Y16219589D01*
X37860801Y16211577D01*
G37*
G36*
X38391273Y15104853D02*
G01*
X38430758Y15103137D01*
X38461660Y15092264D01*
X38487411Y15060218D01*
X38495422Y14999560D01*
X38487411Y14940046D01*
X38461087Y14908001D01*
X38429614Y14897128D01*
X38390129Y14895411D01*
X37799571Y14895411D01*
X37761230Y14897128D01*
X37729757Y14908001D01*
X37703433Y14940046D01*
X37695422Y15000705D01*
X37695422Y15228459D01*
X37904864Y15228459D01*
X37904864Y15104853D01*
X38071960Y15104853D01*
X38071960Y15230747D01*
X38051359Y15285683D01*
X37988412Y15312006D01*
X37928898Y15287400D01*
X37904864Y15228459D01*
X37695422Y15228459D01*
X37695422Y15230747D01*
X37700000Y15277242D01*
X37713734Y15325168D01*
X37736052Y15372951D01*
X37766381Y15419016D01*
X37806867Y15460075D01*
X37859657Y15492836D01*
X37921602Y15514295D01*
X37989557Y15521448D01*
X38075266Y15510258D01*
X38149277Y15476686D01*
X38211588Y15420733D01*
X38321459Y15503137D01*
X38400429Y15534038D01*
X38467954Y15479102D01*
X38499428Y15397843D01*
X38446209Y15333752D01*
X38280258Y15211291D01*
X38280258Y15104853D01*
X38391273Y15104853D01*
G37*
D13*
%TO.C,D1*%
X35377500Y29715000D02*
X36377500Y29715000D01*
%TO.C,R4*%
X35355000Y34052742D02*
X35355000Y34527258D01*
X36400000Y34052742D02*
X36400000Y34527258D01*
%TO.C,C2*%
X13793080Y20830000D02*
X13511920Y20830000D01*
X13793080Y19810000D02*
X13511920Y19810000D01*
%TO.C,D2*%
X39187500Y29715000D02*
X40187500Y29715000D01*
D12*
%TO.C,kibuzzard-67EC530B*%
G36*
X24806180Y5322611D02*
G01*
X24806180Y4127761D01*
X24806180Y3365529D01*
X24806180Y2576259D01*
X24806180Y2459092D01*
X24806180Y1815315D01*
X23453820Y1815315D01*
X23453820Y2459092D01*
X23453820Y3051366D01*
X23677425Y3051366D01*
X23677425Y2580122D01*
X23702532Y2485486D01*
X23794592Y2459092D01*
X24460258Y2459092D01*
X24504678Y2461023D01*
X24540086Y2473255D01*
X24569700Y2509306D01*
X24578712Y2576259D01*
X24569700Y2644499D01*
X24540730Y2680551D01*
X24505966Y2692783D01*
X24461545Y2694714D01*
X24228498Y2694714D01*
X24228498Y2930336D01*
X24226567Y2972182D01*
X24216266Y3003727D01*
X24186652Y3028834D01*
X24130644Y3035916D01*
X24071416Y3028834D01*
X24040515Y3004371D01*
X24029571Y2973469D01*
X24027639Y2931624D01*
X24027639Y2694714D01*
X23913047Y2694714D01*
X23913047Y3048791D01*
X23911116Y3093212D01*
X23898884Y3128619D01*
X23863476Y3158233D01*
X23795880Y3167246D01*
X23727639Y3158233D01*
X23691588Y3129263D01*
X23679356Y3094499D01*
X23677425Y3051366D01*
X23453820Y3051366D01*
X23453820Y3840637D01*
X23677425Y3840637D01*
X23677425Y3369392D01*
X23702532Y3274757D01*
X23794592Y3248362D01*
X24460258Y3248362D01*
X24504678Y3250293D01*
X24540086Y3262525D01*
X24569700Y3298577D01*
X24578712Y3365529D01*
X24578712Y3839349D01*
X24576781Y3883770D01*
X24564549Y3919177D01*
X24528498Y3948791D01*
X24461545Y3957804D01*
X24393305Y3948791D01*
X24357253Y3919821D01*
X24345021Y3885057D01*
X24343090Y3840637D01*
X24343090Y3483984D01*
X24228498Y3483984D01*
X24228498Y3719607D01*
X24226567Y3762096D01*
X24216266Y3794285D01*
X24186652Y3819392D01*
X24129356Y3826474D01*
X24070773Y3819392D01*
X24039871Y3794928D01*
X24029571Y3764027D01*
X24027639Y3722182D01*
X24027639Y3483984D01*
X23913047Y3483984D01*
X23913047Y3839349D01*
X23911116Y3883770D01*
X23898884Y3919177D01*
X23862833Y3948791D01*
X23795880Y3957804D01*
X23727639Y3948791D01*
X23691588Y3919821D01*
X23679356Y3885057D01*
X23677425Y3840637D01*
X23453820Y3840637D01*
X23453820Y4685272D01*
X23678712Y4685272D01*
X23687725Y4618319D01*
X23715408Y4582268D01*
X23749528Y4569392D01*
X23792017Y4566817D01*
X24161545Y4566817D01*
X23728927Y4244928D01*
X23702532Y4221753D01*
X23686438Y4188920D01*
X23678712Y4130336D01*
X23687082Y4062740D01*
X23714764Y4027332D01*
X23748884Y4014456D01*
X23792017Y4011881D01*
X24460258Y4011881D01*
X24505322Y4014456D01*
X24540730Y4026688D01*
X24569700Y4061452D01*
X24578712Y4127761D01*
X24569700Y4196001D01*
X24540730Y4232053D01*
X24505966Y4244285D01*
X24461545Y4246216D01*
X24103605Y4246216D01*
X24543948Y4579692D01*
X24571631Y4617675D01*
X24578712Y4683984D01*
X24569700Y4752225D01*
X24540730Y4788276D01*
X24505966Y4800508D01*
X24461545Y4802439D01*
X23797167Y4802439D01*
X23752747Y4800508D01*
X23717339Y4788276D01*
X23687725Y4752225D01*
X23678712Y4685272D01*
X23453820Y4685272D01*
X23453820Y5326474D01*
X23668412Y5326474D01*
X23672275Y5269660D01*
X23683863Y5209950D01*
X23704303Y5148147D01*
X23734721Y5085057D01*
X23773991Y5024703D01*
X23820987Y4971109D01*
X23878766Y4925401D01*
X23950386Y4888705D01*
X24032790Y4864564D01*
X24122918Y4856516D01*
X24216588Y4864725D01*
X24301888Y4889349D01*
X24375762Y4926527D01*
X24435150Y4972396D01*
X24483433Y5025991D01*
X24523991Y5086345D01*
X24555376Y5149113D01*
X24576137Y5209950D01*
X24587725Y5268051D01*
X24591588Y5322611D01*
X24583577Y5405873D01*
X24559542Y5485701D01*
X24519485Y5562096D01*
X24480215Y5614886D01*
X24433219Y5632911D01*
X24358541Y5604585D01*
X24303498Y5558233D01*
X24285150Y5514456D01*
X24310901Y5450079D01*
X24342768Y5385379D01*
X24353391Y5317461D01*
X24332790Y5219607D01*
X24303981Y5173094D01*
X24258755Y5131409D01*
X24199689Y5101956D01*
X24129356Y5092139D01*
X24074635Y5097611D01*
X24026352Y5114027D01*
X23956180Y5171323D01*
X23918197Y5244070D01*
X23905322Y5317461D01*
X23906609Y5348362D01*
X23911116Y5374113D01*
X23916266Y5394714D01*
X23922704Y5412096D01*
X23929785Y5424328D01*
X23936867Y5435272D01*
X23942661Y5443641D01*
X23972275Y5513169D01*
X23954893Y5557589D01*
X23902747Y5605873D01*
X23830644Y5634199D01*
X23792017Y5621967D01*
X23764979Y5598147D01*
X23740515Y5563383D01*
X23700458Y5482124D01*
X23676423Y5403155D01*
X23668412Y5326474D01*
X23453820Y5326474D01*
X23453820Y6292139D01*
X23677425Y6292139D01*
X23677425Y5820894D01*
X23702532Y5726259D01*
X23794592Y5699864D01*
X24460258Y5699864D01*
X24504678Y5701795D01*
X24540086Y5714027D01*
X24569700Y5750079D01*
X24578712Y5817031D01*
X24578712Y6290851D01*
X24576781Y6335272D01*
X24564549Y6370680D01*
X24528498Y6400293D01*
X24461545Y6409306D01*
X24393305Y6400293D01*
X24357253Y6371323D01*
X24345021Y6336559D01*
X24343090Y6292139D01*
X24343090Y5935486D01*
X24228498Y5935486D01*
X24228498Y6171109D01*
X24226567Y6213598D01*
X24216266Y6245787D01*
X24186652Y6270894D01*
X24129356Y6277976D01*
X24070773Y6270894D01*
X24039871Y6246431D01*
X24029571Y6215529D01*
X24027639Y6173684D01*
X24027639Y5935486D01*
X23913047Y5935486D01*
X23913047Y6290851D01*
X23911116Y6335272D01*
X23898884Y6370680D01*
X23862833Y6400293D01*
X23795880Y6409306D01*
X23727639Y6400293D01*
X23691588Y6371323D01*
X23679356Y6336559D01*
X23677425Y6292139D01*
X23453820Y6292139D01*
X23453820Y6409306D01*
X23453820Y6623898D01*
X23453820Y7074685D01*
X24130000Y6623898D01*
X24806180Y7074685D01*
X24806180Y6623898D01*
X24806180Y6409306D01*
X24806180Y5817031D01*
X24806180Y5322611D01*
G37*
%TO.C,kibuzzard-67EC5701*%
G36*
X20724034Y8495440D02*
G01*
X20782833Y8425912D01*
X21213734Y7534925D01*
X21236910Y7413036D01*
X21141631Y7328916D01*
X21014592Y7304024D01*
X20930472Y7402736D01*
X20851502Y7565826D01*
X20557940Y7565826D01*
X20429185Y7565826D01*
X20350215Y7401019D01*
X20264378Y7305740D01*
X20139056Y7330633D01*
X20042918Y7413895D01*
X20065236Y7534925D01*
X20209422Y7833637D01*
X20557940Y7833637D01*
X20719313Y7833637D01*
X20638627Y8000161D01*
X20557940Y7833637D01*
X20209422Y7833637D01*
X20496137Y8427629D01*
X20556223Y8493723D01*
X20640343Y8518616D01*
X20724034Y8495440D01*
G37*
G36*
X21554506Y8573552D02*
G01*
X21600858Y8534067D01*
X21617167Y8485998D01*
X21620601Y8427629D01*
X21620601Y7687715D01*
X21626609Y7626770D01*
X21666953Y7617328D01*
X21703004Y7614753D01*
X21736481Y7600161D01*
X21765665Y7555526D01*
X21775107Y7471406D01*
X21765665Y7382135D01*
X21736481Y7334925D01*
X21703004Y7319474D01*
X21665236Y7316899D01*
X21569099Y7319689D01*
X21496996Y7328058D01*
X21390558Y7376127D01*
X21327039Y7482564D01*
X21314163Y7563895D01*
X21309871Y7668830D01*
X21309871Y8429345D01*
X21312446Y8488573D01*
X21328755Y8534925D01*
X21376824Y8573552D01*
X21466094Y8585569D01*
X21554506Y8573552D01*
G37*
G36*
X22088412Y8573552D02*
G01*
X22134764Y8534067D01*
X22151073Y8485998D01*
X22154506Y8427629D01*
X22154506Y7687715D01*
X22160515Y7626770D01*
X22200858Y7617328D01*
X22236910Y7614753D01*
X22270386Y7600161D01*
X22299571Y7555526D01*
X22309013Y7471406D01*
X22299571Y7382135D01*
X22270386Y7334925D01*
X22236910Y7319474D01*
X22199142Y7316899D01*
X22103004Y7319689D01*
X22030901Y7328058D01*
X21924464Y7376127D01*
X21860944Y7482564D01*
X21848069Y7563895D01*
X21843777Y7668830D01*
X21843777Y8429345D01*
X21846352Y8488573D01*
X21862661Y8534925D01*
X21910730Y8573552D01*
X22000000Y8585569D01*
X22088412Y8573552D01*
G37*
G36*
X28820601Y8504882D02*
G01*
X28868670Y8465397D01*
X28884979Y8418187D01*
X28887554Y8358959D01*
X28887554Y7473122D01*
X28884979Y7413895D01*
X28868670Y7367543D01*
X28820601Y7328916D01*
X28729614Y7316899D01*
X28641202Y7326341D01*
X28590558Y7363251D01*
X28145923Y7950376D01*
X28145923Y7473122D01*
X28143348Y7413895D01*
X28127039Y7367543D01*
X28078970Y7328916D01*
X27987983Y7316899D01*
X27899571Y7328916D01*
X27853219Y7367543D01*
X27836910Y7414753D01*
X27833476Y7474839D01*
X27833476Y8365826D01*
X27836910Y8423337D01*
X27854077Y8468830D01*
X27901288Y8505740D01*
X27991416Y8516899D01*
X28069528Y8506599D01*
X28113305Y8485139D01*
X28144206Y8449946D01*
X28573391Y7873122D01*
X28573391Y8365826D01*
X28576824Y8422479D01*
X28593991Y8467972D01*
X28642060Y8504882D01*
X28731330Y8516899D01*
X28820601Y8504882D01*
G37*
G36*
X24107296Y8176985D02*
G01*
X24154506Y8137500D01*
X24170815Y8090290D01*
X24173391Y8032779D01*
X24173391Y7474839D01*
X24170815Y7416470D01*
X24154506Y7370976D01*
X24106438Y7332350D01*
X24017167Y7320333D01*
X23919742Y7335783D01*
X23871245Y7382135D01*
X23789270Y7335783D01*
X23733906Y7327080D01*
X23690987Y7320333D01*
X23591702Y7335020D01*
X23499857Y7379083D01*
X23415451Y7452521D01*
X23348212Y7545035D01*
X23307868Y7646322D01*
X23294840Y7752951D01*
X23605150Y7752951D01*
X23643777Y7667972D01*
X23733906Y7631062D01*
X23817167Y7667972D01*
X23852361Y7754667D01*
X23817167Y7842221D01*
X23730472Y7878273D01*
X23642060Y7840504D01*
X23605150Y7752951D01*
X23294840Y7752951D01*
X23294421Y7756384D01*
X23307964Y7863585D01*
X23348593Y7963156D01*
X23416309Y8055097D01*
X23501001Y8128535D01*
X23592561Y8172598D01*
X23690987Y8187285D01*
X23791845Y8170118D01*
X23871245Y8118616D01*
X23915021Y8171406D01*
X24018884Y8189002D01*
X24107296Y8176985D01*
G37*
G36*
X24902623Y8175459D02*
G01*
X24988460Y8134830D01*
X25057511Y8067114D01*
X25108059Y7978225D01*
X25138388Y7874076D01*
X25148498Y7754667D01*
X25148498Y7473122D01*
X25145923Y7415612D01*
X25129614Y7369260D01*
X25082403Y7330633D01*
X24992275Y7318616D01*
X24901288Y7330633D01*
X24853219Y7370118D01*
X24836910Y7417328D01*
X24834335Y7474839D01*
X24834335Y7754667D01*
X24802575Y7845655D01*
X24712446Y7878273D01*
X24621459Y7844796D01*
X24587124Y7754667D01*
X24587124Y7473122D01*
X24584549Y7415612D01*
X24568240Y7369260D01*
X24520172Y7330633D01*
X24430901Y7318616D01*
X24342489Y7330633D01*
X24295279Y7369260D01*
X24278970Y7415612D01*
X24276395Y7474839D01*
X24276395Y8039646D01*
X24279828Y8096298D01*
X24296137Y8140933D01*
X24343348Y8177843D01*
X24432618Y8189002D01*
X24513305Y8178702D01*
X24559657Y8150376D01*
X24578541Y8117758D01*
X24583691Y8082564D01*
X24675536Y8156384D01*
X24800000Y8189002D01*
X24902623Y8175459D01*
G37*
G36*
X22600000Y8573552D02*
G01*
X22644635Y8549517D01*
X22666953Y8513466D01*
X22673820Y8470547D01*
X22672961Y8425912D01*
X22672961Y8130633D01*
X22752361Y8173122D01*
X22846352Y8187285D01*
X22944778Y8172598D01*
X23036338Y8128535D01*
X23121030Y8055097D01*
X23188746Y7963156D01*
X23229375Y7863585D01*
X23242918Y7756384D01*
X23229471Y7646322D01*
X23189127Y7545035D01*
X23121888Y7452521D01*
X23037482Y7379083D01*
X22945637Y7335020D01*
X22846352Y7320333D01*
X22805150Y7326782D01*
X22747639Y7335783D01*
X22664378Y7382135D01*
X22615451Y7334496D01*
X22523605Y7318616D01*
X22435193Y7330633D01*
X22387983Y7370118D01*
X22371674Y7417328D01*
X22369099Y7474839D01*
X22369099Y7752951D01*
X22683262Y7752951D01*
X22719313Y7666255D01*
X22805150Y7629345D01*
X22892704Y7666255D01*
X22930472Y7752951D01*
X22894421Y7840504D01*
X22806867Y7876556D01*
X22719313Y7840504D01*
X22683262Y7752951D01*
X22369099Y7752951D01*
X22369099Y8427629D01*
X22371674Y8485139D01*
X22387983Y8531491D01*
X22435193Y8570118D01*
X22525322Y8582135D01*
X22600000Y8573552D01*
G37*
G36*
X26030043Y8570118D02*
G01*
X26077253Y8531491D01*
X26093562Y8485139D01*
X26096137Y8427629D01*
X26096137Y7474839D01*
X26093562Y7417328D01*
X26077253Y7370118D01*
X26030043Y7330633D01*
X25941631Y7318616D01*
X25849785Y7334496D01*
X25800858Y7382135D01*
X25717597Y7335783D01*
X25660086Y7326782D01*
X25618884Y7320333D01*
X25519599Y7335020D01*
X25427754Y7379083D01*
X25343348Y7452521D01*
X25276109Y7545035D01*
X25235765Y7646322D01*
X25222737Y7752951D01*
X25534764Y7752951D01*
X25572532Y7666255D01*
X25660086Y7629345D01*
X25745923Y7666255D01*
X25781974Y7752951D01*
X25745923Y7840504D01*
X25658369Y7876556D01*
X25570815Y7840504D01*
X25534764Y7752951D01*
X25222737Y7752951D01*
X25222318Y7756384D01*
X25235861Y7863585D01*
X25276490Y7963156D01*
X25344206Y8055097D01*
X25428898Y8128535D01*
X25520458Y8172598D01*
X25618884Y8187285D01*
X25712876Y8173122D01*
X25792275Y8130633D01*
X25792275Y8425912D01*
X25791416Y8470547D01*
X25798283Y8513466D01*
X25820601Y8549517D01*
X25865236Y8573552D01*
X25939914Y8582135D01*
X26030043Y8570118D01*
G37*
G36*
X29514926Y8526055D02*
G01*
X29624225Y8491720D01*
X29713305Y8434496D01*
X29775107Y8346084D01*
X29733906Y8240504D01*
X29632618Y8157242D01*
X29517597Y8189002D01*
X29497854Y8205311D01*
X29473820Y8225054D01*
X29440343Y8237929D01*
X29383691Y8243938D01*
X29320172Y8222479D01*
X29292704Y8170118D01*
X29322747Y8114324D01*
X29390558Y8084281D01*
X29495279Y8062822D01*
X29605150Y8036212D01*
X29702361Y7991577D01*
X29777682Y7926341D01*
X29825966Y7833208D01*
X29842060Y7704882D01*
X29834764Y7622908D01*
X29812876Y7548659D01*
X29738197Y7432779D01*
X29632618Y7356384D01*
X29515021Y7312607D01*
X29400858Y7299732D01*
X29304721Y7307457D01*
X29224034Y7326341D01*
X29157940Y7354667D01*
X29104721Y7387285D01*
X29063519Y7420762D01*
X29033476Y7450805D01*
X29014592Y7474839D01*
X29004292Y7486856D01*
X28961373Y7598444D01*
X29033476Y7708315D01*
X29104816Y7747991D01*
X29179208Y7736546D01*
X29256652Y7673981D01*
X29326180Y7611320D01*
X29393991Y7595011D01*
X29495279Y7619903D01*
X29526180Y7699732D01*
X29481545Y7752951D01*
X29346781Y7793294D01*
X29265021Y7815397D01*
X29200000Y7838788D01*
X29103863Y7893723D01*
X29035193Y7967543D01*
X28993991Y8060247D01*
X28980258Y8171835D01*
X28993038Y8271119D01*
X29031378Y8358387D01*
X29095279Y8433637D01*
X29178636Y8491339D01*
X29275346Y8525960D01*
X29385408Y8537500D01*
X29514926Y8526055D01*
G37*
G36*
X30445398Y8526055D02*
G01*
X30554697Y8491720D01*
X30643777Y8434496D01*
X30705579Y8346084D01*
X30664378Y8240504D01*
X30563090Y8157242D01*
X30448069Y8189002D01*
X30428326Y8205311D01*
X30404292Y8225054D01*
X30370815Y8237929D01*
X30314163Y8243938D01*
X30250644Y8222479D01*
X30223176Y8170118D01*
X30253219Y8114324D01*
X30321030Y8084281D01*
X30425751Y8062822D01*
X30535622Y8036212D01*
X30632833Y7991577D01*
X30708155Y7926341D01*
X30756438Y7833208D01*
X30772532Y7704882D01*
X30765236Y7622908D01*
X30743348Y7548659D01*
X30668670Y7432779D01*
X30563090Y7356384D01*
X30445494Y7312607D01*
X30331330Y7299732D01*
X30235193Y7307457D01*
X30154506Y7326341D01*
X30088412Y7354667D01*
X30035193Y7387285D01*
X29993991Y7420762D01*
X29963948Y7450805D01*
X29945064Y7474839D01*
X29934764Y7486856D01*
X29891845Y7598444D01*
X29963948Y7708315D01*
X30035289Y7747991D01*
X30109680Y7736546D01*
X30187124Y7673981D01*
X30256652Y7611320D01*
X30324464Y7595011D01*
X30425751Y7619903D01*
X30456652Y7699732D01*
X30412017Y7752951D01*
X30277253Y7793294D01*
X30195494Y7815397D01*
X30130472Y7838788D01*
X30034335Y7893723D01*
X29965665Y7967543D01*
X29924464Y8060247D01*
X29910730Y8171835D01*
X29923510Y8271119D01*
X29961850Y8358387D01*
X30025751Y8433637D01*
X30109108Y8491339D01*
X30205818Y8525960D01*
X30315880Y8537500D01*
X30445398Y8526055D01*
G37*
G36*
X27316524Y8532994D02*
G01*
X27412017Y8514324D01*
X27502361Y8484496D01*
X27575966Y8444796D01*
X27624034Y8410461D01*
X27655794Y8374410D01*
X27672103Y8324624D01*
X27632618Y8228487D01*
X27569099Y8160247D01*
X27505579Y8137500D01*
X27412876Y8176985D01*
X27324893Y8213036D01*
X27218884Y8225054D01*
X27106009Y8203809D01*
X27011159Y8140075D01*
X26946781Y8045440D01*
X26925322Y7931491D01*
X26947639Y7813895D01*
X27014592Y7711749D01*
X27111159Y7640933D01*
X27222318Y7617328D01*
X27321030Y7622908D01*
X27393991Y7639646D01*
X27393991Y7787285D01*
X27266953Y7787285D01*
X27220601Y7789861D01*
X27184549Y7803594D01*
X27155365Y7843938D01*
X27146781Y7921191D01*
X27156223Y7996727D01*
X27187983Y8037071D01*
X27225751Y8050805D01*
X27272103Y8053380D01*
X27572532Y8053380D01*
X27638627Y8041363D01*
X27678970Y8019045D01*
X27699571Y7984710D01*
X27707296Y7946942D01*
X27708155Y7904024D01*
X27708155Y7552092D01*
X27666953Y7453380D01*
X27618455Y7406384D01*
X27555365Y7366685D01*
X27460372Y7329489D01*
X27347067Y7307171D01*
X27215451Y7299732D01*
X27096137Y7311427D01*
X26985408Y7346513D01*
X26883262Y7404989D01*
X26789700Y7486856D01*
X26711588Y7585032D01*
X26655794Y7692436D01*
X26622318Y7809067D01*
X26611159Y7934925D01*
X26622479Y8054936D01*
X26656438Y8166041D01*
X26713036Y8268240D01*
X26792275Y8361534D01*
X26887393Y8439270D01*
X26991631Y8494796D01*
X27104989Y8528112D01*
X27227468Y8539217D01*
X27316524Y8532994D01*
G37*
D13*
%TO.C,D3*%
X37740000Y19955336D02*
X37740000Y19739664D01*
X38460000Y19955336D02*
X38460000Y19739664D01*
D12*
%TO.C,kibuzzard-66CAA41A*%
G36*
X19109871Y4476952D02*
G01*
X18984979Y4537467D01*
X19109871Y4597982D01*
X19109871Y4476952D01*
G37*
G36*
X19129024Y3810964D02*
G01*
X19198069Y3763647D01*
X19244903Y3694441D01*
X19260515Y3613003D01*
X19260515Y3508711D01*
X18831760Y3508711D01*
X18831760Y3611716D01*
X18847532Y3694119D01*
X18894850Y3763647D01*
X18964378Y3810964D01*
X19046781Y3826737D01*
X19129024Y3810964D01*
G37*
G36*
X19732618Y3390256D02*
G01*
X19732618Y2888110D01*
X19732618Y2553346D01*
X19732618Y2124162D01*
X18367382Y2124162D01*
X18367382Y2553346D01*
X18367382Y2876522D01*
X18581974Y2876522D01*
X18590629Y2793976D01*
X18616595Y2721444D01*
X18659871Y2658926D01*
X18716309Y2611000D01*
X18781760Y2582245D01*
X18856223Y2572660D01*
X18939914Y2582960D01*
X19009442Y2613861D01*
X19064807Y2665364D01*
X19106009Y2737467D01*
X19123552Y2786233D01*
X19140129Y2847552D01*
X19170386Y2948625D01*
X19210300Y2982102D01*
X19270172Y2958926D01*
X19288841Y2882960D01*
X19276609Y2832102D01*
X19229614Y2779956D01*
X19182690Y2721873D01*
X19174106Y2666079D01*
X19203863Y2612574D01*
X19286266Y2558497D01*
X19369957Y2590685D01*
X19378970Y2598411D01*
X19396996Y2612574D01*
X19419528Y2635106D01*
X19444635Y2666007D01*
X19469099Y2705922D01*
X19490343Y2755492D01*
X19504506Y2816007D01*
X19510300Y2888110D01*
X19500644Y2973733D01*
X19467811Y3061930D01*
X19410515Y3141115D01*
X19323605Y3197123D01*
X19267918Y3213540D01*
X19206438Y3219012D01*
X19110193Y3206941D01*
X19040343Y3170728D01*
X18991416Y3114237D01*
X18957940Y3041329D01*
X18937983Y2958926D01*
X18921888Y2880385D01*
X18899356Y2829527D01*
X18857511Y2806994D01*
X18818240Y2827595D01*
X18802146Y2875235D01*
X18806652Y2917724D01*
X18816309Y2942831D01*
X18831116Y2960857D01*
X18843348Y2975664D01*
X18867167Y3061930D01*
X18804721Y3137896D01*
X18725536Y3168797D01*
X18659227Y3122445D01*
X18616309Y3055635D01*
X18590558Y2973661D01*
X18581974Y2876522D01*
X18367382Y2876522D01*
X18367382Y3613003D01*
X18596137Y3613003D01*
X18596137Y3391544D01*
X18604506Y3323304D01*
X18633476Y3287252D01*
X18668884Y3275020D01*
X18712017Y3273089D01*
X19377682Y3273089D01*
X19423391Y3276308D01*
X19459442Y3289827D01*
X19487124Y3325235D01*
X19496137Y3390256D01*
X19496137Y3609140D01*
X19487808Y3699672D01*
X19462822Y3783282D01*
X19421178Y3859972D01*
X19362876Y3929741D01*
X19292825Y3987762D01*
X19215933Y4029205D01*
X19132202Y4054071D01*
X19041631Y4062359D01*
X18953433Y4054071D01*
X18871674Y4029205D01*
X18796352Y3987762D01*
X18727468Y3929741D01*
X18670011Y3860213D01*
X18628970Y3784248D01*
X18604345Y3701844D01*
X18596137Y3613003D01*
X18367382Y3613003D01*
X18367382Y4538754D01*
X18596137Y4538754D01*
X18614807Y4475664D01*
X18664378Y4430600D01*
X19333906Y4107424D01*
X19424678Y4090685D01*
X19487124Y4162788D01*
X19505794Y4256780D01*
X19434335Y4321158D01*
X19310730Y4380385D01*
X19310730Y4697123D01*
X19433047Y4756351D01*
X19507082Y4819441D01*
X19488412Y4914720D01*
X19425322Y4986179D01*
X19333906Y4968797D01*
X18665665Y4645621D01*
X18613519Y4601522D01*
X18596137Y4538754D01*
X18367382Y4538754D01*
X18367382Y4998411D01*
X18367382Y4998518D01*
X18370669Y5065426D01*
X18380498Y5131690D01*
X18396775Y5196672D01*
X18419343Y5259745D01*
X18447985Y5320302D01*
X18482424Y5377760D01*
X18522329Y5431566D01*
X18567316Y5481202D01*
X18616952Y5526189D01*
X18670758Y5566094D01*
X18728216Y5600533D01*
X18788773Y5629175D01*
X18851846Y5651743D01*
X18916828Y5668020D01*
X18983092Y5677849D01*
X19050000Y5681136D01*
X19116908Y5677849D01*
X19183172Y5668020D01*
X19248154Y5651743D01*
X19311227Y5629175D01*
X19371784Y5600533D01*
X19429242Y5566094D01*
X19483048Y5526189D01*
X19532684Y5481202D01*
X19577671Y5431566D01*
X19617576Y5377760D01*
X19652015Y5320302D01*
X19680657Y5259745D01*
X19703225Y5196672D01*
X19719502Y5131690D01*
X19729331Y5065426D01*
X19732618Y4998518D01*
X19732618Y4998411D01*
X19732618Y4819441D01*
X19732618Y3390256D01*
G37*
%TO.C,kibuzzard-67ED9A4D*%
G36*
X19731974Y39475483D02*
G01*
X19731974Y38638573D01*
X19731974Y38294796D01*
X19731974Y38080204D01*
X18368026Y38080204D01*
X18368026Y38294796D01*
X18368026Y38638573D01*
X18587768Y38638573D01*
X18593562Y38567114D01*
X18609013Y38507886D01*
X18631545Y38460247D01*
X18657940Y38422264D01*
X18685622Y38393938D01*
X18711373Y38373337D01*
X18732618Y38360461D01*
X18746781Y38353380D01*
X18751288Y38351448D01*
X18840129Y38332779D01*
X18910944Y38396513D01*
X18933977Y38465469D01*
X18918956Y38519546D01*
X18865880Y38558745D01*
X18827253Y38596084D01*
X18814378Y38651448D01*
X18830472Y38710032D01*
X18874893Y38731277D01*
X18907725Y38712607D01*
X18916094Y38652736D01*
X18916094Y38643723D01*
X18918026Y38602521D01*
X18928970Y38569689D01*
X18962446Y38542650D01*
X19026824Y38534281D01*
X19083476Y38542006D01*
X19116953Y38557457D01*
X19133047Y38586427D01*
X19138841Y38616041D01*
X19138841Y38651448D01*
X19157511Y38725805D01*
X19213519Y38750590D01*
X19266953Y38720333D01*
X19286910Y38639861D01*
X19279828Y38594152D01*
X19264378Y38563251D01*
X19245064Y38543938D01*
X19229614Y38534281D01*
X19222532Y38531706D01*
X19162017Y38494367D01*
X19147854Y38423552D01*
X19168133Y38326985D01*
X19228970Y38294796D01*
X19302289Y38306241D01*
X19369456Y38340576D01*
X19430472Y38397800D01*
X19478755Y38470333D01*
X19507725Y38550590D01*
X19517382Y38638573D01*
X19507725Y38733208D01*
X19478755Y38816255D01*
X19430472Y38887715D01*
X19367454Y38942436D01*
X19294278Y38975268D01*
X19210944Y38986212D01*
X19149142Y38977521D01*
X19097639Y38951448D01*
X19028112Y38879345D01*
X18964056Y38945976D01*
X18869742Y38968187D01*
X18800644Y38958244D01*
X18735837Y38928416D01*
X18675322Y38878702D01*
X18626681Y38812250D01*
X18597496Y38732207D01*
X18587768Y38638573D01*
X18368026Y38638573D01*
X18368026Y39210247D01*
X18595494Y39210247D01*
X18614807Y39113680D01*
X18675966Y39041577D01*
X18765451Y39054453D01*
X19436266Y39359603D01*
X19484549Y39403380D01*
X19500644Y39475483D01*
X19483262Y39541792D01*
X19436266Y39586212D01*
X18765451Y39891363D01*
X18676609Y39906170D01*
X18614807Y39832135D01*
X18596137Y39736856D01*
X18668884Y39676341D01*
X19169742Y39472908D01*
X18668884Y39269474D01*
X18595494Y39210247D01*
X18368026Y39210247D01*
X18368026Y40303380D01*
X18587768Y40303380D01*
X18593562Y40231921D01*
X18609013Y40172693D01*
X18631545Y40125054D01*
X18657940Y40087071D01*
X18685622Y40058745D01*
X18711373Y40038144D01*
X18732618Y40025268D01*
X18746781Y40018187D01*
X18751288Y40016255D01*
X18840129Y39997586D01*
X18910944Y40061320D01*
X18933977Y40130275D01*
X18918956Y40184353D01*
X18865880Y40223552D01*
X18827253Y40260891D01*
X18814378Y40316255D01*
X18830472Y40374839D01*
X18874893Y40396084D01*
X18907725Y40377414D01*
X18916094Y40317543D01*
X18916094Y40308530D01*
X18918026Y40267328D01*
X18928970Y40234496D01*
X18962446Y40207457D01*
X19026824Y40199088D01*
X19083476Y40206813D01*
X19116953Y40222264D01*
X19133047Y40251234D01*
X19138841Y40280848D01*
X19138841Y40316255D01*
X19157511Y40390612D01*
X19213519Y40415397D01*
X19266953Y40385139D01*
X19286910Y40304667D01*
X19279828Y40258959D01*
X19264378Y40228058D01*
X19245064Y40208745D01*
X19229614Y40199088D01*
X19222532Y40196513D01*
X19162017Y40159174D01*
X19147854Y40088358D01*
X19168133Y39991792D01*
X19228970Y39959603D01*
X19302289Y39971048D01*
X19369456Y40005383D01*
X19430472Y40062607D01*
X19478755Y40135139D01*
X19507725Y40215397D01*
X19517382Y40303380D01*
X19507725Y40398015D01*
X19478755Y40481062D01*
X19430472Y40552521D01*
X19367454Y40607242D01*
X19294278Y40640075D01*
X19210944Y40651019D01*
X19149142Y40642328D01*
X19097639Y40616255D01*
X19028112Y40544152D01*
X18964056Y40610783D01*
X18869742Y40632994D01*
X18800644Y40623051D01*
X18735837Y40593222D01*
X18675322Y40543509D01*
X18626681Y40477057D01*
X18597496Y40397014D01*
X18587768Y40303380D01*
X18368026Y40303380D01*
X18368026Y40651019D01*
X18368026Y41294796D01*
X19731974Y41294796D01*
X19731974Y40651019D01*
X19731974Y40303380D01*
X19731974Y39475483D01*
G37*
D13*
%TO.C,R10*%
X18334758Y10047500D02*
X17860242Y10047500D01*
X18334758Y9002500D02*
X17860242Y9002500D01*
%TO.C,R1*%
X4364758Y7507500D02*
X3890242Y7507500D01*
X4364758Y6462500D02*
X3890242Y6462500D01*
D14*
%TO.C,J7*%
X5890000Y38450000D02*
X5890000Y40100000D01*
X6640000Y38450000D02*
X5890000Y38450000D01*
X10390000Y42700000D02*
X7390000Y42700000D01*
X11890000Y40100000D02*
X11890000Y38450000D01*
X11890000Y38450000D02*
X11140000Y38450000D01*
D12*
%TO.C,kibuzzard-67ED9A28*%
G36*
X34968755Y39665172D02*
G01*
X34968755Y38832124D01*
X34968755Y38497361D01*
X34968755Y38282768D01*
X34965487Y38216239D01*
X34955713Y38150350D01*
X34939528Y38085736D01*
X34917088Y38023020D01*
X34888609Y37962805D01*
X34854364Y37905672D01*
X34814685Y37852170D01*
X34769953Y37802816D01*
X34720598Y37758083D01*
X34667096Y37718404D01*
X34609963Y37684159D01*
X34549748Y37655680D01*
X34487032Y37633240D01*
X34422419Y37617055D01*
X34356530Y37607281D01*
X34290000Y37604013D01*
X34223470Y37607281D01*
X34157581Y37617055D01*
X34092968Y37633240D01*
X34030252Y37655680D01*
X33970037Y37684159D01*
X33912904Y37718404D01*
X33859402Y37758083D01*
X33810047Y37802816D01*
X33765315Y37852170D01*
X33725636Y37905672D01*
X33691391Y37962805D01*
X33662912Y38023020D01*
X33640472Y38085736D01*
X33624287Y38150350D01*
X33614513Y38216239D01*
X33611245Y38282768D01*
X33611245Y38497361D01*
X33611245Y38820536D01*
X33825837Y38820536D01*
X33834492Y38737990D01*
X33860458Y38665458D01*
X33903734Y38602940D01*
X33960172Y38555014D01*
X34025622Y38526259D01*
X34100086Y38516674D01*
X34183777Y38526974D01*
X34253305Y38557876D01*
X34308670Y38609378D01*
X34349871Y38681481D01*
X34367414Y38730247D01*
X34383991Y38791567D01*
X34414249Y38892639D01*
X34454163Y38926116D01*
X34514034Y38902940D01*
X34532704Y38826974D01*
X34520472Y38776116D01*
X34473476Y38723970D01*
X34426552Y38665887D01*
X34417969Y38610093D01*
X34447725Y38556588D01*
X34530129Y38502511D01*
X34613820Y38534700D01*
X34622833Y38542425D01*
X34640858Y38556588D01*
X34663391Y38579120D01*
X34688498Y38610021D01*
X34712961Y38649936D01*
X34734206Y38699506D01*
X34748369Y38760021D01*
X34754163Y38832124D01*
X34744506Y38917747D01*
X34711674Y39005944D01*
X34654378Y39085129D01*
X34567468Y39141137D01*
X34511781Y39157554D01*
X34450300Y39163026D01*
X34354056Y39150955D01*
X34284206Y39114742D01*
X34235279Y39058251D01*
X34201803Y38985343D01*
X34181845Y38902940D01*
X34165751Y38824399D01*
X34143219Y38773541D01*
X34101373Y38751009D01*
X34062103Y38771609D01*
X34046009Y38819249D01*
X34050515Y38861738D01*
X34060172Y38886845D01*
X34074979Y38904871D01*
X34087210Y38919678D01*
X34111030Y39005944D01*
X34048584Y39081910D01*
X33969399Y39112811D01*
X33903090Y39066459D01*
X33860172Y38999649D01*
X33834421Y38917675D01*
X33825837Y38820536D01*
X33611245Y38820536D01*
X33611245Y39669034D01*
X33830987Y39669034D01*
X33834850Y39612221D01*
X33846438Y39552511D01*
X33866878Y39490708D01*
X33897296Y39427618D01*
X33936567Y39367264D01*
X33983562Y39313670D01*
X34041341Y39267961D01*
X34112961Y39231266D01*
X34195365Y39207124D01*
X34285494Y39199077D01*
X34379163Y39207285D01*
X34464464Y39231910D01*
X34538337Y39269088D01*
X34597725Y39314957D01*
X34646009Y39368552D01*
X34686567Y39428906D01*
X34717951Y39491674D01*
X34738712Y39552511D01*
X34750300Y39610612D01*
X34754163Y39665172D01*
X34746152Y39748433D01*
X34722117Y39828262D01*
X34682060Y39904657D01*
X34642790Y39957446D01*
X34595794Y39975472D01*
X34521116Y39947146D01*
X34466073Y39900794D01*
X34447725Y39857017D01*
X34473476Y39792639D01*
X34505343Y39727940D01*
X34515966Y39660021D01*
X34495365Y39562167D01*
X34466556Y39515655D01*
X34421330Y39473970D01*
X34362264Y39444517D01*
X34291931Y39434700D01*
X34237210Y39440172D01*
X34188927Y39456588D01*
X34118755Y39513884D01*
X34080773Y39586631D01*
X34067897Y39660021D01*
X34069185Y39690923D01*
X34073691Y39716674D01*
X34078841Y39737275D01*
X34085279Y39754657D01*
X34092361Y39766888D01*
X34099442Y39777833D01*
X34105236Y39786202D01*
X34134850Y39855730D01*
X34117468Y39900150D01*
X34065322Y39948433D01*
X33993219Y39976760D01*
X33954592Y39964528D01*
X33927554Y39940708D01*
X33903090Y39905944D01*
X33863033Y39824685D01*
X33838999Y39745715D01*
X33830987Y39669034D01*
X33611245Y39669034D01*
X33611245Y40176330D01*
X33840000Y40176330D01*
X33849013Y40108090D01*
X33878627Y40072039D01*
X33914034Y40059807D01*
X33957167Y40057876D01*
X34622833Y40057876D01*
X34667253Y40059807D01*
X34702661Y40072039D01*
X34732275Y40108090D01*
X34741288Y40175043D01*
X34741288Y40606373D01*
X34739356Y40643069D01*
X34728412Y40673970D01*
X34697511Y40699077D01*
X34640858Y40706803D01*
X34582918Y40699077D01*
X34552661Y40673970D01*
X34542361Y40644356D01*
X34540429Y40607661D01*
X34540429Y40293498D01*
X33958455Y40293498D01*
X33914034Y40291567D01*
X33878627Y40279335D01*
X33849013Y40243283D01*
X33840000Y40176330D01*
X33611245Y40176330D01*
X33611245Y40706803D01*
X33611245Y41135987D01*
X34968755Y41135987D01*
X34968755Y40706803D01*
X34968755Y40175043D01*
X34968755Y39665172D01*
G37*
D14*
%TO.C,U2*%
X13223100Y19367500D02*
X14081900Y19367500D01*
X14081900Y16827500D02*
X13223100Y16827500D01*
X14361300Y18365900D02*
X14361300Y17829100D01*
D11*
X12736500Y19697700D02*
G75*
G02*
X12536500Y19697700I-100000J0D01*
G01*
X12536500Y19697700D02*
G75*
G02*
X12736500Y19697700I100000J0D01*
G01*
D15*
%TO.C,J10*%
X39452900Y11516100D02*
X39452900Y12217500D01*
X39457500Y14517500D02*
X39457500Y13817500D01*
X39557500Y14517500D02*
X39457500Y14517500D01*
X39557500Y11516100D02*
X39452900Y11516100D01*
D16*
X42252900Y14516100D02*
X42452900Y14516100D01*
X42452900Y14516100D02*
X42452900Y11516100D01*
X42452900Y11516100D02*
X42252900Y11516100D01*
D12*
%TO.C,G\u002A\u002A\u002A*%
G36*
X25975377Y34451115D02*
G01*
X26424877Y34918389D01*
X26846726Y34918389D01*
X26356912Y34441007D01*
X26901679Y33620197D01*
X26469838Y33620197D01*
X26113515Y34200283D01*
X25975377Y34067025D01*
X25975377Y33620197D01*
X25618821Y33620197D01*
X25618821Y35217437D01*
X25975377Y35412967D01*
X25975377Y34451115D01*
G37*
G36*
X25408198Y34953373D02*
G01*
X25413318Y34953195D01*
X25418386Y34952903D01*
X25423405Y34952502D01*
X25433309Y34951393D01*
X25443059Y34949904D01*
X25452684Y34948073D01*
X25462212Y34945934D01*
X25471673Y34943527D01*
X25481094Y34940886D01*
X25481094Y34609541D01*
X25467934Y34612143D01*
X25453261Y34614522D01*
X25437423Y34616640D01*
X25420767Y34618458D01*
X25403643Y34619938D01*
X25386400Y34621043D01*
X25369385Y34621734D01*
X25352947Y34621972D01*
X25328746Y34621432D01*
X25305557Y34619829D01*
X25283366Y34617190D01*
X25262156Y34613539D01*
X25241910Y34608902D01*
X25222614Y34603305D01*
X25204251Y34596774D01*
X25186805Y34589335D01*
X25170259Y34581013D01*
X25154598Y34571834D01*
X25139806Y34561823D01*
X25125866Y34551007D01*
X25112763Y34539411D01*
X25100481Y34527061D01*
X25089003Y34513983D01*
X25078313Y34500201D01*
X25068395Y34485743D01*
X25059234Y34470634D01*
X25050813Y34454899D01*
X25043116Y34438564D01*
X25036127Y34421655D01*
X25029830Y34404197D01*
X25024209Y34386217D01*
X25019248Y34367740D01*
X25014931Y34348792D01*
X25011241Y34329398D01*
X25005681Y34289377D01*
X25002439Y34247882D01*
X25001387Y34205120D01*
X25001387Y33620154D01*
X24644831Y33620154D01*
X24644831Y34857817D01*
X24983844Y34918347D01*
X24983844Y34677158D01*
X24988724Y34677158D01*
X24995376Y34692322D01*
X25002601Y34707180D01*
X25010381Y34721719D01*
X25018701Y34735928D01*
X25027542Y34749796D01*
X25036890Y34763311D01*
X25046726Y34776463D01*
X25057036Y34789239D01*
X25067801Y34801627D01*
X25079005Y34813618D01*
X25090632Y34825198D01*
X25102665Y34836357D01*
X25115088Y34847084D01*
X25127884Y34857366D01*
X25141035Y34867192D01*
X25154527Y34876551D01*
X25168341Y34885432D01*
X25182462Y34893823D01*
X25196873Y34901712D01*
X25211556Y34909089D01*
X25226497Y34915941D01*
X25241677Y34922257D01*
X25257080Y34928026D01*
X25272691Y34933236D01*
X25288491Y34937877D01*
X25304465Y34941935D01*
X25320596Y34945401D01*
X25336867Y34948262D01*
X25353261Y34950507D01*
X25369763Y34952125D01*
X25386355Y34953105D01*
X25403021Y34953434D01*
X25408198Y34953373D01*
G37*
G36*
X27576762Y35412604D02*
G01*
X27600539Y35411715D01*
X27624393Y35410415D01*
X27648224Y35408853D01*
X27695429Y35405532D01*
X27718607Y35404072D01*
X27741371Y35402942D01*
X27741371Y35136658D01*
X27725267Y35138488D01*
X27708979Y35140062D01*
X27692570Y35141381D01*
X27676107Y35142452D01*
X27659655Y35143278D01*
X27643279Y35143863D01*
X27627045Y35144211D01*
X27611017Y35144326D01*
X27593333Y35143848D01*
X27585010Y35143243D01*
X27577029Y35142387D01*
X27569384Y35141276D01*
X27562072Y35139904D01*
X27555088Y35138266D01*
X27548429Y35136356D01*
X27542090Y35134171D01*
X27536068Y35131705D01*
X27530357Y35128953D01*
X27524954Y35125909D01*
X27519855Y35122569D01*
X27515056Y35118928D01*
X27510552Y35114980D01*
X27506339Y35110721D01*
X27502414Y35106145D01*
X27498772Y35101248D01*
X27495409Y35096024D01*
X27492321Y35090468D01*
X27489504Y35084575D01*
X27486953Y35078341D01*
X27484665Y35071760D01*
X27482635Y35064826D01*
X27480860Y35057536D01*
X27479334Y35049883D01*
X27478055Y35041864D01*
X27477017Y35033472D01*
X27475651Y35015551D01*
X27475203Y34996080D01*
X27475203Y34918356D01*
X27721156Y34918356D01*
X27721156Y34679839D01*
X27475203Y34679839D01*
X27475203Y33620047D01*
X27118647Y33620047D01*
X27118647Y34679839D01*
X26766971Y34679839D01*
X27010019Y34918356D01*
X27118647Y34918356D01*
X27118647Y35018503D01*
X27119067Y35039976D01*
X27120327Y35061033D01*
X27122428Y35081657D01*
X27125371Y35101830D01*
X27129157Y35121536D01*
X27133787Y35140756D01*
X27139261Y35159473D01*
X27145581Y35177669D01*
X27152747Y35195328D01*
X27160760Y35212432D01*
X27169622Y35228963D01*
X27179332Y35244904D01*
X27189892Y35260237D01*
X27201303Y35274946D01*
X27213565Y35289011D01*
X27226680Y35302417D01*
X27240648Y35315146D01*
X27255470Y35327180D01*
X27271148Y35338502D01*
X27287681Y35349094D01*
X27305071Y35358938D01*
X27323319Y35368019D01*
X27342425Y35376317D01*
X27362391Y35383816D01*
X27383217Y35390498D01*
X27404904Y35396346D01*
X27427453Y35401342D01*
X27450865Y35405468D01*
X27475141Y35408708D01*
X27500281Y35411044D01*
X27526287Y35412458D01*
X27553160Y35412934D01*
X27576762Y35412604D01*
G37*
G36*
X28178012Y34185221D02*
G01*
X28178730Y34146449D01*
X28180931Y34110208D01*
X28184684Y34076495D01*
X28190058Y34045304D01*
X28197123Y34016632D01*
X28205949Y33990474D01*
X28211044Y33978337D01*
X28216605Y33966828D01*
X28222641Y33955944D01*
X28229160Y33945687D01*
X28236171Y33936056D01*
X28243683Y33927049D01*
X28251705Y33918667D01*
X28260245Y33910909D01*
X28269312Y33903775D01*
X28278915Y33897264D01*
X28289061Y33891375D01*
X28299761Y33886109D01*
X28311022Y33881464D01*
X28322854Y33877440D01*
X28335264Y33874036D01*
X28348262Y33871252D01*
X28361857Y33869088D01*
X28376056Y33867543D01*
X28390870Y33866616D01*
X28406305Y33866307D01*
X28424127Y33866625D01*
X28441305Y33867585D01*
X28457843Y33869195D01*
X28473748Y33871465D01*
X28489024Y33874402D01*
X28503676Y33878015D01*
X28517709Y33882314D01*
X28531130Y33887307D01*
X28543941Y33893002D01*
X28556150Y33899408D01*
X28567761Y33906535D01*
X28578779Y33914389D01*
X28589210Y33922981D01*
X28599057Y33932319D01*
X28608328Y33942412D01*
X28617026Y33953268D01*
X28625158Y33964895D01*
X28632727Y33977304D01*
X28639740Y33990502D01*
X28646201Y34004497D01*
X28652115Y34019300D01*
X28657488Y34034918D01*
X28662326Y34051359D01*
X28666632Y34068634D01*
X28670412Y34086750D01*
X28673671Y34105716D01*
X28676415Y34125541D01*
X28678648Y34146233D01*
X28680377Y34167801D01*
X28681605Y34190254D01*
X28682581Y34237850D01*
X28682581Y34918315D01*
X29039253Y34918315D01*
X29039253Y33620122D01*
X28700124Y33620122D01*
X28700124Y33801014D01*
X28692572Y33801014D01*
X28683930Y33787362D01*
X28674916Y33774178D01*
X28665543Y33761459D01*
X28655825Y33749205D01*
X28645774Y33737411D01*
X28635402Y33726077D01*
X28624724Y33715199D01*
X28613752Y33704776D01*
X28602498Y33694805D01*
X28590976Y33685283D01*
X28579199Y33676210D01*
X28567180Y33667582D01*
X28542466Y33651652D01*
X28516937Y33637477D01*
X28490699Y33625037D01*
X28463852Y33614315D01*
X28436503Y33605293D01*
X28408752Y33597952D01*
X28380706Y33592274D01*
X28352465Y33588241D01*
X28324135Y33585834D01*
X28295819Y33585036D01*
X28261104Y33585658D01*
X28228017Y33587510D01*
X28196524Y33590574D01*
X28166589Y33594829D01*
X28138179Y33600257D01*
X28111259Y33606839D01*
X28085794Y33614555D01*
X28061751Y33623386D01*
X28039093Y33633313D01*
X28017788Y33644316D01*
X27997801Y33656376D01*
X27979096Y33669474D01*
X27961640Y33683590D01*
X27945398Y33698706D01*
X27930336Y33714802D01*
X27916419Y33731858D01*
X27903612Y33749856D01*
X27891882Y33768776D01*
X27881193Y33788599D01*
X27871512Y33809306D01*
X27862803Y33830877D01*
X27855032Y33853293D01*
X27848165Y33876535D01*
X27842167Y33900584D01*
X27832642Y33951023D01*
X27826179Y34004458D01*
X27822504Y34060733D01*
X27821341Y34119695D01*
X27821341Y34918315D01*
X28178012Y34918315D01*
X28178012Y34185221D01*
G37*
G36*
X30014182Y34952731D02*
G01*
X30047269Y34950877D01*
X30078762Y34947812D01*
X30108697Y34943555D01*
X30137107Y34938124D01*
X30164027Y34931539D01*
X30189491Y34923820D01*
X30213535Y34914986D01*
X30236192Y34905056D01*
X30257497Y34894049D01*
X30277485Y34881986D01*
X30296190Y34868884D01*
X30313646Y34854764D01*
X30329887Y34839645D01*
X30344950Y34823546D01*
X30358867Y34806487D01*
X30371673Y34788486D01*
X30383404Y34769564D01*
X30394093Y34749739D01*
X30403774Y34729032D01*
X30412483Y34707460D01*
X30420254Y34685044D01*
X30427121Y34661803D01*
X30433118Y34637756D01*
X30442644Y34587322D01*
X30449107Y34533897D01*
X30452782Y34477636D01*
X30453945Y34418694D01*
X30453945Y33620074D01*
X30097390Y33620074D01*
X30097390Y34353168D01*
X30096670Y34391941D01*
X30094461Y34428185D01*
X30090697Y34461905D01*
X30085308Y34493103D01*
X30078225Y34521784D01*
X30069379Y34547951D01*
X30064274Y34560093D01*
X30058702Y34571609D01*
X30052656Y34582497D01*
X30046126Y34592760D01*
X30039103Y34602397D01*
X30031580Y34611409D01*
X30023548Y34619796D01*
X30014998Y34627559D01*
X30005921Y34634698D01*
X29996309Y34641214D01*
X29986153Y34647108D01*
X29975445Y34652378D01*
X29964176Y34657027D01*
X29952337Y34661055D01*
X29939920Y34664462D01*
X29926917Y34667248D01*
X29913318Y34669414D01*
X29899115Y34670961D01*
X29884300Y34671889D01*
X29868864Y34672198D01*
X29851064Y34671880D01*
X29833907Y34670920D01*
X29817388Y34669310D01*
X29801503Y34667040D01*
X29786246Y34664103D01*
X29771612Y34660488D01*
X29757596Y34656189D01*
X29744192Y34651195D01*
X29731396Y34645498D01*
X29719203Y34639090D01*
X29707607Y34631961D01*
X29696603Y34624104D01*
X29686186Y34615508D01*
X29676350Y34606166D01*
X29667092Y34596069D01*
X29658404Y34585208D01*
X29650284Y34573575D01*
X29642724Y34561160D01*
X29635721Y34547955D01*
X29629268Y34533951D01*
X29623362Y34519139D01*
X29617995Y34503512D01*
X29613165Y34487059D01*
X29608865Y34469773D01*
X29605090Y34451644D01*
X29601835Y34432664D01*
X29599094Y34412824D01*
X29596864Y34392116D01*
X29595138Y34370530D01*
X29593912Y34348059D01*
X29592937Y34300422D01*
X29592937Y33620074D01*
X29236149Y33620074D01*
X29236149Y34918267D01*
X29575045Y34918267D01*
X29575045Y34737491D01*
X29582714Y34737491D01*
X29591366Y34751133D01*
X29600388Y34764307D01*
X29609767Y34777016D01*
X29619490Y34789262D01*
X29629544Y34801048D01*
X29639917Y34812375D01*
X29650596Y34823245D01*
X29661567Y34833662D01*
X29672819Y34843628D01*
X29684338Y34853143D01*
X29696111Y34862212D01*
X29708127Y34870836D01*
X29732831Y34886757D01*
X29758349Y34900927D01*
X29784577Y34913361D01*
X29811413Y34924079D01*
X29838755Y34933099D01*
X29866501Y34940439D01*
X29894547Y34946116D01*
X29922792Y34950148D01*
X29951133Y34952555D01*
X29979467Y34953353D01*
X30014182Y34952731D01*
G37*
G36*
X22567283Y34952380D02*
G01*
X22603460Y34949551D01*
X22638343Y34944901D01*
X22671939Y34938482D01*
X22704255Y34930347D01*
X22735299Y34920550D01*
X22765078Y34909143D01*
X22793599Y34896178D01*
X22820870Y34881710D01*
X22846898Y34865790D01*
X22871690Y34848473D01*
X22895254Y34829809D01*
X22917596Y34809853D01*
X22938725Y34788658D01*
X22958648Y34766276D01*
X22977372Y34742759D01*
X22994904Y34718162D01*
X23011252Y34692537D01*
X23026423Y34665936D01*
X23040424Y34638413D01*
X23053263Y34610021D01*
X23064947Y34580812D01*
X23075484Y34550839D01*
X23084880Y34520155D01*
X23093143Y34488814D01*
X23100281Y34456867D01*
X23111209Y34391370D01*
X23117723Y34324088D01*
X23119881Y34255443D01*
X23117673Y34190782D01*
X23111043Y34127099D01*
X23099985Y34064833D01*
X23084492Y34004426D01*
X23064554Y33946318D01*
X23040167Y33890951D01*
X23026302Y33864433D01*
X23011322Y33838765D01*
X22995225Y33814003D01*
X22978011Y33790201D01*
X22959679Y33767415D01*
X22940228Y33745700D01*
X22919657Y33725110D01*
X22897965Y33705702D01*
X22875152Y33687529D01*
X22851215Y33670648D01*
X22826155Y33655113D01*
X22799971Y33640979D01*
X22772661Y33628302D01*
X22744225Y33617136D01*
X22714661Y33607537D01*
X22683970Y33599560D01*
X22652149Y33593259D01*
X22619198Y33588691D01*
X22585117Y33585909D01*
X22549903Y33584970D01*
X22520401Y33585763D01*
X22491318Y33588135D01*
X22462710Y33592074D01*
X22434638Y33597568D01*
X22407160Y33604606D01*
X22380333Y33613177D01*
X22354217Y33623268D01*
X22328871Y33634869D01*
X22304352Y33647967D01*
X22280720Y33662551D01*
X22258032Y33678610D01*
X22236348Y33696132D01*
X22215726Y33715105D01*
X22196224Y33735518D01*
X22177902Y33757359D01*
X22160817Y33780616D01*
X22155589Y33780616D01*
X22155589Y32845949D01*
X21799033Y33163121D01*
X21799033Y34265435D01*
X22143158Y34265435D01*
X22144113Y34226062D01*
X22147049Y34187206D01*
X22152070Y34149145D01*
X22159279Y34112159D01*
X22168782Y34076527D01*
X22180683Y34042528D01*
X22195086Y34010442D01*
X22203259Y33995203D01*
X22212096Y33980547D01*
X22221610Y33966509D01*
X22231816Y33953124D01*
X22242725Y33940426D01*
X22254351Y33928451D01*
X22266707Y33917233D01*
X22279805Y33906807D01*
X22293660Y33897209D01*
X22308284Y33888473D01*
X22323689Y33880634D01*
X22339890Y33873727D01*
X22356898Y33867786D01*
X22374728Y33862848D01*
X22393392Y33858946D01*
X22412903Y33856116D01*
X22433275Y33854392D01*
X22454519Y33853810D01*
X22475951Y33854392D01*
X22496469Y33856116D01*
X22516091Y33858946D01*
X22534830Y33862848D01*
X22552702Y33867786D01*
X22569722Y33873727D01*
X22585906Y33880634D01*
X22601269Y33888473D01*
X22615826Y33897209D01*
X22629592Y33906807D01*
X22642582Y33917233D01*
X22654812Y33928451D01*
X22666298Y33940426D01*
X22677053Y33953124D01*
X22687094Y33966509D01*
X22696435Y33980547D01*
X22705092Y33995203D01*
X22713080Y34010442D01*
X22720415Y34026228D01*
X22727111Y34042528D01*
X22733184Y34059306D01*
X22738649Y34076527D01*
X22743521Y34094156D01*
X22747815Y34112159D01*
X22754733Y34149145D01*
X22759523Y34187206D01*
X22762308Y34226062D01*
X22763209Y34265435D01*
X22762224Y34304472D01*
X22759209Y34343259D01*
X22754070Y34381483D01*
X22746715Y34418830D01*
X22737053Y34454988D01*
X22724991Y34489644D01*
X22710437Y34522485D01*
X22702196Y34538127D01*
X22693298Y34553198D01*
X22683730Y34567658D01*
X22673482Y34581469D01*
X22662542Y34594592D01*
X22650898Y34606986D01*
X22638539Y34618615D01*
X22625453Y34629437D01*
X22611628Y34639414D01*
X22597054Y34648507D01*
X22581718Y34656677D01*
X22565609Y34663884D01*
X22548716Y34670090D01*
X22531027Y34675255D01*
X22512530Y34679341D01*
X22493215Y34682308D01*
X22473068Y34684116D01*
X22452080Y34684728D01*
X22430638Y34684123D01*
X22410108Y34682334D01*
X22390476Y34679399D01*
X22371726Y34675355D01*
X22353843Y34670241D01*
X22336812Y34664093D01*
X22320618Y34656950D01*
X22305245Y34648850D01*
X22290678Y34639830D01*
X22276902Y34629928D01*
X22263902Y34619182D01*
X22251662Y34607630D01*
X22240168Y34595309D01*
X22229403Y34582257D01*
X22219354Y34568512D01*
X22210005Y34554112D01*
X22201339Y34539095D01*
X22193344Y34523498D01*
X22186002Y34507359D01*
X22179299Y34490716D01*
X22173219Y34473607D01*
X22167749Y34456069D01*
X22162871Y34438141D01*
X22158571Y34419859D01*
X22151645Y34382389D01*
X22146849Y34343959D01*
X22144060Y34304874D01*
X22143158Y34265435D01*
X21799033Y34265435D01*
X21799033Y34857836D01*
X22138162Y34918249D01*
X22138162Y34752577D01*
X22143158Y34752577D01*
X22151549Y34765531D01*
X22160228Y34778017D01*
X22169191Y34790038D01*
X22178432Y34801598D01*
X22187946Y34812700D01*
X22197729Y34823349D01*
X22207775Y34833548D01*
X22218079Y34843300D01*
X22228636Y34852611D01*
X22239442Y34861483D01*
X22250491Y34869920D01*
X22261778Y34877926D01*
X22273298Y34885505D01*
X22285047Y34892661D01*
X22297018Y34899396D01*
X22309208Y34905716D01*
X22321610Y34911624D01*
X22334221Y34917123D01*
X22360046Y34926911D01*
X22386644Y34935110D01*
X22413973Y34941752D01*
X22441993Y34946865D01*
X22470666Y34950479D01*
X22499949Y34952626D01*
X22529804Y34953335D01*
X22567283Y34952380D01*
G37*
G36*
X23921744Y34952594D02*
G01*
X23971488Y34950233D01*
X24021401Y34945947D01*
X24070950Y34939450D01*
X24119601Y34930453D01*
X24166821Y34918671D01*
X24212076Y34903815D01*
X24254832Y34885599D01*
X24275107Y34875141D01*
X24294556Y34863735D01*
X24313115Y34851346D01*
X24330715Y34837937D01*
X24347290Y34823473D01*
X24362775Y34807917D01*
X24377100Y34791235D01*
X24390201Y34773389D01*
X24402011Y34754344D01*
X24412462Y34734065D01*
X24421489Y34712515D01*
X24429023Y34689658D01*
X24435000Y34665458D01*
X24439351Y34639881D01*
X24442011Y34612889D01*
X24442913Y34584446D01*
X24442913Y33908744D01*
X24443515Y33864646D01*
X24445381Y33821303D01*
X24448598Y33779482D01*
X24453253Y33739950D01*
X24456146Y33721281D01*
X24459432Y33703473D01*
X24463121Y33686619D01*
X24467223Y33670817D01*
X24471751Y33656162D01*
X24476714Y33642750D01*
X24482123Y33630676D01*
X24487991Y33620037D01*
X24126671Y33620037D01*
X24122051Y33635231D01*
X24117727Y33650638D01*
X24113754Y33666222D01*
X24110188Y33681947D01*
X24107085Y33697775D01*
X24104501Y33713670D01*
X24102491Y33729594D01*
X24101112Y33745512D01*
X24079402Y33724257D01*
X24056585Y33704723D01*
X24032739Y33686862D01*
X24007941Y33670627D01*
X23982268Y33655968D01*
X23955797Y33642837D01*
X23928607Y33631186D01*
X23900774Y33620967D01*
X23872376Y33612131D01*
X23843491Y33604630D01*
X23814195Y33598416D01*
X23784567Y33593440D01*
X23754684Y33589654D01*
X23724622Y33587009D01*
X23694460Y33585458D01*
X23664276Y33584951D01*
X23618362Y33586397D01*
X23573947Y33590753D01*
X23531231Y33598051D01*
X23490418Y33608320D01*
X23470788Y33614578D01*
X23451709Y33621590D01*
X23433207Y33629360D01*
X23415306Y33637892D01*
X23398033Y33647189D01*
X23381412Y33657255D01*
X23365468Y33668094D01*
X23350227Y33679710D01*
X23335714Y33692107D01*
X23321955Y33705287D01*
X23308974Y33719256D01*
X23296797Y33734016D01*
X23285449Y33749572D01*
X23274955Y33765928D01*
X23265341Y33783086D01*
X23256632Y33801051D01*
X23248852Y33819827D01*
X23242028Y33839417D01*
X23236185Y33859825D01*
X23231347Y33881055D01*
X23227541Y33903111D01*
X23224791Y33925996D01*
X23223122Y33949714D01*
X23222560Y33974269D01*
X23223390Y33989141D01*
X23578884Y33989141D01*
X23579183Y33977176D01*
X23580069Y33965760D01*
X23581526Y33954882D01*
X23583538Y33944529D01*
X23586087Y33934693D01*
X23589157Y33925360D01*
X23592731Y33916521D01*
X23596794Y33908163D01*
X23601327Y33900277D01*
X23606316Y33892851D01*
X23611743Y33885874D01*
X23617592Y33879334D01*
X23623846Y33873222D01*
X23630489Y33867525D01*
X23637503Y33862233D01*
X23644874Y33857335D01*
X23652583Y33852819D01*
X23660615Y33848674D01*
X23668953Y33844891D01*
X23677580Y33841456D01*
X23686480Y33838360D01*
X23695636Y33835591D01*
X23705032Y33833138D01*
X23714651Y33830991D01*
X23734492Y33827567D01*
X23755027Y33825231D01*
X23776124Y33823894D01*
X23797650Y33823468D01*
X23822990Y33824098D01*
X23846803Y33825942D01*
X23869137Y33828936D01*
X23890039Y33833015D01*
X23909557Y33838113D01*
X23927737Y33844164D01*
X23944628Y33851104D01*
X23960276Y33858867D01*
X23974730Y33867387D01*
X23988035Y33876600D01*
X24000241Y33886440D01*
X24011393Y33896841D01*
X24021540Y33907739D01*
X24030728Y33919067D01*
X24039006Y33930762D01*
X24046420Y33942756D01*
X24053018Y33954985D01*
X24058847Y33967384D01*
X24063954Y33979887D01*
X24068388Y33992428D01*
X24075421Y34017367D01*
X24080326Y34041676D01*
X24083482Y34064833D01*
X24085267Y34086316D01*
X24086241Y34122167D01*
X24086241Y34255425D01*
X24080399Y34250615D01*
X24074191Y34246087D01*
X24067630Y34241831D01*
X24060731Y34237832D01*
X24045978Y34230558D01*
X24030050Y34224167D01*
X24013064Y34218558D01*
X23995137Y34213631D01*
X23976388Y34209286D01*
X23956933Y34205424D01*
X23789982Y34179908D01*
X23769404Y34175925D01*
X23749190Y34171359D01*
X23729473Y34166106D01*
X23710386Y34160067D01*
X23692063Y34153138D01*
X23674635Y34145219D01*
X23658237Y34136207D01*
X23650465Y34131260D01*
X23643000Y34126001D01*
X23635859Y34120418D01*
X23629058Y34114498D01*
X23622615Y34108229D01*
X23616544Y34101598D01*
X23610864Y34094592D01*
X23605591Y34087198D01*
X23600741Y34079404D01*
X23596331Y34071196D01*
X23592377Y34062563D01*
X23588897Y34053492D01*
X23585907Y34043969D01*
X23583423Y34033982D01*
X23581462Y34023519D01*
X23580041Y34012566D01*
X23579176Y34001111D01*
X23578884Y33989141D01*
X23223390Y33989141D01*
X23225499Y34026959D01*
X23233208Y34074617D01*
X23245365Y34117520D01*
X23261649Y34155945D01*
X23281737Y34190169D01*
X23305308Y34220470D01*
X23332040Y34247125D01*
X23361611Y34270410D01*
X23393699Y34290603D01*
X23427983Y34307982D01*
X23464140Y34322822D01*
X23501848Y34335402D01*
X23540787Y34345998D01*
X23580633Y34354888D01*
X23661763Y34368657D01*
X23820758Y34387910D01*
X23893473Y34397828D01*
X23958234Y34410897D01*
X23986827Y34419306D01*
X24012466Y34429334D01*
X24034829Y34441258D01*
X24053594Y34455355D01*
X24068440Y34471903D01*
X24079044Y34491178D01*
X24085085Y34513458D01*
X24086241Y34539020D01*
X24085934Y34552783D01*
X24085024Y34565829D01*
X24083527Y34578177D01*
X24081458Y34589846D01*
X24078833Y34600854D01*
X24075668Y34611218D01*
X24071979Y34620958D01*
X24067781Y34630092D01*
X24063090Y34638638D01*
X24057921Y34646614D01*
X24052291Y34654039D01*
X24046215Y34660930D01*
X24039709Y34667307D01*
X24032789Y34673188D01*
X24025469Y34678590D01*
X24017767Y34683533D01*
X24009698Y34688034D01*
X24001277Y34692112D01*
X23992520Y34695785D01*
X23983443Y34699072D01*
X23974062Y34701990D01*
X23964392Y34704559D01*
X23954449Y34706796D01*
X23944249Y34708720D01*
X23923140Y34711701D01*
X23901191Y34713649D01*
X23878527Y34714711D01*
X23855275Y34715032D01*
X23829997Y34714374D01*
X23805985Y34712371D01*
X23783268Y34708980D01*
X23761876Y34704158D01*
X23751685Y34701197D01*
X23741837Y34697862D01*
X23732335Y34694147D01*
X23723182Y34690047D01*
X23714383Y34685558D01*
X23705940Y34680672D01*
X23697858Y34675386D01*
X23690140Y34669693D01*
X23682790Y34663588D01*
X23675812Y34657066D01*
X23669209Y34650121D01*
X23662985Y34642749D01*
X23657144Y34634942D01*
X23651689Y34626697D01*
X23646624Y34618008D01*
X23641953Y34608869D01*
X23637679Y34599275D01*
X23633806Y34589220D01*
X23630338Y34578700D01*
X23627279Y34567708D01*
X23624631Y34556240D01*
X23622400Y34544289D01*
X23620587Y34531851D01*
X23619198Y34518920D01*
X23262526Y34518920D01*
X23265218Y34549329D01*
X23269491Y34578422D01*
X23275292Y34606222D01*
X23282569Y34632752D01*
X23291269Y34658034D01*
X23301340Y34682093D01*
X23312730Y34704951D01*
X23325386Y34726630D01*
X23339256Y34747155D01*
X23354288Y34766547D01*
X23370428Y34784831D01*
X23387624Y34802028D01*
X23405825Y34818162D01*
X23424978Y34833256D01*
X23445029Y34847334D01*
X23465928Y34860417D01*
X23487621Y34872529D01*
X23510056Y34883693D01*
X23533180Y34893931D01*
X23556942Y34903268D01*
X23581288Y34911726D01*
X23606167Y34919327D01*
X23631526Y34926096D01*
X23657312Y34932054D01*
X23709958Y34941633D01*
X23763684Y34948246D01*
X23818072Y34952080D01*
X23872702Y34953317D01*
X23921744Y34952594D01*
G37*
G36*
X21101307Y34952164D02*
G01*
X21153083Y34948595D01*
X21203800Y34942417D01*
X21253138Y34933441D01*
X21300779Y34921480D01*
X21346402Y34906344D01*
X21389690Y34887847D01*
X21410359Y34877278D01*
X21430323Y34865799D01*
X21449545Y34853385D01*
X21467983Y34840012D01*
X21485599Y34825658D01*
X21502351Y34810299D01*
X21518200Y34793911D01*
X21533107Y34776471D01*
X21547031Y34757954D01*
X21559933Y34738339D01*
X21571772Y34717600D01*
X21582510Y34695715D01*
X21592105Y34672661D01*
X21600518Y34648412D01*
X21607710Y34622947D01*
X21613640Y34596241D01*
X21618268Y34568271D01*
X21621555Y34539014D01*
X21282659Y34539014D01*
X21281413Y34551673D01*
X21279624Y34563755D01*
X21277305Y34575273D01*
X21274468Y34586238D01*
X21271128Y34596661D01*
X21267297Y34606553D01*
X21262988Y34615927D01*
X21258216Y34624793D01*
X21252993Y34633163D01*
X21247332Y34641048D01*
X21241247Y34648460D01*
X21234750Y34655411D01*
X21227856Y34661910D01*
X21220578Y34667971D01*
X21212928Y34673605D01*
X21204920Y34678822D01*
X21196567Y34683634D01*
X21187883Y34688054D01*
X21178881Y34692091D01*
X21169573Y34695758D01*
X21159974Y34699066D01*
X21150096Y34702026D01*
X21139953Y34704651D01*
X21129558Y34706950D01*
X21108064Y34710621D01*
X21085722Y34713129D01*
X21062636Y34714567D01*
X21038914Y34715026D01*
X21023435Y34714857D01*
X21007300Y34714266D01*
X20990736Y34713135D01*
X20973973Y34711341D01*
X20957238Y34708765D01*
X20940760Y34705285D01*
X20924768Y34700781D01*
X20909489Y34695131D01*
X20902189Y34691839D01*
X20895153Y34688215D01*
X20888409Y34684244D01*
X20881987Y34679912D01*
X20875914Y34675202D01*
X20870220Y34670101D01*
X20864933Y34664592D01*
X20860080Y34658661D01*
X20855692Y34652293D01*
X20851796Y34645472D01*
X20848422Y34638184D01*
X20845596Y34630413D01*
X20843349Y34622144D01*
X20841709Y34613362D01*
X20840704Y34604053D01*
X20840362Y34594200D01*
X20840953Y34582537D01*
X20842699Y34571493D01*
X20845562Y34561042D01*
X20849506Y34551160D01*
X20854492Y34541820D01*
X20860482Y34532996D01*
X20867438Y34524664D01*
X20875324Y34516797D01*
X20884100Y34509370D01*
X20893729Y34502357D01*
X20904174Y34495733D01*
X20915396Y34489472D01*
X20927358Y34483549D01*
X20940021Y34477938D01*
X20953349Y34472613D01*
X20967303Y34467549D01*
X20996939Y34458101D01*
X21028627Y34449389D01*
X21062064Y34441208D01*
X21096947Y34433354D01*
X21169845Y34417807D01*
X21207254Y34409704D01*
X21244900Y34401109D01*
X21283834Y34391778D01*
X21322367Y34381599D01*
X21360208Y34370370D01*
X21397067Y34357890D01*
X21432651Y34343956D01*
X21466670Y34328365D01*
X21498831Y34310916D01*
X21528844Y34291406D01*
X21542954Y34280815D01*
X21556417Y34269634D01*
X21569198Y34257836D01*
X21581259Y34245396D01*
X21592565Y34232290D01*
X21603079Y34218492D01*
X21612764Y34203976D01*
X21621584Y34188718D01*
X21629504Y34172692D01*
X21636485Y34155872D01*
X21642492Y34138235D01*
X21647489Y34119753D01*
X21651439Y34100403D01*
X21654305Y34080158D01*
X21656051Y34058994D01*
X21656642Y34036885D01*
X21655775Y34005537D01*
X21653213Y33975521D01*
X21649010Y33946816D01*
X21643223Y33919399D01*
X21635907Y33893248D01*
X21627118Y33868341D01*
X21616911Y33844656D01*
X21605343Y33822171D01*
X21592468Y33800863D01*
X21578343Y33780711D01*
X21563023Y33761693D01*
X21546564Y33743785D01*
X21529021Y33726967D01*
X21510451Y33711217D01*
X21490908Y33696511D01*
X21470449Y33682827D01*
X21449129Y33670145D01*
X21427004Y33658441D01*
X21404130Y33647694D01*
X21380561Y33637880D01*
X21356355Y33628979D01*
X21331566Y33620969D01*
X21306251Y33613826D01*
X21280464Y33607528D01*
X21227700Y33597383D01*
X21173720Y33590356D01*
X21118969Y33586269D01*
X21063892Y33584946D01*
X21007554Y33586297D01*
X20951739Y33590466D01*
X20896855Y33597626D01*
X20843310Y33607951D01*
X20791514Y33621616D01*
X20741875Y33638793D01*
X20694800Y33659657D01*
X20672352Y33671526D01*
X20650699Y33684381D01*
X20629891Y33698245D01*
X20609980Y33713140D01*
X20591016Y33729086D01*
X20573051Y33746106D01*
X20556135Y33764221D01*
X20540321Y33783453D01*
X20525658Y33803825D01*
X20512198Y33825356D01*
X20499992Y33848070D01*
X20489091Y33871988D01*
X20479546Y33897132D01*
X20471408Y33923523D01*
X20464728Y33951184D01*
X20459558Y33980135D01*
X20455947Y34010399D01*
X20453948Y34041997D01*
X20792729Y34041997D01*
X20793123Y34027898D01*
X20794288Y34014309D01*
X20796200Y34001225D01*
X20798834Y33988643D01*
X20802166Y33976559D01*
X20806172Y33964969D01*
X20810827Y33953867D01*
X20816106Y33943252D01*
X20821986Y33933117D01*
X20828441Y33923460D01*
X20835447Y33914275D01*
X20842980Y33905560D01*
X20851015Y33897310D01*
X20859528Y33889521D01*
X20868494Y33882188D01*
X20877889Y33875308D01*
X20887688Y33868877D01*
X20897867Y33862890D01*
X20908402Y33857344D01*
X20919267Y33852234D01*
X20930439Y33847556D01*
X20941893Y33843307D01*
X20953605Y33839481D01*
X20965550Y33836076D01*
X20977703Y33833086D01*
X20990041Y33830509D01*
X21015171Y33826573D01*
X21040744Y33824235D01*
X21066564Y33823463D01*
X21085729Y33823944D01*
X21105418Y33825430D01*
X21125390Y33827989D01*
X21145400Y33831686D01*
X21165206Y33836588D01*
X21184564Y33842762D01*
X21203232Y33850273D01*
X21220967Y33859188D01*
X21229409Y33864193D01*
X21237526Y33869574D01*
X21245288Y33875339D01*
X21252666Y33881496D01*
X21259627Y33888054D01*
X21266143Y33895022D01*
X21272182Y33902406D01*
X21277714Y33910217D01*
X21282709Y33918461D01*
X21287137Y33927147D01*
X21290967Y33936285D01*
X21294169Y33945881D01*
X21296712Y33955944D01*
X21298566Y33966482D01*
X21299701Y33977505D01*
X21300086Y33989019D01*
X21299646Y33998953D01*
X21298332Y34008504D01*
X21296152Y34017687D01*
X21293116Y34026518D01*
X21289232Y34035010D01*
X21284508Y34043179D01*
X21278954Y34051038D01*
X21272579Y34058603D01*
X21265390Y34065889D01*
X21257397Y34072909D01*
X21248609Y34079679D01*
X21239034Y34086212D01*
X21228681Y34092525D01*
X21217558Y34098631D01*
X21205675Y34104545D01*
X21193041Y34110282D01*
X21179663Y34115856D01*
X21165551Y34121281D01*
X21150714Y34126574D01*
X21135159Y34131748D01*
X21101935Y34141797D01*
X21065949Y34151547D01*
X21027271Y34161115D01*
X20985970Y34170617D01*
X20942116Y34180171D01*
X20895780Y34189894D01*
X20818247Y34209059D01*
X20780386Y34219869D01*
X20743516Y34231775D01*
X20707927Y34244987D01*
X20673909Y34259715D01*
X20641753Y34276169D01*
X20611750Y34294557D01*
X20597646Y34304542D01*
X20584189Y34315090D01*
X20571415Y34326226D01*
X20559360Y34337976D01*
X20548062Y34350368D01*
X20537555Y34363426D01*
X20527877Y34377178D01*
X20519064Y34391649D01*
X20511151Y34406866D01*
X20504176Y34422854D01*
X20498174Y34439640D01*
X20493182Y34457251D01*
X20489237Y34475712D01*
X20486373Y34495049D01*
X20484629Y34515289D01*
X20484039Y34536458D01*
X20484868Y34566827D01*
X20487319Y34595782D01*
X20491339Y34623353D01*
X20496874Y34649569D01*
X20503870Y34674460D01*
X20512273Y34698055D01*
X20522030Y34720384D01*
X20533087Y34741476D01*
X20545390Y34761360D01*
X20558886Y34780067D01*
X20573520Y34797626D01*
X20589240Y34814066D01*
X20605991Y34829416D01*
X20623720Y34843707D01*
X20642373Y34856967D01*
X20661896Y34869226D01*
X20682235Y34880514D01*
X20703338Y34890860D01*
X20725149Y34900294D01*
X20747616Y34908844D01*
X20770685Y34916541D01*
X20794302Y34923414D01*
X20818412Y34929493D01*
X20842964Y34934806D01*
X20893173Y34943256D01*
X20944501Y34949000D01*
X20996516Y34952273D01*
X21048789Y34953311D01*
X21101307Y34952164D01*
G37*
G36*
X27227204Y37519989D02*
G01*
X27250252Y37518413D01*
X27272713Y37515657D01*
X27294539Y37511844D01*
X27315683Y37507095D01*
X27336099Y37501533D01*
X27355738Y37495281D01*
X27374553Y37488460D01*
X27392497Y37481193D01*
X27409523Y37473603D01*
X27425584Y37465810D01*
X27454618Y37450110D01*
X27479222Y37435071D01*
X27499018Y37421671D01*
X27513626Y37410888D01*
X27525767Y37401088D01*
X27519274Y37402485D01*
X27501422Y37405356D01*
X27488999Y37406726D01*
X27474652Y37407723D01*
X27458686Y37408100D01*
X27441406Y37407609D01*
X27423117Y37406002D01*
X27404124Y37403034D01*
X27384733Y37398456D01*
X27374983Y37395486D01*
X27365248Y37392021D01*
X27355566Y37388030D01*
X27345975Y37383481D01*
X27336513Y37378346D01*
X27327219Y37372591D01*
X27318130Y37366186D01*
X27309285Y37359101D01*
X27300721Y37351305D01*
X27292478Y37342766D01*
X27282309Y37330928D01*
X27273316Y37318886D01*
X27265551Y37306623D01*
X27259063Y37294123D01*
X27256315Y37287779D01*
X27253905Y37281370D01*
X27251841Y37274893D01*
X27250128Y37268347D01*
X27248773Y37261730D01*
X27247783Y37255039D01*
X27247163Y37248272D01*
X27246921Y37241428D01*
X27247062Y37234504D01*
X27247593Y37227499D01*
X27248520Y37220409D01*
X27249851Y37213234D01*
X27251590Y37205972D01*
X27253746Y37198619D01*
X27256323Y37191174D01*
X27259328Y37183636D01*
X27262769Y37176001D01*
X27266650Y37168269D01*
X27270980Y37160436D01*
X27275763Y37152502D01*
X27281007Y37144463D01*
X27286717Y37136318D01*
X27299565Y37119701D01*
X27311428Y37106083D01*
X27324521Y37092585D01*
X27338693Y37079336D01*
X27353790Y37066460D01*
X27369660Y37054084D01*
X27386149Y37042335D01*
X27403106Y37031340D01*
X27420377Y37021224D01*
X27437811Y37012114D01*
X27455254Y37004137D01*
X27472553Y36997419D01*
X27489557Y36992086D01*
X27506112Y36988265D01*
X27514174Y36986962D01*
X27522066Y36986083D01*
X27529770Y36985646D01*
X27537266Y36985666D01*
X27544535Y36986158D01*
X27551559Y36987139D01*
X27561059Y36989304D01*
X27569778Y36992127D01*
X27577748Y36995561D01*
X27585000Y36999559D01*
X27591565Y37004073D01*
X27597476Y37009054D01*
X27602763Y37014456D01*
X27607458Y37020231D01*
X27611592Y37026330D01*
X27615196Y37032707D01*
X27618303Y37039313D01*
X27620943Y37046101D01*
X27623148Y37053022D01*
X27624950Y37060030D01*
X27626379Y37067077D01*
X27627468Y37074115D01*
X27628748Y37087971D01*
X27629042Y37101219D01*
X27628601Y37113476D01*
X27627676Y37124361D01*
X27626520Y37133491D01*
X27625382Y37140485D01*
X27624171Y37146538D01*
X27643521Y37139074D01*
X27662964Y37129177D01*
X27682394Y37116937D01*
X27701706Y37102442D01*
X27739547Y37067039D01*
X27775641Y37023675D01*
X27809136Y36973055D01*
X27839185Y36915886D01*
X27864938Y36852874D01*
X27885547Y36784725D01*
X27900162Y36712147D01*
X27904957Y36674417D01*
X27907936Y36635844D01*
X27908992Y36596517D01*
X27908018Y36556524D01*
X27904910Y36515953D01*
X27899561Y36474892D01*
X27891865Y36433430D01*
X27881715Y36391655D01*
X27869006Y36349655D01*
X27853631Y36307519D01*
X27835485Y36265335D01*
X27814461Y36223191D01*
X27790453Y36181175D01*
X27763355Y36139376D01*
X27732606Y36097127D01*
X27700077Y36057026D01*
X27665746Y36019186D01*
X27629592Y35983720D01*
X27591593Y35950741D01*
X27551727Y35920363D01*
X27509974Y35892700D01*
X27466312Y35867863D01*
X27420719Y35845968D01*
X27373174Y35827126D01*
X27323656Y35811452D01*
X27272143Y35799059D01*
X27218613Y35790061D01*
X27163046Y35784569D01*
X27105419Y35782699D01*
X27045712Y35784562D01*
X27029930Y35785507D01*
X27014671Y35785672D01*
X26999901Y35785071D01*
X26985586Y35783718D01*
X26971691Y35781628D01*
X26958183Y35778814D01*
X26945028Y35775292D01*
X26932192Y35771075D01*
X26919640Y35766177D01*
X26907339Y35760614D01*
X26895255Y35754398D01*
X26883353Y35747545D01*
X26859962Y35731983D01*
X26836893Y35714041D01*
X26813875Y35693834D01*
X26790635Y35671476D01*
X26766901Y35647079D01*
X26742401Y35620760D01*
X26631298Y35498528D01*
X26576766Y35439348D01*
X26525520Y35382210D01*
X26478789Y35328917D01*
X26437801Y35281271D01*
X26403783Y35241076D01*
X26377965Y35210133D01*
X26355836Y35183216D01*
X26355836Y36359885D01*
X26355391Y36383219D01*
X26355571Y36405679D01*
X26356359Y36427283D01*
X26357739Y36448048D01*
X26359695Y36467992D01*
X26362212Y36487133D01*
X26365272Y36505489D01*
X26368859Y36523077D01*
X26372959Y36539916D01*
X26377553Y36556022D01*
X26382627Y36571415D01*
X26388165Y36586110D01*
X26394149Y36600127D01*
X26400564Y36613482D01*
X26407394Y36626194D01*
X26414623Y36638281D01*
X26422235Y36649759D01*
X26430213Y36660648D01*
X26438541Y36670964D01*
X26447203Y36680725D01*
X26456184Y36689949D01*
X26465466Y36698654D01*
X26475034Y36706858D01*
X26484872Y36714578D01*
X26494964Y36721832D01*
X26505293Y36728638D01*
X26515843Y36735013D01*
X26526598Y36740976D01*
X26548660Y36751734D01*
X26571350Y36761054D01*
X26584084Y36765594D01*
X26596681Y36769584D01*
X26609123Y36773048D01*
X26621391Y36776015D01*
X26633469Y36778511D01*
X26645340Y36780562D01*
X26656985Y36782196D01*
X26668387Y36783438D01*
X26679529Y36784316D01*
X26690394Y36784857D01*
X26700963Y36785086D01*
X26711220Y36785031D01*
X26721146Y36784719D01*
X26730725Y36784176D01*
X26748771Y36782503D01*
X26765217Y36780228D01*
X26779923Y36777563D01*
X26792750Y36774722D01*
X26803559Y36771918D01*
X26812209Y36769366D01*
X26818560Y36767278D01*
X26823809Y36765352D01*
X26807594Y36758744D01*
X26790357Y36750722D01*
X26780340Y36745600D01*
X26769727Y36739764D01*
X26758771Y36733233D01*
X26747724Y36726028D01*
X26736840Y36718168D01*
X26726370Y36709673D01*
X26716567Y36700563D01*
X26711995Y36695783D01*
X26707684Y36690856D01*
X26703666Y36685786D01*
X26699973Y36680574D01*
X26696636Y36675223D01*
X26693687Y36669736D01*
X26690806Y36663111D01*
X26688456Y36656256D01*
X26686636Y36649197D01*
X26685345Y36641960D01*
X26684581Y36634570D01*
X26684343Y36627052D01*
X26684630Y36619431D01*
X26685440Y36611734D01*
X26686771Y36603984D01*
X26688623Y36596208D01*
X26690993Y36588432D01*
X26693881Y36580679D01*
X26697284Y36572976D01*
X26701203Y36565349D01*
X26705634Y36557821D01*
X26710576Y36550420D01*
X26716029Y36543169D01*
X26721991Y36536095D01*
X26728460Y36529223D01*
X26735436Y36522578D01*
X26742915Y36516186D01*
X26750898Y36510072D01*
X26759382Y36504260D01*
X26768367Y36498778D01*
X26777850Y36493649D01*
X26787831Y36488900D01*
X26798308Y36484556D01*
X26809279Y36480641D01*
X26820744Y36477182D01*
X26832700Y36474204D01*
X26845146Y36471732D01*
X26858081Y36469791D01*
X26877192Y36467973D01*
X26895993Y36467454D01*
X26914425Y36468190D01*
X26932429Y36470136D01*
X26949945Y36473245D01*
X26966915Y36477474D01*
X26983278Y36482776D01*
X26998977Y36489106D01*
X27013950Y36496419D01*
X27028140Y36504670D01*
X27041488Y36513813D01*
X27053933Y36523803D01*
X27065416Y36534596D01*
X27075879Y36546145D01*
X27085262Y36558405D01*
X27093505Y36571332D01*
X27100550Y36584879D01*
X27106338Y36599002D01*
X27110808Y36613655D01*
X27113903Y36628794D01*
X27115562Y36644372D01*
X27115726Y36660344D01*
X27114336Y36676666D01*
X27111333Y36693292D01*
X27106658Y36710176D01*
X27100251Y36727274D01*
X27092053Y36744540D01*
X27082005Y36761929D01*
X27070048Y36779395D01*
X27056122Y36796894D01*
X27040168Y36814380D01*
X27022127Y36831807D01*
X26981645Y36870561D01*
X26945015Y36909880D01*
X26928222Y36929708D01*
X26912484Y36949628D01*
X26897832Y36969620D01*
X26884298Y36989670D01*
X26871912Y37009759D01*
X26860705Y37029872D01*
X26850707Y37049990D01*
X26841950Y37070098D01*
X26834465Y37090177D01*
X26828282Y37110213D01*
X26823431Y37130186D01*
X26819945Y37150081D01*
X26817854Y37169881D01*
X26817189Y37189569D01*
X26817980Y37209128D01*
X26820258Y37228541D01*
X26824055Y37247790D01*
X26829400Y37266860D01*
X26836326Y37285734D01*
X26844862Y37304394D01*
X26855040Y37322823D01*
X26866891Y37341005D01*
X26880445Y37358923D01*
X26895732Y37376560D01*
X26912785Y37393899D01*
X26931634Y37410923D01*
X26952309Y37427615D01*
X26974842Y37443959D01*
X27001159Y37460906D01*
X27027362Y37475451D01*
X27053404Y37487715D01*
X27079237Y37497821D01*
X27104814Y37505892D01*
X27130088Y37512049D01*
X27155011Y37516415D01*
X27179536Y37519112D01*
X27203617Y37520263D01*
X27227204Y37519989D01*
G37*
D13*
%TO.C,C8*%
X13793080Y24005000D02*
X13511920Y24005000D01*
X13793080Y22985000D02*
X13511920Y22985000D01*
%TO.C,L1*%
X36018080Y19877500D02*
X35736920Y19877500D01*
X36018080Y18857500D02*
X35736920Y18857500D01*
D12*
%TO.C,kibuzzard-67ED9ED8*%
G36*
X34955236Y2615218D02*
G01*
X34955236Y2498051D01*
X34955236Y1854274D01*
X33624764Y1854274D01*
X33624764Y2498051D01*
X33624764Y3090325D01*
X33839356Y3090325D01*
X33839356Y2619081D01*
X33864464Y2524446D01*
X33956524Y2498051D01*
X34622189Y2498051D01*
X34666609Y2499982D01*
X34702017Y2512214D01*
X34731631Y2548265D01*
X34740644Y2615218D01*
X34740644Y3089038D01*
X34738712Y3133459D01*
X34726481Y3168866D01*
X34690429Y3198480D01*
X34623476Y3207493D01*
X34555236Y3198480D01*
X34519185Y3169510D01*
X34506953Y3134746D01*
X34505021Y3090325D01*
X34505021Y2733673D01*
X34390429Y2733673D01*
X34390429Y2969295D01*
X34388498Y3011785D01*
X34378197Y3043974D01*
X34348584Y3069081D01*
X34291288Y3076162D01*
X34232704Y3069081D01*
X34201803Y3044617D01*
X34191502Y3013716D01*
X34189571Y2971871D01*
X34189571Y2733673D01*
X34074979Y2733673D01*
X34074979Y3089038D01*
X34073047Y3133459D01*
X34060815Y3168866D01*
X34024764Y3198480D01*
X33957811Y3207493D01*
X33889571Y3198480D01*
X33853519Y3169510D01*
X33841288Y3134746D01*
X33839356Y3090325D01*
X33624764Y3090325D01*
X33624764Y3934961D01*
X33840644Y3934961D01*
X33849657Y3868008D01*
X33877339Y3831956D01*
X33911459Y3819081D01*
X33953948Y3816506D01*
X34323476Y3816506D01*
X33890858Y3494617D01*
X33864464Y3471441D01*
X33848369Y3438609D01*
X33840644Y3380025D01*
X33849013Y3312428D01*
X33876695Y3277021D01*
X33910815Y3264145D01*
X33953948Y3261570D01*
X34622189Y3261570D01*
X34667253Y3264145D01*
X34702661Y3276377D01*
X34731631Y3311141D01*
X34740644Y3377450D01*
X34731631Y3445690D01*
X34702661Y3481742D01*
X34667897Y3493974D01*
X34623476Y3495905D01*
X34265536Y3495905D01*
X34705880Y3829381D01*
X34733562Y3867364D01*
X34740644Y3933673D01*
X34731631Y4001913D01*
X34702661Y4037965D01*
X34667897Y4050197D01*
X34623476Y4052128D01*
X33959099Y4052128D01*
X33914678Y4050197D01*
X33879270Y4037965D01*
X33849657Y4001913D01*
X33840644Y3934961D01*
X33624764Y3934961D01*
X33624764Y4052128D01*
X33624764Y4052235D01*
X34290000Y4495726D01*
X34955236Y4052235D01*
X34955236Y4052128D01*
X34955236Y3377450D01*
X34955236Y2615218D01*
G37*
%TO.C,kibuzzard-6797CFD9*%
G36*
X29160429Y3812074D02*
G01*
X29183605Y3748340D01*
X29183605Y3609285D01*
X28995622Y3609285D01*
X28995622Y3747053D01*
X29022661Y3814649D01*
X29089614Y3842332D01*
X29160429Y3812074D01*
G37*
G36*
X29160429Y3045980D02*
G01*
X29183605Y2982246D01*
X29183605Y2843190D01*
X28995622Y2843190D01*
X28995622Y2980959D01*
X29022661Y3048555D01*
X29089614Y3076237D01*
X29160429Y3045980D01*
G37*
G36*
X29888755Y3490830D02*
G01*
X29888755Y2724735D01*
X29888755Y2607568D01*
X29888755Y2178383D01*
X28531245Y2178383D01*
X28531245Y2607568D01*
X28531245Y2982246D01*
X28760000Y2982246D01*
X28760000Y2726023D01*
X28769013Y2657783D01*
X28798627Y2621731D01*
X28834034Y2609499D01*
X28877167Y2607568D01*
X29541545Y2607568D01*
X29585966Y2609499D01*
X29621373Y2621731D01*
X29650987Y2657783D01*
X29660000Y2724735D01*
X29650987Y2792976D01*
X29622017Y2829027D01*
X29587253Y2841259D01*
X29542833Y2843190D01*
X29419227Y2843190D01*
X29419227Y2980959D01*
X29414077Y3033587D01*
X29398627Y3088469D01*
X29373519Y3143190D01*
X29339399Y3195336D01*
X29294174Y3241527D01*
X29235751Y3278383D01*
X29167028Y3302525D01*
X29090901Y3310572D01*
X29014453Y3302364D01*
X28944764Y3277740D01*
X28885376Y3240562D01*
X28839828Y3194692D01*
X28805708Y3143190D01*
X28780601Y3089113D01*
X28765150Y3034714D01*
X28760000Y2982246D01*
X28531245Y2982246D01*
X28531245Y3748340D01*
X28760000Y3748340D01*
X28760000Y3492117D01*
X28769013Y3423877D01*
X28798627Y3387825D01*
X28834034Y3375594D01*
X28877167Y3373662D01*
X29541545Y3373662D01*
X29585966Y3375594D01*
X29621373Y3387825D01*
X29650987Y3423877D01*
X29660000Y3490830D01*
X29650987Y3559070D01*
X29622017Y3595122D01*
X29587253Y3607353D01*
X29542833Y3609285D01*
X29419227Y3609285D01*
X29419227Y3747053D01*
X29414077Y3799682D01*
X29398627Y3854564D01*
X29373519Y3909285D01*
X29339399Y3961431D01*
X29294174Y4007622D01*
X29235751Y4044478D01*
X29167028Y4068619D01*
X29090901Y4076667D01*
X29014453Y4068459D01*
X28944764Y4043834D01*
X28885376Y4006656D01*
X28839828Y3960787D01*
X28805708Y3909285D01*
X28780601Y3855207D01*
X28765150Y3800808D01*
X28760000Y3748340D01*
X28531245Y3748340D01*
X28531245Y4432031D01*
X28745837Y4432031D01*
X28754492Y4349485D01*
X28780458Y4276953D01*
X28823734Y4214435D01*
X28880172Y4166509D01*
X28945622Y4137754D01*
X29020086Y4128169D01*
X29103777Y4138469D01*
X29173305Y4169371D01*
X29228670Y4220873D01*
X29269871Y4292976D01*
X29287414Y4341742D01*
X29303991Y4403062D01*
X29334249Y4504134D01*
X29374163Y4537611D01*
X29434034Y4514435D01*
X29452704Y4438469D01*
X29440472Y4387611D01*
X29393476Y4335465D01*
X29346552Y4277382D01*
X29337969Y4221588D01*
X29367725Y4168083D01*
X29450129Y4114006D01*
X29533820Y4146195D01*
X29542833Y4153920D01*
X29560858Y4168083D01*
X29583391Y4190615D01*
X29608498Y4221516D01*
X29632961Y4261431D01*
X29654206Y4311001D01*
X29668369Y4371516D01*
X29674163Y4443619D01*
X29664506Y4529242D01*
X29631674Y4617439D01*
X29574378Y4696624D01*
X29487468Y4752632D01*
X29431781Y4769049D01*
X29370300Y4774521D01*
X29274056Y4762450D01*
X29204206Y4726237D01*
X29155279Y4669746D01*
X29121803Y4596838D01*
X29101845Y4514435D01*
X29085751Y4435894D01*
X29063219Y4385036D01*
X29021373Y4362504D01*
X28982103Y4383104D01*
X28966009Y4430744D01*
X28970515Y4473233D01*
X28980172Y4498340D01*
X28994979Y4516366D01*
X29007210Y4531173D01*
X29031030Y4617439D01*
X28968584Y4693405D01*
X28889399Y4724306D01*
X28823090Y4677954D01*
X28780172Y4611144D01*
X28754421Y4529170D01*
X28745837Y4432031D01*
X28531245Y4432031D01*
X28531245Y4774521D01*
X28531245Y4989113D01*
X28531245Y5441617D01*
X29210000Y4989113D01*
X29888755Y5441617D01*
X29888755Y4989113D01*
X29888755Y4774521D01*
X29888755Y4443619D01*
X29888755Y3490830D01*
G37*
%TO.C,kibuzzard-6797CE4B*%
G36*
X24080429Y38759127D02*
G01*
X24103605Y38697325D01*
X24103605Y38555694D01*
X23915622Y38555694D01*
X23915622Y38694750D01*
X23942661Y38761059D01*
X24009614Y38788741D01*
X24080429Y38759127D01*
G37*
G36*
X24811330Y39790458D02*
G01*
X24811330Y38885308D01*
X24811330Y38320072D01*
X24811330Y38105479D01*
X24130000Y37651259D01*
X23448670Y38105479D01*
X23448670Y38320072D01*
X23448670Y38697325D01*
X23680000Y38697325D01*
X23680000Y38438526D01*
X23689013Y38370286D01*
X23718627Y38334235D01*
X23754034Y38322003D01*
X23797167Y38320072D01*
X24461545Y38320072D01*
X24505966Y38322003D01*
X24541373Y38334235D01*
X24570987Y38370286D01*
X24580000Y38437239D01*
X24570987Y38505479D01*
X24542017Y38541531D01*
X24507253Y38553763D01*
X24462833Y38555694D01*
X24337940Y38555694D01*
X24337940Y38675436D01*
X24524635Y38813205D01*
X24584506Y38885308D01*
X24549099Y38976724D01*
X24473133Y39038526D01*
X24384292Y39003763D01*
X24260687Y38911059D01*
X24190587Y38974006D01*
X24107325Y39011774D01*
X24010901Y39024363D01*
X23934453Y39016316D01*
X23864764Y38992175D01*
X23805376Y38955318D01*
X23759828Y38909127D01*
X23725708Y38857303D01*
X23700601Y38803548D01*
X23685150Y38749632D01*
X23680000Y38697325D01*
X23448670Y38697325D01*
X23448670Y39791745D01*
X23665193Y39791745D01*
X23718627Y39713205D01*
X23956824Y39496896D01*
X23718627Y39279299D01*
X23665193Y39200758D01*
X23710901Y39113205D01*
X23794592Y39063634D01*
X23876996Y39106767D01*
X24130644Y39338526D01*
X24384292Y39108054D01*
X24467339Y39063634D01*
X24549099Y39114492D01*
X24594807Y39202046D01*
X24541373Y39280587D01*
X24304464Y39496896D01*
X24541373Y39711917D01*
X24594807Y39790458D01*
X24549099Y39878011D01*
X24467339Y39928870D01*
X24384292Y39884449D01*
X24130644Y39653977D01*
X23876996Y39885737D01*
X23794592Y39929514D01*
X23710901Y39879299D01*
X23665193Y39791745D01*
X23448670Y39791745D01*
X23448670Y40292604D01*
X23667124Y40292604D01*
X23678569Y40199328D01*
X23712904Y40118641D01*
X23770129Y40050544D01*
X23841516Y39999041D01*
X23918340Y39968140D01*
X24000601Y39957840D01*
X24045021Y39959771D01*
X24080429Y39972003D01*
X24110043Y40008054D01*
X24119056Y40075007D01*
X24110687Y40143247D01*
X24083648Y40179299D01*
X24050815Y40191531D01*
X24009614Y40193462D01*
X23929464Y40218569D01*
X23902747Y40293891D01*
X23920129Y40358913D01*
X23953605Y40387239D01*
X23987725Y40391745D01*
X24037296Y40380318D01*
X24085579Y40346037D01*
X24129356Y40296949D01*
X24165408Y40241102D01*
X24201620Y40178977D01*
X24245880Y40111059D01*
X24293358Y40048934D01*
X24339227Y40004192D01*
X24398777Y39969428D01*
X24464120Y39957840D01*
X24548455Y39992604D01*
X24583863Y40075007D01*
X24583863Y40539814D01*
X24581288Y40584235D01*
X24568412Y40620930D01*
X24533004Y40650544D01*
X24466695Y40659557D01*
X24398455Y40650544D01*
X24362403Y40621574D01*
X24349528Y40586810D01*
X24346953Y40542389D01*
X24346953Y40381445D01*
X24301245Y40458698D01*
X24233648Y40537239D01*
X24187940Y40574417D01*
X24133219Y40603548D01*
X24072060Y40622378D01*
X24007039Y40628655D01*
X23917339Y40617783D01*
X23837082Y40585165D01*
X23766266Y40530801D01*
X23711187Y40460844D01*
X23678140Y40381445D01*
X23667124Y40292604D01*
X23448670Y40292604D01*
X23448670Y40659557D01*
X23448670Y41088741D01*
X24811330Y41088741D01*
X24811330Y40659557D01*
X24811330Y40075007D01*
X24811330Y39790458D01*
G37*
D13*
%TO.C,C7*%
X9384420Y15750000D02*
X9665580Y15750000D01*
X9384420Y14730000D02*
X9665580Y14730000D01*
D10*
%TO.C,D12*%
X31920000Y6702500D02*
X31920000Y7902500D01*
X34120000Y6702500D02*
X34120000Y7902500D01*
D11*
X34370000Y8152500D02*
G75*
G02*
X34170000Y8152500I-100000J0D01*
G01*
X34170000Y8152500D02*
G75*
G02*
X34370000Y8152500I100000J0D01*
G01*
D13*
%TO.C,R11*%
X41070000Y34052742D02*
X41070000Y34527258D01*
X42115000Y34052742D02*
X42115000Y34527258D01*
D10*
%TO.C,D10*%
X31920000Y35595000D02*
X31920000Y36795000D01*
X34120000Y35595000D02*
X34120000Y36795000D01*
D11*
X34370000Y37045000D02*
G75*
G02*
X34170000Y37045000I-100000J0D01*
G01*
X34170000Y37045000D02*
G75*
G02*
X34370000Y37045000I100000J0D01*
G01*
D12*
%TO.C,kibuzzard-66CAA594*%
G36*
X22268755Y3748251D02*
G01*
X22268755Y2915204D01*
X22268755Y2580440D01*
X22268755Y2151255D01*
X20911245Y2151255D01*
X20911245Y2580440D01*
X20911245Y2903616D01*
X21125837Y2903616D01*
X21134492Y2821069D01*
X21160458Y2748537D01*
X21203734Y2686019D01*
X21260172Y2638094D01*
X21325622Y2609338D01*
X21400086Y2599753D01*
X21483777Y2610054D01*
X21553305Y2640955D01*
X21608670Y2692457D01*
X21649871Y2764560D01*
X21667414Y2813326D01*
X21683991Y2874646D01*
X21714249Y2975719D01*
X21754163Y3009195D01*
X21814034Y2986019D01*
X21832704Y2910054D01*
X21820472Y2859195D01*
X21773476Y2807049D01*
X21726552Y2748966D01*
X21717969Y2693172D01*
X21747725Y2639667D01*
X21830129Y2585590D01*
X21913820Y2617779D01*
X21922833Y2625504D01*
X21940858Y2639667D01*
X21963391Y2662200D01*
X21988498Y2693101D01*
X22012961Y2733015D01*
X22034206Y2782586D01*
X22048369Y2843101D01*
X22054163Y2915204D01*
X22044506Y3000826D01*
X22011674Y3089024D01*
X21954378Y3168208D01*
X21867468Y3224217D01*
X21811781Y3240633D01*
X21750300Y3246105D01*
X21654056Y3234034D01*
X21584206Y3197822D01*
X21535279Y3141330D01*
X21501803Y3068423D01*
X21481845Y2986019D01*
X21465751Y2907479D01*
X21443219Y2856620D01*
X21401373Y2834088D01*
X21362103Y2854689D01*
X21346009Y2902328D01*
X21350515Y2944818D01*
X21360172Y2969925D01*
X21374979Y2987951D01*
X21387210Y3002758D01*
X21411030Y3089024D01*
X21348584Y3164989D01*
X21269399Y3195891D01*
X21203090Y3149539D01*
X21160172Y3082729D01*
X21134421Y3000755D01*
X21125837Y2903616D01*
X20911245Y2903616D01*
X20911245Y3752114D01*
X21130987Y3752114D01*
X21134850Y3695300D01*
X21146438Y3635590D01*
X21166878Y3573788D01*
X21197296Y3510697D01*
X21236567Y3450343D01*
X21283562Y3396749D01*
X21341341Y3351041D01*
X21412961Y3314345D01*
X21495365Y3290204D01*
X21585494Y3282157D01*
X21679163Y3290365D01*
X21764464Y3314989D01*
X21838337Y3352167D01*
X21897725Y3398036D01*
X21946009Y3451631D01*
X21986567Y3511985D01*
X22017951Y3574753D01*
X22038712Y3635590D01*
X22050300Y3693691D01*
X22054163Y3748251D01*
X22046152Y3831513D01*
X22022117Y3911341D01*
X21982060Y3987736D01*
X21942790Y4040526D01*
X21895794Y4058552D01*
X21821116Y4030225D01*
X21766073Y3983873D01*
X21747725Y3940097D01*
X21773476Y3875719D01*
X21805343Y3811019D01*
X21815966Y3743101D01*
X21795365Y3645247D01*
X21766556Y3598734D01*
X21721330Y3557049D01*
X21662264Y3527597D01*
X21591931Y3517779D01*
X21537210Y3523251D01*
X21488927Y3539667D01*
X21418755Y3596964D01*
X21380773Y3669710D01*
X21367897Y3743101D01*
X21369185Y3774002D01*
X21373691Y3799753D01*
X21378841Y3820354D01*
X21385279Y3837736D01*
X21392361Y3849968D01*
X21399442Y3860912D01*
X21405236Y3869281D01*
X21434850Y3938809D01*
X21417468Y3983230D01*
X21365322Y4031513D01*
X21293219Y4059839D01*
X21254592Y4047607D01*
X21227554Y4023788D01*
X21203090Y3989024D01*
X21163033Y3907765D01*
X21138999Y3828795D01*
X21130987Y3752114D01*
X20911245Y3752114D01*
X20911245Y4259410D01*
X21140000Y4259410D01*
X21149013Y4191170D01*
X21178627Y4155118D01*
X21214034Y4142886D01*
X21257167Y4140955D01*
X21922833Y4140955D01*
X21967253Y4142886D01*
X22002661Y4155118D01*
X22032275Y4191170D01*
X22041288Y4258122D01*
X22041288Y4689453D01*
X22039356Y4726148D01*
X22028412Y4757049D01*
X21997511Y4782157D01*
X21940858Y4789882D01*
X21882918Y4782157D01*
X21852661Y4757049D01*
X21842361Y4727436D01*
X21840429Y4690740D01*
X21840429Y4376577D01*
X21258455Y4376577D01*
X21214034Y4374646D01*
X21178627Y4362414D01*
X21149013Y4326363D01*
X21140000Y4259410D01*
X20911245Y4259410D01*
X20911245Y4789882D01*
X20911245Y4789989D01*
X20914513Y4856519D01*
X20924287Y4922408D01*
X20940472Y4987022D01*
X20962912Y5049738D01*
X20991391Y5109952D01*
X21025636Y5167086D01*
X21065315Y5220587D01*
X21110047Y5269942D01*
X21159402Y5314674D01*
X21212904Y5354354D01*
X21270037Y5388598D01*
X21330252Y5417077D01*
X21392968Y5439518D01*
X21457581Y5455703D01*
X21523470Y5465476D01*
X21590000Y5468745D01*
X21656530Y5465476D01*
X21722419Y5455703D01*
X21787032Y5439518D01*
X21849748Y5417077D01*
X21909963Y5388598D01*
X21967096Y5354354D01*
X22020598Y5314674D01*
X22069953Y5269942D01*
X22114685Y5220587D01*
X22154364Y5167086D01*
X22188609Y5109952D01*
X22217088Y5049738D01*
X22239528Y4987022D01*
X22255713Y4922408D01*
X22265487Y4856519D01*
X22268755Y4789989D01*
X22268755Y4789882D01*
X22268755Y4258122D01*
X22268755Y3748251D01*
G37*
D13*
%TO.C,C10*%
X15047500Y12400670D02*
X15047500Y12681830D01*
X16067500Y12400670D02*
X16067500Y12681830D01*
D12*
%TO.C,kibuzzard-67EC52E7*%
G36*
X17184249Y39515397D02*
G01*
X17184249Y38896084D01*
X17184249Y38449303D01*
X17184249Y38234710D01*
X15835751Y38234710D01*
X15835751Y38449303D01*
X15835751Y38630848D01*
X16063219Y38630848D01*
X16082532Y38534281D01*
X16143691Y38462178D01*
X16233176Y38475054D01*
X16903991Y38780204D01*
X16952275Y38823981D01*
X16968369Y38896084D01*
X16950987Y38962393D01*
X16903991Y39006813D01*
X16233176Y39311964D01*
X16144335Y39326770D01*
X16082532Y39252736D01*
X16063863Y39157457D01*
X16136609Y39096942D01*
X16637468Y38893509D01*
X16136609Y38690075D01*
X16063219Y38630848D01*
X15835751Y38630848D01*
X15835751Y39516685D01*
X16068369Y39516685D01*
X16077382Y39448444D01*
X16106996Y39412393D01*
X16142403Y39400161D01*
X16185536Y39398230D01*
X16851202Y39398230D01*
X16895622Y39400161D01*
X16931030Y39412393D01*
X16960644Y39448444D01*
X16969657Y39515397D01*
X16960644Y39583637D01*
X16931674Y39619689D01*
X16896910Y39631921D01*
X16852489Y39633852D01*
X16186824Y39633852D01*
X16142403Y39631921D01*
X16106996Y39619689D01*
X16077382Y39583637D01*
X16068369Y39516685D01*
X15835751Y39516685D01*
X15835751Y40379345D01*
X16069657Y40379345D01*
X16078670Y40312393D01*
X16106352Y40276341D01*
X16140472Y40263466D01*
X16182961Y40260891D01*
X16552489Y40260891D01*
X16119871Y39939002D01*
X16093476Y39915826D01*
X16077382Y39882994D01*
X16069657Y39824410D01*
X16078026Y39756813D01*
X16105708Y39721406D01*
X16139828Y39708530D01*
X16182961Y39705955D01*
X16851202Y39705955D01*
X16896266Y39708530D01*
X16931674Y39720762D01*
X16960644Y39755526D01*
X16969657Y39821835D01*
X16960644Y39890075D01*
X16931674Y39926127D01*
X16896910Y39938358D01*
X16852489Y39940290D01*
X16494549Y39940290D01*
X16934893Y40273766D01*
X16962575Y40311749D01*
X16969657Y40378058D01*
X16960644Y40446298D01*
X16931674Y40482350D01*
X16896910Y40494582D01*
X16852489Y40496513D01*
X16188112Y40496513D01*
X16143691Y40494582D01*
X16108283Y40482350D01*
X16078670Y40446298D01*
X16069657Y40379345D01*
X15835751Y40379345D01*
X15835751Y40496513D01*
X15835751Y41140290D01*
X17184249Y41140290D01*
X17184249Y40496513D01*
X17184249Y39821835D01*
X17184249Y39515397D01*
G37*
%TO.C,kibuzzard-6797CE3B*%
G36*
X14053530Y40454394D02*
G01*
X14122575Y40407076D01*
X14169410Y40337870D01*
X14185021Y40256432D01*
X14185021Y40152141D01*
X13756266Y40152141D01*
X13756266Y40255145D01*
X13772039Y40337548D01*
X13819356Y40407076D01*
X13888884Y40454394D01*
X13971288Y40470166D01*
X14053530Y40454394D01*
G37*
G36*
X14649399Y39169737D02*
G01*
X14649399Y38590338D01*
X14649399Y38137119D01*
X14649399Y37922527D01*
X13290601Y37922527D01*
X13290601Y38137119D01*
X13290601Y38599351D01*
X13505193Y38599351D01*
X13513522Y38507492D01*
X13538509Y38422473D01*
X13580153Y38344295D01*
X13638455Y38272956D01*
X13708425Y38213527D01*
X13785075Y38171078D01*
X13868404Y38145609D01*
X13958412Y38137119D01*
X14052806Y38145488D01*
X14140279Y38170595D01*
X14220832Y38212441D01*
X14294464Y38271025D01*
X14355864Y38341196D01*
X14399721Y38417806D01*
X14426035Y38500853D01*
X14434807Y38590338D01*
X14429227Y38689050D01*
X14412489Y38774029D01*
X14384592Y38845274D01*
X14354818Y38892591D01*
X14319571Y38928965D01*
X14245536Y38959866D01*
X13981588Y38959866D01*
X13949399Y38959222D01*
X13921073Y38953428D01*
X13895322Y38937977D01*
X13878584Y38907720D01*
X13869571Y38858149D01*
X13869571Y38632827D01*
X13871502Y38598063D01*
X13881803Y38569737D01*
X13912060Y38545917D01*
X13968712Y38538836D01*
X14026652Y38545274D01*
X14056910Y38567162D01*
X14067210Y38594201D01*
X14069142Y38628965D01*
X14069142Y38724244D01*
X14179871Y38724244D01*
X14192425Y38669523D01*
X14196609Y38595488D01*
X14178906Y38512119D01*
X14125794Y38439694D01*
X14049185Y38389480D01*
X13960987Y38372741D01*
X13875526Y38388836D01*
X13804549Y38437119D01*
X13756749Y38508256D01*
X13740815Y38592913D01*
X13749828Y38672420D01*
X13776867Y38738407D01*
X13806481Y38807935D01*
X13789421Y38855574D01*
X13738240Y38903214D01*
X13666137Y38932827D01*
X13628798Y38920595D01*
X13601760Y38896776D01*
X13576009Y38860724D01*
X13546234Y38805520D01*
X13523863Y38737763D01*
X13509861Y38666143D01*
X13505193Y38599351D01*
X13290601Y38599351D01*
X13290601Y39727248D01*
X13521931Y39727248D01*
X13530944Y39660295D01*
X13558627Y39624244D01*
X13592747Y39611368D01*
X13635236Y39608793D01*
X14004764Y39608793D01*
X13572146Y39286905D01*
X13545751Y39263729D01*
X13529657Y39230896D01*
X13521931Y39172312D01*
X13530300Y39104716D01*
X13557983Y39069308D01*
X13592103Y39056432D01*
X13635236Y39053857D01*
X14303476Y39053857D01*
X14348541Y39056432D01*
X14383948Y39068664D01*
X14412918Y39103428D01*
X14421931Y39169737D01*
X14412918Y39237977D01*
X14383948Y39274029D01*
X14349185Y39286261D01*
X14304764Y39288192D01*
X13946824Y39288192D01*
X14387167Y39621668D01*
X14414850Y39659651D01*
X14421931Y39725960D01*
X14412918Y39794201D01*
X14383948Y39830252D01*
X14349185Y39842484D01*
X14304764Y39844415D01*
X13640386Y39844415D01*
X13595966Y39842484D01*
X13560558Y39830252D01*
X13530944Y39794201D01*
X13521931Y39727248D01*
X13290601Y39727248D01*
X13290601Y40256432D01*
X13520644Y40256432D01*
X13520644Y40034973D01*
X13529013Y39966733D01*
X13557983Y39930681D01*
X13593391Y39918450D01*
X13636524Y39916518D01*
X14302189Y39916518D01*
X14347897Y39919737D01*
X14383948Y39933256D01*
X14411631Y39968664D01*
X14420644Y40033686D01*
X14420644Y40252570D01*
X14412315Y40343101D01*
X14387328Y40426711D01*
X14345684Y40503401D01*
X14287382Y40573171D01*
X14217331Y40631191D01*
X14140440Y40672634D01*
X14056709Y40697500D01*
X13966137Y40705789D01*
X13877940Y40697500D01*
X13796180Y40672634D01*
X13720858Y40631191D01*
X13651974Y40573171D01*
X13594517Y40503643D01*
X13553476Y40427677D01*
X13528852Y40345274D01*
X13520644Y40256432D01*
X13290601Y40256432D01*
X13290601Y40705789D01*
X13290601Y41134973D01*
X14649399Y41134973D01*
X14649399Y40705789D01*
X14649399Y40033686D01*
X14649399Y39169737D01*
G37*
%TO.C,kibuzzard-67ED9A5D*%
G36*
X32431330Y40012513D02*
G01*
X32431330Y38861440D01*
X32431330Y38470023D01*
X32431330Y38255431D01*
X32431330Y37801211D01*
X31750000Y38255431D01*
X31068670Y37801211D01*
X31068670Y38255431D01*
X31068670Y38470023D01*
X31068670Y39157577D01*
X31298712Y39157577D01*
X31298712Y38569165D01*
X31300644Y38532470D01*
X31310944Y38502856D01*
X31340558Y38477749D01*
X31396567Y38470023D01*
X31454506Y38477749D01*
X31484764Y38502212D01*
X31495064Y38531182D01*
X31496996Y38567877D01*
X31496996Y38746847D01*
X32085408Y38746847D01*
X32128541Y38748779D01*
X32163305Y38760367D01*
X32192275Y38795131D01*
X32201288Y38861440D01*
X32192275Y38928392D01*
X32163948Y38964444D01*
X32129828Y38976676D01*
X32086695Y38978607D01*
X31496996Y38978607D01*
X31496996Y39156289D01*
X31495064Y39192985D01*
X31484764Y39222598D01*
X31454506Y39247706D01*
X31397854Y39255431D01*
X31341202Y39247706D01*
X31310944Y39223242D01*
X31300644Y39194272D01*
X31298712Y39157577D01*
X31068670Y39157577D01*
X31068670Y40013800D01*
X31285193Y40013800D01*
X31338627Y39935259D01*
X31576824Y39718950D01*
X31338627Y39501354D01*
X31285193Y39422813D01*
X31330901Y39335259D01*
X31414592Y39285688D01*
X31496996Y39328822D01*
X31750644Y39560581D01*
X32004292Y39330109D01*
X32087339Y39285688D01*
X32169099Y39336547D01*
X32214807Y39424101D01*
X32161373Y39502641D01*
X31924464Y39718950D01*
X32161373Y39933972D01*
X32214807Y40012513D01*
X32169099Y40100066D01*
X32087339Y40150925D01*
X32004292Y40106504D01*
X31750644Y39876032D01*
X31496996Y40107791D01*
X31414592Y40151568D01*
X31330901Y40101354D01*
X31285193Y40013800D01*
X31068670Y40013800D01*
X31068670Y40496633D01*
X31300000Y40496633D01*
X31321888Y40409079D01*
X31338627Y40388478D01*
X31485408Y40224959D01*
X31529185Y40185688D01*
X31570386Y40170882D01*
X31655365Y40210796D01*
X31700429Y40287405D01*
X31663090Y40366590D01*
X31651502Y40379465D01*
X32086695Y40379465D01*
X32178112Y40405216D01*
X32203863Y40495345D01*
X32178112Y40586761D01*
X32087983Y40612513D01*
X31418455Y40612513D01*
X31326395Y40586761D01*
X31300000Y40496633D01*
X31068670Y40496633D01*
X31068670Y40612513D01*
X31068670Y41256289D01*
X32431330Y41256289D01*
X32431330Y40612513D01*
X32431330Y40495345D01*
X32431330Y40012513D01*
G37*
D13*
%TO.C,D14*%
X37740000Y12274664D02*
X37740000Y12490336D01*
X38460000Y12274664D02*
X38460000Y12490336D01*
%TO.C,U4*%
X11802500Y10345000D02*
X12277500Y10345000D01*
X11802500Y9870000D02*
X11802500Y10345000D01*
X11802500Y6600000D02*
X11802500Y6125000D01*
X11802500Y6125000D02*
X12277500Y6125000D01*
X15547500Y10345000D02*
X15782500Y10345000D01*
X16022500Y9870000D02*
X16022500Y10045000D01*
X16022500Y6600000D02*
X16022500Y6125000D01*
X16022500Y6125000D02*
X15547500Y6125000D01*
D11*
X16298500Y10521000D02*
G75*
G02*
X16098500Y10521000I-100000J0D01*
G01*
X16098500Y10521000D02*
G75*
G02*
X16298500Y10521000I100000J0D01*
G01*
D14*
%TO.C,J4*%
X5890000Y4730000D02*
X6640000Y4730000D01*
X5890000Y3080000D02*
X5890000Y4730000D01*
X7390000Y480000D02*
X10390000Y480000D01*
X11140000Y4730000D02*
X11890000Y4730000D01*
X11890000Y4730000D02*
X11890000Y3080000D01*
%TO.C,U1*%
X9095600Y13970000D02*
X9954400Y13970000D01*
X9954400Y11430000D02*
X9095600Y11430000D01*
D11*
X8609000Y14300200D02*
G75*
G02*
X8409000Y14300200I-100000J0D01*
G01*
X8409000Y14300200D02*
G75*
G02*
X8609000Y14300200I100000J0D01*
G01*
D12*
%TO.C,kibuzzard-6797CE48*%
G36*
X22271330Y39826509D02*
G01*
X22271330Y38675436D01*
X22271330Y38284020D01*
X22271330Y38069428D01*
X22271330Y37615207D01*
X21590000Y38069428D01*
X20908670Y37615207D01*
X20908670Y38069428D01*
X20908670Y38284020D01*
X20908670Y38971574D01*
X21138712Y38971574D01*
X21138712Y38383162D01*
X21140644Y38346466D01*
X21150944Y38316853D01*
X21180558Y38291745D01*
X21236567Y38284020D01*
X21294506Y38291745D01*
X21324764Y38316209D01*
X21335064Y38345179D01*
X21336996Y38381874D01*
X21336996Y38560844D01*
X21925408Y38560844D01*
X21968541Y38562775D01*
X22003305Y38574363D01*
X22032275Y38609127D01*
X22041288Y38675436D01*
X22032275Y38742389D01*
X22003948Y38778441D01*
X21969828Y38790672D01*
X21926695Y38792604D01*
X21336996Y38792604D01*
X21336996Y38970286D01*
X21335064Y39006981D01*
X21324764Y39036595D01*
X21294506Y39061702D01*
X21237854Y39069428D01*
X21181202Y39061702D01*
X21150944Y39037239D01*
X21140644Y39008269D01*
X21138712Y38971574D01*
X20908670Y38971574D01*
X20908670Y39827797D01*
X21125193Y39827797D01*
X21178627Y39749256D01*
X21416824Y39532947D01*
X21178627Y39315351D01*
X21125193Y39236810D01*
X21170901Y39149256D01*
X21254592Y39099685D01*
X21336996Y39142818D01*
X21590644Y39374578D01*
X21844292Y39144106D01*
X21927339Y39099685D01*
X22009099Y39150544D01*
X22054807Y39238097D01*
X22001373Y39316638D01*
X21764464Y39532947D01*
X22001373Y39747969D01*
X22054807Y39826509D01*
X22009099Y39914063D01*
X21927339Y39964921D01*
X21844292Y39920501D01*
X21590644Y39690029D01*
X21336996Y39921788D01*
X21254592Y39965565D01*
X21170901Y39915351D01*
X21125193Y39827797D01*
X20908670Y39827797D01*
X20908670Y40328655D01*
X21127124Y40328655D01*
X21138569Y40235379D01*
X21172904Y40154692D01*
X21230129Y40086595D01*
X21301516Y40035093D01*
X21378340Y40004192D01*
X21460601Y39993891D01*
X21505021Y39995823D01*
X21540429Y40008054D01*
X21570043Y40044106D01*
X21579056Y40111059D01*
X21570687Y40179299D01*
X21543648Y40215351D01*
X21510815Y40227582D01*
X21469614Y40229514D01*
X21389464Y40254621D01*
X21362747Y40329943D01*
X21380129Y40394964D01*
X21413605Y40423290D01*
X21447725Y40427797D01*
X21497296Y40416370D01*
X21545579Y40382089D01*
X21589356Y40333001D01*
X21625408Y40277153D01*
X21661620Y40215029D01*
X21705880Y40147110D01*
X21753358Y40084986D01*
X21799227Y40040243D01*
X21858777Y40005479D01*
X21924120Y39993891D01*
X22008455Y40028655D01*
X22043863Y40111059D01*
X22043863Y40575866D01*
X22041288Y40620286D01*
X22028412Y40656981D01*
X21993004Y40686595D01*
X21926695Y40695608D01*
X21858455Y40686595D01*
X21822403Y40657625D01*
X21809528Y40622861D01*
X21806953Y40578441D01*
X21806953Y40417496D01*
X21761245Y40494750D01*
X21693648Y40573290D01*
X21647940Y40610469D01*
X21593219Y40639599D01*
X21532060Y40658430D01*
X21467039Y40664707D01*
X21377339Y40653834D01*
X21297082Y40621216D01*
X21226266Y40566853D01*
X21171187Y40496896D01*
X21138140Y40417496D01*
X21127124Y40328655D01*
X20908670Y40328655D01*
X20908670Y40695608D01*
X20908670Y41124793D01*
X22271330Y41124793D01*
X22271330Y40695608D01*
X22271330Y40111059D01*
X22271330Y39826509D01*
G37*
D13*
%TO.C,D9*%
X41092500Y29715000D02*
X42092500Y29715000D01*
D12*
%TO.C,kibuzzard-67EC56E0*%
G36*
X36400569Y10751416D02*
G01*
X36459367Y10681888D01*
X36890268Y9790901D01*
X36913444Y9669013D01*
X36818165Y9584893D01*
X36691127Y9560000D01*
X36607006Y9658712D01*
X36528036Y9821803D01*
X36234474Y9821803D01*
X36105719Y9821803D01*
X36026749Y9656996D01*
X35940912Y9561717D01*
X35815590Y9586609D01*
X35719453Y9669871D01*
X35741770Y9790901D01*
X35885957Y10089614D01*
X36234474Y10089614D01*
X36395848Y10089614D01*
X36315161Y10256137D01*
X36234474Y10089614D01*
X35885957Y10089614D01*
X36172672Y10683605D01*
X36232758Y10749700D01*
X36316878Y10774592D01*
X36400569Y10751416D01*
G37*
G36*
X37604050Y10431435D02*
G01*
X37689887Y10390806D01*
X37758938Y10323090D01*
X37809486Y10234201D01*
X37839815Y10130052D01*
X37849925Y10010644D01*
X37849925Y9729099D01*
X37847350Y9671588D01*
X37831041Y9625236D01*
X37783830Y9586609D01*
X37693702Y9574592D01*
X37602715Y9586609D01*
X37554646Y9626094D01*
X37538337Y9673305D01*
X37535762Y9730815D01*
X37535762Y10010644D01*
X37504002Y10101631D01*
X37413873Y10134249D01*
X37322886Y10100773D01*
X37288552Y10010644D01*
X37288552Y9729099D01*
X37285976Y9671588D01*
X37269667Y9625236D01*
X37221599Y9586609D01*
X37132328Y9574592D01*
X37043916Y9586609D01*
X36996706Y9625236D01*
X36980397Y9671588D01*
X36977822Y9730815D01*
X36977822Y10295622D01*
X36981255Y10352275D01*
X36997564Y10396910D01*
X37044775Y10433820D01*
X37134045Y10444979D01*
X37214732Y10434678D01*
X37261084Y10406352D01*
X37279968Y10373734D01*
X37285118Y10338541D01*
X37376964Y10412361D01*
X37501427Y10444979D01*
X37604050Y10431435D01*
G37*
G36*
X40230659Y10431435D02*
G01*
X40316496Y10390806D01*
X40385547Y10323090D01*
X40436096Y10234201D01*
X40466425Y10130052D01*
X40476534Y10010644D01*
X40476534Y9729099D01*
X40473959Y9671588D01*
X40457650Y9625236D01*
X40410440Y9586609D01*
X40320311Y9574592D01*
X40229324Y9586609D01*
X40181255Y9626094D01*
X40164946Y9673305D01*
X40162371Y9730815D01*
X40162371Y10010644D01*
X40130612Y10101631D01*
X40040483Y10134249D01*
X39949496Y10100773D01*
X39915161Y10010644D01*
X39915161Y9729099D01*
X39912586Y9671588D01*
X39896277Y9625236D01*
X39848208Y9586609D01*
X39758938Y9574592D01*
X39670526Y9586609D01*
X39623315Y9625236D01*
X39607006Y9671588D01*
X39604431Y9730815D01*
X39604431Y10295622D01*
X39607865Y10352275D01*
X39624174Y10396910D01*
X39671384Y10433820D01*
X39760655Y10444979D01*
X39841341Y10434678D01*
X39887693Y10406352D01*
X39906577Y10373734D01*
X39911727Y10338541D01*
X40003573Y10412361D01*
X40128036Y10444979D01*
X40230659Y10431435D01*
G37*
G36*
X41202333Y10431435D02*
G01*
X41288170Y10390806D01*
X41357221Y10323090D01*
X41407769Y10234201D01*
X41438098Y10130052D01*
X41448208Y10010644D01*
X41448208Y9729099D01*
X41445633Y9671588D01*
X41429324Y9625236D01*
X41382114Y9586609D01*
X41291985Y9574592D01*
X41200998Y9586609D01*
X41152929Y9626094D01*
X41136620Y9673305D01*
X41134045Y9730815D01*
X41134045Y10010644D01*
X41102285Y10101631D01*
X41012157Y10134249D01*
X40921170Y10100773D01*
X40886835Y10010644D01*
X40886835Y9729099D01*
X40884260Y9671588D01*
X40867951Y9625236D01*
X40819882Y9586609D01*
X40730612Y9574592D01*
X40642200Y9586609D01*
X40594989Y9625236D01*
X40578680Y9671588D01*
X40576105Y9730815D01*
X40576105Y10295622D01*
X40579539Y10352275D01*
X40595848Y10396910D01*
X40643058Y10433820D01*
X40732328Y10444979D01*
X40813015Y10434678D01*
X40859367Y10406352D01*
X40878251Y10373734D01*
X40883401Y10338541D01*
X40975247Y10412361D01*
X41099710Y10444979D01*
X41202333Y10431435D01*
G37*
G36*
X42334903Y10432961D02*
G01*
X42382114Y10393476D01*
X42398423Y10346266D01*
X42400998Y10288755D01*
X42400998Y9730815D01*
X42398423Y9672446D01*
X42382114Y9626953D01*
X42334045Y9588326D01*
X42244775Y9576309D01*
X42147350Y9591760D01*
X42098852Y9638112D01*
X42016878Y9591760D01*
X41961513Y9583056D01*
X41918594Y9576309D01*
X41819310Y9590997D01*
X41727464Y9635060D01*
X41643058Y9708498D01*
X41575819Y9801011D01*
X41535476Y9902299D01*
X41522448Y10008927D01*
X41832758Y10008927D01*
X41871384Y9923948D01*
X41961513Y9887039D01*
X42044775Y9923948D01*
X42079968Y10010644D01*
X42044775Y10098197D01*
X41958079Y10134249D01*
X41869667Y10096481D01*
X41832758Y10008927D01*
X41522448Y10008927D01*
X41522028Y10012361D01*
X41535571Y10119561D01*
X41576201Y10219132D01*
X41643916Y10311073D01*
X41728609Y10384511D01*
X41820168Y10428574D01*
X41918594Y10443262D01*
X42019453Y10426094D01*
X42098852Y10374592D01*
X42142629Y10427382D01*
X42246491Y10444979D01*
X42334903Y10432961D01*
G37*
G36*
X39248780Y10451464D02*
G01*
X39346921Y10414268D01*
X39425032Y10352275D01*
X39501642Y10237682D01*
X39527178Y10117082D01*
X39515376Y10031888D01*
X39479968Y9968584D01*
X39425247Y9929313D01*
X39355504Y9916223D01*
X38989839Y9916223D01*
X39041341Y9850987D01*
X39142629Y9826953D01*
X39281685Y9849270D01*
X39360655Y9871588D01*
X39417307Y9850987D01*
X39463659Y9789185D01*
X39485976Y9710215D01*
X39463659Y9641867D01*
X39396706Y9593047D01*
X39285118Y9563755D01*
X39128895Y9553991D01*
X39013873Y9564506D01*
X38912586Y9596052D01*
X38828680Y9644764D01*
X38765805Y9706781D01*
X38719882Y9777167D01*
X38686835Y9850987D01*
X38666878Y9927382D01*
X38660225Y10005494D01*
X38668526Y10077597D01*
X38989839Y10077597D01*
X39182114Y10077597D01*
X39228466Y10118798D01*
X39200998Y10169442D01*
X39127178Y10187468D01*
X39030182Y10153991D01*
X38989839Y10077597D01*
X38668526Y10077597D01*
X38674818Y10132246D01*
X38718594Y10242403D01*
X38791556Y10335966D01*
X38887598Y10407020D01*
X39000616Y10449652D01*
X39130612Y10463863D01*
X39248780Y10451464D01*
G37*
G36*
X38304002Y10721373D02*
G01*
X38351212Y10682747D01*
X38368380Y10634678D01*
X38371813Y10577167D01*
X38371813Y10439828D01*
X38462800Y10443262D01*
X38508294Y10442403D01*
X38548637Y10432961D01*
X38585547Y10408927D01*
X38607865Y10361717D01*
X38617307Y10285322D01*
X38604431Y10200343D01*
X38566663Y10153133D01*
X38519453Y10135107D01*
X38461084Y10130815D01*
X38371813Y10132532D01*
X38371813Y9933391D01*
X38381255Y9881888D01*
X38418165Y9868155D01*
X38481685Y9864721D01*
X38528036Y9848412D01*
X38562371Y9806352D01*
X38572672Y9727382D01*
X38559796Y9638970D01*
X38519453Y9591760D01*
X38472242Y9575451D01*
X38416448Y9572876D01*
X38305719Y9582222D01*
X38216162Y9610262D01*
X38147779Y9656996D01*
X38099615Y9723376D01*
X38070716Y9810358D01*
X38061084Y9917940D01*
X38061084Y10135966D01*
X38018165Y10135966D01*
X37938337Y10173734D01*
X37915161Y10287039D01*
X37942629Y10397768D01*
X38025032Y10434678D01*
X38061084Y10434678D01*
X38061084Y10584034D01*
X38063659Y10641545D01*
X38079968Y10686180D01*
X38127178Y10722232D01*
X38217307Y10733391D01*
X38304002Y10721373D01*
G37*
%TO.C,kibuzzard-67EC56FC*%
G36*
X25202575Y9744313D02*
G01*
X25239485Y9701824D01*
X25249785Y9622854D01*
X25240343Y9544742D01*
X25210300Y9502682D01*
X25124464Y9487232D01*
X24715880Y9487232D01*
X24639056Y9501824D01*
X24600858Y9545601D01*
X24592275Y9624571D01*
X24602575Y9701824D01*
X24635193Y9743026D01*
X24717597Y9758476D01*
X25126180Y9758476D01*
X25202575Y9744313D01*
G37*
G36*
X26372532Y10084657D02*
G01*
X26439485Y9973069D01*
X26381116Y9863197D01*
X26072103Y9525000D01*
X26379399Y9186803D01*
X26438627Y9076073D01*
X26370815Y8967060D01*
X26254077Y8906116D01*
X26149356Y8977361D01*
X25862661Y9293240D01*
X25574249Y8977361D01*
X25469528Y8906116D01*
X25352790Y8967060D01*
X25284979Y9076073D01*
X25344206Y9186803D01*
X25651502Y9525000D01*
X25342489Y9863197D01*
X25284979Y9973069D01*
X25351073Y10084657D01*
X25467811Y10145601D01*
X25572532Y10074356D01*
X25862661Y9756760D01*
X26151073Y10074356D01*
X26255794Y10145601D01*
X26372532Y10084657D01*
G37*
G36*
X22318455Y10081223D02*
G01*
X22363948Y9966202D01*
X22341631Y9888948D01*
X21864378Y9228004D01*
X22231760Y9228004D01*
X22288412Y9224571D01*
X22335622Y9208262D01*
X22374249Y9162768D01*
X22386266Y9076931D01*
X22374249Y8987661D01*
X22334764Y8939592D01*
X22287554Y8923283D01*
X22228326Y8920708D01*
X21563948Y8920708D01*
X21452361Y8966202D01*
X21407725Y9080365D01*
X21430043Y9157618D01*
X21907296Y9818562D01*
X21570815Y9818562D01*
X21510730Y9821137D01*
X21461803Y9836588D01*
X21420601Y9882940D01*
X21407725Y9969635D01*
X21419742Y10060622D01*
X21459227Y10108691D01*
X21506438Y10125000D01*
X21565665Y10127575D01*
X22207725Y10127575D01*
X22318455Y10081223D01*
G37*
G36*
X23324464Y10123283D02*
G01*
X23370815Y10106974D01*
X23409442Y10058906D01*
X23421459Y9967918D01*
X23409442Y9878648D01*
X23369957Y9830579D01*
X23322747Y9814270D01*
X23263519Y9811695D01*
X22789700Y9811695D01*
X22789700Y9658906D01*
X23107296Y9658906D01*
X23163090Y9656330D01*
X23204292Y9642597D01*
X23236910Y9601395D01*
X23246352Y9523283D01*
X23236910Y9446888D01*
X23203433Y9407403D01*
X23160515Y9393670D01*
X23103863Y9391094D01*
X22789700Y9391094D01*
X22789700Y9238305D01*
X23265236Y9238305D01*
X23324464Y9235730D01*
X23370815Y9219421D01*
X23409442Y9171352D01*
X23421459Y9080365D01*
X23409442Y8991094D01*
X23369957Y8943026D01*
X23322747Y8926717D01*
X23263519Y8924142D01*
X22631760Y8924142D01*
X22542489Y8936159D01*
X22494421Y8975644D01*
X22478112Y9022854D01*
X22475536Y9082082D01*
X22475536Y9969635D01*
X22510730Y10092382D01*
X22636910Y10125858D01*
X23265236Y10125858D01*
X23324464Y10123283D01*
G37*
G36*
X24065236Y10114914D02*
G01*
X24175107Y10082082D01*
X24276395Y10027361D01*
X24369099Y9950751D01*
X24446459Y9858906D01*
X24501717Y9758476D01*
X24534871Y9649464D01*
X24545923Y9531867D01*
X24534871Y9411105D01*
X24501717Y9299464D01*
X24446459Y9196942D01*
X24369099Y9103541D01*
X24276073Y9025805D01*
X24173820Y8970279D01*
X24062339Y8936964D01*
X23941631Y8925858D01*
X23807725Y8925858D01*
X23649785Y8925858D01*
X23563090Y8937876D01*
X23515880Y8974785D01*
X23497854Y9022854D01*
X23493562Y9083798D01*
X23493562Y9240021D01*
X23807725Y9240021D01*
X23946781Y9240021D01*
X24055365Y9260837D01*
X24147639Y9323283D01*
X24210730Y9415343D01*
X24231760Y9525000D01*
X24210730Y9634871D01*
X24147639Y9727575D01*
X24054936Y9790665D01*
X23945064Y9811695D01*
X23807725Y9811695D01*
X23807725Y9240021D01*
X23493562Y9240021D01*
X23493562Y9971352D01*
X23496137Y10028863D01*
X23512446Y10076073D01*
X23560515Y10114700D01*
X23651502Y10125858D01*
X23946781Y10125858D01*
X24065236Y10114914D01*
G37*
G36*
X29024464Y10118991D02*
G01*
X29096996Y10098391D01*
X29169099Y10064914D01*
X29237768Y10019421D01*
X29298927Y9958691D01*
X29348498Y9879506D01*
X29381330Y9786588D01*
X29392275Y9684657D01*
X29381545Y9583155D01*
X29349356Y9491524D01*
X29300215Y9413627D01*
X29238627Y9353326D01*
X29169099Y9307833D01*
X29096137Y9274356D01*
X29022961Y9253755D01*
X28952790Y9246888D01*
X28769099Y9246888D01*
X28769099Y9082082D01*
X28766524Y9022854D01*
X28750215Y8976502D01*
X28702146Y8937876D01*
X28611159Y8925858D01*
X28521888Y8937876D01*
X28473820Y8977361D01*
X28457511Y9024571D01*
X28454936Y9083798D01*
X28454936Y9561052D01*
X28769099Y9561052D01*
X28954506Y9561052D01*
X29039485Y9591953D01*
X29079828Y9686373D01*
X29042918Y9775644D01*
X28952790Y9811695D01*
X28769099Y9811695D01*
X28769099Y9561052D01*
X28454936Y9561052D01*
X28454936Y9969635D01*
X28457511Y10027146D01*
X28473820Y10074356D01*
X28521888Y10113841D01*
X28612876Y10125858D01*
X28954506Y10125858D01*
X29024464Y10118991D01*
G37*
G36*
X27042060Y10128338D02*
G01*
X27147926Y10084275D01*
X27241202Y10010837D01*
X27313686Y9916416D01*
X27357177Y9809406D01*
X27371674Y9689807D01*
X27363305Y9603112D01*
X27338197Y9521567D01*
X27299356Y9448605D01*
X27249785Y9387661D01*
X27145064Y9297532D01*
X27042060Y9236588D01*
X27256652Y9236588D01*
X27315880Y9233155D01*
X27362232Y9215987D01*
X27400858Y9167918D01*
X27412876Y9076931D01*
X27400858Y8988519D01*
X27361373Y8941309D01*
X27312446Y8924142D01*
X27253219Y8920708D01*
X26633476Y8920708D01*
X26523605Y8967918D01*
X26477253Y9080365D01*
X26492704Y9167489D01*
X26539056Y9246888D01*
X26598712Y9308047D01*
X26681545Y9371352D01*
X26772103Y9430365D01*
X26854936Y9478648D01*
X26929399Y9526717D01*
X26994850Y9585086D01*
X27040558Y9649464D01*
X27055794Y9715558D01*
X27049785Y9761052D01*
X27012017Y9805687D01*
X26925322Y9828863D01*
X26824893Y9793240D01*
X26791416Y9686373D01*
X26788841Y9631438D01*
X26772532Y9587661D01*
X26724464Y9551609D01*
X26633476Y9540451D01*
X26544206Y9552468D01*
X26496137Y9591953D01*
X26479828Y9639163D01*
X26477253Y9698391D01*
X26490987Y9808071D01*
X26532189Y9910503D01*
X26600858Y10005687D01*
X26691655Y10081986D01*
X26799237Y10127766D01*
X26923605Y10143026D01*
X27042060Y10128338D01*
G37*
G36*
X28017597Y10131867D02*
G01*
X28109871Y10098391D01*
X28186266Y10048391D01*
X28243777Y9987661D01*
X28287339Y9915987D01*
X28321888Y9833155D01*
X28346781Y9748391D01*
X28361373Y9670923D01*
X28368455Y9596674D01*
X28370815Y9521567D01*
X28368240Y9444528D01*
X28360515Y9367918D01*
X28345279Y9288948D01*
X28320172Y9204828D01*
X28285622Y9123498D01*
X28242060Y9052897D01*
X28184979Y8993240D01*
X28109871Y8944742D01*
X28019313Y8912554D01*
X27915880Y8901824D01*
X27909013Y8902372D01*
X27824464Y8909120D01*
X27742489Y8931009D01*
X27672318Y8965987D01*
X27616309Y9012554D01*
X27532189Y9125858D01*
X27501502Y9190236D01*
X27479828Y9261481D01*
X27455794Y9397961D01*
X27449021Y9521567D01*
X27763090Y9521567D01*
X27772210Y9388627D01*
X27799571Y9293670D01*
X27845172Y9236695D01*
X27909013Y9217704D01*
X27980258Y9240880D01*
X28024034Y9293240D01*
X28046352Y9370494D01*
X28055794Y9446030D01*
X28056652Y9514700D01*
X28056652Y9523283D01*
X28047532Y9656974D01*
X28020172Y9752468D01*
X27974571Y9809764D01*
X27910730Y9828863D01*
X27846137Y9809657D01*
X27800000Y9752039D01*
X27772318Y9656009D01*
X27763090Y9521567D01*
X27449021Y9521567D01*
X27448927Y9523283D01*
X27451073Y9595386D01*
X27457511Y9667489D01*
X27471459Y9743884D01*
X27496137Y9828863D01*
X27530687Y9912554D01*
X27574249Y9985086D01*
X27632189Y10046674D01*
X27709871Y10097532D01*
X27804292Y10131652D01*
X27912446Y10143026D01*
X28017597Y10131867D01*
G37*
D13*
%TO.C,C1*%
X10285000Y21449420D02*
X10285000Y21730580D01*
X11305000Y21449420D02*
X11305000Y21730580D01*
D12*
%TO.C,kibuzzard-64C2E6D6*%
G36*
X39370463Y28575140D02*
G01*
X39397768Y28553550D01*
X39409198Y28488780D01*
X39409198Y28246210D01*
X40048008Y28246210D01*
X40091188Y28244305D01*
X40123573Y28232875D01*
X40149608Y28199220D01*
X40157228Y28135720D01*
X40149608Y28072855D01*
X40123573Y28039835D01*
X40090553Y28028405D01*
X40046738Y28026500D01*
X39409198Y28026500D01*
X39409198Y27782660D01*
X39399673Y27722970D01*
X39369828Y27697570D01*
X39316488Y27691220D01*
X39263783Y27697570D01*
X39236478Y27719160D01*
X39225048Y27783930D01*
X39225048Y28490050D01*
X39234573Y28549740D01*
X39264418Y28575140D01*
X39317758Y28581490D01*
X39370463Y28575140D01*
G37*
G36*
X40126113Y29316820D02*
G01*
X40169928Y29233635D01*
X40116588Y29155530D01*
X39797818Y28876130D01*
X40045468Y28876130D01*
X40089918Y28874225D01*
X40122938Y28862160D01*
X40148656Y28828505D01*
X40157228Y28763100D01*
X40145163Y28692615D01*
X40108968Y28658960D01*
X40044198Y28651340D01*
X39338078Y28651340D01*
X39294263Y28653245D01*
X39260608Y28665310D01*
X39234890Y28698965D01*
X39226318Y28764370D01*
X39238066Y28835172D01*
X39273308Y28869780D01*
X39339348Y28876130D01*
X39581918Y28876130D01*
X39506988Y28942576D01*
X39437646Y29003740D01*
X39373892Y29059620D01*
X39315726Y29110216D01*
X39263148Y29155530D01*
X39211078Y29233000D01*
X39254893Y29316820D01*
X39331093Y29367620D01*
X39407928Y29329520D01*
X39454442Y29287610D01*
X39508893Y29235540D01*
X39571282Y29173310D01*
X39641608Y29100920D01*
X39689868Y29050120D01*
X39777419Y29140211D01*
X39853380Y29216173D01*
X39917754Y29278006D01*
X39970538Y29325710D01*
X40049913Y29367620D01*
X40126113Y29316820D01*
G37*
G36*
X40044198Y27146390D02*
G01*
X40088013Y27144485D01*
X40121668Y27132420D01*
X40147386Y27098765D01*
X40155958Y27033360D01*
X40144210Y26962875D01*
X40108968Y26929220D01*
X40042928Y26921600D01*
X39338078Y26921600D01*
X39294263Y26923505D01*
X39260608Y26935570D01*
X39234890Y26969225D01*
X39226318Y27034630D01*
X39226318Y27306410D01*
X39451108Y27306410D01*
X39451108Y27146390D01*
X39675898Y27146390D01*
X39675898Y27308950D01*
X39647958Y27382610D01*
X39564138Y27419440D01*
X39479683Y27382610D01*
X39451108Y27306410D01*
X39226318Y27306410D01*
X39226318Y27308950D01*
X39235349Y27382751D01*
X39262442Y27455141D01*
X39307598Y27526120D01*
X39353953Y27572475D01*
X39414278Y27609940D01*
X39485398Y27634705D01*
X39564138Y27642960D01*
X39654167Y27632377D01*
X39732907Y27600627D01*
X39800358Y27547710D01*
X39852428Y27569723D01*
X39918891Y27598510D01*
X39999748Y27634070D01*
X40065788Y27653120D01*
X40110238Y27633435D01*
X40147068Y27574380D01*
X40164848Y27508975D01*
X40152783Y27468335D01*
X40128018Y27444840D01*
X40091752Y27428189D01*
X40015129Y27395169D01*
X39898148Y27345780D01*
X39900688Y27306410D01*
X39900688Y27146390D01*
X40044198Y27146390D01*
G37*
D17*
%TO.C,BT1*%
X10629900Y31419800D02*
G75*
G02*
X10756903Y32562799I1689850J390790D01*
G01*
X14770099Y33375602D02*
G75*
G02*
X12839700Y29362400I-1733174J-1637196D01*
G01*
D12*
%TO.C,kibuzzard-66CAA7B2*%
G36*
X37504249Y5132380D02*
G01*
X37504249Y4370148D01*
X37504249Y3737960D01*
X37504249Y2656415D01*
X37504249Y2539247D01*
X37504249Y2110063D01*
X36155751Y2110063D01*
X36155751Y2539247D01*
X36155751Y3131522D01*
X36388369Y3131522D01*
X36388369Y2660277D01*
X36413476Y2565642D01*
X36505536Y2539247D01*
X37171202Y2539247D01*
X37215622Y2541178D01*
X37251030Y2553410D01*
X37280644Y2589462D01*
X37289657Y2656415D01*
X37289657Y3130234D01*
X37287725Y3174655D01*
X37275494Y3210063D01*
X37239442Y3239676D01*
X37172489Y3248689D01*
X37104249Y3239676D01*
X37068197Y3210706D01*
X37055966Y3175942D01*
X37054034Y3131522D01*
X37054034Y2774869D01*
X36939442Y2774869D01*
X36939442Y3010492D01*
X36937511Y3052981D01*
X36927210Y3085170D01*
X36897597Y3110277D01*
X36840300Y3117359D01*
X36781717Y3110277D01*
X36750815Y3085814D01*
X36740515Y3054912D01*
X36738584Y3013067D01*
X36738584Y2774869D01*
X36623991Y2774869D01*
X36623991Y3130234D01*
X36622060Y3174655D01*
X36609828Y3210063D01*
X36573777Y3239676D01*
X36506824Y3248689D01*
X36438584Y3239676D01*
X36402532Y3210706D01*
X36390300Y3175942D01*
X36388369Y3131522D01*
X36155751Y3131522D01*
X36155751Y3472724D01*
X36383219Y3472724D01*
X36402532Y3376157D01*
X36463691Y3304054D01*
X36553176Y3316930D01*
X37223991Y3622080D01*
X37272275Y3665857D01*
X37288369Y3737960D01*
X37270987Y3804269D01*
X37223991Y3848689D01*
X36553176Y4153839D01*
X36464335Y4168646D01*
X36402532Y4094612D01*
X36383863Y3999333D01*
X36456609Y3938818D01*
X36957468Y3735384D01*
X36456609Y3531951D01*
X36383219Y3472724D01*
X36155751Y3472724D01*
X36155751Y4845256D01*
X36388369Y4845256D01*
X36388369Y4374011D01*
X36413476Y4279376D01*
X36505536Y4252981D01*
X37171202Y4252981D01*
X37215622Y4254912D01*
X37251030Y4267144D01*
X37280644Y4303196D01*
X37289657Y4370148D01*
X37289657Y4843968D01*
X37287725Y4888389D01*
X37275494Y4923796D01*
X37239442Y4953410D01*
X37172489Y4962423D01*
X37104249Y4953410D01*
X37068197Y4924440D01*
X37055966Y4889676D01*
X37054034Y4845256D01*
X37054034Y4488603D01*
X36939442Y4488603D01*
X36939442Y4724226D01*
X36937511Y4766715D01*
X36927210Y4798904D01*
X36897597Y4824011D01*
X36840300Y4831093D01*
X36781717Y4824011D01*
X36750815Y4799548D01*
X36740515Y4768646D01*
X36738584Y4726801D01*
X36738584Y4488603D01*
X36623991Y4488603D01*
X36623991Y4843968D01*
X36622060Y4888389D01*
X36609828Y4923796D01*
X36573777Y4953410D01*
X36506824Y4962423D01*
X36438584Y4953410D01*
X36402532Y4924440D01*
X36390300Y4889676D01*
X36388369Y4845256D01*
X36155751Y4845256D01*
X36155751Y5689891D01*
X36389657Y5689891D01*
X36398670Y5622938D01*
X36426352Y5586887D01*
X36460472Y5574011D01*
X36502961Y5571436D01*
X36872489Y5571436D01*
X36439871Y5249548D01*
X36413476Y5226372D01*
X36397382Y5193539D01*
X36389657Y5134955D01*
X36398026Y5067359D01*
X36425708Y5031951D01*
X36459828Y5019075D01*
X36502961Y5016500D01*
X37171202Y5016500D01*
X37216266Y5019075D01*
X37251674Y5031307D01*
X37280644Y5066071D01*
X37289657Y5132380D01*
X37280644Y5200621D01*
X37251674Y5236672D01*
X37216910Y5248904D01*
X37172489Y5250835D01*
X36814549Y5250835D01*
X37254893Y5584312D01*
X37282575Y5622294D01*
X37289657Y5688603D01*
X37280644Y5756844D01*
X37251674Y5792895D01*
X37216910Y5805127D01*
X37172489Y5807058D01*
X36508112Y5807058D01*
X36463691Y5805127D01*
X36428283Y5792895D01*
X36398670Y5756844D01*
X36389657Y5689891D01*
X36155751Y5689891D01*
X36155751Y6549977D01*
X36387082Y6549977D01*
X36387082Y5961565D01*
X36389013Y5924869D01*
X36399313Y5895256D01*
X36428927Y5870148D01*
X36484936Y5862423D01*
X36542876Y5870148D01*
X36573133Y5894612D01*
X36583433Y5923582D01*
X36585365Y5960277D01*
X36585365Y6139247D01*
X37173777Y6139247D01*
X37216910Y6141178D01*
X37251674Y6152766D01*
X37280644Y6187530D01*
X37289657Y6253839D01*
X37280644Y6320792D01*
X37252318Y6356844D01*
X37218197Y6369075D01*
X37175064Y6371007D01*
X36585365Y6371007D01*
X36585365Y6548689D01*
X36583433Y6585384D01*
X36573133Y6614998D01*
X36542876Y6640106D01*
X36486223Y6647831D01*
X36429571Y6640106D01*
X36399313Y6615642D01*
X36389013Y6586672D01*
X36387082Y6549977D01*
X36155751Y6549977D01*
X36155751Y6647831D01*
X36155751Y6647938D01*
X36830000Y7097437D01*
X37504249Y6647938D01*
X37504249Y6647831D01*
X37504249Y6253839D01*
X37504249Y5132380D01*
G37*
D10*
%TO.C,D8*%
X16680000Y35595000D02*
X16680000Y36795000D01*
X18880000Y35595000D02*
X18880000Y36795000D01*
D11*
X19130000Y37045000D02*
G75*
G02*
X18930000Y37045000I-100000J0D01*
G01*
X18930000Y37045000D02*
G75*
G02*
X19130000Y37045000I100000J0D01*
G01*
D13*
%TO.C,C13*%
X9384420Y10670000D02*
X9665580Y10670000D01*
X9384420Y9650000D02*
X9665580Y9650000D01*
%TO.C,R9*%
X13889758Y16397500D02*
X13415242Y16397500D01*
X13889758Y15352500D02*
X13415242Y15352500D01*
D14*
%TO.C,D6*%
X10425000Y17770000D02*
X8625000Y17770000D01*
X10425000Y16520000D02*
X8625000Y16520000D01*
X11295000Y16520000D02*
X11295000Y17770000D01*
D13*
%TO.C,R6*%
X35640242Y21477500D02*
X36114758Y21477500D01*
X35640242Y20432500D02*
X36114758Y20432500D01*
%TO.C,L2*%
X36018080Y13527500D02*
X35736920Y13527500D01*
X36018080Y12507500D02*
X35736920Y12507500D01*
%TO.C,R12*%
X9287742Y7507500D02*
X9762258Y7507500D01*
X9287742Y6462500D02*
X9762258Y6462500D01*
D17*
%TO.C,JP1*%
X35496500Y14287500D02*
X35496500Y16827500D01*
X37071300Y17284700D02*
X35953700Y17284700D01*
X37071300Y13830300D02*
X35953700Y13830300D01*
X37528500Y16827500D02*
X37528500Y14287500D01*
X35496500Y16827500D02*
G75*
G02*
X35953700Y17284700I457201J-1D01*
G01*
X35953700Y13830300D02*
G75*
G02*
X35496500Y14287500I0J457200D01*
G01*
X37071300Y17284700D02*
G75*
G02*
X37528500Y16827500I-1J-457201D01*
G01*
X37528500Y14287500D02*
G75*
G02*
X37071300Y13830300I-457200J0D01*
G01*
D13*
%TO.C,R7*%
X12302258Y27827500D02*
X11827742Y27827500D01*
X12302258Y26782500D02*
X11827742Y26782500D01*
D16*
%TO.C,U5*%
X16650000Y32840000D02*
X18600000Y32840000D01*
X16650000Y30390000D02*
X16650000Y32840000D01*
X16650000Y10340000D02*
X16650000Y12790000D01*
X18600000Y10340000D02*
X16650000Y10340000D01*
X32200000Y32840000D02*
X34150000Y32840000D01*
X34150000Y32840000D02*
X34150000Y30390000D01*
X34150000Y12790000D02*
X34150000Y10340000D01*
X34150000Y10340000D02*
X32200000Y10340000D01*
D18*
X33970709Y9990000D02*
G75*
G02*
X33829291Y9990000I-70709J0D01*
G01*
X33829291Y9990000D02*
G75*
G02*
X33970709Y9990000I70709J0D01*
G01*
D12*
%TO.C,kibuzzard-67ED9A70*%
G36*
X26729871Y40090547D02*
G01*
X26604979Y40151062D01*
X26729871Y40211577D01*
X26729871Y40090547D01*
G37*
G36*
X26749024Y39424560D02*
G01*
X26818069Y39377242D01*
X26864903Y39308036D01*
X26880515Y39226599D01*
X26880515Y39122307D01*
X26451760Y39122307D01*
X26451760Y39225311D01*
X26467532Y39307715D01*
X26514850Y39377242D01*
X26584378Y39424560D01*
X26666781Y39440333D01*
X26749024Y39424560D01*
G37*
G36*
X27352618Y39003852D02*
G01*
X27352618Y38501706D01*
X27352618Y38166942D01*
X27352618Y38166835D01*
X27349331Y38099926D01*
X27339502Y38033663D01*
X27323225Y37968681D01*
X27300657Y37905608D01*
X27272015Y37845051D01*
X27237576Y37787593D01*
X27197671Y37733786D01*
X27152684Y37684151D01*
X27103048Y37639164D01*
X27049242Y37599259D01*
X26991784Y37564819D01*
X26931227Y37536178D01*
X26868154Y37513610D01*
X26803172Y37497333D01*
X26736908Y37487504D01*
X26670000Y37484217D01*
X26603092Y37487504D01*
X26536828Y37497333D01*
X26471846Y37513610D01*
X26408773Y37536178D01*
X26348216Y37564819D01*
X26290758Y37599259D01*
X26236952Y37639164D01*
X26187316Y37684151D01*
X26142329Y37733786D01*
X26102424Y37787593D01*
X26067985Y37845051D01*
X26039343Y37905608D01*
X26016775Y37968681D01*
X26000498Y38033663D01*
X25990669Y38099926D01*
X25987382Y38166835D01*
X25987382Y38166942D01*
X25987382Y38490118D01*
X26201974Y38490118D01*
X26210629Y38407572D01*
X26236595Y38335039D01*
X26279871Y38272521D01*
X26336309Y38224596D01*
X26401760Y38195840D01*
X26476223Y38186255D01*
X26559914Y38196556D01*
X26629442Y38227457D01*
X26684807Y38278959D01*
X26726009Y38351062D01*
X26743552Y38399828D01*
X26760129Y38461148D01*
X26790386Y38562221D01*
X26830300Y38595697D01*
X26890172Y38572521D01*
X26908841Y38496556D01*
X26896609Y38445697D01*
X26849614Y38393551D01*
X26802690Y38335469D01*
X26794106Y38279675D01*
X26823863Y38226170D01*
X26906266Y38172092D01*
X26989957Y38204281D01*
X26998970Y38212006D01*
X27016996Y38226170D01*
X27039528Y38248702D01*
X27064635Y38279603D01*
X27089099Y38319517D01*
X27110343Y38369088D01*
X27124506Y38429603D01*
X27130300Y38501706D01*
X27120644Y38587328D01*
X27087811Y38675526D01*
X27030515Y38754710D01*
X26943605Y38810719D01*
X26887918Y38827135D01*
X26826438Y38832607D01*
X26730193Y38820536D01*
X26660343Y38784324D01*
X26611416Y38727833D01*
X26577940Y38654925D01*
X26557983Y38572521D01*
X26541888Y38493981D01*
X26519356Y38443122D01*
X26477511Y38420590D01*
X26438240Y38441191D01*
X26422146Y38488830D01*
X26426652Y38531320D01*
X26436309Y38556427D01*
X26451116Y38574453D01*
X26463348Y38589260D01*
X26487167Y38675526D01*
X26424721Y38751491D01*
X26345536Y38782393D01*
X26279227Y38736041D01*
X26236309Y38669231D01*
X26210558Y38587257D01*
X26201974Y38490118D01*
X25987382Y38490118D01*
X25987382Y39226599D01*
X26216137Y39226599D01*
X26216137Y39005139D01*
X26224506Y38936899D01*
X26253476Y38900848D01*
X26288884Y38888616D01*
X26332017Y38886685D01*
X26997682Y38886685D01*
X27043391Y38889903D01*
X27079442Y38903423D01*
X27107124Y38938830D01*
X27116137Y39003852D01*
X27116137Y39222736D01*
X27107808Y39313267D01*
X27082822Y39396878D01*
X27041178Y39473568D01*
X26982876Y39543337D01*
X26912825Y39601357D01*
X26835933Y39642800D01*
X26752202Y39667666D01*
X26661631Y39675955D01*
X26573433Y39667666D01*
X26491674Y39642800D01*
X26416352Y39601357D01*
X26347468Y39543337D01*
X26290011Y39473809D01*
X26248970Y39397843D01*
X26224345Y39315440D01*
X26216137Y39226599D01*
X25987382Y39226599D01*
X25987382Y40152350D01*
X26216137Y40152350D01*
X26234807Y40089260D01*
X26284378Y40044195D01*
X26953906Y39721019D01*
X27044678Y39704281D01*
X27107124Y39776384D01*
X27125794Y39870376D01*
X27054335Y39934753D01*
X26930730Y39993981D01*
X26930730Y40310719D01*
X27053047Y40369946D01*
X27127082Y40433036D01*
X27108412Y40528315D01*
X27045322Y40599775D01*
X26953906Y40582393D01*
X26285665Y40259217D01*
X26233519Y40215118D01*
X26216137Y40152350D01*
X25987382Y40152350D01*
X25987382Y40612006D01*
X25987382Y41255783D01*
X27352618Y41255783D01*
X27352618Y40612006D01*
X27352618Y40433036D01*
X27352618Y39003852D01*
G37*
%TD*%
M02*
