%TF.GenerationSoftware,KiCad,Pcbnew,9.0.1*%
%TF.CreationDate,2025-04-16T09:50:42-06:00*%
%TF.ProjectId,SparkFun_GNSS_ZED-X20P,53706172-6b46-4756-9e5f-474e53535f5a,rev?*%
%TF.SameCoordinates,Original*%
%TF.FileFunction,Copper,L3,Inr*%
%TF.FilePolarity,Positive*%
%FSLAX46Y46*%
G04 Gerber Fmt 4.6, Leading zero omitted, Abs format (unit mm)*
G04 Created by KiCad (PCBNEW 9.0.1) date 2025-04-16 09:50:42*
%MOMM*%
%LPD*%
G01*
G04 APERTURE LIST*
%TA.AperFunction,ComponentPad*%
%ADD10C,1.879600*%
%TD*%
%TA.AperFunction,ComponentPad*%
%ADD11O,1.600000X1.000000*%
%TD*%
%TA.AperFunction,ComponentPad*%
%ADD12O,2.100000X1.000000*%
%TD*%
%TA.AperFunction,ViaPad*%
%ADD13C,0.560000*%
%TD*%
%TA.AperFunction,Conductor*%
%ADD14C,0.177800*%
%TD*%
G04 APERTURE END LIST*
D10*
%TO.N,PPS*%
%TO.C,J11*%
X29210000Y1270000D03*
%TD*%
D11*
%TO.N,unconnected-(J1-NC-PadNC1)*%
%TO.C,J1*%
X1255000Y17018000D03*
D12*
%TO.N,unconnected-(J1-NC-PadNC2)*%
X5435000Y17018000D03*
%TO.N,unconnected-(J1-NC-PadNC3)*%
X5435000Y8382000D03*
D11*
%TO.N,Net-(J1-SHIELD)*%
X1255000Y8382000D03*
%TD*%
D10*
%TO.N,3.3V*%
%TO.C,J9*%
X16510000Y1270000D03*
%TD*%
%TO.N,3.3V*%
%TO.C,J3*%
X19050000Y41910000D03*
%TD*%
D13*
%TO.N,GND*%
X34290000Y16192500D03*
X34290000Y14922500D03*
X12065000Y20320000D03*
X31432500Y23812500D03*
X23177500Y21590000D03*
X17780000Y4603750D03*
X31432500Y19367500D03*
X23177500Y15240000D03*
X38417500Y16827500D03*
X21272500Y23812500D03*
X6032500Y18415000D03*
X31432500Y13017500D03*
X39370000Y11747500D03*
X42545000Y12382500D03*
X34607500Y26670000D03*
X23177500Y17462500D03*
X35877500Y22225000D03*
X23177500Y13017500D03*
X25400000Y15240000D03*
X31432500Y15240000D03*
X33020000Y13335000D03*
X10477500Y39370000D03*
X29527500Y25717500D03*
X23177500Y25717500D03*
X25400000Y17462500D03*
X17780000Y13335000D03*
X21272500Y17462500D03*
X25400000Y29845000D03*
X23177500Y19367500D03*
X38100000Y11112500D03*
X21272500Y21590000D03*
X34607500Y23812500D03*
X6985000Y15875000D03*
X31432500Y21590000D03*
X10795000Y23495000D03*
X25400000Y25717500D03*
X12065000Y21907500D03*
X15875000Y25400000D03*
X29527500Y21590000D03*
X25400000Y19367500D03*
X14461772Y17981632D03*
X27305000Y19367500D03*
X12382500Y32067500D03*
X12065000Y23495000D03*
X31432500Y29845000D03*
X11430000Y10160000D03*
X6033100Y27940000D03*
X13017500Y8255000D03*
X6985000Y9525000D03*
X29527500Y27940000D03*
X33020000Y9842500D03*
X17780000Y36195000D03*
X38417500Y21907500D03*
X11906250Y12700000D03*
X29527500Y15240000D03*
X21272500Y27940000D03*
X27305000Y13017500D03*
X31432500Y25717500D03*
X16510000Y24447500D03*
X29527500Y13017500D03*
X38100000Y18415000D03*
X27305000Y21590000D03*
X35877500Y18415000D03*
X39370000Y23177500D03*
X6032500Y6985000D03*
X6350000Y5397500D03*
X25400000Y27940000D03*
X34607500Y30162500D03*
X21272500Y13017500D03*
X27305000Y29845000D03*
X31432500Y27940000D03*
X40957500Y15557500D03*
X21272500Y29845000D03*
X29527500Y23812500D03*
X21272500Y15240000D03*
X29527500Y17462500D03*
X40957500Y10477500D03*
X42545000Y15557500D03*
X34607500Y22225000D03*
X7311365Y12537635D03*
X25400000Y21590000D03*
X21272500Y19367500D03*
X33020000Y38100000D03*
X37782500Y15557500D03*
X27305000Y25717500D03*
X42545000Y31115000D03*
X27305000Y15240000D03*
X23177500Y23812500D03*
X37147500Y17780000D03*
X16510000Y18732500D03*
X27305000Y27940000D03*
X42545000Y23177500D03*
X38100000Y13652500D03*
X23177500Y27940000D03*
X39370000Y15557500D03*
X34607500Y28257500D03*
X39370000Y14287500D03*
X23177500Y29845000D03*
X42545000Y13817500D03*
X21272500Y25717500D03*
X29527500Y29845000D03*
X31432500Y17462500D03*
X11430000Y15240000D03*
X29527500Y19367500D03*
X40957500Y23177500D03*
X25400000Y23812500D03*
X27305000Y23812500D03*
X25400000Y13017500D03*
X27305000Y17462500D03*
X34607500Y25400000D03*
X15716250Y10795000D03*
%TO.N,V_BCKP*%
X14605000Y28257500D03*
X15557500Y20002500D03*
%TO.N,5V*%
X11430000Y19050000D03*
%TO.N,PPS*%
X30797500Y9525000D03*
%TO.N,RTK_STAT*%
X26670000Y33337500D03*
X18415000Y5080000D03*
X20320000Y6985000D03*
%TO.N,VUSB*%
X7937500Y15150000D03*
X7302500Y10250000D03*
X9525000Y12700000D03*
%TO.N,~{RESET}*%
X34290000Y9525000D03*
%TO.N,3.3V*%
X38735000Y32702500D03*
X5238750Y35242500D03*
X15875000Y21907500D03*
X8890000Y2505230D03*
X13099290Y10963791D03*
X16510000Y17740000D03*
X9525000Y39370000D03*
X15875000Y23495000D03*
X34290000Y32702500D03*
%TO.N,Net-(C3-Pad1)*%
X35242500Y14287500D03*
X35242500Y17780000D03*
%TO.N,Net-(U4-V3)*%
X12382500Y10953750D03*
X12382500Y14287500D03*
%TO.N,Net-(U1-I{slash}O1)*%
X5080000Y11747500D03*
X7070810Y13249190D03*
%TO.N,Net-(JP2-A)*%
X35877500Y36195000D03*
%TO.N,Net-(JP3-A)*%
X37782500Y36195000D03*
%TO.N,Net-(JP5-A)*%
X39687500Y36195000D03*
%TO.N,SDA{slash}~{CS}*%
X8572500Y35877500D03*
X15875000Y3175000D03*
X15398750Y34766250D03*
%TO.N,TX1{slash}POCI*%
X17462500Y11747500D03*
X24765000Y34925000D03*
%TO.N,SCL{slash}SCK*%
X7302500Y36512500D03*
X20518803Y34726197D03*
X16510000Y3810000D03*
%TO.N,RX1{slash}PICO*%
X19467500Y10475270D03*
%TO.N,RX2*%
X1904400Y31432500D03*
%TO.N,TX2*%
X19367500Y35560000D03*
X19367500Y37147500D03*
%TO.N,3V3_EN*%
X31750000Y5715000D03*
X14605000Y14605000D03*
%TO.N,GEO_STAT*%
X22860000Y6032500D03*
X27622500Y33337500D03*
X19754161Y9205032D03*
%TO.N,Net-(JP9-A)*%
X7620000Y8572500D03*
%TO.N,Net-(JP9-C)*%
X7620000Y6985000D03*
%TO.N,Net-(JP10-B)*%
X24447500Y8572500D03*
%TO.N,TX_READY*%
X23177500Y8572500D03*
%TO.N,~{SAFEBOOT}*%
X30848615Y6083615D03*
%TO.N,VOUT*%
X2540000Y34290000D03*
%TO.N,Net-(JP8-A)*%
X41592500Y36195000D03*
%TO.N,Net-(JP11-A)*%
X16827500Y7937500D03*
%TO.N,Net-(JP11-B)*%
X17145000Y10477500D03*
%TO.N,Net-(JP12-A)*%
X16827500Y6667500D03*
%TO.N,/D+*%
X16827500Y15557500D03*
%TO.N,/D-*%
X16827500Y16510000D03*
%TD*%
D14*
%TO.N,PPS*%
X30797500Y9525000D02*
X29210000Y7937500D01*
X29210000Y7937500D02*
X29210000Y1270000D01*
%TD*%
%TA.AperFunction,Conductor*%
%TO.N,3.3V*%
G36*
X18464980Y43031935D02*
G01*
X18495044Y42979864D01*
X18484603Y42920650D01*
X18453066Y42890723D01*
X18453885Y42889387D01*
X18450937Y42887581D01*
X18305385Y42781831D01*
X18178169Y42654615D01*
X18072419Y42509064D01*
X17990738Y42348754D01*
X17935144Y42177652D01*
X17907000Y41999955D01*
X17907000Y41998901D01*
X17907001Y41998900D01*
X18547900Y41998900D01*
X18542000Y41976880D01*
X18542000Y41843120D01*
X18547900Y41821100D01*
X17907001Y41821100D01*
X17907000Y41821099D01*
X17907000Y41820046D01*
X17935144Y41642349D01*
X17990738Y41471247D01*
X18072419Y41310937D01*
X18178169Y41165386D01*
X18305385Y41038170D01*
X18450936Y40932420D01*
X18611246Y40850739D01*
X18782348Y40795145D01*
X18960046Y40767000D01*
X18961099Y40767000D01*
X18961100Y40767001D01*
X18961100Y41407901D01*
X18983120Y41402000D01*
X19116880Y41402000D01*
X19138900Y41407901D01*
X19138900Y40767001D01*
X19138901Y40767000D01*
X19139954Y40767000D01*
X19317651Y40795145D01*
X19469513Y40844487D01*
X19488753Y40850739D01*
X19649063Y40932420D01*
X19794614Y41038170D01*
X19921830Y41165386D01*
X20027580Y41310937D01*
X20109261Y41471247D01*
X20164855Y41642349D01*
X20193000Y41820046D01*
X20193000Y41821099D01*
X20192999Y41821100D01*
X19552100Y41821100D01*
X19558000Y41843120D01*
X19558000Y41976880D01*
X19555903Y41984706D01*
X20831500Y41984706D01*
X20831500Y41835294D01*
X20834324Y41821099D01*
X20860647Y41688758D01*
X20860649Y41688754D01*
X20917824Y41550718D01*
X20917826Y41550715D01*
X21000831Y41426489D01*
X21000832Y41426488D01*
X21000835Y41426484D01*
X21106484Y41320835D01*
X21106487Y41320833D01*
X21106488Y41320832D01*
X21230714Y41237827D01*
X21230717Y41237825D01*
X21273783Y41219987D01*
X21368754Y41180649D01*
X21368755Y41180649D01*
X21368757Y41180648D01*
X21442522Y41165976D01*
X21515294Y41151500D01*
X21515296Y41151500D01*
X21664704Y41151500D01*
X21664706Y41151500D01*
X21761515Y41170757D01*
X21811242Y41180648D01*
X21811242Y41180649D01*
X21811246Y41180649D01*
X21949284Y41237826D01*
X22073516Y41320835D01*
X22179165Y41426484D01*
X22262174Y41550716D01*
X22319351Y41688754D01*
X22348500Y41835294D01*
X22348500Y41984706D01*
X23371500Y41984706D01*
X23371500Y41835294D01*
X23374324Y41821099D01*
X23400647Y41688758D01*
X23400649Y41688754D01*
X23457824Y41550718D01*
X23457826Y41550715D01*
X23540831Y41426489D01*
X23540832Y41426488D01*
X23540835Y41426484D01*
X23646484Y41320835D01*
X23646487Y41320833D01*
X23646488Y41320832D01*
X23770714Y41237827D01*
X23770717Y41237825D01*
X23813783Y41219987D01*
X23908754Y41180649D01*
X23908755Y41180649D01*
X23908757Y41180648D01*
X23982522Y41165976D01*
X24055294Y41151500D01*
X24055296Y41151500D01*
X24204704Y41151500D01*
X24204706Y41151500D01*
X24301515Y41170757D01*
X24351242Y41180648D01*
X24351242Y41180649D01*
X24351246Y41180649D01*
X24489284Y41237826D01*
X24613516Y41320835D01*
X24719165Y41426484D01*
X24802174Y41550716D01*
X24859351Y41688754D01*
X24888500Y41835294D01*
X24888500Y41984706D01*
X25911500Y41984706D01*
X25911500Y41835294D01*
X25914324Y41821099D01*
X25940647Y41688758D01*
X25940649Y41688754D01*
X25997824Y41550718D01*
X25997826Y41550715D01*
X26080831Y41426489D01*
X26080832Y41426488D01*
X26080835Y41426484D01*
X26186484Y41320835D01*
X26186487Y41320833D01*
X26186488Y41320832D01*
X26310714Y41237827D01*
X26310717Y41237825D01*
X26353783Y41219987D01*
X26448754Y41180649D01*
X26448755Y41180649D01*
X26448757Y41180648D01*
X26522522Y41165976D01*
X26595294Y41151500D01*
X26595296Y41151500D01*
X26744704Y41151500D01*
X26744706Y41151500D01*
X26841515Y41170757D01*
X26891242Y41180648D01*
X26891242Y41180649D01*
X26891246Y41180649D01*
X27029284Y41237826D01*
X27153516Y41320835D01*
X27259165Y41426484D01*
X27342174Y41550716D01*
X27399351Y41688754D01*
X27428500Y41835294D01*
X27428500Y41984706D01*
X28451500Y41984706D01*
X28451500Y41835294D01*
X28454324Y41821099D01*
X28480647Y41688758D01*
X28480649Y41688754D01*
X28537824Y41550718D01*
X28537826Y41550715D01*
X28620831Y41426489D01*
X28620832Y41426488D01*
X28620835Y41426484D01*
X28726484Y41320835D01*
X28726487Y41320833D01*
X28726488Y41320832D01*
X28850714Y41237827D01*
X28850717Y41237825D01*
X28893783Y41219987D01*
X28988754Y41180649D01*
X28988755Y41180649D01*
X28988757Y41180648D01*
X29062522Y41165976D01*
X29135294Y41151500D01*
X29135296Y41151500D01*
X29284704Y41151500D01*
X29284706Y41151500D01*
X29381515Y41170757D01*
X29431242Y41180648D01*
X29431242Y41180649D01*
X29431246Y41180649D01*
X29569284Y41237826D01*
X29693516Y41320835D01*
X29799165Y41426484D01*
X29882174Y41550716D01*
X29939351Y41688754D01*
X29968500Y41835294D01*
X29968500Y41984706D01*
X30991500Y41984706D01*
X30991500Y41835294D01*
X30994324Y41821099D01*
X31020647Y41688758D01*
X31020649Y41688754D01*
X31077824Y41550718D01*
X31077826Y41550715D01*
X31160831Y41426489D01*
X31160832Y41426488D01*
X31160835Y41426484D01*
X31266484Y41320835D01*
X31266487Y41320833D01*
X31266488Y41320832D01*
X31390714Y41237827D01*
X31390717Y41237825D01*
X31433783Y41219987D01*
X31528754Y41180649D01*
X31528755Y41180649D01*
X31528757Y41180648D01*
X31602522Y41165976D01*
X31675294Y41151500D01*
X31675296Y41151500D01*
X31824704Y41151500D01*
X31824706Y41151500D01*
X31921515Y41170757D01*
X31971242Y41180648D01*
X31971242Y41180649D01*
X31971246Y41180649D01*
X32109284Y41237826D01*
X32233516Y41320835D01*
X32339165Y41426484D01*
X32422174Y41550716D01*
X32479351Y41688754D01*
X32508500Y41835294D01*
X32508500Y41984706D01*
X33531500Y41984706D01*
X33531500Y41835294D01*
X33534324Y41821099D01*
X33560647Y41688758D01*
X33560649Y41688754D01*
X33617824Y41550718D01*
X33617826Y41550715D01*
X33700831Y41426489D01*
X33700832Y41426488D01*
X33700835Y41426484D01*
X33806484Y41320835D01*
X33806487Y41320833D01*
X33806488Y41320832D01*
X33930714Y41237827D01*
X33930717Y41237825D01*
X33973783Y41219987D01*
X34068754Y41180649D01*
X34068755Y41180649D01*
X34068757Y41180648D01*
X34142522Y41165976D01*
X34215294Y41151500D01*
X34215296Y41151500D01*
X34364704Y41151500D01*
X34364706Y41151500D01*
X34461515Y41170757D01*
X34511242Y41180648D01*
X34511242Y41180649D01*
X34511246Y41180649D01*
X34649284Y41237826D01*
X34773516Y41320835D01*
X34879165Y41426484D01*
X34962174Y41550716D01*
X35019351Y41688754D01*
X35048500Y41835294D01*
X35048500Y41984706D01*
X35019351Y42131246D01*
X34981793Y42221920D01*
X34962175Y42269283D01*
X34962173Y42269286D01*
X34879168Y42393512D01*
X34879167Y42393513D01*
X34879165Y42393516D01*
X34773516Y42499165D01*
X34773512Y42499168D01*
X34773511Y42499169D01*
X34649285Y42582174D01*
X34649282Y42582176D01*
X34511246Y42639351D01*
X34511242Y42639353D01*
X34401090Y42661263D01*
X34364706Y42668500D01*
X34215294Y42668500D01*
X34182927Y42662062D01*
X34068757Y42639353D01*
X34068753Y42639351D01*
X33930717Y42582176D01*
X33930714Y42582174D01*
X33806488Y42499169D01*
X33700831Y42393512D01*
X33617826Y42269286D01*
X33617824Y42269283D01*
X33560649Y42131247D01*
X33560647Y42131243D01*
X33535118Y42002899D01*
X33531500Y41984706D01*
X32508500Y41984706D01*
X32479351Y42131246D01*
X32441793Y42221920D01*
X32422175Y42269283D01*
X32422173Y42269286D01*
X32339168Y42393512D01*
X32339167Y42393513D01*
X32339165Y42393516D01*
X32233516Y42499165D01*
X32233512Y42499168D01*
X32233511Y42499169D01*
X32109285Y42582174D01*
X32109282Y42582176D01*
X31971246Y42639351D01*
X31971242Y42639353D01*
X31861090Y42661263D01*
X31824706Y42668500D01*
X31675294Y42668500D01*
X31642927Y42662062D01*
X31528757Y42639353D01*
X31528753Y42639351D01*
X31390717Y42582176D01*
X31390714Y42582174D01*
X31266488Y42499169D01*
X31160831Y42393512D01*
X31077826Y42269286D01*
X31077824Y42269283D01*
X31020649Y42131247D01*
X31020647Y42131243D01*
X30995118Y42002899D01*
X30991500Y41984706D01*
X29968500Y41984706D01*
X29939351Y42131246D01*
X29901793Y42221920D01*
X29882175Y42269283D01*
X29882173Y42269286D01*
X29799168Y42393512D01*
X29799167Y42393513D01*
X29799165Y42393516D01*
X29693516Y42499165D01*
X29693512Y42499168D01*
X29693511Y42499169D01*
X29569285Y42582174D01*
X29569282Y42582176D01*
X29431246Y42639351D01*
X29431242Y42639353D01*
X29321090Y42661263D01*
X29284706Y42668500D01*
X29135294Y42668500D01*
X29102927Y42662062D01*
X28988757Y42639353D01*
X28988753Y42639351D01*
X28850717Y42582176D01*
X28850714Y42582174D01*
X28726488Y42499169D01*
X28620831Y42393512D01*
X28537826Y42269286D01*
X28537824Y42269283D01*
X28480649Y42131247D01*
X28480647Y42131243D01*
X28455118Y42002899D01*
X28451500Y41984706D01*
X27428500Y41984706D01*
X27399351Y42131246D01*
X27361793Y42221920D01*
X27342175Y42269283D01*
X27342173Y42269286D01*
X27259168Y42393512D01*
X27259167Y42393513D01*
X27259165Y42393516D01*
X27153516Y42499165D01*
X27153512Y42499168D01*
X27153511Y42499169D01*
X27029285Y42582174D01*
X27029282Y42582176D01*
X26891246Y42639351D01*
X26891242Y42639353D01*
X26781090Y42661263D01*
X26744706Y42668500D01*
X26595294Y42668500D01*
X26562927Y42662062D01*
X26448757Y42639353D01*
X26448753Y42639351D01*
X26310717Y42582176D01*
X26310714Y42582174D01*
X26186488Y42499169D01*
X26080831Y42393512D01*
X25997826Y42269286D01*
X25997824Y42269283D01*
X25940649Y42131247D01*
X25940647Y42131243D01*
X25915118Y42002899D01*
X25911500Y41984706D01*
X24888500Y41984706D01*
X24859351Y42131246D01*
X24821793Y42221920D01*
X24802175Y42269283D01*
X24802173Y42269286D01*
X24719168Y42393512D01*
X24719167Y42393513D01*
X24719165Y42393516D01*
X24613516Y42499165D01*
X24613512Y42499168D01*
X24613511Y42499169D01*
X24489285Y42582174D01*
X24489282Y42582176D01*
X24351246Y42639351D01*
X24351242Y42639353D01*
X24241090Y42661263D01*
X24204706Y42668500D01*
X24055294Y42668500D01*
X24022927Y42662062D01*
X23908757Y42639353D01*
X23908753Y42639351D01*
X23770717Y42582176D01*
X23770714Y42582174D01*
X23646488Y42499169D01*
X23540831Y42393512D01*
X23457826Y42269286D01*
X23457824Y42269283D01*
X23400649Y42131247D01*
X23400647Y42131243D01*
X23375118Y42002899D01*
X23371500Y41984706D01*
X22348500Y41984706D01*
X22319351Y42131246D01*
X22281793Y42221920D01*
X22262175Y42269283D01*
X22262173Y42269286D01*
X22179168Y42393512D01*
X22179167Y42393513D01*
X22179165Y42393516D01*
X22073516Y42499165D01*
X22073512Y42499168D01*
X22073511Y42499169D01*
X21949285Y42582174D01*
X21949282Y42582176D01*
X21811246Y42639351D01*
X21811242Y42639353D01*
X21701090Y42661263D01*
X21664706Y42668500D01*
X21515294Y42668500D01*
X21482927Y42662062D01*
X21368757Y42639353D01*
X21368753Y42639351D01*
X21230717Y42582176D01*
X21230714Y42582174D01*
X21106488Y42499169D01*
X21000831Y42393512D01*
X20917826Y42269286D01*
X20917824Y42269283D01*
X20860649Y42131247D01*
X20860647Y42131243D01*
X20835118Y42002899D01*
X20831500Y41984706D01*
X19555903Y41984706D01*
X19552100Y41998900D01*
X20192999Y41998900D01*
X20193000Y41998901D01*
X20193000Y41999955D01*
X20164855Y42177652D01*
X20109261Y42348754D01*
X20027580Y42509064D01*
X19921830Y42654615D01*
X19794614Y42781831D01*
X19649062Y42887581D01*
X19646115Y42889387D01*
X19647147Y42891072D01*
X19610608Y42930256D01*
X19607462Y42990301D01*
X19643648Y43038320D01*
X19691521Y43052500D01*
X42964600Y43052500D01*
X43021101Y43031935D01*
X43051165Y42979864D01*
X43052500Y42964600D01*
X43052500Y31503764D01*
X43031935Y31447263D01*
X42979864Y31417199D01*
X42920650Y31427640D01*
X42902449Y31441606D01*
X42841999Y31502056D01*
X42731701Y31565737D01*
X42731700Y31565738D01*
X42731699Y31565738D01*
X42608680Y31598700D01*
X42481320Y31598700D01*
X42358300Y31565738D01*
X42248003Y31502058D01*
X42157942Y31411997D01*
X42094262Y31301700D01*
X42079284Y31245799D01*
X42061300Y31178680D01*
X42061300Y31051320D01*
X42073364Y31006294D01*
X42088769Y30948800D01*
X42094263Y30928299D01*
X42157944Y30818001D01*
X42248001Y30727944D01*
X42358299Y30664263D01*
X42481320Y30631300D01*
X42608679Y30631300D01*
X42608680Y30631300D01*
X42731701Y30664263D01*
X42841999Y30727944D01*
X42902446Y30788392D01*
X42956939Y30813802D01*
X43015017Y30798239D01*
X43049505Y30748986D01*
X43052500Y30726236D01*
X43052500Y23566264D01*
X43031935Y23509763D01*
X42979864Y23479699D01*
X42920650Y23490140D01*
X42902449Y23504106D01*
X42841999Y23564556D01*
X42731701Y23628237D01*
X42731700Y23628238D01*
X42731699Y23628238D01*
X42608680Y23661200D01*
X42481320Y23661200D01*
X42358300Y23628238D01*
X42248003Y23564558D01*
X42157942Y23474497D01*
X42094262Y23364200D01*
X42079284Y23308299D01*
X42061300Y23241180D01*
X42061300Y23113820D01*
X42062875Y23107943D01*
X42088769Y23011300D01*
X42094263Y22990799D01*
X42157944Y22880501D01*
X42248001Y22790444D01*
X42358299Y22726763D01*
X42481320Y22693800D01*
X42608679Y22693800D01*
X42608680Y22693800D01*
X42731701Y22726763D01*
X42841999Y22790444D01*
X42902446Y22850892D01*
X42956939Y22876302D01*
X43015017Y22860739D01*
X43049505Y22811486D01*
X43052500Y22788736D01*
X43052500Y15946264D01*
X43031935Y15889763D01*
X42979864Y15859699D01*
X42920650Y15870140D01*
X42902449Y15884106D01*
X42841999Y15944556D01*
X42819361Y15957626D01*
X42739585Y16003685D01*
X42731701Y16008237D01*
X42731700Y16008238D01*
X42731699Y16008238D01*
X42608680Y16041200D01*
X42481320Y16041200D01*
X42358300Y16008238D01*
X42248003Y15944558D01*
X42157942Y15854497D01*
X42094262Y15744200D01*
X42064655Y15633700D01*
X42061300Y15621180D01*
X42061300Y15493820D01*
X42062875Y15487943D01*
X42093609Y15373237D01*
X42094263Y15370799D01*
X42157944Y15260501D01*
X42248001Y15170444D01*
X42358299Y15106763D01*
X42481320Y15073800D01*
X42608679Y15073800D01*
X42608680Y15073800D01*
X42731701Y15106763D01*
X42841999Y15170444D01*
X42902446Y15230892D01*
X42956939Y15256302D01*
X43015017Y15240739D01*
X43049505Y15191486D01*
X43052500Y15168736D01*
X43052500Y14206264D01*
X43031935Y14149763D01*
X42979864Y14119699D01*
X42920650Y14130140D01*
X42902449Y14144106D01*
X42841999Y14204556D01*
X42818810Y14217944D01*
X42731699Y14268238D01*
X42608680Y14301200D01*
X42481320Y14301200D01*
X42358300Y14268238D01*
X42248003Y14204558D01*
X42157942Y14114497D01*
X42094262Y14004200D01*
X42079605Y13949497D01*
X42061300Y13881180D01*
X42061300Y13753820D01*
X42073364Y13708794D01*
X42094262Y13630801D01*
X42157251Y13521700D01*
X42157944Y13520501D01*
X42248001Y13430444D01*
X42358299Y13366763D01*
X42481320Y13333800D01*
X42608679Y13333800D01*
X42608680Y13333800D01*
X42731701Y13366763D01*
X42841999Y13430444D01*
X42902446Y13490892D01*
X42956939Y13516302D01*
X43015017Y13500739D01*
X43049505Y13451486D01*
X43052500Y13428736D01*
X43052500Y12771264D01*
X43031935Y12714763D01*
X42979864Y12684699D01*
X42920650Y12695140D01*
X42902449Y12709106D01*
X42841999Y12769556D01*
X42731701Y12833237D01*
X42731700Y12833238D01*
X42731699Y12833238D01*
X42608680Y12866200D01*
X42481320Y12866200D01*
X42358300Y12833238D01*
X42248003Y12769558D01*
X42157942Y12679497D01*
X42094262Y12569200D01*
X42079284Y12513299D01*
X42061300Y12446180D01*
X42061300Y12318820D01*
X42062875Y12312943D01*
X42093609Y12198237D01*
X42094263Y12195799D01*
X42157944Y12085501D01*
X42248001Y11995444D01*
X42358299Y11931763D01*
X42481320Y11898800D01*
X42608679Y11898800D01*
X42608680Y11898800D01*
X42731701Y11931763D01*
X42841999Y11995444D01*
X42902446Y12055892D01*
X42956939Y12081302D01*
X43015017Y12065739D01*
X43049505Y12016486D01*
X43052500Y11993736D01*
X43052500Y215400D01*
X43031935Y158899D01*
X42979864Y128835D01*
X42964600Y127500D01*
X29852571Y127500D01*
X29796070Y148065D01*
X29766006Y200136D01*
X29776447Y259350D01*
X29806630Y290339D01*
X29809318Y291987D01*
X29809319Y291989D01*
X29809325Y291991D01*
X29954940Y397787D01*
X30082213Y525060D01*
X30188009Y670675D01*
X30269723Y831048D01*
X30325343Y1002230D01*
X30353500Y1180005D01*
X30353500Y1344706D01*
X30991500Y1344706D01*
X30991500Y1195294D01*
X30994324Y1181099D01*
X31020647Y1048758D01*
X31020649Y1048754D01*
X31077824Y910718D01*
X31077826Y910715D01*
X31160831Y786489D01*
X31160832Y786488D01*
X31160835Y786484D01*
X31266484Y680835D01*
X31266487Y680833D01*
X31266488Y680832D01*
X31390714Y597827D01*
X31390717Y597825D01*
X31459735Y569238D01*
X31528754Y540649D01*
X31528755Y540649D01*
X31528757Y540648D01*
X31602522Y525976D01*
X31675294Y511500D01*
X31675296Y511500D01*
X31824704Y511500D01*
X31824706Y511500D01*
X31921515Y530757D01*
X31971242Y540648D01*
X31971242Y540649D01*
X31971246Y540649D01*
X32109284Y597826D01*
X32233516Y680835D01*
X32339165Y786484D01*
X32422174Y910716D01*
X32479351Y1048754D01*
X32508500Y1195294D01*
X32508500Y1344706D01*
X33531500Y1344706D01*
X33531500Y1195294D01*
X33534324Y1181099D01*
X33560647Y1048758D01*
X33560649Y1048754D01*
X33617824Y910718D01*
X33617826Y910715D01*
X33700831Y786489D01*
X33700832Y786488D01*
X33700835Y786484D01*
X33806484Y680835D01*
X33806487Y680833D01*
X33806488Y680832D01*
X33930714Y597827D01*
X33930717Y597825D01*
X33999735Y569238D01*
X34068754Y540649D01*
X34068755Y540649D01*
X34068757Y540648D01*
X34142522Y525976D01*
X34215294Y511500D01*
X34215296Y511500D01*
X34364704Y511500D01*
X34364706Y511500D01*
X34461515Y530757D01*
X34511242Y540648D01*
X34511242Y540649D01*
X34511246Y540649D01*
X34649284Y597826D01*
X34773516Y680835D01*
X34879165Y786484D01*
X34962174Y910716D01*
X35019351Y1048754D01*
X35048500Y1195294D01*
X35048500Y1344706D01*
X36071500Y1344706D01*
X36071500Y1195294D01*
X36074324Y1181099D01*
X36100647Y1048758D01*
X36100649Y1048754D01*
X36157824Y910718D01*
X36157826Y910715D01*
X36240831Y786489D01*
X36240832Y786488D01*
X36240835Y786484D01*
X36346484Y680835D01*
X36346487Y680833D01*
X36346488Y680832D01*
X36470714Y597827D01*
X36470717Y597825D01*
X36539735Y569238D01*
X36608754Y540649D01*
X36608755Y540649D01*
X36608757Y540648D01*
X36682522Y525976D01*
X36755294Y511500D01*
X36755296Y511500D01*
X36904704Y511500D01*
X36904706Y511500D01*
X37001515Y530757D01*
X37051242Y540648D01*
X37051242Y540649D01*
X37051246Y540649D01*
X37189284Y597826D01*
X37313516Y680835D01*
X37419165Y786484D01*
X37502174Y910716D01*
X37559351Y1048754D01*
X37588500Y1195294D01*
X37588500Y1344706D01*
X37559351Y1491246D01*
X37521793Y1581920D01*
X37502175Y1629283D01*
X37502173Y1629286D01*
X37419168Y1753512D01*
X37419167Y1753513D01*
X37419165Y1753516D01*
X37313516Y1859165D01*
X37313512Y1859168D01*
X37313511Y1859169D01*
X37189285Y1942174D01*
X37189282Y1942176D01*
X37051246Y1999351D01*
X37051242Y1999353D01*
X36941090Y2021263D01*
X36904706Y2028500D01*
X36755294Y2028500D01*
X36722927Y2022062D01*
X36608757Y1999353D01*
X36608753Y1999351D01*
X36470717Y1942176D01*
X36470714Y1942174D01*
X36346488Y1859169D01*
X36240831Y1753512D01*
X36157826Y1629286D01*
X36157824Y1629283D01*
X36100649Y1491247D01*
X36100647Y1491243D01*
X36075118Y1362899D01*
X36071500Y1344706D01*
X35048500Y1344706D01*
X35019351Y1491246D01*
X34981793Y1581920D01*
X34962175Y1629283D01*
X34962173Y1629286D01*
X34879168Y1753512D01*
X34879167Y1753513D01*
X34879165Y1753516D01*
X34773516Y1859165D01*
X34773512Y1859168D01*
X34773511Y1859169D01*
X34649285Y1942174D01*
X34649282Y1942176D01*
X34511246Y1999351D01*
X34511242Y1999353D01*
X34401090Y2021263D01*
X34364706Y2028500D01*
X34215294Y2028500D01*
X34182927Y2022062D01*
X34068757Y1999353D01*
X34068753Y1999351D01*
X33930717Y1942176D01*
X33930714Y1942174D01*
X33806488Y1859169D01*
X33700831Y1753512D01*
X33617826Y1629286D01*
X33617824Y1629283D01*
X33560649Y1491247D01*
X33560647Y1491243D01*
X33535118Y1362899D01*
X33531500Y1344706D01*
X32508500Y1344706D01*
X32479351Y1491246D01*
X32441793Y1581920D01*
X32422175Y1629283D01*
X32422173Y1629286D01*
X32339168Y1753512D01*
X32339167Y1753513D01*
X32339165Y1753516D01*
X32233516Y1859165D01*
X32233512Y1859168D01*
X32233511Y1859169D01*
X32109285Y1942174D01*
X32109282Y1942176D01*
X31971246Y1999351D01*
X31971242Y1999353D01*
X31861090Y2021263D01*
X31824706Y2028500D01*
X31675294Y2028500D01*
X31642927Y2022062D01*
X31528757Y1999353D01*
X31528753Y1999351D01*
X31390717Y1942176D01*
X31390714Y1942174D01*
X31266488Y1859169D01*
X31160831Y1753512D01*
X31077826Y1629286D01*
X31077824Y1629283D01*
X31020649Y1491247D01*
X31020647Y1491243D01*
X30995118Y1362899D01*
X30991500Y1344706D01*
X30353500Y1344706D01*
X30353500Y1359995D01*
X30325343Y1537770D01*
X30269723Y1708952D01*
X30188009Y1869325D01*
X30082213Y2014940D01*
X29954940Y2142213D01*
X29809325Y2248009D01*
X29809323Y2248010D01*
X29809319Y2248013D01*
X29706558Y2300372D01*
X29648952Y2329723D01*
X29648949Y2329724D01*
X29648950Y2329724D01*
X29563337Y2357542D01*
X29515956Y2394561D01*
X29502600Y2441140D01*
X29502600Y2658013D01*
X38839500Y2658013D01*
X38839500Y2421988D01*
X38851647Y2329724D01*
X38870307Y2187986D01*
X38931394Y1960007D01*
X38938780Y1942176D01*
X39021713Y1741957D01*
X39021714Y1741955D01*
X39021716Y1741951D01*
X39059503Y1676502D01*
X39139728Y1537548D01*
X39194567Y1466081D01*
X39283408Y1350301D01*
X39450301Y1183408D01*
X39454735Y1180006D01*
X39625785Y1048754D01*
X39637550Y1039727D01*
X39841951Y921716D01*
X40060007Y831394D01*
X40287986Y770307D01*
X40467541Y746669D01*
X40521987Y739500D01*
X40521989Y739500D01*
X40758013Y739500D01*
X40806784Y745922D01*
X40992014Y770307D01*
X41219993Y831394D01*
X41438049Y921716D01*
X41642450Y1039727D01*
X41829699Y1183408D01*
X41996592Y1350301D01*
X42140273Y1537550D01*
X42258284Y1741951D01*
X42348606Y1960007D01*
X42409693Y2187986D01*
X42436915Y2394766D01*
X42440500Y2421988D01*
X42440500Y2658013D01*
X42423394Y2787944D01*
X42409693Y2892014D01*
X42348606Y3119993D01*
X42258284Y3338049D01*
X42140273Y3542450D01*
X42125227Y3562058D01*
X41996594Y3729696D01*
X41996592Y3729699D01*
X41829699Y3896592D01*
X41699236Y3996700D01*
X41642452Y4040272D01*
X41574316Y4079610D01*
X41438049Y4158284D01*
X41438047Y4158285D01*
X41438045Y4158286D01*
X41438043Y4158287D01*
X41336059Y4200530D01*
X41219993Y4248606D01*
X41174716Y4260738D01*
X40992026Y4309690D01*
X40992014Y4309693D01*
X40758013Y4340500D01*
X40758011Y4340500D01*
X40521989Y4340500D01*
X40521987Y4340500D01*
X40287985Y4309693D01*
X40287973Y4309690D01*
X40060013Y4248608D01*
X40060009Y4248607D01*
X40060007Y4248606D01*
X40060005Y4248605D01*
X39841956Y4158287D01*
X39841954Y4158286D01*
X39637547Y4040272D01*
X39450304Y3896595D01*
X39283405Y3729696D01*
X39139728Y3542453D01*
X39021714Y3338046D01*
X39021713Y3338044D01*
X38931395Y3119995D01*
X38931392Y3119987D01*
X38870310Y2892027D01*
X38870307Y2892015D01*
X38839500Y2658013D01*
X29502600Y2658013D01*
X29502600Y6147295D01*
X30364915Y6147295D01*
X30364915Y6019935D01*
X30367042Y6011997D01*
X30396595Y5901700D01*
X30397878Y5896914D01*
X30461559Y5786616D01*
X30551616Y5696559D01*
X30661914Y5632878D01*
X30784935Y5599915D01*
X30912294Y5599915D01*
X30912295Y5599915D01*
X31035316Y5632878D01*
X31035318Y5632879D01*
X31140427Y5693564D01*
X31199640Y5704006D01*
X31251712Y5673942D01*
X31269282Y5640191D01*
X31298609Y5530737D01*
X31299263Y5528299D01*
X31362944Y5418001D01*
X31453001Y5327944D01*
X31563299Y5264263D01*
X31686320Y5231300D01*
X31813679Y5231300D01*
X31813680Y5231300D01*
X31936701Y5264263D01*
X32046999Y5327944D01*
X32137056Y5418001D01*
X32200737Y5528299D01*
X32233700Y5651320D01*
X32233700Y5778680D01*
X32200737Y5901701D01*
X32137056Y6011999D01*
X32046999Y6102056D01*
X31936701Y6165737D01*
X31936700Y6165738D01*
X31936699Y6165738D01*
X31813680Y6198700D01*
X31686320Y6198700D01*
X31563300Y6165738D01*
X31458187Y6105051D01*
X31398973Y6094610D01*
X31346901Y6124674D01*
X31329332Y6158426D01*
X31299352Y6270316D01*
X31235671Y6380614D01*
X31145614Y6470671D01*
X31128068Y6480801D01*
X31035314Y6534353D01*
X30912295Y6567315D01*
X30784935Y6567315D01*
X30661915Y6534353D01*
X30551618Y6470673D01*
X30461557Y6380612D01*
X30397877Y6270315D01*
X30364915Y6147295D01*
X29502600Y6147295D01*
X29502600Y7779892D01*
X29523165Y7836393D01*
X29528334Y7842036D01*
X30701853Y9015556D01*
X30756347Y9040966D01*
X30764008Y9041300D01*
X30861179Y9041300D01*
X30861180Y9041300D01*
X30984201Y9074263D01*
X31094499Y9137944D01*
X31184556Y9228001D01*
X31248237Y9338299D01*
X31281200Y9461320D01*
X31281200Y9588680D01*
X31248237Y9711701D01*
X31184556Y9821999D01*
X31100375Y9906180D01*
X32536300Y9906180D01*
X32536300Y9778820D01*
X32548246Y9734235D01*
X32563769Y9676300D01*
X32569263Y9655799D01*
X32632944Y9545501D01*
X32723001Y9455444D01*
X32833299Y9391763D01*
X32956320Y9358800D01*
X33083679Y9358800D01*
X33083680Y9358800D01*
X33206701Y9391763D01*
X33316999Y9455444D01*
X33407056Y9545501D01*
X33431986Y9588680D01*
X33806300Y9588680D01*
X33806300Y9461320D01*
X33807875Y9455443D01*
X33836265Y9349485D01*
X33839263Y9338299D01*
X33862571Y9297928D01*
X33876548Y9273719D01*
X33902944Y9228001D01*
X33993001Y9137944D01*
X34103299Y9074263D01*
X34226320Y9041300D01*
X34353679Y9041300D01*
X34353680Y9041300D01*
X34476701Y9074263D01*
X34586999Y9137944D01*
X34677056Y9228001D01*
X34740737Y9338299D01*
X34773700Y9461320D01*
X34773700Y9588680D01*
X34740737Y9711701D01*
X34677056Y9821999D01*
X34586999Y9912056D01*
X34476701Y9975737D01*
X34476700Y9975738D01*
X34476699Y9975738D01*
X34353680Y10008700D01*
X34226320Y10008700D01*
X34103300Y9975738D01*
X33993003Y9912058D01*
X33902942Y9821997D01*
X33839262Y9711700D01*
X33824276Y9655769D01*
X33806300Y9588680D01*
X33431986Y9588680D01*
X33470737Y9655799D01*
X33503700Y9778820D01*
X33503700Y9906180D01*
X33470737Y10029201D01*
X33407056Y10139499D01*
X33316999Y10229556D01*
X33206701Y10293237D01*
X33206700Y10293238D01*
X33206699Y10293238D01*
X33083680Y10326200D01*
X32956320Y10326200D01*
X32833300Y10293238D01*
X32723003Y10229558D01*
X32632942Y10139497D01*
X32569262Y10029200D01*
X32537875Y9912058D01*
X32536300Y9906180D01*
X31100375Y9906180D01*
X31094499Y9912056D01*
X30984201Y9975737D01*
X30984200Y9975738D01*
X30984199Y9975738D01*
X30861180Y10008700D01*
X30733820Y10008700D01*
X30610800Y9975738D01*
X30500503Y9912058D01*
X30410442Y9821997D01*
X30346762Y9711700D01*
X30313800Y9588680D01*
X30313800Y9491510D01*
X30293235Y9435009D01*
X30288055Y9429355D01*
X28975861Y8117161D01*
X28937339Y8050439D01*
X28917400Y7976022D01*
X28917400Y2441140D01*
X28896835Y2384639D01*
X28856663Y2357542D01*
X28771049Y2329724D01*
X28610680Y2248013D01*
X28465059Y2142213D01*
X28337787Y2014941D01*
X28231987Y1869320D01*
X28150276Y1708950D01*
X28150275Y1708948D01*
X28094656Y1537768D01*
X28066500Y1359995D01*
X28066500Y1180006D01*
X28094656Y1002233D01*
X28150164Y831394D01*
X28150277Y831048D01*
X28179628Y773442D01*
X28231987Y670681D01*
X28231990Y670677D01*
X28231991Y670675D01*
X28284919Y597826D01*
X28337787Y525060D01*
X28465059Y397788D01*
X28610681Y291987D01*
X28613370Y290339D01*
X28650792Y243276D01*
X28649207Y183170D01*
X28609357Y138144D01*
X28567429Y127500D01*
X17151521Y127500D01*
X17095020Y148065D01*
X17064956Y200136D01*
X17075397Y259350D01*
X17106933Y289278D01*
X17106115Y290613D01*
X17109062Y292420D01*
X17254614Y398170D01*
X17381830Y525386D01*
X17487580Y670937D01*
X17569261Y831247D01*
X17624855Y1002349D01*
X17653000Y1180046D01*
X17653000Y1181099D01*
X17652999Y1181100D01*
X17012100Y1181100D01*
X17018000Y1203120D01*
X17018000Y1336880D01*
X17015903Y1344706D01*
X18291500Y1344706D01*
X18291500Y1195294D01*
X18294324Y1181099D01*
X18320647Y1048758D01*
X18320649Y1048754D01*
X18377824Y910718D01*
X18377826Y910715D01*
X18460831Y786489D01*
X18460832Y786488D01*
X18460835Y786484D01*
X18566484Y680835D01*
X18566487Y680833D01*
X18566488Y680832D01*
X18690714Y597827D01*
X18690717Y597825D01*
X18759735Y569238D01*
X18828754Y540649D01*
X18828755Y540649D01*
X18828757Y540648D01*
X18902522Y525976D01*
X18975294Y511500D01*
X18975296Y511500D01*
X19124704Y511500D01*
X19124706Y511500D01*
X19221515Y530757D01*
X19271242Y540648D01*
X19271242Y540649D01*
X19271246Y540649D01*
X19409284Y597826D01*
X19533516Y680835D01*
X19639165Y786484D01*
X19722174Y910716D01*
X19779351Y1048754D01*
X19808500Y1195294D01*
X19808500Y1344706D01*
X20831500Y1344706D01*
X20831500Y1195294D01*
X20834324Y1181099D01*
X20860647Y1048758D01*
X20860649Y1048754D01*
X20917824Y910718D01*
X20917826Y910715D01*
X21000831Y786489D01*
X21000832Y786488D01*
X21000835Y786484D01*
X21106484Y680835D01*
X21106487Y680833D01*
X21106488Y680832D01*
X21230714Y597827D01*
X21230717Y597825D01*
X21299735Y569238D01*
X21368754Y540649D01*
X21368755Y540649D01*
X21368757Y540648D01*
X21442522Y525976D01*
X21515294Y511500D01*
X21515296Y511500D01*
X21664704Y511500D01*
X21664706Y511500D01*
X21761515Y530757D01*
X21811242Y540648D01*
X21811242Y540649D01*
X21811246Y540649D01*
X21949284Y597826D01*
X22073516Y680835D01*
X22179165Y786484D01*
X22262174Y910716D01*
X22319351Y1048754D01*
X22348500Y1195294D01*
X22348500Y1344706D01*
X23371500Y1344706D01*
X23371500Y1195294D01*
X23374324Y1181099D01*
X23400647Y1048758D01*
X23400649Y1048754D01*
X23457824Y910718D01*
X23457826Y910715D01*
X23540831Y786489D01*
X23540832Y786488D01*
X23540835Y786484D01*
X23646484Y680835D01*
X23646487Y680833D01*
X23646488Y680832D01*
X23770714Y597827D01*
X23770717Y597825D01*
X23839735Y569238D01*
X23908754Y540649D01*
X23908755Y540649D01*
X23908757Y540648D01*
X23982522Y525976D01*
X24055294Y511500D01*
X24055296Y511500D01*
X24204704Y511500D01*
X24204706Y511500D01*
X24301515Y530757D01*
X24351242Y540648D01*
X24351242Y540649D01*
X24351246Y540649D01*
X24489284Y597826D01*
X24613516Y680835D01*
X24719165Y786484D01*
X24802174Y910716D01*
X24859351Y1048754D01*
X24888500Y1195294D01*
X24888500Y1344706D01*
X25911500Y1344706D01*
X25911500Y1195294D01*
X25914324Y1181099D01*
X25940647Y1048758D01*
X25940649Y1048754D01*
X25997824Y910718D01*
X25997826Y910715D01*
X26080831Y786489D01*
X26080832Y786488D01*
X26080835Y786484D01*
X26186484Y680835D01*
X26186487Y680833D01*
X26186488Y680832D01*
X26310714Y597827D01*
X26310717Y597825D01*
X26379735Y569238D01*
X26448754Y540649D01*
X26448755Y540649D01*
X26448757Y540648D01*
X26522522Y525976D01*
X26595294Y511500D01*
X26595296Y511500D01*
X26744704Y511500D01*
X26744706Y511500D01*
X26841515Y530757D01*
X26891242Y540648D01*
X26891242Y540649D01*
X26891246Y540649D01*
X27029284Y597826D01*
X27153516Y680835D01*
X27259165Y786484D01*
X27342174Y910716D01*
X27399351Y1048754D01*
X27428500Y1195294D01*
X27428500Y1344706D01*
X27399351Y1491246D01*
X27361793Y1581920D01*
X27342175Y1629283D01*
X27342173Y1629286D01*
X27259168Y1753512D01*
X27259167Y1753513D01*
X27259165Y1753516D01*
X27153516Y1859165D01*
X27153512Y1859168D01*
X27153511Y1859169D01*
X27029285Y1942174D01*
X27029282Y1942176D01*
X26891246Y1999351D01*
X26891242Y1999353D01*
X26781090Y2021263D01*
X26744706Y2028500D01*
X26595294Y2028500D01*
X26562927Y2022062D01*
X26448757Y1999353D01*
X26448753Y1999351D01*
X26310717Y1942176D01*
X26310714Y1942174D01*
X26186488Y1859169D01*
X26080831Y1753512D01*
X25997826Y1629286D01*
X25997824Y1629283D01*
X25940649Y1491247D01*
X25940647Y1491243D01*
X25915118Y1362899D01*
X25911500Y1344706D01*
X24888500Y1344706D01*
X24859351Y1491246D01*
X24821793Y1581920D01*
X24802175Y1629283D01*
X24802173Y1629286D01*
X24719168Y1753512D01*
X24719167Y1753513D01*
X24719165Y1753516D01*
X24613516Y1859165D01*
X24613512Y1859168D01*
X24613511Y1859169D01*
X24489285Y1942174D01*
X24489282Y1942176D01*
X24351246Y1999351D01*
X24351242Y1999353D01*
X24241090Y2021263D01*
X24204706Y2028500D01*
X24055294Y2028500D01*
X24022927Y2022062D01*
X23908757Y1999353D01*
X23908753Y1999351D01*
X23770717Y1942176D01*
X23770714Y1942174D01*
X23646488Y1859169D01*
X23540831Y1753512D01*
X23457826Y1629286D01*
X23457824Y1629283D01*
X23400649Y1491247D01*
X23400647Y1491243D01*
X23375118Y1362899D01*
X23371500Y1344706D01*
X22348500Y1344706D01*
X22319351Y1491246D01*
X22281793Y1581920D01*
X22262175Y1629283D01*
X22262173Y1629286D01*
X22179168Y1753512D01*
X22179167Y1753513D01*
X22179165Y1753516D01*
X22073516Y1859165D01*
X22073512Y1859168D01*
X22073511Y1859169D01*
X21949285Y1942174D01*
X21949282Y1942176D01*
X21811246Y1999351D01*
X21811242Y1999353D01*
X21701090Y2021263D01*
X21664706Y2028500D01*
X21515294Y2028500D01*
X21482927Y2022062D01*
X21368757Y1999353D01*
X21368753Y1999351D01*
X21230717Y1942176D01*
X21230714Y1942174D01*
X21106488Y1859169D01*
X21000831Y1753512D01*
X20917826Y1629286D01*
X20917824Y1629283D01*
X20860649Y1491247D01*
X20860647Y1491243D01*
X20835118Y1362899D01*
X20831500Y1344706D01*
X19808500Y1344706D01*
X19779351Y1491246D01*
X19741793Y1581920D01*
X19722175Y1629283D01*
X19722173Y1629286D01*
X19639168Y1753512D01*
X19639167Y1753513D01*
X19639165Y1753516D01*
X19533516Y1859165D01*
X19533512Y1859168D01*
X19533511Y1859169D01*
X19409285Y1942174D01*
X19409282Y1942176D01*
X19271246Y1999351D01*
X19271242Y1999353D01*
X19161090Y2021263D01*
X19124706Y2028500D01*
X18975294Y2028500D01*
X18942927Y2022062D01*
X18828757Y1999353D01*
X18828753Y1999351D01*
X18690717Y1942176D01*
X18690714Y1942174D01*
X18566488Y1859169D01*
X18460831Y1753512D01*
X18377826Y1629286D01*
X18377824Y1629283D01*
X18320649Y1491247D01*
X18320647Y1491243D01*
X18295118Y1362899D01*
X18291500Y1344706D01*
X17015903Y1344706D01*
X17012100Y1358900D01*
X17652999Y1358900D01*
X17653000Y1358901D01*
X17653000Y1359955D01*
X17624855Y1537652D01*
X17569261Y1708754D01*
X17487580Y1869064D01*
X17381830Y2014615D01*
X17254614Y2141831D01*
X17109063Y2247581D01*
X16948753Y2329262D01*
X16777651Y2384856D01*
X16599954Y2413000D01*
X16598901Y2413000D01*
X16598900Y2412999D01*
X16598900Y1772100D01*
X16576880Y1778000D01*
X16443120Y1778000D01*
X16421100Y1772100D01*
X16421100Y2412999D01*
X16421099Y2413000D01*
X16420046Y2413000D01*
X16242348Y2384856D01*
X16071246Y2329262D01*
X15910936Y2247581D01*
X15765385Y2141831D01*
X15638169Y2014615D01*
X15532419Y1869064D01*
X15450738Y1708754D01*
X15395144Y1537652D01*
X15367000Y1359955D01*
X15367000Y1358901D01*
X15367001Y1358900D01*
X16007900Y1358900D01*
X16002000Y1336880D01*
X16002000Y1203120D01*
X16007900Y1181100D01*
X15367001Y1181100D01*
X15367000Y1181099D01*
X15367000Y1180046D01*
X15395144Y1002349D01*
X15450738Y831247D01*
X15532419Y670937D01*
X15638169Y525386D01*
X15765385Y398170D01*
X15910937Y292420D01*
X15913885Y290613D01*
X15912852Y288929D01*
X15949392Y249744D01*
X15952538Y189699D01*
X15916352Y141680D01*
X15868479Y127500D01*
X215400Y127500D01*
X158899Y148065D01*
X128835Y200136D01*
X127500Y215400D01*
X127500Y2658013D01*
X739500Y2658013D01*
X739500Y2421988D01*
X751647Y2329724D01*
X770307Y2187986D01*
X831394Y1960007D01*
X838780Y1942176D01*
X921713Y1741957D01*
X921714Y1741955D01*
X921716Y1741951D01*
X959503Y1676502D01*
X1039728Y1537548D01*
X1094567Y1466081D01*
X1183408Y1350301D01*
X1350301Y1183408D01*
X1354735Y1180006D01*
X1525785Y1048754D01*
X1537550Y1039727D01*
X1741951Y921716D01*
X1960007Y831394D01*
X2187986Y770307D01*
X2367541Y746669D01*
X2421987Y739500D01*
X2421989Y739500D01*
X2658013Y739500D01*
X2706784Y745922D01*
X2892014Y770307D01*
X3119993Y831394D01*
X3338049Y921716D01*
X3542450Y1039727D01*
X3729699Y1183408D01*
X3890997Y1344706D01*
X13211500Y1344706D01*
X13211500Y1195294D01*
X13214324Y1181099D01*
X13240647Y1048758D01*
X13240649Y1048754D01*
X13297824Y910718D01*
X13297826Y910715D01*
X13380831Y786489D01*
X13380832Y786488D01*
X13380835Y786484D01*
X13486484Y680835D01*
X13486487Y680833D01*
X13486488Y680832D01*
X13610714Y597827D01*
X13610717Y597825D01*
X13679735Y569238D01*
X13748754Y540649D01*
X13748755Y540649D01*
X13748757Y540648D01*
X13822522Y525976D01*
X13895294Y511500D01*
X13895296Y511500D01*
X14044704Y511500D01*
X14044706Y511500D01*
X14141515Y530757D01*
X14191242Y540648D01*
X14191242Y540649D01*
X14191246Y540649D01*
X14329284Y597826D01*
X14453516Y680835D01*
X14559165Y786484D01*
X14642174Y910716D01*
X14699351Y1048754D01*
X14728500Y1195294D01*
X14728500Y1344706D01*
X14699351Y1491246D01*
X14661793Y1581920D01*
X14642175Y1629283D01*
X14642173Y1629286D01*
X14559168Y1753512D01*
X14559167Y1753513D01*
X14559165Y1753516D01*
X14453516Y1859165D01*
X14453512Y1859168D01*
X14453511Y1859169D01*
X14329285Y1942174D01*
X14329282Y1942176D01*
X14191246Y1999351D01*
X14191242Y1999353D01*
X14081090Y2021263D01*
X14044706Y2028500D01*
X13895294Y2028500D01*
X13862927Y2022062D01*
X13748757Y1999353D01*
X13748753Y1999351D01*
X13610717Y1942176D01*
X13610714Y1942174D01*
X13486488Y1859169D01*
X13380831Y1753512D01*
X13297826Y1629286D01*
X13297824Y1629283D01*
X13240649Y1491247D01*
X13240647Y1491243D01*
X13215118Y1362899D01*
X13211500Y1344706D01*
X3890997Y1344706D01*
X3896592Y1350301D01*
X4040273Y1537550D01*
X4158284Y1741951D01*
X4248606Y1960007D01*
X4309693Y2187986D01*
X4336915Y2394766D01*
X4340500Y2421988D01*
X4340500Y2658013D01*
X4323394Y2787944D01*
X4309693Y2892014D01*
X4248606Y3119993D01*
X4199444Y3238680D01*
X15391300Y3238680D01*
X15391300Y3111321D01*
X15424262Y2988301D01*
X15479853Y2892014D01*
X15487944Y2878001D01*
X15578001Y2787944D01*
X15688299Y2724263D01*
X15811320Y2691300D01*
X15938679Y2691300D01*
X15938680Y2691300D01*
X16061701Y2724263D01*
X16171999Y2787944D01*
X16262056Y2878001D01*
X16325737Y2988299D01*
X16358700Y3111320D01*
X16358700Y3238400D01*
X16379265Y3294901D01*
X16431336Y3324965D01*
X16446600Y3326300D01*
X16573679Y3326300D01*
X16573680Y3326300D01*
X16696701Y3359263D01*
X16806999Y3422944D01*
X16897056Y3513001D01*
X16960737Y3623299D01*
X16993700Y3746320D01*
X16993700Y3873680D01*
X16960737Y3996701D01*
X16897056Y4106999D01*
X16806999Y4197056D01*
X16696701Y4260737D01*
X16696700Y4260738D01*
X16696699Y4260738D01*
X16573680Y4293700D01*
X16446320Y4293700D01*
X16323300Y4260738D01*
X16213003Y4197058D01*
X16122942Y4106997D01*
X16059262Y3996700D01*
X16026300Y3873680D01*
X16026300Y3746600D01*
X16005735Y3690099D01*
X15953664Y3660035D01*
X15938400Y3658700D01*
X15811320Y3658700D01*
X15688300Y3625738D01*
X15578003Y3562058D01*
X15487942Y3471997D01*
X15424262Y3361700D01*
X15391300Y3238680D01*
X4199444Y3238680D01*
X4158284Y3338049D01*
X4040273Y3542450D01*
X4025227Y3562058D01*
X3896594Y3729696D01*
X3896592Y3729699D01*
X3729699Y3896592D01*
X3599236Y3996700D01*
X3542452Y4040272D01*
X3474316Y4079610D01*
X3338049Y4158284D01*
X3338047Y4158285D01*
X3338045Y4158286D01*
X3338043Y4158287D01*
X3236059Y4200530D01*
X3119993Y4248606D01*
X3074716Y4260738D01*
X2892026Y4309690D01*
X2892014Y4309693D01*
X2658013Y4340500D01*
X2658011Y4340500D01*
X2421989Y4340500D01*
X2421987Y4340500D01*
X2187985Y4309693D01*
X2187973Y4309690D01*
X1960013Y4248608D01*
X1960009Y4248607D01*
X1960007Y4248606D01*
X1960005Y4248605D01*
X1741956Y4158287D01*
X1741954Y4158286D01*
X1537547Y4040272D01*
X1350304Y3896595D01*
X1183405Y3729696D01*
X1039728Y3542453D01*
X921714Y3338046D01*
X921713Y3338044D01*
X831395Y3119995D01*
X831392Y3119987D01*
X770310Y2892027D01*
X770307Y2892015D01*
X739500Y2658013D01*
X127500Y2658013D01*
X127500Y4667430D01*
X17296300Y4667430D01*
X17296300Y4540070D01*
X17329263Y4417049D01*
X17392944Y4306751D01*
X17483001Y4216694D01*
X17593299Y4153013D01*
X17716320Y4120050D01*
X17843679Y4120050D01*
X17843680Y4120050D01*
X17966701Y4153013D01*
X18076999Y4216694D01*
X18167056Y4306751D01*
X18230737Y4417049D01*
X18261310Y4531150D01*
X18295797Y4580403D01*
X18346215Y4596300D01*
X18478679Y4596300D01*
X18478680Y4596300D01*
X18601701Y4629263D01*
X18711999Y4692944D01*
X18802056Y4783001D01*
X18865737Y4893299D01*
X18898700Y5016320D01*
X18898700Y5143680D01*
X18865737Y5266701D01*
X18802056Y5376999D01*
X18711999Y5467056D01*
X18601701Y5530737D01*
X18601700Y5530738D01*
X18601699Y5530738D01*
X18478680Y5563700D01*
X18351320Y5563700D01*
X18228300Y5530738D01*
X18118003Y5467058D01*
X18027942Y5376997D01*
X17964262Y5266700D01*
X17933690Y5152600D01*
X17899203Y5103347D01*
X17848785Y5087450D01*
X17716320Y5087450D01*
X17593300Y5054488D01*
X17483003Y4990808D01*
X17392942Y4900747D01*
X17329262Y4790450D01*
X17303136Y4692944D01*
X17296300Y4667430D01*
X127500Y4667430D01*
X127500Y5461180D01*
X5866300Y5461180D01*
X5866300Y5333820D01*
X5867875Y5327943D01*
X5893769Y5231300D01*
X5899263Y5210799D01*
X5962944Y5100501D01*
X6053001Y5010444D01*
X6163299Y4946763D01*
X6286320Y4913800D01*
X6413679Y4913800D01*
X6413680Y4913800D01*
X6536701Y4946763D01*
X6646999Y5010444D01*
X6737056Y5100501D01*
X6800737Y5210799D01*
X6833700Y5333820D01*
X6833700Y5461180D01*
X6800737Y5584201D01*
X6737056Y5694499D01*
X6646999Y5784556D01*
X6536701Y5848237D01*
X6536700Y5848238D01*
X6536699Y5848238D01*
X6413680Y5881200D01*
X6286320Y5881200D01*
X6163300Y5848238D01*
X6053003Y5784558D01*
X5962942Y5694497D01*
X5899262Y5584200D01*
X5884284Y5528299D01*
X5866300Y5461180D01*
X127500Y5461180D01*
X127500Y6096180D01*
X22376300Y6096180D01*
X22376300Y5968821D01*
X22409262Y5845801D01*
X22443432Y5786616D01*
X22472944Y5735501D01*
X22563001Y5645444D01*
X22673299Y5581763D01*
X22796320Y5548800D01*
X22923679Y5548800D01*
X22923680Y5548800D01*
X23046701Y5581763D01*
X23156999Y5645444D01*
X23247056Y5735501D01*
X23310737Y5845799D01*
X23343700Y5968820D01*
X23343700Y6096180D01*
X23310737Y6219201D01*
X23247056Y6329499D01*
X23156999Y6419556D01*
X23046701Y6483237D01*
X23046700Y6483238D01*
X23046699Y6483238D01*
X22923680Y6516200D01*
X22796320Y6516200D01*
X22673300Y6483238D01*
X22563003Y6419558D01*
X22472942Y6329497D01*
X22409262Y6219200D01*
X22376300Y6096180D01*
X127500Y6096180D01*
X127500Y7048680D01*
X5548800Y7048680D01*
X5548800Y6921321D01*
X5566784Y6854200D01*
X5581763Y6798299D01*
X5645444Y6688001D01*
X5735501Y6597944D01*
X5845799Y6534263D01*
X5968820Y6501300D01*
X6096179Y6501300D01*
X6096180Y6501300D01*
X6219201Y6534263D01*
X6329499Y6597944D01*
X6419556Y6688001D01*
X6483237Y6798299D01*
X6516200Y6921320D01*
X6516200Y7048680D01*
X7136300Y7048680D01*
X7136300Y6921321D01*
X7154284Y6854200D01*
X7169263Y6798299D01*
X7232944Y6688001D01*
X7323001Y6597944D01*
X7433299Y6534263D01*
X7556320Y6501300D01*
X7683679Y6501300D01*
X7683680Y6501300D01*
X7806701Y6534263D01*
X7916999Y6597944D01*
X8007056Y6688001D01*
X8031986Y6731180D01*
X16343800Y6731180D01*
X16343800Y6603820D01*
X16345375Y6597943D01*
X16376109Y6483237D01*
X16376763Y6480799D01*
X16440444Y6370501D01*
X16530501Y6280444D01*
X16640799Y6216763D01*
X16763820Y6183800D01*
X16891180Y6183800D01*
X17014201Y6216763D01*
X17124499Y6280444D01*
X17214556Y6370501D01*
X17278237Y6480799D01*
X17311200Y6603820D01*
X17311200Y6731180D01*
X17278237Y6854201D01*
X17214556Y6964499D01*
X17130375Y7048680D01*
X19836300Y7048680D01*
X19836300Y6921321D01*
X19854284Y6854200D01*
X19869263Y6798299D01*
X19932944Y6688001D01*
X20023001Y6597944D01*
X20133299Y6534263D01*
X20256320Y6501300D01*
X20383679Y6501300D01*
X20383680Y6501300D01*
X20506701Y6534263D01*
X20616999Y6597944D01*
X20707056Y6688001D01*
X20770737Y6798299D01*
X20803700Y6921320D01*
X20803700Y7048680D01*
X20770737Y7171701D01*
X20707056Y7281999D01*
X20616999Y7372056D01*
X20506701Y7435737D01*
X20506700Y7435738D01*
X20506699Y7435738D01*
X20383680Y7468700D01*
X20256320Y7468700D01*
X20133300Y7435738D01*
X20023003Y7372058D01*
X19932942Y7281997D01*
X19869262Y7171700D01*
X19836300Y7048680D01*
X17130375Y7048680D01*
X17124499Y7054556D01*
X17014201Y7118237D01*
X17014200Y7118238D01*
X17014199Y7118238D01*
X16891180Y7151200D01*
X16763820Y7151200D01*
X16640800Y7118238D01*
X16530503Y7054558D01*
X16440442Y6964497D01*
X16376762Y6854200D01*
X16361784Y6798299D01*
X16343800Y6731180D01*
X8031986Y6731180D01*
X8070737Y6798299D01*
X8103700Y6921320D01*
X8103700Y7048680D01*
X8070737Y7171701D01*
X8007056Y7281999D01*
X7916999Y7372056D01*
X7806701Y7435737D01*
X7806700Y7435738D01*
X7806699Y7435738D01*
X7683680Y7468700D01*
X7556320Y7468700D01*
X7433300Y7435738D01*
X7323003Y7372058D01*
X7232942Y7281997D01*
X7169262Y7171700D01*
X7136300Y7048680D01*
X6516200Y7048680D01*
X6483237Y7171701D01*
X6419556Y7281999D01*
X6329499Y7372056D01*
X6219201Y7435737D01*
X6219200Y7435738D01*
X6219199Y7435738D01*
X6096180Y7468700D01*
X5968820Y7468700D01*
X5845800Y7435738D01*
X5735503Y7372058D01*
X5645442Y7281997D01*
X5581762Y7171700D01*
X5548800Y7048680D01*
X127500Y7048680D01*
X127500Y8099002D01*
X148065Y8155503D01*
X200136Y8185567D01*
X259350Y8175126D01*
X296609Y8132639D01*
X331386Y8048679D01*
X331389Y8048672D01*
X408396Y7933422D01*
X408397Y7933421D01*
X408400Y7933417D01*
X506417Y7835400D01*
X506420Y7835398D01*
X506421Y7835397D01*
X621671Y7758390D01*
X621674Y7758388D01*
X685705Y7731866D01*
X749738Y7705343D01*
X749739Y7705343D01*
X749741Y7705342D01*
X818178Y7691730D01*
X885692Y7678300D01*
X885694Y7678300D01*
X1624306Y7678300D01*
X1624308Y7678300D01*
X1714122Y7696166D01*
X1760258Y7705342D01*
X1760258Y7705343D01*
X1760262Y7705343D01*
X1888327Y7758389D01*
X2003583Y7835400D01*
X2101600Y7933417D01*
X2178611Y8048673D01*
X2178614Y8048679D01*
X2206979Y8117160D01*
X2231657Y8176738D01*
X2258700Y8312692D01*
X2258700Y8451307D01*
X4181300Y8451307D01*
X4181300Y8312694D01*
X4208341Y8176742D01*
X4208343Y8176738D01*
X4261387Y8048675D01*
X4261389Y8048672D01*
X4338396Y7933422D01*
X4338397Y7933421D01*
X4338400Y7933417D01*
X4436417Y7835400D01*
X4436420Y7835398D01*
X4436421Y7835397D01*
X4551671Y7758390D01*
X4551674Y7758388D01*
X4615705Y7731866D01*
X4679738Y7705343D01*
X4679739Y7705343D01*
X4679741Y7705342D01*
X4748178Y7691730D01*
X4815692Y7678300D01*
X4815694Y7678300D01*
X6054306Y7678300D01*
X6054308Y7678300D01*
X6144122Y7696166D01*
X6190258Y7705342D01*
X6190258Y7705343D01*
X6190262Y7705343D01*
X6318327Y7758389D01*
X6433583Y7835400D01*
X6531600Y7933417D01*
X6608611Y8048673D01*
X6608614Y8048679D01*
X6636979Y8117160D01*
X6661657Y8176738D01*
X6688700Y8312692D01*
X6688700Y8451308D01*
X6668672Y8551997D01*
X6661658Y8587259D01*
X6661657Y8587261D01*
X6661657Y8587262D01*
X6641395Y8636180D01*
X7136300Y8636180D01*
X7136300Y8508821D01*
X7169262Y8385801D01*
X7211471Y8312692D01*
X7232944Y8275501D01*
X7323001Y8185444D01*
X7433299Y8121763D01*
X7556320Y8088800D01*
X7683679Y8088800D01*
X7683680Y8088800D01*
X7806701Y8121763D01*
X7916999Y8185444D01*
X8007056Y8275501D01*
X8031986Y8318680D01*
X12533800Y8318680D01*
X12533800Y8191320D01*
X12535375Y8185443D01*
X12566762Y8068301D01*
X12620039Y7976022D01*
X12630444Y7958001D01*
X12720501Y7867944D01*
X12830799Y7804263D01*
X12953820Y7771300D01*
X13081179Y7771300D01*
X13081180Y7771300D01*
X13204201Y7804263D01*
X13314499Y7867944D01*
X13404556Y7958001D01*
X13429486Y8001180D01*
X16343800Y8001180D01*
X16343800Y7873820D01*
X16354095Y7835397D01*
X16376762Y7750801D01*
X16418620Y7678300D01*
X16440444Y7640501D01*
X16530501Y7550444D01*
X16640799Y7486763D01*
X16763820Y7453800D01*
X16891179Y7453800D01*
X16891180Y7453800D01*
X17014201Y7486763D01*
X17124499Y7550444D01*
X17214556Y7640501D01*
X17278237Y7750799D01*
X17311200Y7873820D01*
X17311200Y8001180D01*
X17278237Y8124201D01*
X17214556Y8234499D01*
X17124499Y8324556D01*
X17014201Y8388237D01*
X17014200Y8388238D01*
X17014199Y8388238D01*
X16891180Y8421200D01*
X16763820Y8421200D01*
X16640800Y8388238D01*
X16530503Y8324558D01*
X16440442Y8234497D01*
X16376762Y8124200D01*
X16356525Y8048672D01*
X16343800Y8001180D01*
X13429486Y8001180D01*
X13468237Y8068299D01*
X13501200Y8191320D01*
X13501200Y8318680D01*
X13468237Y8441701D01*
X13404556Y8551999D01*
X13320375Y8636180D01*
X22693800Y8636180D01*
X22693800Y8508821D01*
X22726762Y8385801D01*
X22768971Y8312692D01*
X22790444Y8275501D01*
X22880501Y8185444D01*
X22990799Y8121763D01*
X23113820Y8088800D01*
X23241179Y8088800D01*
X23241180Y8088800D01*
X23364201Y8121763D01*
X23474499Y8185444D01*
X23564556Y8275501D01*
X23628237Y8385799D01*
X23661200Y8508820D01*
X23661200Y8636180D01*
X23963800Y8636180D01*
X23963800Y8508821D01*
X23996762Y8385801D01*
X24038971Y8312692D01*
X24060444Y8275501D01*
X24150501Y8185444D01*
X24260799Y8121763D01*
X24383820Y8088800D01*
X24511179Y8088800D01*
X24511180Y8088800D01*
X24634201Y8121763D01*
X24744499Y8185444D01*
X24834556Y8275501D01*
X24898237Y8385799D01*
X24931200Y8508820D01*
X24931200Y8636180D01*
X24898237Y8759201D01*
X24834556Y8869499D01*
X24744499Y8959556D01*
X24634201Y9023237D01*
X24634200Y9023238D01*
X24634199Y9023238D01*
X24511180Y9056200D01*
X24383820Y9056200D01*
X24260800Y9023238D01*
X24150503Y8959558D01*
X24060442Y8869497D01*
X23996762Y8759200D01*
X23963800Y8636180D01*
X23661200Y8636180D01*
X23628237Y8759201D01*
X23564556Y8869499D01*
X23474499Y8959556D01*
X23364201Y9023237D01*
X23364200Y9023238D01*
X23364199Y9023238D01*
X23241180Y9056200D01*
X23113820Y9056200D01*
X22990800Y9023238D01*
X22880503Y8959558D01*
X22790442Y8869497D01*
X22726762Y8759200D01*
X22693800Y8636180D01*
X13320375Y8636180D01*
X13314499Y8642056D01*
X13204201Y8705737D01*
X13204200Y8705738D01*
X13204199Y8705738D01*
X13081180Y8738700D01*
X12953820Y8738700D01*
X12830800Y8705738D01*
X12720503Y8642058D01*
X12630442Y8551997D01*
X12566762Y8441700D01*
X12551784Y8385799D01*
X12533800Y8318680D01*
X8031986Y8318680D01*
X8070737Y8385799D01*
X8103700Y8508820D01*
X8103700Y8636180D01*
X8070737Y8759201D01*
X8007056Y8869499D01*
X7916999Y8959556D01*
X7806701Y9023237D01*
X7806700Y9023238D01*
X7806699Y9023238D01*
X7683680Y9056200D01*
X7556320Y9056200D01*
X7433298Y9023237D01*
X7380252Y8992612D01*
X7380116Y8992532D01*
X7323001Y8959556D01*
X7321040Y8957595D01*
X7232942Y8869497D01*
X7169262Y8759200D01*
X7136300Y8636180D01*
X6641395Y8636180D01*
X6635134Y8651295D01*
X6608612Y8715326D01*
X6608610Y8715329D01*
X6531603Y8830579D01*
X6531602Y8830580D01*
X6531600Y8830583D01*
X6433583Y8928600D01*
X6433579Y8928603D01*
X6433578Y8928604D01*
X6318328Y9005611D01*
X6318325Y9005613D01*
X6190262Y9058657D01*
X6190258Y9058659D01*
X6088063Y9078986D01*
X6054308Y9085700D01*
X5093105Y9085700D01*
X5036604Y9106265D01*
X5006540Y9158336D01*
X5016981Y9217550D01*
X5063041Y9256199D01*
X5070355Y9258505D01*
X5072544Y9259092D01*
X5127135Y9273719D01*
X5258365Y9349485D01*
X5365515Y9456635D01*
X5441281Y9587865D01*
X5441499Y9588680D01*
X6501300Y9588680D01*
X6501300Y9461320D01*
X6502875Y9455443D01*
X6531265Y9349485D01*
X6534263Y9338299D01*
X6557571Y9297928D01*
X6571548Y9273719D01*
X6597944Y9228001D01*
X6688001Y9137944D01*
X6798299Y9074263D01*
X6921320Y9041300D01*
X7048679Y9041300D01*
X7048680Y9041300D01*
X7171701Y9074263D01*
X7281999Y9137944D01*
X7372056Y9228001D01*
X7395561Y9268712D01*
X19270461Y9268712D01*
X19270461Y9141352D01*
X19279862Y9106265D01*
X19303423Y9018333D01*
X19355230Y8928600D01*
X19367105Y8908033D01*
X19457162Y8817976D01*
X19567460Y8754295D01*
X19690481Y8721332D01*
X19817840Y8721332D01*
X19817841Y8721332D01*
X19940862Y8754295D01*
X20051160Y8817976D01*
X20141217Y8908033D01*
X20204898Y9018331D01*
X20237861Y9141352D01*
X20237861Y9268712D01*
X20204898Y9391733D01*
X20141217Y9502031D01*
X20051160Y9592088D01*
X19940862Y9655769D01*
X19940861Y9655770D01*
X19940860Y9655770D01*
X19817841Y9688732D01*
X19690481Y9688732D01*
X19567461Y9655770D01*
X19457164Y9592090D01*
X19367103Y9502029D01*
X19303423Y9391732D01*
X19289106Y9338297D01*
X19270461Y9268712D01*
X7395561Y9268712D01*
X7435737Y9338299D01*
X7468700Y9461320D01*
X7468700Y9588680D01*
X7450724Y9655769D01*
X7439911Y9696124D01*
X7445152Y9756023D01*
X7484687Y9795559D01*
X7484212Y9796383D01*
X7487287Y9798159D01*
X7487668Y9798539D01*
X7488834Y9799053D01*
X7489194Y9799262D01*
X7489201Y9799263D01*
X7599499Y9862944D01*
X7689556Y9953001D01*
X7753237Y10063299D01*
X7786200Y10186320D01*
X7786200Y10223680D01*
X10946300Y10223680D01*
X10946300Y10096320D01*
X10947875Y10090443D01*
X10979262Y9973301D01*
X11029800Y9885766D01*
X11042944Y9863001D01*
X11133001Y9772944D01*
X11243299Y9709263D01*
X11366320Y9676300D01*
X11493679Y9676300D01*
X11493680Y9676300D01*
X11616701Y9709263D01*
X11726999Y9772944D01*
X11817056Y9863001D01*
X11880737Y9973299D01*
X11913700Y10096320D01*
X11913700Y10223680D01*
X11880737Y10346701D01*
X11817056Y10456999D01*
X11726999Y10547056D01*
X11616701Y10610737D01*
X11616700Y10610738D01*
X11616699Y10610738D01*
X11493680Y10643700D01*
X11366320Y10643700D01*
X11243300Y10610738D01*
X11133003Y10547058D01*
X11042942Y10456997D01*
X10979262Y10346700D01*
X10958850Y10270517D01*
X10946300Y10223680D01*
X7786200Y10223680D01*
X7786200Y10313680D01*
X7753237Y10436701D01*
X7689556Y10546999D01*
X7599499Y10637056D01*
X7587991Y10643700D01*
X7489199Y10700738D01*
X7366180Y10733700D01*
X7238820Y10733700D01*
X7115800Y10700738D01*
X7005503Y10637058D01*
X6915442Y10546997D01*
X6851762Y10436700D01*
X6818800Y10313680D01*
X6818800Y10186319D01*
X6847588Y10078877D01*
X6842347Y10018979D01*
X6802810Y9979444D01*
X6803288Y9978617D01*
X6800202Y9976836D01*
X6799830Y9976463D01*
X6798680Y9975957D01*
X6688003Y9912058D01*
X6597942Y9821997D01*
X6534262Y9711700D01*
X6519276Y9655769D01*
X6501300Y9588680D01*
X5441499Y9588680D01*
X5480500Y9734234D01*
X5480500Y9885766D01*
X5441281Y10032135D01*
X5365515Y10163365D01*
X5258365Y10270515D01*
X5227091Y10288571D01*
X5127133Y10346282D01*
X4980766Y10385500D01*
X4829234Y10385500D01*
X4682866Y10346282D01*
X4551637Y10270517D01*
X4444483Y10163363D01*
X4368718Y10032134D01*
X4352954Y9973299D01*
X4329500Y9885766D01*
X4329500Y9734234D01*
X4341692Y9688732D01*
X4368718Y9587867D01*
X4441779Y9461321D01*
X4444485Y9456635D01*
X4551635Y9349485D01*
X4682865Y9273719D01*
X4778051Y9248215D01*
X4827303Y9213728D01*
X4842866Y9155650D01*
X4817455Y9101156D01*
X4772449Y9077099D01*
X4679739Y9058658D01*
X4679737Y9058657D01*
X4551674Y9005613D01*
X4551671Y9005611D01*
X4436421Y8928604D01*
X4338396Y8830579D01*
X4261389Y8715329D01*
X4261387Y8715326D01*
X4208343Y8587263D01*
X4208341Y8587259D01*
X4181300Y8451307D01*
X2258700Y8451307D01*
X2258700Y8451308D01*
X2238672Y8551997D01*
X2231658Y8587259D01*
X2231657Y8587261D01*
X2231657Y8587262D01*
X2205134Y8651295D01*
X2178612Y8715326D01*
X2178610Y8715329D01*
X2101603Y8830579D01*
X2101602Y8830580D01*
X2101600Y8830583D01*
X2003583Y8928600D01*
X2003579Y8928603D01*
X2003578Y8928604D01*
X1888328Y9005611D01*
X1888325Y9005613D01*
X1760262Y9058657D01*
X1760258Y9058659D01*
X1658063Y9078986D01*
X1624308Y9085700D01*
X885692Y9085700D01*
X855664Y9079728D01*
X749741Y9058659D01*
X749737Y9058657D01*
X621674Y9005613D01*
X621671Y9005611D01*
X506421Y8928604D01*
X408396Y8830579D01*
X331389Y8715329D01*
X331387Y8715326D01*
X296609Y8631361D01*
X255988Y8587031D01*
X196375Y8579183D01*
X145664Y8611489D01*
X127500Y8664999D01*
X127500Y11017430D01*
X11898800Y11017430D01*
X11898800Y10890070D01*
X11905636Y10864558D01*
X11931762Y10767051D01*
X11991142Y10664201D01*
X11995444Y10656751D01*
X12085501Y10566694D01*
X12195799Y10503013D01*
X12318820Y10470050D01*
X12446179Y10470050D01*
X12446180Y10470050D01*
X12569201Y10503013D01*
X12679499Y10566694D01*
X12769556Y10656751D01*
X12833237Y10767049D01*
X12857789Y10858680D01*
X15232550Y10858680D01*
X15232550Y10731320D01*
X15234125Y10725443D01*
X15264859Y10610737D01*
X15265513Y10608299D01*
X15329194Y10498001D01*
X15419251Y10407944D01*
X15529549Y10344263D01*
X15652570Y10311300D01*
X15779929Y10311300D01*
X15779930Y10311300D01*
X15902951Y10344263D01*
X16013249Y10407944D01*
X16103306Y10498001D01*
X16128236Y10541180D01*
X16661300Y10541180D01*
X16661300Y10413820D01*
X16662875Y10407943D01*
X16693609Y10293237D01*
X16694263Y10290799D01*
X16757944Y10180501D01*
X16848001Y10090444D01*
X16958299Y10026763D01*
X17081320Y9993800D01*
X17208679Y9993800D01*
X17208680Y9993800D01*
X17331701Y10026763D01*
X17441999Y10090444D01*
X17532056Y10180501D01*
X17595737Y10290799D01*
X17628700Y10413820D01*
X17628700Y10538950D01*
X18983800Y10538950D01*
X18983800Y10411591D01*
X19016762Y10288571D01*
X19079156Y10180501D01*
X19080444Y10178271D01*
X19170501Y10088214D01*
X19280799Y10024533D01*
X19403820Y9991570D01*
X19531179Y9991570D01*
X19531180Y9991570D01*
X19654201Y10024533D01*
X19764499Y10088214D01*
X19854556Y10178271D01*
X19918237Y10288569D01*
X19951200Y10411590D01*
X19951200Y10538950D01*
X19950602Y10541180D01*
X40473800Y10541180D01*
X40473800Y10413820D01*
X40475375Y10407943D01*
X40506109Y10293237D01*
X40506763Y10290799D01*
X40570444Y10180501D01*
X40660501Y10090444D01*
X40770799Y10026763D01*
X40893820Y9993800D01*
X41021179Y9993800D01*
X41021180Y9993800D01*
X41144201Y10026763D01*
X41254499Y10090444D01*
X41344556Y10180501D01*
X41408237Y10290799D01*
X41441200Y10413820D01*
X41441200Y10541180D01*
X41408237Y10664201D01*
X41344556Y10774499D01*
X41254499Y10864556D01*
X41215287Y10887195D01*
X41184572Y10904929D01*
X41144201Y10928237D01*
X41144200Y10928238D01*
X41144199Y10928238D01*
X41021180Y10961200D01*
X40893820Y10961200D01*
X40770800Y10928238D01*
X40660503Y10864558D01*
X40570442Y10774497D01*
X40506762Y10664200D01*
X40491784Y10608299D01*
X40473800Y10541180D01*
X19950602Y10541180D01*
X19918237Y10661971D01*
X19854556Y10772269D01*
X19764499Y10862326D01*
X19760633Y10864558D01*
X19654199Y10926008D01*
X19531180Y10958970D01*
X19403820Y10958970D01*
X19280800Y10926008D01*
X19170503Y10862328D01*
X19080442Y10772267D01*
X19016762Y10661970D01*
X18983800Y10538950D01*
X17628700Y10538950D01*
X17628700Y10541180D01*
X17595737Y10664201D01*
X17532056Y10774499D01*
X17441999Y10864556D01*
X17402787Y10887195D01*
X17372072Y10904929D01*
X17331701Y10928237D01*
X17331700Y10928238D01*
X17331699Y10928238D01*
X17208680Y10961200D01*
X17081320Y10961200D01*
X16958300Y10928238D01*
X16848003Y10864558D01*
X16757942Y10774497D01*
X16694262Y10664200D01*
X16679284Y10608299D01*
X16661300Y10541180D01*
X16128236Y10541180D01*
X16166987Y10608299D01*
X16199950Y10731320D01*
X16199950Y10858680D01*
X16166987Y10981701D01*
X16103306Y11091999D01*
X16019125Y11176180D01*
X37616300Y11176180D01*
X37616300Y11048821D01*
X37648609Y10928237D01*
X37649263Y10925799D01*
X37712944Y10815501D01*
X37803001Y10725444D01*
X37913299Y10661763D01*
X38036320Y10628800D01*
X38163680Y10628800D01*
X38286701Y10661763D01*
X38396999Y10725444D01*
X38487056Y10815501D01*
X38550737Y10925799D01*
X38583700Y11048820D01*
X38583700Y11176180D01*
X38550737Y11299201D01*
X38487056Y11409499D01*
X38396999Y11499556D01*
X38286701Y11563237D01*
X38286700Y11563238D01*
X38286699Y11563238D01*
X38163680Y11596200D01*
X38036320Y11596200D01*
X37913300Y11563238D01*
X37803003Y11499558D01*
X37712942Y11409497D01*
X37649262Y11299200D01*
X37616300Y11176180D01*
X16019125Y11176180D01*
X16013249Y11182056D01*
X15902951Y11245737D01*
X15902950Y11245738D01*
X15902949Y11245738D01*
X15779930Y11278700D01*
X15652570Y11278700D01*
X15529550Y11245738D01*
X15419253Y11182058D01*
X15329192Y11091997D01*
X15265512Y10981700D01*
X15250534Y10925799D01*
X15232550Y10858680D01*
X12857789Y10858680D01*
X12866200Y10890070D01*
X12866200Y11017430D01*
X12833237Y11140451D01*
X12769556Y11250749D01*
X12679499Y11340806D01*
X12569201Y11404487D01*
X12569200Y11404488D01*
X12569199Y11404488D01*
X12446180Y11437450D01*
X12318820Y11437450D01*
X12195800Y11404488D01*
X12085503Y11340808D01*
X11995442Y11250747D01*
X11931762Y11140450D01*
X11907211Y11048821D01*
X11898800Y11017430D01*
X127500Y11017430D01*
X127500Y11811180D01*
X4596300Y11811180D01*
X4596300Y11683821D01*
X4628609Y11563237D01*
X4629263Y11560799D01*
X4692944Y11450501D01*
X4783001Y11360444D01*
X4893299Y11296763D01*
X5016320Y11263800D01*
X5143679Y11263800D01*
X5143680Y11263800D01*
X5266701Y11296763D01*
X5376999Y11360444D01*
X5467056Y11450501D01*
X5530737Y11560799D01*
X5563700Y11683820D01*
X5563700Y11811180D01*
X16978800Y11811180D01*
X16978800Y11683821D01*
X17011109Y11563237D01*
X17011763Y11560799D01*
X17075444Y11450501D01*
X17165501Y11360444D01*
X17275799Y11296763D01*
X17398820Y11263800D01*
X17526180Y11263800D01*
X17649201Y11296763D01*
X17759499Y11360444D01*
X17849556Y11450501D01*
X17913237Y11560799D01*
X17946200Y11683820D01*
X17946200Y11811180D01*
X38886300Y11811180D01*
X38886300Y11683821D01*
X38918609Y11563237D01*
X38919263Y11560799D01*
X38982944Y11450501D01*
X39073001Y11360444D01*
X39183299Y11296763D01*
X39306320Y11263800D01*
X39433679Y11263800D01*
X39433680Y11263800D01*
X39556701Y11296763D01*
X39666999Y11360444D01*
X39757056Y11450501D01*
X39820737Y11560799D01*
X39853700Y11683820D01*
X39853700Y11811180D01*
X39820737Y11934201D01*
X39757056Y12044499D01*
X39666999Y12134556D01*
X39639248Y12150578D01*
X39597072Y12174929D01*
X39556701Y12198237D01*
X39556700Y12198238D01*
X39556699Y12198238D01*
X39433680Y12231200D01*
X39306320Y12231200D01*
X39183300Y12198238D01*
X39073003Y12134558D01*
X38982942Y12044497D01*
X38919262Y11934200D01*
X38886300Y11811180D01*
X17946200Y11811180D01*
X17913237Y11934201D01*
X17849556Y12044499D01*
X17759499Y12134556D01*
X17731748Y12150578D01*
X17689572Y12174929D01*
X17649201Y12198237D01*
X17649200Y12198238D01*
X17649199Y12198238D01*
X17526180Y12231200D01*
X17398820Y12231200D01*
X17275800Y12198238D01*
X17165503Y12134558D01*
X17075442Y12044497D01*
X17011762Y11934200D01*
X16978800Y11811180D01*
X5563700Y11811180D01*
X5530737Y11934201D01*
X5467056Y12044499D01*
X5376999Y12134556D01*
X5349248Y12150578D01*
X5307072Y12174929D01*
X5266701Y12198237D01*
X5266700Y12198238D01*
X5266699Y12198238D01*
X5143680Y12231200D01*
X5016320Y12231200D01*
X4893300Y12198238D01*
X4783003Y12134558D01*
X4692942Y12044497D01*
X4629262Y11934200D01*
X4596300Y11811180D01*
X127500Y11811180D01*
X127500Y13312870D01*
X6587110Y13312870D01*
X6587110Y13185510D01*
X6596427Y13150738D01*
X6615064Y13081180D01*
X6620073Y13062489D01*
X6683754Y12952191D01*
X6773811Y12862134D01*
X6773813Y12862133D01*
X6823176Y12833633D01*
X6861825Y12787572D01*
X6861825Y12729980D01*
X6862119Y12729901D01*
X6861825Y12728804D01*
X6861825Y12727445D01*
X6860655Y12724440D01*
X6837044Y12636320D01*
X6827665Y12601315D01*
X6827665Y12473955D01*
X6860628Y12350934D01*
X6924309Y12240636D01*
X7014366Y12150579D01*
X7124664Y12086898D01*
X7247685Y12053935D01*
X7375044Y12053935D01*
X7375045Y12053935D01*
X7498066Y12086898D01*
X7608364Y12150579D01*
X7698421Y12240636D01*
X7762102Y12350934D01*
X7795065Y12473955D01*
X7795065Y12601315D01*
X7762102Y12724336D01*
X7739387Y12763680D01*
X9041300Y12763680D01*
X9041300Y12636320D01*
X9053364Y12591294D01*
X9068769Y12533800D01*
X9074263Y12513299D01*
X9137944Y12403001D01*
X9228001Y12312944D01*
X9338299Y12249263D01*
X9461320Y12216300D01*
X9588679Y12216300D01*
X9588680Y12216300D01*
X9711701Y12249263D01*
X9821999Y12312944D01*
X9912056Y12403001D01*
X9975737Y12513299D01*
X10008700Y12636320D01*
X10008700Y12763680D01*
X11422550Y12763680D01*
X11422550Y12636320D01*
X11434614Y12591294D01*
X11450019Y12533800D01*
X11455513Y12513299D01*
X11519194Y12403001D01*
X11609251Y12312944D01*
X11719549Y12249263D01*
X11842570Y12216300D01*
X11969929Y12216300D01*
X11969930Y12216300D01*
X12092951Y12249263D01*
X12203249Y12312944D01*
X12293306Y12403001D01*
X12356987Y12513299D01*
X12389950Y12636320D01*
X12389950Y12763680D01*
X12356987Y12886701D01*
X12293306Y12996999D01*
X12203249Y13087056D01*
X12092951Y13150737D01*
X12092950Y13150738D01*
X12092949Y13150738D01*
X11969930Y13183700D01*
X11842570Y13183700D01*
X11719550Y13150738D01*
X11609253Y13087058D01*
X11519192Y12996997D01*
X11455512Y12886700D01*
X11428952Y12787572D01*
X11422550Y12763680D01*
X10008700Y12763680D01*
X9975737Y12886701D01*
X9912056Y12996999D01*
X9821999Y13087056D01*
X9711701Y13150737D01*
X9711700Y13150738D01*
X9711699Y13150738D01*
X9588680Y13183700D01*
X9461320Y13183700D01*
X9338300Y13150738D01*
X9228003Y13087058D01*
X9137942Y12996997D01*
X9074262Y12886700D01*
X9047702Y12787572D01*
X9041300Y12763680D01*
X7739387Y12763680D01*
X7698421Y12834634D01*
X7608364Y12924691D01*
X7608361Y12924693D01*
X7608360Y12924694D01*
X7558997Y12953194D01*
X7520349Y12999254D01*
X7520349Y13056846D01*
X7520056Y13056924D01*
X7520349Y13058018D01*
X7520349Y13059381D01*
X7521522Y13062396D01*
X7521547Y13062489D01*
X7554510Y13185510D01*
X7554510Y13312870D01*
X7543087Y13355501D01*
X7536070Y13381692D01*
X7531518Y13398680D01*
X17296300Y13398680D01*
X17296300Y13271320D01*
X17297875Y13265443D01*
X17329262Y13148301D01*
X17378804Y13062491D01*
X17392944Y13038001D01*
X17483001Y12947944D01*
X17593299Y12884263D01*
X17716320Y12851300D01*
X17843679Y12851300D01*
X17843680Y12851300D01*
X17966701Y12884263D01*
X18076999Y12947944D01*
X18167056Y13038001D01*
X18191986Y13081180D01*
X20788800Y13081180D01*
X20788800Y12953820D01*
X20790375Y12947943D01*
X20821109Y12833237D01*
X20821763Y12830799D01*
X20885444Y12720501D01*
X20975501Y12630444D01*
X21085799Y12566763D01*
X21208820Y12533800D01*
X21336179Y12533800D01*
X21336180Y12533800D01*
X21459201Y12566763D01*
X21569499Y12630444D01*
X21659556Y12720501D01*
X21723237Y12830799D01*
X21756200Y12953820D01*
X21756200Y13081180D01*
X22693800Y13081180D01*
X22693800Y12953820D01*
X22695375Y12947943D01*
X22726109Y12833237D01*
X22726763Y12830799D01*
X22790444Y12720501D01*
X22880501Y12630444D01*
X22990799Y12566763D01*
X23113820Y12533800D01*
X23241179Y12533800D01*
X23241180Y12533800D01*
X23364201Y12566763D01*
X23474499Y12630444D01*
X23564556Y12720501D01*
X23628237Y12830799D01*
X23661200Y12953820D01*
X23661200Y13081180D01*
X24916300Y13081180D01*
X24916300Y12953820D01*
X24917875Y12947943D01*
X24948609Y12833237D01*
X24949263Y12830799D01*
X25012944Y12720501D01*
X25103001Y12630444D01*
X25213299Y12566763D01*
X25336320Y12533800D01*
X25463679Y12533800D01*
X25463680Y12533800D01*
X25586701Y12566763D01*
X25696999Y12630444D01*
X25787056Y12720501D01*
X25850737Y12830799D01*
X25883700Y12953820D01*
X25883700Y13081180D01*
X26821300Y13081180D01*
X26821300Y12953820D01*
X26822875Y12947943D01*
X26853609Y12833237D01*
X26854263Y12830799D01*
X26917944Y12720501D01*
X27008001Y12630444D01*
X27118299Y12566763D01*
X27241320Y12533800D01*
X27368679Y12533800D01*
X27368680Y12533800D01*
X27491701Y12566763D01*
X27601999Y12630444D01*
X27692056Y12720501D01*
X27755737Y12830799D01*
X27788700Y12953820D01*
X27788700Y13081180D01*
X29043800Y13081180D01*
X29043800Y12953820D01*
X29045375Y12947943D01*
X29076109Y12833237D01*
X29076763Y12830799D01*
X29140444Y12720501D01*
X29230501Y12630444D01*
X29340799Y12566763D01*
X29463820Y12533800D01*
X29591179Y12533800D01*
X29591180Y12533800D01*
X29714201Y12566763D01*
X29824499Y12630444D01*
X29914556Y12720501D01*
X29978237Y12830799D01*
X30011200Y12953820D01*
X30011200Y13081180D01*
X30948800Y13081180D01*
X30948800Y12953820D01*
X30950375Y12947943D01*
X30981109Y12833237D01*
X30981763Y12830799D01*
X31045444Y12720501D01*
X31135501Y12630444D01*
X31245799Y12566763D01*
X31368820Y12533800D01*
X31496179Y12533800D01*
X31496180Y12533800D01*
X31619201Y12566763D01*
X31729499Y12630444D01*
X31819556Y12720501D01*
X31883237Y12830799D01*
X31916200Y12953820D01*
X31916200Y13081180D01*
X31883237Y13204201D01*
X31819556Y13314499D01*
X31735375Y13398680D01*
X32536300Y13398680D01*
X32536300Y13271320D01*
X32537875Y13265443D01*
X32569262Y13148301D01*
X32618804Y13062491D01*
X32632944Y13038001D01*
X32723001Y12947944D01*
X32833299Y12884263D01*
X32956320Y12851300D01*
X33083679Y12851300D01*
X33083680Y12851300D01*
X33206701Y12884263D01*
X33316999Y12947944D01*
X33407056Y13038001D01*
X33470737Y13148299D01*
X33503700Y13271320D01*
X33503700Y13398680D01*
X33470737Y13521701D01*
X33407056Y13631999D01*
X33322875Y13716180D01*
X37616300Y13716180D01*
X37616300Y13588821D01*
X37649262Y13465801D01*
X37697822Y13381692D01*
X37712944Y13355501D01*
X37803001Y13265444D01*
X37913299Y13201763D01*
X38036320Y13168800D01*
X38163679Y13168800D01*
X38163680Y13168800D01*
X38286701Y13201763D01*
X38396999Y13265444D01*
X38487056Y13355501D01*
X38550737Y13465799D01*
X38583700Y13588820D01*
X38583700Y13716180D01*
X38550737Y13839201D01*
X38487056Y13949499D01*
X38396999Y14039556D01*
X38286701Y14103237D01*
X38286700Y14103238D01*
X38286699Y14103238D01*
X38163680Y14136200D01*
X38036320Y14136200D01*
X37913300Y14103238D01*
X37803003Y14039558D01*
X37712942Y13949497D01*
X37649262Y13839200D01*
X37616300Y13716180D01*
X33322875Y13716180D01*
X33316999Y13722056D01*
X33206701Y13785737D01*
X33206700Y13785738D01*
X33206699Y13785738D01*
X33083680Y13818700D01*
X32956320Y13818700D01*
X32833300Y13785738D01*
X32723003Y13722058D01*
X32632942Y13631997D01*
X32569262Y13521700D01*
X32546270Y13435890D01*
X32536300Y13398680D01*
X31735375Y13398680D01*
X31729499Y13404556D01*
X31619201Y13468237D01*
X31619200Y13468238D01*
X31619199Y13468238D01*
X31496180Y13501200D01*
X31368820Y13501200D01*
X31245800Y13468238D01*
X31135503Y13404558D01*
X31045442Y13314497D01*
X30981762Y13204200D01*
X30966784Y13148299D01*
X30948800Y13081180D01*
X30011200Y13081180D01*
X29978237Y13204201D01*
X29914556Y13314499D01*
X29824499Y13404556D01*
X29714201Y13468237D01*
X29714200Y13468238D01*
X29714199Y13468238D01*
X29591180Y13501200D01*
X29463820Y13501200D01*
X29340800Y13468238D01*
X29230503Y13404558D01*
X29140442Y13314497D01*
X29076762Y13204200D01*
X29061784Y13148299D01*
X29043800Y13081180D01*
X27788700Y13081180D01*
X27755737Y13204201D01*
X27692056Y13314499D01*
X27601999Y13404556D01*
X27491701Y13468237D01*
X27491700Y13468238D01*
X27491699Y13468238D01*
X27368680Y13501200D01*
X27241320Y13501200D01*
X27118300Y13468238D01*
X27008003Y13404558D01*
X26917942Y13314497D01*
X26854262Y13204200D01*
X26839284Y13148299D01*
X26821300Y13081180D01*
X25883700Y13081180D01*
X25850737Y13204201D01*
X25787056Y13314499D01*
X25696999Y13404556D01*
X25586701Y13468237D01*
X25586700Y13468238D01*
X25586699Y13468238D01*
X25463680Y13501200D01*
X25336320Y13501200D01*
X25213300Y13468238D01*
X25103003Y13404558D01*
X25012942Y13314497D01*
X24949262Y13204200D01*
X24934284Y13148299D01*
X24916300Y13081180D01*
X23661200Y13081180D01*
X23628237Y13204201D01*
X23564556Y13314499D01*
X23474499Y13404556D01*
X23364201Y13468237D01*
X23364200Y13468238D01*
X23364199Y13468238D01*
X23241180Y13501200D01*
X23113820Y13501200D01*
X22990800Y13468238D01*
X22880503Y13404558D01*
X22790442Y13314497D01*
X22726762Y13204200D01*
X22711784Y13148299D01*
X22693800Y13081180D01*
X21756200Y13081180D01*
X21723237Y13204201D01*
X21659556Y13314499D01*
X21569499Y13404556D01*
X21459201Y13468237D01*
X21459200Y13468238D01*
X21459199Y13468238D01*
X21336180Y13501200D01*
X21208820Y13501200D01*
X21085800Y13468238D01*
X20975503Y13404558D01*
X20885442Y13314497D01*
X20821762Y13204200D01*
X20806784Y13148299D01*
X20788800Y13081180D01*
X18191986Y13081180D01*
X18230737Y13148299D01*
X18263700Y13271320D01*
X18263700Y13398680D01*
X18230737Y13521701D01*
X18167056Y13631999D01*
X18076999Y13722056D01*
X17966701Y13785737D01*
X17966700Y13785738D01*
X17966699Y13785738D01*
X17843680Y13818700D01*
X17716320Y13818700D01*
X17593300Y13785738D01*
X17483003Y13722058D01*
X17392942Y13631997D01*
X17329262Y13521700D01*
X17306270Y13435890D01*
X17296300Y13398680D01*
X7531518Y13398680D01*
X7523007Y13430443D01*
X7521547Y13435891D01*
X7457866Y13546189D01*
X7367809Y13636246D01*
X7257511Y13699927D01*
X7257510Y13699928D01*
X7257509Y13699928D01*
X7134490Y13732890D01*
X7007130Y13732890D01*
X6884110Y13699928D01*
X6773813Y13636248D01*
X6683752Y13546187D01*
X6620072Y13435890D01*
X6598533Y13355501D01*
X6587110Y13312870D01*
X127500Y13312870D01*
X127500Y14351180D01*
X11898800Y14351180D01*
X11898800Y14223820D01*
X11900375Y14217943D01*
X11931109Y14103237D01*
X11931763Y14100799D01*
X11995444Y13990501D01*
X12085501Y13900444D01*
X12195799Y13836763D01*
X12318820Y13803800D01*
X12446179Y13803800D01*
X12446180Y13803800D01*
X12569201Y13836763D01*
X12679499Y13900444D01*
X12769556Y13990501D01*
X12833237Y14100799D01*
X12866200Y14223820D01*
X12866200Y14351180D01*
X12833237Y14474201D01*
X12769556Y14584499D01*
X12685375Y14668680D01*
X14121300Y14668680D01*
X14121300Y14541320D01*
X14122875Y14535443D01*
X14148769Y14438800D01*
X14154263Y14418299D01*
X14217944Y14308001D01*
X14308001Y14217944D01*
X14418299Y14154263D01*
X14541320Y14121300D01*
X14668679Y14121300D01*
X14668680Y14121300D01*
X14791701Y14154263D01*
X14901999Y14217944D01*
X14992056Y14308001D01*
X15016986Y14351180D01*
X34758800Y14351180D01*
X34758800Y14223820D01*
X34760375Y14217943D01*
X34791109Y14103237D01*
X34791763Y14100799D01*
X34855444Y13990501D01*
X34945501Y13900444D01*
X35055799Y13836763D01*
X35178820Y13803800D01*
X35306180Y13803800D01*
X35429201Y13836763D01*
X35539499Y13900444D01*
X35629556Y13990501D01*
X35693237Y14100799D01*
X35726200Y14223820D01*
X35726200Y14351180D01*
X38886300Y14351180D01*
X38886300Y14223820D01*
X38887875Y14217943D01*
X38918609Y14103237D01*
X38919263Y14100799D01*
X38982944Y13990501D01*
X39073001Y13900444D01*
X39183299Y13836763D01*
X39306320Y13803800D01*
X39433679Y13803800D01*
X39433680Y13803800D01*
X39556701Y13836763D01*
X39666999Y13900444D01*
X39757056Y13990501D01*
X39820737Y14100799D01*
X39853700Y14223820D01*
X39853700Y14351180D01*
X39820737Y14474201D01*
X39757056Y14584499D01*
X39666999Y14674556D01*
X39556701Y14738237D01*
X39556700Y14738238D01*
X39556699Y14738238D01*
X39433680Y14771200D01*
X39306320Y14771200D01*
X39183300Y14738238D01*
X39073003Y14674558D01*
X38982942Y14584497D01*
X38919262Y14474200D01*
X38904284Y14418299D01*
X38886300Y14351180D01*
X35726200Y14351180D01*
X35693237Y14474201D01*
X35629556Y14584499D01*
X35539499Y14674556D01*
X35429201Y14738237D01*
X35429200Y14738238D01*
X35429199Y14738238D01*
X35306180Y14771200D01*
X35178820Y14771200D01*
X35055800Y14738238D01*
X34945503Y14674558D01*
X34945501Y14674556D01*
X34855444Y14584499D01*
X34822468Y14527384D01*
X34822388Y14527248D01*
X34791763Y14474202D01*
X34782277Y14438800D01*
X34758800Y14351180D01*
X15016986Y14351180D01*
X15055737Y14418299D01*
X15088700Y14541320D01*
X15088700Y14668680D01*
X15055737Y14791701D01*
X14992056Y14901999D01*
X14901999Y14992056D01*
X14791701Y15055737D01*
X14791700Y15055738D01*
X14791699Y15055738D01*
X14668680Y15088700D01*
X14541320Y15088700D01*
X14418300Y15055738D01*
X14308003Y14992058D01*
X14217942Y14901997D01*
X14154262Y14791700D01*
X14125068Y14682744D01*
X14121300Y14668680D01*
X12685375Y14668680D01*
X12679499Y14674556D01*
X12569201Y14738237D01*
X12569200Y14738238D01*
X12569199Y14738238D01*
X12446180Y14771200D01*
X12318820Y14771200D01*
X12195800Y14738238D01*
X12085503Y14674558D01*
X11995442Y14584497D01*
X11931762Y14474200D01*
X11916784Y14418299D01*
X11898800Y14351180D01*
X127500Y14351180D01*
X127500Y16735002D01*
X148065Y16791503D01*
X200136Y16821567D01*
X259350Y16811126D01*
X296609Y16768639D01*
X331386Y16684679D01*
X331389Y16684672D01*
X408396Y16569422D01*
X408397Y16569421D01*
X408400Y16569417D01*
X506417Y16471400D01*
X506420Y16471398D01*
X506421Y16471397D01*
X621671Y16394390D01*
X621674Y16394388D01*
X664226Y16376763D01*
X749738Y16341343D01*
X749739Y16341343D01*
X749741Y16341342D01*
X818178Y16327730D01*
X885692Y16314300D01*
X885694Y16314300D01*
X1624306Y16314300D01*
X1624308Y16314300D01*
X1714122Y16332166D01*
X1760258Y16341342D01*
X1760258Y16341343D01*
X1760262Y16341343D01*
X1888327Y16394389D01*
X2003583Y16471400D01*
X2101600Y16569417D01*
X2178611Y16684673D01*
X2178614Y16684679D01*
X2199458Y16735002D01*
X2231657Y16812738D01*
X2258700Y16948692D01*
X2258700Y17087307D01*
X4181300Y17087307D01*
X4181300Y16948694D01*
X4208341Y16812742D01*
X4208343Y16812738D01*
X4261387Y16684675D01*
X4261389Y16684672D01*
X4338396Y16569422D01*
X4338397Y16569421D01*
X4338400Y16569417D01*
X4436417Y16471400D01*
X4436420Y16471398D01*
X4436421Y16471397D01*
X4551671Y16394390D01*
X4551674Y16394388D01*
X4594226Y16376763D01*
X4679738Y16341343D01*
X4679739Y16341343D01*
X4679741Y16341342D01*
X4740508Y16329255D01*
X4772448Y16322902D01*
X4823851Y16291710D01*
X4843179Y16234774D01*
X4821387Y16178735D01*
X4778050Y16151786D01*
X4682866Y16126282D01*
X4551637Y16050517D01*
X4444483Y15943363D01*
X4368718Y15812134D01*
X4329500Y15665766D01*
X4329500Y15514235D01*
X4368718Y15367867D01*
X4444482Y15236639D01*
X4444485Y15236635D01*
X4551635Y15129485D01*
X4682865Y15053719D01*
X4829234Y15014500D01*
X4980765Y15014500D01*
X4980766Y15014500D01*
X5127135Y15053719D01*
X5258365Y15129485D01*
X5342560Y15213680D01*
X7453800Y15213680D01*
X7453800Y15086321D01*
X7479057Y14992056D01*
X7486763Y14963299D01*
X7550444Y14853001D01*
X7640501Y14762944D01*
X7750799Y14699263D01*
X7873820Y14666300D01*
X8001179Y14666300D01*
X8001180Y14666300D01*
X8124201Y14699263D01*
X8234499Y14762944D01*
X8324556Y14853001D01*
X8388237Y14963299D01*
X8421200Y15086320D01*
X8421200Y15213680D01*
X8409780Y15256302D01*
X8401637Y15286691D01*
X8397085Y15303680D01*
X10946300Y15303680D01*
X10946300Y15176320D01*
X10947875Y15170443D01*
X10978609Y15055737D01*
X10979263Y15053299D01*
X11042944Y14943001D01*
X11133001Y14852944D01*
X11243299Y14789263D01*
X11366320Y14756300D01*
X11493679Y14756300D01*
X11493680Y14756300D01*
X11616701Y14789263D01*
X11726999Y14852944D01*
X11817056Y14943001D01*
X11880737Y15053299D01*
X11913700Y15176320D01*
X11913700Y15303680D01*
X11880737Y15426701D01*
X11817056Y15536999D01*
X11726999Y15627056D01*
X11715491Y15633700D01*
X11657072Y15667429D01*
X11616701Y15690737D01*
X11616700Y15690738D01*
X11616699Y15690738D01*
X11493680Y15723700D01*
X11366320Y15723700D01*
X11243300Y15690738D01*
X11133003Y15627058D01*
X11042942Y15536997D01*
X10979262Y15426700D01*
X10947875Y15309558D01*
X10946300Y15303680D01*
X8397085Y15303680D01*
X8388237Y15336700D01*
X8388237Y15336701D01*
X8324556Y15446999D01*
X8234499Y15537056D01*
X8124201Y15600737D01*
X8124200Y15600738D01*
X8124199Y15600738D01*
X8001180Y15633700D01*
X7873820Y15633700D01*
X7750800Y15600738D01*
X7640503Y15537058D01*
X7550442Y15446997D01*
X7486762Y15336700D01*
X7453800Y15213680D01*
X5342560Y15213680D01*
X5365515Y15236635D01*
X5376870Y15256302D01*
X5380964Y15263392D01*
X5407617Y15309558D01*
X5441281Y15367865D01*
X5480500Y15514234D01*
X5480500Y15665766D01*
X5441281Y15812135D01*
X5368220Y15938680D01*
X6501300Y15938680D01*
X6501300Y15811320D01*
X6502875Y15805443D01*
X6533609Y15690737D01*
X6534263Y15688299D01*
X6597944Y15578001D01*
X6688001Y15487944D01*
X6798299Y15424263D01*
X6921320Y15391300D01*
X7048679Y15391300D01*
X7048680Y15391300D01*
X7171701Y15424263D01*
X7281999Y15487944D01*
X7372056Y15578001D01*
X7435737Y15688299D01*
X7468700Y15811320D01*
X7468700Y15938680D01*
X7435737Y16061701D01*
X7372056Y16171999D01*
X7281999Y16262056D01*
X7236103Y16288554D01*
X7206075Y16305891D01*
X7171701Y16325737D01*
X7171700Y16325738D01*
X7171699Y16325738D01*
X7048680Y16358700D01*
X6921320Y16358700D01*
X6798300Y16325738D01*
X6688003Y16262058D01*
X6597942Y16171997D01*
X6534262Y16061700D01*
X6503332Y15946264D01*
X6501300Y15938680D01*
X5368220Y15938680D01*
X5365515Y15943365D01*
X5258365Y16050515D01*
X5238990Y16061701D01*
X5132918Y16122942D01*
X5127135Y16126281D01*
X5127134Y16126282D01*
X5127133Y16126282D01*
X5070355Y16141495D01*
X5021102Y16175982D01*
X5005539Y16234061D01*
X5030950Y16288554D01*
X5085444Y16313965D01*
X5093105Y16314300D01*
X6054306Y16314300D01*
X6054308Y16314300D01*
X6144122Y16332166D01*
X6190258Y16341342D01*
X6190258Y16341343D01*
X6190262Y16341343D01*
X6318327Y16394389D01*
X6433583Y16471400D01*
X6531600Y16569417D01*
X6534448Y16573680D01*
X16343800Y16573680D01*
X16343800Y16446320D01*
X16345375Y16440443D01*
X16376109Y16325737D01*
X16376763Y16323299D01*
X16440444Y16213001D01*
X16530501Y16122944D01*
X16530503Y16122943D01*
X16530504Y16122942D01*
X16553139Y16109873D01*
X16591787Y16063812D01*
X16591787Y16003685D01*
X16553139Y15957627D01*
X16530504Y15944559D01*
X16440442Y15854497D01*
X16376762Y15744200D01*
X16347155Y15633700D01*
X16343800Y15621180D01*
X16343800Y15493820D01*
X16345375Y15487943D01*
X16376109Y15373237D01*
X16376763Y15370799D01*
X16440444Y15260501D01*
X16530501Y15170444D01*
X16640799Y15106763D01*
X16763820Y15073800D01*
X16891179Y15073800D01*
X16891180Y15073800D01*
X17014201Y15106763D01*
X17124499Y15170444D01*
X17214556Y15260501D01*
X17239486Y15303680D01*
X20788800Y15303680D01*
X20788800Y15176320D01*
X20790375Y15170443D01*
X20821109Y15055737D01*
X20821763Y15053299D01*
X20885444Y14943001D01*
X20975501Y14852944D01*
X21085799Y14789263D01*
X21208820Y14756300D01*
X21336179Y14756300D01*
X21336180Y14756300D01*
X21459201Y14789263D01*
X21569499Y14852944D01*
X21659556Y14943001D01*
X21723237Y15053299D01*
X21756200Y15176320D01*
X21756200Y15303680D01*
X22693800Y15303680D01*
X22693800Y15176320D01*
X22695375Y15170443D01*
X22726109Y15055737D01*
X22726763Y15053299D01*
X22790444Y14943001D01*
X22880501Y14852944D01*
X22990799Y14789263D01*
X23113820Y14756300D01*
X23241179Y14756300D01*
X23241180Y14756300D01*
X23364201Y14789263D01*
X23474499Y14852944D01*
X23564556Y14943001D01*
X23628237Y15053299D01*
X23661200Y15176320D01*
X23661200Y15303680D01*
X24916300Y15303680D01*
X24916300Y15176320D01*
X24917875Y15170443D01*
X24948609Y15055737D01*
X24949263Y15053299D01*
X25012944Y14943001D01*
X25103001Y14852944D01*
X25213299Y14789263D01*
X25336320Y14756300D01*
X25463679Y14756300D01*
X25463680Y14756300D01*
X25586701Y14789263D01*
X25696999Y14852944D01*
X25787056Y14943001D01*
X25850737Y15053299D01*
X25883700Y15176320D01*
X25883700Y15303680D01*
X26821300Y15303680D01*
X26821300Y15176320D01*
X26822875Y15170443D01*
X26853609Y15055737D01*
X26854263Y15053299D01*
X26917944Y14943001D01*
X27008001Y14852944D01*
X27118299Y14789263D01*
X27241320Y14756300D01*
X27368679Y14756300D01*
X27368680Y14756300D01*
X27491701Y14789263D01*
X27601999Y14852944D01*
X27692056Y14943001D01*
X27755737Y15053299D01*
X27788700Y15176320D01*
X27788700Y15303680D01*
X29043800Y15303680D01*
X29043800Y15176320D01*
X29045375Y15170443D01*
X29076109Y15055737D01*
X29076763Y15053299D01*
X29140444Y14943001D01*
X29230501Y14852944D01*
X29340799Y14789263D01*
X29463820Y14756300D01*
X29591179Y14756300D01*
X29591180Y14756300D01*
X29714201Y14789263D01*
X29824499Y14852944D01*
X29914556Y14943001D01*
X29978237Y15053299D01*
X30011200Y15176320D01*
X30011200Y15303680D01*
X30948800Y15303680D01*
X30948800Y15176320D01*
X30950375Y15170443D01*
X30981109Y15055737D01*
X30981763Y15053299D01*
X31045444Y14943001D01*
X31135501Y14852944D01*
X31245799Y14789263D01*
X31368820Y14756300D01*
X31496179Y14756300D01*
X31496180Y14756300D01*
X31619201Y14789263D01*
X31729499Y14852944D01*
X31819556Y14943001D01*
X31844486Y14986180D01*
X33806300Y14986180D01*
X33806300Y14858820D01*
X33807875Y14852943D01*
X33839262Y14735801D01*
X33879388Y14666300D01*
X33902944Y14625501D01*
X33993001Y14535444D01*
X34103299Y14471763D01*
X34226320Y14438800D01*
X34353679Y14438800D01*
X34353680Y14438800D01*
X34476701Y14471763D01*
X34586999Y14535444D01*
X34677056Y14625501D01*
X34740737Y14735799D01*
X34773700Y14858820D01*
X34773700Y14986180D01*
X34740737Y15109201D01*
X34677056Y15219499D01*
X34586999Y15309556D01*
X34476701Y15373237D01*
X34476700Y15373238D01*
X34476699Y15373238D01*
X34353680Y15406200D01*
X34226320Y15406200D01*
X34103300Y15373238D01*
X33993003Y15309558D01*
X33902942Y15219497D01*
X33839262Y15109200D01*
X33824284Y15053299D01*
X33806300Y14986180D01*
X31844486Y14986180D01*
X31883237Y15053299D01*
X31916200Y15176320D01*
X31916200Y15303680D01*
X31883237Y15426701D01*
X31819556Y15536999D01*
X31735375Y15621180D01*
X37298800Y15621180D01*
X37298800Y15493820D01*
X37300375Y15487943D01*
X37331109Y15373237D01*
X37331763Y15370799D01*
X37395444Y15260501D01*
X37485501Y15170444D01*
X37595799Y15106763D01*
X37718820Y15073800D01*
X37846179Y15073800D01*
X37846180Y15073800D01*
X37969201Y15106763D01*
X38079499Y15170444D01*
X38169556Y15260501D01*
X38233237Y15370799D01*
X38266200Y15493820D01*
X38266200Y15621180D01*
X38886300Y15621180D01*
X38886300Y15493820D01*
X38887875Y15487943D01*
X38918609Y15373237D01*
X38919263Y15370799D01*
X38982944Y15260501D01*
X39073001Y15170444D01*
X39183299Y15106763D01*
X39306320Y15073800D01*
X39433679Y15073800D01*
X39433680Y15073800D01*
X39556701Y15106763D01*
X39666999Y15170444D01*
X39757056Y15260501D01*
X39820737Y15370799D01*
X39853700Y15493820D01*
X39853700Y15621180D01*
X40473800Y15621180D01*
X40473800Y15493820D01*
X40475375Y15487943D01*
X40506109Y15373237D01*
X40506763Y15370799D01*
X40570444Y15260501D01*
X40660501Y15170444D01*
X40770799Y15106763D01*
X40893820Y15073800D01*
X41021179Y15073800D01*
X41021180Y15073800D01*
X41144201Y15106763D01*
X41254499Y15170444D01*
X41344556Y15260501D01*
X41408237Y15370799D01*
X41441200Y15493820D01*
X41441200Y15621180D01*
X41408237Y15744201D01*
X41344556Y15854499D01*
X41254499Y15944556D01*
X41231861Y15957626D01*
X41152085Y16003685D01*
X41144201Y16008237D01*
X41144200Y16008238D01*
X41144199Y16008238D01*
X41021180Y16041200D01*
X40893820Y16041200D01*
X40770800Y16008238D01*
X40660503Y15944558D01*
X40570442Y15854497D01*
X40506762Y15744200D01*
X40477155Y15633700D01*
X40473800Y15621180D01*
X39853700Y15621180D01*
X39820737Y15744201D01*
X39757056Y15854499D01*
X39666999Y15944556D01*
X39644361Y15957626D01*
X39564585Y16003685D01*
X39556701Y16008237D01*
X39556700Y16008238D01*
X39556699Y16008238D01*
X39433680Y16041200D01*
X39306320Y16041200D01*
X39183300Y16008238D01*
X39073003Y15944558D01*
X38982942Y15854497D01*
X38919262Y15744200D01*
X38889655Y15633700D01*
X38886300Y15621180D01*
X38266200Y15621180D01*
X38233237Y15744201D01*
X38169556Y15854499D01*
X38079499Y15944556D01*
X38056861Y15957626D01*
X37977085Y16003685D01*
X37969201Y16008237D01*
X37969200Y16008238D01*
X37969199Y16008238D01*
X37846180Y16041200D01*
X37718820Y16041200D01*
X37595800Y16008238D01*
X37485503Y15944558D01*
X37395442Y15854497D01*
X37331762Y15744200D01*
X37302155Y15633700D01*
X37298800Y15621180D01*
X31735375Y15621180D01*
X31729499Y15627056D01*
X31717991Y15633700D01*
X31659572Y15667429D01*
X31619201Y15690737D01*
X31619200Y15690738D01*
X31619199Y15690738D01*
X31496180Y15723700D01*
X31368820Y15723700D01*
X31245800Y15690738D01*
X31135503Y15627058D01*
X31045442Y15536997D01*
X30981762Y15426700D01*
X30950375Y15309558D01*
X30948800Y15303680D01*
X30011200Y15303680D01*
X29978237Y15426701D01*
X29914556Y15536999D01*
X29824499Y15627056D01*
X29812991Y15633700D01*
X29754572Y15667429D01*
X29714201Y15690737D01*
X29714200Y15690738D01*
X29714199Y15690738D01*
X29591180Y15723700D01*
X29463820Y15723700D01*
X29340800Y15690738D01*
X29230503Y15627058D01*
X29140442Y15536997D01*
X29076762Y15426700D01*
X29045375Y15309558D01*
X29043800Y15303680D01*
X27788700Y15303680D01*
X27755737Y15426701D01*
X27692056Y15536999D01*
X27601999Y15627056D01*
X27590491Y15633700D01*
X27532072Y15667429D01*
X27491701Y15690737D01*
X27491700Y15690738D01*
X27491699Y15690738D01*
X27368680Y15723700D01*
X27241320Y15723700D01*
X27118300Y15690738D01*
X27008003Y15627058D01*
X26917942Y15536997D01*
X26854262Y15426700D01*
X26822875Y15309558D01*
X26821300Y15303680D01*
X25883700Y15303680D01*
X25850737Y15426701D01*
X25787056Y15536999D01*
X25696999Y15627056D01*
X25685491Y15633700D01*
X25627072Y15667429D01*
X25586701Y15690737D01*
X25586700Y15690738D01*
X25586699Y15690738D01*
X25463680Y15723700D01*
X25336320Y15723700D01*
X25213300Y15690738D01*
X25103003Y15627058D01*
X25012942Y15536997D01*
X24949262Y15426700D01*
X24917875Y15309558D01*
X24916300Y15303680D01*
X23661200Y15303680D01*
X23628237Y15426701D01*
X23564556Y15536999D01*
X23474499Y15627056D01*
X23462991Y15633700D01*
X23404572Y15667429D01*
X23364201Y15690737D01*
X23364200Y15690738D01*
X23364199Y15690738D01*
X23241180Y15723700D01*
X23113820Y15723700D01*
X22990800Y15690738D01*
X22880503Y15627058D01*
X22790442Y15536997D01*
X22726762Y15426700D01*
X22695375Y15309558D01*
X22693800Y15303680D01*
X21756200Y15303680D01*
X21723237Y15426701D01*
X21659556Y15536999D01*
X21569499Y15627056D01*
X21557991Y15633700D01*
X21499572Y15667429D01*
X21459201Y15690737D01*
X21459200Y15690738D01*
X21459199Y15690738D01*
X21336180Y15723700D01*
X21208820Y15723700D01*
X21085800Y15690738D01*
X20975503Y15627058D01*
X20885442Y15536997D01*
X20821762Y15426700D01*
X20790375Y15309558D01*
X20788800Y15303680D01*
X17239486Y15303680D01*
X17278237Y15370799D01*
X17311200Y15493820D01*
X17311200Y15621180D01*
X17278237Y15744201D01*
X17214556Y15854499D01*
X17124499Y15944556D01*
X17101860Y15957627D01*
X17063212Y16003686D01*
X17063212Y16063813D01*
X17101861Y16109874D01*
X17124499Y16122944D01*
X17214556Y16213001D01*
X17239486Y16256180D01*
X33806300Y16256180D01*
X33806300Y16128820D01*
X33807875Y16122943D01*
X33839262Y16005801D01*
X33875309Y15943365D01*
X33902944Y15895501D01*
X33993001Y15805444D01*
X34103299Y15741763D01*
X34226320Y15708800D01*
X34353680Y15708800D01*
X34476701Y15741763D01*
X34586999Y15805444D01*
X34677056Y15895501D01*
X34740737Y16005799D01*
X34773700Y16128820D01*
X34773700Y16256180D01*
X34740737Y16379201D01*
X34677056Y16489499D01*
X34586999Y16579556D01*
X34476701Y16643237D01*
X34476700Y16643238D01*
X34476699Y16643238D01*
X34353680Y16676200D01*
X34226320Y16676200D01*
X34103300Y16643238D01*
X33993003Y16579558D01*
X33902942Y16489497D01*
X33839262Y16379200D01*
X33824284Y16323299D01*
X33806300Y16256180D01*
X17239486Y16256180D01*
X17278237Y16323299D01*
X17311200Y16446320D01*
X17311200Y16573680D01*
X17278237Y16696701D01*
X17214556Y16806999D01*
X17130375Y16891180D01*
X37933800Y16891180D01*
X37933800Y16763821D01*
X37966109Y16643237D01*
X37966763Y16640799D01*
X38030444Y16530501D01*
X38120501Y16440444D01*
X38230799Y16376763D01*
X38353820Y16343800D01*
X38481179Y16343800D01*
X38481180Y16343800D01*
X38604201Y16376763D01*
X38714499Y16440444D01*
X38804556Y16530501D01*
X38868237Y16640799D01*
X38901200Y16763820D01*
X38901200Y16891180D01*
X38868237Y17014201D01*
X38804556Y17124499D01*
X38714499Y17214556D01*
X38604201Y17278237D01*
X38604200Y17278238D01*
X38604199Y17278238D01*
X38481180Y17311200D01*
X38353820Y17311200D01*
X38230800Y17278238D01*
X38120503Y17214558D01*
X38030442Y17124497D01*
X37966762Y17014200D01*
X37933800Y16891180D01*
X17130375Y16891180D01*
X17124499Y16897056D01*
X17014201Y16960737D01*
X17014200Y16960738D01*
X17014199Y16960738D01*
X16891180Y16993700D01*
X16763820Y16993700D01*
X16640800Y16960738D01*
X16530503Y16897058D01*
X16440442Y16806997D01*
X16376762Y16696700D01*
X16345375Y16579558D01*
X16343800Y16573680D01*
X6534448Y16573680D01*
X6608611Y16684673D01*
X6661657Y16812738D01*
X6688700Y16948692D01*
X6688700Y17087308D01*
X6679767Y17132216D01*
X6661658Y17223259D01*
X6661657Y17223261D01*
X6661657Y17223262D01*
X6631404Y17296300D01*
X6608612Y17351326D01*
X6608610Y17351329D01*
X6531603Y17466579D01*
X6531602Y17466580D01*
X6531600Y17466583D01*
X6433583Y17564600D01*
X6433579Y17564603D01*
X6433578Y17564604D01*
X6318328Y17641611D01*
X6318325Y17641613D01*
X6190262Y17694657D01*
X6190258Y17694659D01*
X6081350Y17716321D01*
X6054308Y17721700D01*
X4815692Y17721700D01*
X4788650Y17716321D01*
X4679741Y17694659D01*
X4679737Y17694657D01*
X4551674Y17641613D01*
X4551671Y17641611D01*
X4436421Y17564604D01*
X4338396Y17466579D01*
X4261389Y17351329D01*
X4261387Y17351326D01*
X4208343Y17223263D01*
X4208341Y17223259D01*
X4181300Y17087307D01*
X2258700Y17087307D01*
X2258700Y17087308D01*
X2249767Y17132216D01*
X2231658Y17223259D01*
X2231657Y17223261D01*
X2231657Y17223262D01*
X2201404Y17296300D01*
X2178612Y17351326D01*
X2178610Y17351329D01*
X2101603Y17466579D01*
X2101602Y17466580D01*
X2101600Y17466583D01*
X2003583Y17564600D01*
X2003579Y17564603D01*
X2003578Y17564604D01*
X1888328Y17641611D01*
X1888325Y17641613D01*
X1760262Y17694657D01*
X1760258Y17694659D01*
X1651350Y17716321D01*
X1624308Y17721700D01*
X885692Y17721700D01*
X858650Y17716321D01*
X749741Y17694659D01*
X749737Y17694657D01*
X621674Y17641613D01*
X621671Y17641611D01*
X506421Y17564604D01*
X408396Y17466579D01*
X331389Y17351329D01*
X331387Y17351326D01*
X296609Y17267361D01*
X255988Y17223031D01*
X196375Y17215183D01*
X145664Y17247489D01*
X127500Y17300999D01*
X127500Y19124705D01*
X511500Y19124705D01*
X511500Y18975296D01*
X540647Y18828758D01*
X540649Y18828754D01*
X597824Y18690718D01*
X597826Y18690715D01*
X680831Y18566489D01*
X680832Y18566488D01*
X680835Y18566484D01*
X786484Y18460835D01*
X786487Y18460833D01*
X786488Y18460832D01*
X910714Y18377827D01*
X910717Y18377825D01*
X974031Y18351600D01*
X1048754Y18320649D01*
X1048755Y18320649D01*
X1048757Y18320648D01*
X1122522Y18305976D01*
X1195294Y18291500D01*
X1195296Y18291500D01*
X1344704Y18291500D01*
X1344706Y18291500D01*
X1441515Y18310757D01*
X1491242Y18320648D01*
X1491242Y18320649D01*
X1491246Y18320649D01*
X1629284Y18377826D01*
X1753516Y18460835D01*
X1771361Y18478680D01*
X5548800Y18478680D01*
X5548800Y18351320D01*
X5560864Y18306294D01*
X5581109Y18230737D01*
X5581763Y18228299D01*
X5645444Y18118001D01*
X5735501Y18027944D01*
X5845799Y17964263D01*
X5968820Y17931300D01*
X6096179Y17931300D01*
X6096180Y17931300D01*
X6219201Y17964263D01*
X6329499Y18027944D01*
X6346867Y18045312D01*
X13978072Y18045312D01*
X13978072Y17917952D01*
X13980058Y17910540D01*
X14011034Y17794933D01*
X14068928Y17694657D01*
X14074716Y17684633D01*
X14164773Y17594576D01*
X14275071Y17530895D01*
X14398092Y17497932D01*
X14525451Y17497932D01*
X14525452Y17497932D01*
X14630876Y17526180D01*
X20788800Y17526180D01*
X20788800Y17398820D01*
X20790375Y17392943D01*
X20821109Y17278237D01*
X20821763Y17275799D01*
X20885444Y17165501D01*
X20975501Y17075444D01*
X21085799Y17011763D01*
X21208820Y16978800D01*
X21336179Y16978800D01*
X21336180Y16978800D01*
X21459201Y17011763D01*
X21569499Y17075444D01*
X21659556Y17165501D01*
X21723237Y17275799D01*
X21756200Y17398820D01*
X21756200Y17526180D01*
X22693800Y17526180D01*
X22693800Y17398820D01*
X22695375Y17392943D01*
X22726109Y17278237D01*
X22726763Y17275799D01*
X22790444Y17165501D01*
X22880501Y17075444D01*
X22990799Y17011763D01*
X23113820Y16978800D01*
X23241179Y16978800D01*
X23241180Y16978800D01*
X23364201Y17011763D01*
X23474499Y17075444D01*
X23564556Y17165501D01*
X23628237Y17275799D01*
X23661200Y17398820D01*
X23661200Y17526180D01*
X24916300Y17526180D01*
X24916300Y17398820D01*
X24917875Y17392943D01*
X24948609Y17278237D01*
X24949263Y17275799D01*
X25012944Y17165501D01*
X25103001Y17075444D01*
X25213299Y17011763D01*
X25336320Y16978800D01*
X25463679Y16978800D01*
X25463680Y16978800D01*
X25586701Y17011763D01*
X25696999Y17075444D01*
X25787056Y17165501D01*
X25850737Y17275799D01*
X25883700Y17398820D01*
X25883700Y17526180D01*
X26821300Y17526180D01*
X26821300Y17398820D01*
X26822875Y17392943D01*
X26853609Y17278237D01*
X26854263Y17275799D01*
X26917944Y17165501D01*
X27008001Y17075444D01*
X27118299Y17011763D01*
X27241320Y16978800D01*
X27368679Y16978800D01*
X27368680Y16978800D01*
X27491701Y17011763D01*
X27601999Y17075444D01*
X27692056Y17165501D01*
X27755737Y17275799D01*
X27788700Y17398820D01*
X27788700Y17526180D01*
X29043800Y17526180D01*
X29043800Y17398820D01*
X29045375Y17392943D01*
X29076109Y17278237D01*
X29076763Y17275799D01*
X29140444Y17165501D01*
X29230501Y17075444D01*
X29340799Y17011763D01*
X29463820Y16978800D01*
X29591179Y16978800D01*
X29591180Y16978800D01*
X29714201Y17011763D01*
X29824499Y17075444D01*
X29914556Y17165501D01*
X29978237Y17275799D01*
X30011200Y17398820D01*
X30011200Y17526180D01*
X30948800Y17526180D01*
X30948800Y17398820D01*
X30950375Y17392943D01*
X30981109Y17278237D01*
X30981763Y17275799D01*
X31045444Y17165501D01*
X31135501Y17075444D01*
X31245799Y17011763D01*
X31368820Y16978800D01*
X31496180Y16978800D01*
X31619201Y17011763D01*
X31729499Y17075444D01*
X31819556Y17165501D01*
X31883237Y17275799D01*
X31916200Y17398820D01*
X31916200Y17526180D01*
X31883237Y17649201D01*
X31819556Y17759499D01*
X31735375Y17843680D01*
X34758800Y17843680D01*
X34758800Y17716321D01*
X34791420Y17594576D01*
X34791763Y17593299D01*
X34815071Y17552928D01*
X34846823Y17497932D01*
X34855444Y17483001D01*
X34945501Y17392944D01*
X35055799Y17329263D01*
X35178820Y17296300D01*
X35306179Y17296300D01*
X35306180Y17296300D01*
X35429201Y17329263D01*
X35539499Y17392944D01*
X35629556Y17483001D01*
X35693237Y17593299D01*
X35726200Y17716320D01*
X35726200Y17843400D01*
X35726302Y17843680D01*
X36663800Y17843680D01*
X36663800Y17716321D01*
X36696420Y17594576D01*
X36696763Y17593299D01*
X36720071Y17552928D01*
X36751823Y17497932D01*
X36760444Y17483001D01*
X36850501Y17392944D01*
X36960799Y17329263D01*
X37083820Y17296300D01*
X37211179Y17296300D01*
X37211180Y17296300D01*
X37334201Y17329263D01*
X37444499Y17392944D01*
X37534556Y17483001D01*
X37598237Y17593299D01*
X37631200Y17716320D01*
X37631200Y17843680D01*
X37598237Y17966701D01*
X37534556Y18076999D01*
X37444499Y18167056D01*
X37442287Y18168333D01*
X37374572Y18207429D01*
X37334201Y18230737D01*
X37334200Y18230738D01*
X37334199Y18230738D01*
X37211180Y18263700D01*
X37083820Y18263700D01*
X36960800Y18230738D01*
X36850503Y18167058D01*
X36760442Y18076997D01*
X36696762Y17966700D01*
X36663800Y17843680D01*
X35726302Y17843680D01*
X35733476Y17863393D01*
X35736384Y17884468D01*
X35743487Y17890898D01*
X35746765Y17899901D01*
X35765190Y17910540D01*
X35780964Y17924815D01*
X35794506Y17927466D01*
X35798836Y17929965D01*
X35810808Y17931238D01*
X35813653Y17931345D01*
X35813820Y17931300D01*
X35941180Y17931300D01*
X36064201Y17964263D01*
X36174499Y18027944D01*
X36264556Y18118001D01*
X36328237Y18228299D01*
X36361200Y18351320D01*
X36361200Y18478680D01*
X37616300Y18478680D01*
X37616300Y18351320D01*
X37628364Y18306294D01*
X37648609Y18230737D01*
X37649263Y18228299D01*
X37712944Y18118001D01*
X37803001Y18027944D01*
X37913299Y17964263D01*
X38036320Y17931300D01*
X38163679Y17931300D01*
X38163680Y17931300D01*
X38286701Y17964263D01*
X38396999Y18027944D01*
X38487056Y18118001D01*
X38550737Y18228299D01*
X38583700Y18351320D01*
X38583700Y18478680D01*
X38550737Y18601701D01*
X38487056Y18711999D01*
X38396999Y18802056D01*
X38286701Y18865737D01*
X38286700Y18865738D01*
X38286699Y18865738D01*
X38163680Y18898700D01*
X38036320Y18898700D01*
X37913300Y18865738D01*
X37803003Y18802058D01*
X37712942Y18711997D01*
X37649262Y18601700D01*
X37634284Y18545799D01*
X37616300Y18478680D01*
X36361200Y18478680D01*
X36328237Y18601701D01*
X36264556Y18711999D01*
X36174499Y18802056D01*
X36064201Y18865737D01*
X36064200Y18865738D01*
X36064199Y18865738D01*
X35941180Y18898700D01*
X35813820Y18898700D01*
X35690800Y18865738D01*
X35580503Y18802058D01*
X35490442Y18711997D01*
X35426762Y18601700D01*
X35393800Y18478680D01*
X35393800Y18351600D01*
X35373235Y18295099D01*
X35321164Y18265035D01*
X35305900Y18263700D01*
X35178820Y18263700D01*
X35055800Y18230738D01*
X34945503Y18167058D01*
X34855442Y18076997D01*
X34791762Y17966700D01*
X34758800Y17843680D01*
X31735375Y17843680D01*
X31729499Y17849556D01*
X31619201Y17913237D01*
X31619200Y17913238D01*
X31619199Y17913238D01*
X31496180Y17946200D01*
X31368820Y17946200D01*
X31245800Y17913238D01*
X31135503Y17849558D01*
X31045442Y17759497D01*
X30981762Y17649200D01*
X30959094Y17564600D01*
X30948800Y17526180D01*
X30011200Y17526180D01*
X29978237Y17649201D01*
X29914556Y17759499D01*
X29824499Y17849556D01*
X29714201Y17913237D01*
X29714200Y17913238D01*
X29714199Y17913238D01*
X29591180Y17946200D01*
X29463820Y17946200D01*
X29340800Y17913238D01*
X29230503Y17849558D01*
X29140442Y17759497D01*
X29076762Y17649200D01*
X29054094Y17564600D01*
X29043800Y17526180D01*
X27788700Y17526180D01*
X27755737Y17649201D01*
X27692056Y17759499D01*
X27601999Y17849556D01*
X27491701Y17913237D01*
X27491700Y17913238D01*
X27491699Y17913238D01*
X27368680Y17946200D01*
X27241320Y17946200D01*
X27118300Y17913238D01*
X27008003Y17849558D01*
X26917942Y17759497D01*
X26854262Y17649200D01*
X26831594Y17564600D01*
X26821300Y17526180D01*
X25883700Y17526180D01*
X25850737Y17649201D01*
X25787056Y17759499D01*
X25696999Y17849556D01*
X25586701Y17913237D01*
X25586700Y17913238D01*
X25586699Y17913238D01*
X25463680Y17946200D01*
X25336320Y17946200D01*
X25213300Y17913238D01*
X25103003Y17849558D01*
X25012942Y17759497D01*
X24949262Y17649200D01*
X24926594Y17564600D01*
X24916300Y17526180D01*
X23661200Y17526180D01*
X23628237Y17649201D01*
X23564556Y17759499D01*
X23474499Y17849556D01*
X23364201Y17913237D01*
X23364200Y17913238D01*
X23364199Y17913238D01*
X23241180Y17946200D01*
X23113820Y17946200D01*
X22990800Y17913238D01*
X22880503Y17849558D01*
X22790442Y17759497D01*
X22726762Y17649200D01*
X22704094Y17564600D01*
X22693800Y17526180D01*
X21756200Y17526180D01*
X21723237Y17649201D01*
X21659556Y17759499D01*
X21569499Y17849556D01*
X21459201Y17913237D01*
X21459200Y17913238D01*
X21459199Y17913238D01*
X21336180Y17946200D01*
X21208820Y17946200D01*
X21085800Y17913238D01*
X20975503Y17849558D01*
X20885442Y17759497D01*
X20821762Y17649200D01*
X20799094Y17564600D01*
X20788800Y17526180D01*
X14630876Y17526180D01*
X14648473Y17530895D01*
X14758771Y17594576D01*
X14848828Y17684633D01*
X14912509Y17794931D01*
X14945472Y17917952D01*
X14945472Y18045312D01*
X14912509Y18168333D01*
X14848828Y18278631D01*
X14758771Y18368688D01*
X14742945Y18377825D01*
X14648471Y18432370D01*
X14525452Y18465332D01*
X14398092Y18465332D01*
X14275072Y18432370D01*
X14164775Y18368690D01*
X14074714Y18278629D01*
X14011034Y18168332D01*
X13986562Y18076999D01*
X13978072Y18045312D01*
X6346867Y18045312D01*
X6419556Y18118001D01*
X6483237Y18228299D01*
X6516200Y18351320D01*
X6516200Y18478680D01*
X6483237Y18601701D01*
X6419556Y18711999D01*
X6329499Y18802056D01*
X6219201Y18865737D01*
X6219200Y18865738D01*
X6219199Y18865738D01*
X6096180Y18898700D01*
X5968820Y18898700D01*
X5845800Y18865738D01*
X5735503Y18802058D01*
X5645442Y18711997D01*
X5581762Y18601700D01*
X5566784Y18545799D01*
X5548800Y18478680D01*
X1771361Y18478680D01*
X1859165Y18566484D01*
X1942174Y18690716D01*
X1999351Y18828754D01*
X2006708Y18865737D01*
X2028500Y18975296D01*
X2028500Y19113680D01*
X10946300Y19113680D01*
X10946300Y18986320D01*
X10958364Y18941294D01*
X10978609Y18865737D01*
X10979263Y18863299D01*
X11042944Y18753001D01*
X11133001Y18662944D01*
X11243299Y18599263D01*
X11366320Y18566300D01*
X11493679Y18566300D01*
X11493680Y18566300D01*
X11616701Y18599263D01*
X11726999Y18662944D01*
X11817056Y18753001D01*
X11841986Y18796180D01*
X16026300Y18796180D01*
X16026300Y18668820D01*
X16027875Y18662943D01*
X16053769Y18566300D01*
X16059263Y18545799D01*
X16122944Y18435501D01*
X16213001Y18345444D01*
X16323299Y18281763D01*
X16446320Y18248800D01*
X16573679Y18248800D01*
X16573680Y18248800D01*
X16696701Y18281763D01*
X16806999Y18345444D01*
X16897056Y18435501D01*
X16960737Y18545799D01*
X16993700Y18668820D01*
X16993700Y18796180D01*
X16960737Y18919201D01*
X16897056Y19029499D01*
X16806999Y19119556D01*
X16696701Y19183237D01*
X16696700Y19183238D01*
X16696699Y19183238D01*
X16573680Y19216200D01*
X16446320Y19216200D01*
X16323300Y19183238D01*
X16213003Y19119558D01*
X16122942Y19029497D01*
X16059262Y18919200D01*
X16044284Y18863299D01*
X16026300Y18796180D01*
X11841986Y18796180D01*
X11880737Y18863299D01*
X11913700Y18986320D01*
X11913700Y19113680D01*
X11880737Y19236701D01*
X11817056Y19346999D01*
X11732875Y19431180D01*
X20788800Y19431180D01*
X20788800Y19303821D01*
X20821762Y19180801D01*
X20854148Y19124706D01*
X20885444Y19070501D01*
X20975501Y18980444D01*
X21085799Y18916763D01*
X21208820Y18883800D01*
X21336179Y18883800D01*
X21336180Y18883800D01*
X21459201Y18916763D01*
X21569499Y18980444D01*
X21659556Y19070501D01*
X21723237Y19180799D01*
X21756200Y19303820D01*
X21756200Y19431180D01*
X22693800Y19431180D01*
X22693800Y19303821D01*
X22726762Y19180801D01*
X22759148Y19124706D01*
X22790444Y19070501D01*
X22880501Y18980444D01*
X22990799Y18916763D01*
X23113820Y18883800D01*
X23241179Y18883800D01*
X23241180Y18883800D01*
X23364201Y18916763D01*
X23474499Y18980444D01*
X23564556Y19070501D01*
X23628237Y19180799D01*
X23661200Y19303820D01*
X23661200Y19431180D01*
X24916300Y19431180D01*
X24916300Y19303821D01*
X24949262Y19180801D01*
X24981648Y19124706D01*
X25012944Y19070501D01*
X25103001Y18980444D01*
X25213299Y18916763D01*
X25336320Y18883800D01*
X25463679Y18883800D01*
X25463680Y18883800D01*
X25586701Y18916763D01*
X25696999Y18980444D01*
X25787056Y19070501D01*
X25850737Y19180799D01*
X25883700Y19303820D01*
X25883700Y19431180D01*
X26821300Y19431180D01*
X26821300Y19303821D01*
X26854262Y19180801D01*
X26886648Y19124706D01*
X26917944Y19070501D01*
X27008001Y18980444D01*
X27118299Y18916763D01*
X27241320Y18883800D01*
X27368679Y18883800D01*
X27368680Y18883800D01*
X27491701Y18916763D01*
X27601999Y18980444D01*
X27692056Y19070501D01*
X27755737Y19180799D01*
X27788700Y19303820D01*
X27788700Y19431180D01*
X29043800Y19431180D01*
X29043800Y19303821D01*
X29076762Y19180801D01*
X29109148Y19124706D01*
X29140444Y19070501D01*
X29230501Y18980444D01*
X29340799Y18916763D01*
X29463820Y18883800D01*
X29591179Y18883800D01*
X29591180Y18883800D01*
X29714201Y18916763D01*
X29824499Y18980444D01*
X29914556Y19070501D01*
X29978237Y19180799D01*
X30011200Y19303820D01*
X30011200Y19431180D01*
X30948800Y19431180D01*
X30948800Y19303821D01*
X30981762Y19180801D01*
X31014148Y19124706D01*
X31045444Y19070501D01*
X31135501Y18980444D01*
X31245799Y18916763D01*
X31368820Y18883800D01*
X31496179Y18883800D01*
X31496180Y18883800D01*
X31619201Y18916763D01*
X31729499Y18980444D01*
X31819556Y19070501D01*
X31883237Y19180799D01*
X31916200Y19303820D01*
X31916200Y19431180D01*
X31883237Y19554201D01*
X31819556Y19664499D01*
X31729499Y19754556D01*
X31619201Y19818237D01*
X31619200Y19818238D01*
X31619199Y19818238D01*
X31496180Y19851200D01*
X31368820Y19851200D01*
X31245800Y19818238D01*
X31135503Y19754558D01*
X31045442Y19664497D01*
X30981762Y19554200D01*
X30948800Y19431180D01*
X30011200Y19431180D01*
X29978237Y19554201D01*
X29914556Y19664499D01*
X29824499Y19754556D01*
X29714201Y19818237D01*
X29714200Y19818238D01*
X29714199Y19818238D01*
X29591180Y19851200D01*
X29463820Y19851200D01*
X29340800Y19818238D01*
X29230503Y19754558D01*
X29140442Y19664497D01*
X29076762Y19554200D01*
X29043800Y19431180D01*
X27788700Y19431180D01*
X27755737Y19554201D01*
X27692056Y19664499D01*
X27601999Y19754556D01*
X27491701Y19818237D01*
X27491700Y19818238D01*
X27491699Y19818238D01*
X27368680Y19851200D01*
X27241320Y19851200D01*
X27118300Y19818238D01*
X27008003Y19754558D01*
X26917942Y19664497D01*
X26854262Y19554200D01*
X26821300Y19431180D01*
X25883700Y19431180D01*
X25850737Y19554201D01*
X25787056Y19664499D01*
X25696999Y19754556D01*
X25586701Y19818237D01*
X25586700Y19818238D01*
X25586699Y19818238D01*
X25463680Y19851200D01*
X25336320Y19851200D01*
X25213300Y19818238D01*
X25103003Y19754558D01*
X25012942Y19664497D01*
X24949262Y19554200D01*
X24916300Y19431180D01*
X23661200Y19431180D01*
X23628237Y19554201D01*
X23564556Y19664499D01*
X23474499Y19754556D01*
X23364201Y19818237D01*
X23364200Y19818238D01*
X23364199Y19818238D01*
X23241180Y19851200D01*
X23113820Y19851200D01*
X22990800Y19818238D01*
X22880503Y19754558D01*
X22790442Y19664497D01*
X22726762Y19554200D01*
X22693800Y19431180D01*
X21756200Y19431180D01*
X21723237Y19554201D01*
X21659556Y19664499D01*
X21569499Y19754556D01*
X21459201Y19818237D01*
X21459200Y19818238D01*
X21459199Y19818238D01*
X21336180Y19851200D01*
X21208820Y19851200D01*
X21085800Y19818238D01*
X20975503Y19754558D01*
X20885442Y19664497D01*
X20821762Y19554200D01*
X20788800Y19431180D01*
X11732875Y19431180D01*
X11726999Y19437056D01*
X11616701Y19500737D01*
X11616700Y19500738D01*
X11616699Y19500738D01*
X11493680Y19533700D01*
X11366320Y19533700D01*
X11243300Y19500738D01*
X11133003Y19437058D01*
X11042942Y19346997D01*
X10979262Y19236700D01*
X10964284Y19180799D01*
X10946300Y19113680D01*
X2028500Y19113680D01*
X2028500Y19124705D01*
X1999352Y19271243D01*
X1999351Y19271245D01*
X1999351Y19271246D01*
X1967973Y19346999D01*
X1942175Y19409283D01*
X1942173Y19409286D01*
X1859168Y19533512D01*
X1859167Y19533513D01*
X1859165Y19533516D01*
X1753516Y19639165D01*
X1753512Y19639168D01*
X1753511Y19639169D01*
X1629285Y19722174D01*
X1629282Y19722176D01*
X1491246Y19779351D01*
X1491242Y19779353D01*
X1381090Y19801263D01*
X1344706Y19808500D01*
X1195294Y19808500D01*
X1162927Y19802062D01*
X1048757Y19779353D01*
X1048753Y19779351D01*
X910717Y19722176D01*
X910714Y19722174D01*
X786488Y19639169D01*
X680831Y19533512D01*
X597826Y19409286D01*
X597824Y19409283D01*
X540649Y19271247D01*
X540647Y19271243D01*
X511500Y19124705D01*
X127500Y19124705D01*
X127500Y20383680D01*
X11581300Y20383680D01*
X11581300Y20256321D01*
X11599284Y20189200D01*
X11614263Y20133299D01*
X11677944Y20023001D01*
X11768001Y19932944D01*
X11878299Y19869263D01*
X12001320Y19836300D01*
X12128679Y19836300D01*
X12128680Y19836300D01*
X12251701Y19869263D01*
X12361999Y19932944D01*
X12452056Y20023001D01*
X12476986Y20066180D01*
X15073800Y20066180D01*
X15073800Y19938820D01*
X15075375Y19932943D01*
X15106762Y19815801D01*
X15160816Y19722176D01*
X15170444Y19705501D01*
X15260501Y19615444D01*
X15370799Y19551763D01*
X15493820Y19518800D01*
X15621180Y19518800D01*
X15744201Y19551763D01*
X15854499Y19615444D01*
X15944556Y19705501D01*
X16008237Y19815799D01*
X16041200Y19938820D01*
X16041200Y20066180D01*
X16008237Y20189201D01*
X15944556Y20299499D01*
X15854499Y20389556D01*
X15744201Y20453237D01*
X15744200Y20453238D01*
X15744199Y20453238D01*
X15621180Y20486200D01*
X15493820Y20486200D01*
X15370800Y20453238D01*
X15260503Y20389558D01*
X15170442Y20299497D01*
X15106762Y20189200D01*
X15091784Y20133299D01*
X15073800Y20066180D01*
X12476986Y20066180D01*
X12515737Y20133299D01*
X12548700Y20256320D01*
X12548700Y20383680D01*
X12515737Y20506701D01*
X12452056Y20616999D01*
X12361999Y20707056D01*
X12251701Y20770737D01*
X12251700Y20770738D01*
X12251699Y20770738D01*
X12128680Y20803700D01*
X12001320Y20803700D01*
X11878300Y20770738D01*
X11768003Y20707058D01*
X11677942Y20616997D01*
X11614262Y20506700D01*
X11581300Y20383680D01*
X127500Y20383680D01*
X127500Y21664705D01*
X511500Y21664705D01*
X511500Y21515296D01*
X540647Y21368758D01*
X540649Y21368754D01*
X597824Y21230718D01*
X597826Y21230715D01*
X680831Y21106489D01*
X680832Y21106488D01*
X680835Y21106484D01*
X786484Y21000835D01*
X786487Y21000833D01*
X786488Y21000832D01*
X910714Y20917827D01*
X910717Y20917825D01*
X979735Y20889238D01*
X1048754Y20860649D01*
X1048755Y20860649D01*
X1048757Y20860648D01*
X1122522Y20845976D01*
X1195294Y20831500D01*
X1195296Y20831500D01*
X1344704Y20831500D01*
X1344706Y20831500D01*
X1441515Y20850757D01*
X1491242Y20860648D01*
X1491242Y20860649D01*
X1491246Y20860649D01*
X1629284Y20917826D01*
X1753516Y21000835D01*
X1859165Y21106484D01*
X1942174Y21230716D01*
X1999351Y21368754D01*
X2028500Y21515294D01*
X2028500Y21664705D01*
X7496500Y21664705D01*
X7496500Y21515296D01*
X7525647Y21368758D01*
X7525649Y21368754D01*
X7582824Y21230718D01*
X7582826Y21230715D01*
X7665831Y21106489D01*
X7665832Y21106488D01*
X7665835Y21106484D01*
X7771484Y21000835D01*
X7771487Y21000833D01*
X7771488Y21000832D01*
X7895714Y20917827D01*
X7895717Y20917825D01*
X7964735Y20889238D01*
X8033754Y20860649D01*
X8033755Y20860649D01*
X8033757Y20860648D01*
X8107522Y20845976D01*
X8180294Y20831500D01*
X8180296Y20831500D01*
X8329704Y20831500D01*
X8329706Y20831500D01*
X8426515Y20850757D01*
X8476242Y20860648D01*
X8476242Y20860649D01*
X8476246Y20860649D01*
X8614284Y20917826D01*
X8738516Y21000835D01*
X8844165Y21106484D01*
X8927174Y21230716D01*
X8984351Y21368754D01*
X9013500Y21515294D01*
X9013500Y21664706D01*
X8998264Y21741300D01*
X8984352Y21811243D01*
X8984351Y21811245D01*
X8984351Y21811246D01*
X8935990Y21928001D01*
X8929652Y21943303D01*
X8929651Y21943304D01*
X8927176Y21949280D01*
X8927173Y21949286D01*
X8912544Y21971180D01*
X11581300Y21971180D01*
X11581300Y21843820D01*
X11582875Y21837943D01*
X11614262Y21720801D01*
X11646648Y21664706D01*
X11677944Y21610501D01*
X11768001Y21520444D01*
X11878299Y21456763D01*
X12001320Y21423800D01*
X12128679Y21423800D01*
X12128680Y21423800D01*
X12251701Y21456763D01*
X12361999Y21520444D01*
X12452056Y21610501D01*
X12476986Y21653680D01*
X20788800Y21653680D01*
X20788800Y21526320D01*
X20800864Y21481294D01*
X20816269Y21423800D01*
X20821763Y21403299D01*
X20885444Y21293001D01*
X20975501Y21202944D01*
X21085799Y21139263D01*
X21208820Y21106300D01*
X21336179Y21106300D01*
X21336180Y21106300D01*
X21459201Y21139263D01*
X21569499Y21202944D01*
X21659556Y21293001D01*
X21723237Y21403299D01*
X21756200Y21526320D01*
X21756200Y21653680D01*
X22693800Y21653680D01*
X22693800Y21526320D01*
X22705864Y21481294D01*
X22721269Y21423800D01*
X22726763Y21403299D01*
X22790444Y21293001D01*
X22880501Y21202944D01*
X22990799Y21139263D01*
X23113820Y21106300D01*
X23241179Y21106300D01*
X23241180Y21106300D01*
X23364201Y21139263D01*
X23474499Y21202944D01*
X23564556Y21293001D01*
X23628237Y21403299D01*
X23661200Y21526320D01*
X23661200Y21653680D01*
X24916300Y21653680D01*
X24916300Y21526320D01*
X24928364Y21481294D01*
X24943769Y21423800D01*
X24949263Y21403299D01*
X25012944Y21293001D01*
X25103001Y21202944D01*
X25213299Y21139263D01*
X25336320Y21106300D01*
X25463679Y21106300D01*
X25463680Y21106300D01*
X25586701Y21139263D01*
X25696999Y21202944D01*
X25787056Y21293001D01*
X25850737Y21403299D01*
X25883700Y21526320D01*
X25883700Y21653680D01*
X26821300Y21653680D01*
X26821300Y21526320D01*
X26833364Y21481294D01*
X26848769Y21423800D01*
X26854263Y21403299D01*
X26917944Y21293001D01*
X27008001Y21202944D01*
X27118299Y21139263D01*
X27241320Y21106300D01*
X27368679Y21106300D01*
X27368680Y21106300D01*
X27491701Y21139263D01*
X27601999Y21202944D01*
X27692056Y21293001D01*
X27755737Y21403299D01*
X27788700Y21526320D01*
X27788700Y21653680D01*
X29043800Y21653680D01*
X29043800Y21526320D01*
X29055864Y21481294D01*
X29071269Y21423800D01*
X29076763Y21403299D01*
X29140444Y21293001D01*
X29230501Y21202944D01*
X29340799Y21139263D01*
X29463820Y21106300D01*
X29591179Y21106300D01*
X29591180Y21106300D01*
X29714201Y21139263D01*
X29824499Y21202944D01*
X29914556Y21293001D01*
X29978237Y21403299D01*
X30011200Y21526320D01*
X30011200Y21653680D01*
X30948800Y21653680D01*
X30948800Y21526320D01*
X30960864Y21481294D01*
X30976269Y21423800D01*
X30981763Y21403299D01*
X31045444Y21293001D01*
X31135501Y21202944D01*
X31245799Y21139263D01*
X31368820Y21106300D01*
X31496179Y21106300D01*
X31496180Y21106300D01*
X31619201Y21139263D01*
X31729499Y21202944D01*
X31819556Y21293001D01*
X31883237Y21403299D01*
X31916200Y21526320D01*
X31916200Y21653680D01*
X31883237Y21776701D01*
X31819556Y21886999D01*
X31729499Y21977056D01*
X31619201Y22040737D01*
X31619200Y22040738D01*
X31619199Y22040738D01*
X31496180Y22073700D01*
X31368820Y22073700D01*
X31245800Y22040738D01*
X31135503Y21977058D01*
X31045442Y21886997D01*
X30981762Y21776700D01*
X30966784Y21720799D01*
X30948800Y21653680D01*
X30011200Y21653680D01*
X29978237Y21776701D01*
X29914556Y21886999D01*
X29824499Y21977056D01*
X29714201Y22040737D01*
X29714200Y22040738D01*
X29714199Y22040738D01*
X29591180Y22073700D01*
X29463820Y22073700D01*
X29340800Y22040738D01*
X29230503Y21977058D01*
X29140442Y21886997D01*
X29076762Y21776700D01*
X29061784Y21720799D01*
X29043800Y21653680D01*
X27788700Y21653680D01*
X27755737Y21776701D01*
X27692056Y21886999D01*
X27601999Y21977056D01*
X27491701Y22040737D01*
X27491700Y22040738D01*
X27491699Y22040738D01*
X27368680Y22073700D01*
X27241320Y22073700D01*
X27118300Y22040738D01*
X27008003Y21977058D01*
X26917942Y21886997D01*
X26854262Y21776700D01*
X26839284Y21720799D01*
X26821300Y21653680D01*
X25883700Y21653680D01*
X25850737Y21776701D01*
X25787056Y21886999D01*
X25696999Y21977056D01*
X25586701Y22040737D01*
X25586700Y22040738D01*
X25586699Y22040738D01*
X25463680Y22073700D01*
X25336320Y22073700D01*
X25213300Y22040738D01*
X25103003Y21977058D01*
X25012942Y21886997D01*
X24949262Y21776700D01*
X24934284Y21720799D01*
X24916300Y21653680D01*
X23661200Y21653680D01*
X23628237Y21776701D01*
X23564556Y21886999D01*
X23474499Y21977056D01*
X23364201Y22040737D01*
X23364200Y22040738D01*
X23364199Y22040738D01*
X23241180Y22073700D01*
X23113820Y22073700D01*
X22990800Y22040738D01*
X22880503Y21977058D01*
X22790442Y21886997D01*
X22726762Y21776700D01*
X22711784Y21720799D01*
X22693800Y21653680D01*
X21756200Y21653680D01*
X21723237Y21776701D01*
X21659556Y21886999D01*
X21569499Y21977056D01*
X21459201Y22040737D01*
X21459200Y22040738D01*
X21459199Y22040738D01*
X21336180Y22073700D01*
X21208820Y22073700D01*
X21085800Y22040738D01*
X20975503Y21977058D01*
X20885442Y21886997D01*
X20821762Y21776700D01*
X20806784Y21720799D01*
X20788800Y21653680D01*
X12476986Y21653680D01*
X12515737Y21720799D01*
X12548700Y21843820D01*
X12548700Y21971180D01*
X12515737Y22094201D01*
X12452056Y22204499D01*
X12367875Y22288680D01*
X34123800Y22288680D01*
X34123800Y22161321D01*
X34156109Y22040737D01*
X34156763Y22038299D01*
X34220444Y21928001D01*
X34310501Y21837944D01*
X34420799Y21774263D01*
X34543820Y21741300D01*
X34671179Y21741300D01*
X34671180Y21741300D01*
X34794201Y21774263D01*
X34904499Y21837944D01*
X34994556Y21928001D01*
X35058237Y22038299D01*
X35091200Y22161320D01*
X35091200Y22288680D01*
X35393800Y22288680D01*
X35393800Y22161321D01*
X35426109Y22040737D01*
X35426763Y22038299D01*
X35490444Y21928001D01*
X35580501Y21837944D01*
X35690799Y21774263D01*
X35813820Y21741300D01*
X35941179Y21741300D01*
X35941180Y21741300D01*
X36064201Y21774263D01*
X36174499Y21837944D01*
X36264556Y21928001D01*
X36289486Y21971180D01*
X37933800Y21971180D01*
X37933800Y21843820D01*
X37935375Y21837943D01*
X37966762Y21720801D01*
X37999148Y21664706D01*
X38030444Y21610501D01*
X38120501Y21520444D01*
X38230799Y21456763D01*
X38353820Y21423800D01*
X38481179Y21423800D01*
X38481180Y21423800D01*
X38604201Y21456763D01*
X38714499Y21520444D01*
X38804556Y21610501D01*
X38868237Y21720799D01*
X38901200Y21843820D01*
X38901200Y21971180D01*
X38868237Y22094201D01*
X38804556Y22204499D01*
X38714499Y22294556D01*
X38604201Y22358237D01*
X38604200Y22358238D01*
X38604199Y22358238D01*
X38481180Y22391200D01*
X38353820Y22391200D01*
X38230800Y22358238D01*
X38120503Y22294558D01*
X38030442Y22204497D01*
X37966762Y22094200D01*
X37951784Y22038299D01*
X37933800Y21971180D01*
X36289486Y21971180D01*
X36328237Y22038299D01*
X36361200Y22161320D01*
X36361200Y22288680D01*
X36328237Y22411701D01*
X36264556Y22521999D01*
X36174499Y22612056D01*
X36064201Y22675737D01*
X36064200Y22675738D01*
X36064199Y22675738D01*
X35941180Y22708700D01*
X35813820Y22708700D01*
X35690800Y22675738D01*
X35580503Y22612058D01*
X35490442Y22521997D01*
X35426762Y22411700D01*
X35393800Y22288680D01*
X35091200Y22288680D01*
X35058237Y22411701D01*
X34994556Y22521999D01*
X34904499Y22612056D01*
X34794201Y22675737D01*
X34794200Y22675738D01*
X34794199Y22675738D01*
X34671180Y22708700D01*
X34543820Y22708700D01*
X34420800Y22675738D01*
X34310503Y22612058D01*
X34220442Y22521997D01*
X34156762Y22411700D01*
X34123800Y22288680D01*
X12367875Y22288680D01*
X12361999Y22294556D01*
X12251701Y22358237D01*
X12251700Y22358238D01*
X12251699Y22358238D01*
X12128680Y22391200D01*
X12001320Y22391200D01*
X11878300Y22358238D01*
X11768003Y22294558D01*
X11677942Y22204497D01*
X11614262Y22094200D01*
X11599284Y22038299D01*
X11581300Y21971180D01*
X8912544Y21971180D01*
X8844168Y22073512D01*
X8844167Y22073513D01*
X8844165Y22073516D01*
X8738516Y22179165D01*
X8738512Y22179168D01*
X8738511Y22179169D01*
X8614285Y22262174D01*
X8614282Y22262176D01*
X8476246Y22319351D01*
X8476242Y22319353D01*
X8366090Y22341263D01*
X8329706Y22348500D01*
X8180294Y22348500D01*
X8147927Y22342062D01*
X8033757Y22319353D01*
X8033753Y22319351D01*
X7895717Y22262176D01*
X7895714Y22262174D01*
X7771488Y22179169D01*
X7665831Y22073512D01*
X7582826Y21949286D01*
X7582824Y21949283D01*
X7525649Y21811247D01*
X7525647Y21811243D01*
X7496500Y21664705D01*
X2028500Y21664705D01*
X2028500Y21664706D01*
X2013264Y21741300D01*
X1999352Y21811243D01*
X1999351Y21811245D01*
X1999351Y21811246D01*
X1950990Y21928001D01*
X1942175Y21949283D01*
X1942173Y21949286D01*
X1859168Y22073512D01*
X1859167Y22073513D01*
X1859165Y22073516D01*
X1753516Y22179165D01*
X1753512Y22179168D01*
X1753511Y22179169D01*
X1629285Y22262174D01*
X1629282Y22262176D01*
X1491246Y22319351D01*
X1491242Y22319353D01*
X1381090Y22341263D01*
X1344706Y22348500D01*
X1195294Y22348500D01*
X1162927Y22342062D01*
X1048757Y22319353D01*
X1048753Y22319351D01*
X910717Y22262176D01*
X910714Y22262174D01*
X786488Y22179169D01*
X680831Y22073512D01*
X597826Y21949286D01*
X597824Y21949283D01*
X540649Y21811247D01*
X540647Y21811243D01*
X511500Y21664705D01*
X127500Y21664705D01*
X127500Y24204705D01*
X511500Y24204705D01*
X511500Y24055296D01*
X540647Y23908758D01*
X540649Y23908754D01*
X597824Y23770718D01*
X597826Y23770715D01*
X680831Y23646489D01*
X680832Y23646488D01*
X680835Y23646484D01*
X786484Y23540835D01*
X786487Y23540833D01*
X786488Y23540832D01*
X910714Y23457827D01*
X910717Y23457825D01*
X974705Y23431321D01*
X1048754Y23400649D01*
X1048755Y23400649D01*
X1048757Y23400648D01*
X1122522Y23385976D01*
X1195294Y23371500D01*
X1195296Y23371500D01*
X1344704Y23371500D01*
X1344706Y23371500D01*
X1441515Y23390757D01*
X1491242Y23400648D01*
X1491242Y23400649D01*
X1491246Y23400649D01*
X1629284Y23457826D01*
X1753516Y23540835D01*
X1859165Y23646484D01*
X1942174Y23770716D01*
X1999351Y23908754D01*
X2006708Y23945737D01*
X2028500Y24055296D01*
X2028500Y24204705D01*
X7496500Y24204705D01*
X7496500Y24055296D01*
X7525647Y23908758D01*
X7525649Y23908754D01*
X7582824Y23770718D01*
X7582826Y23770715D01*
X7665831Y23646489D01*
X7665832Y23646488D01*
X7665835Y23646484D01*
X7771484Y23540835D01*
X7771487Y23540833D01*
X7771488Y23540832D01*
X7895714Y23457827D01*
X7895717Y23457825D01*
X7959705Y23431321D01*
X8033754Y23400649D01*
X8033755Y23400649D01*
X8033757Y23400648D01*
X8107522Y23385976D01*
X8180294Y23371500D01*
X8180296Y23371500D01*
X8329704Y23371500D01*
X8329706Y23371500D01*
X8426515Y23390757D01*
X8476242Y23400648D01*
X8476242Y23400649D01*
X8476246Y23400649D01*
X8614284Y23457826D01*
X8738516Y23540835D01*
X8756361Y23558680D01*
X10311300Y23558680D01*
X10311300Y23431320D01*
X10323364Y23386294D01*
X10338769Y23328800D01*
X10344263Y23308299D01*
X10407944Y23198001D01*
X10498001Y23107944D01*
X10608299Y23044263D01*
X10731320Y23011300D01*
X10858679Y23011300D01*
X10858680Y23011300D01*
X10981701Y23044263D01*
X11091999Y23107944D01*
X11182056Y23198001D01*
X11245737Y23308299D01*
X11278700Y23431320D01*
X11278700Y23558680D01*
X11581300Y23558680D01*
X11581300Y23431320D01*
X11593364Y23386294D01*
X11608769Y23328800D01*
X11614263Y23308299D01*
X11677944Y23198001D01*
X11768001Y23107944D01*
X11878299Y23044263D01*
X12001320Y23011300D01*
X12128679Y23011300D01*
X12128680Y23011300D01*
X12251701Y23044263D01*
X12361999Y23107944D01*
X12452056Y23198001D01*
X12476986Y23241180D01*
X38886300Y23241180D01*
X38886300Y23113820D01*
X38887875Y23107943D01*
X38913769Y23011300D01*
X38919263Y22990799D01*
X38982944Y22880501D01*
X39073001Y22790444D01*
X39183299Y22726763D01*
X39306320Y22693800D01*
X39433679Y22693800D01*
X39433680Y22693800D01*
X39556701Y22726763D01*
X39666999Y22790444D01*
X39757056Y22880501D01*
X39820737Y22990799D01*
X39853700Y23113820D01*
X39853700Y23241180D01*
X40473800Y23241180D01*
X40473800Y23113820D01*
X40475375Y23107943D01*
X40501269Y23011300D01*
X40506763Y22990799D01*
X40570444Y22880501D01*
X40660501Y22790444D01*
X40770799Y22726763D01*
X40893820Y22693800D01*
X41021179Y22693800D01*
X41021180Y22693800D01*
X41144201Y22726763D01*
X41254499Y22790444D01*
X41344556Y22880501D01*
X41408237Y22990799D01*
X41441200Y23113820D01*
X41441200Y23241180D01*
X41408237Y23364201D01*
X41344556Y23474499D01*
X41254499Y23564556D01*
X41144201Y23628237D01*
X41144200Y23628238D01*
X41144199Y23628238D01*
X41021180Y23661200D01*
X40893820Y23661200D01*
X40770800Y23628238D01*
X40660503Y23564558D01*
X40570442Y23474497D01*
X40506762Y23364200D01*
X40491784Y23308299D01*
X40473800Y23241180D01*
X39853700Y23241180D01*
X39820737Y23364201D01*
X39757056Y23474499D01*
X39666999Y23564556D01*
X39556701Y23628237D01*
X39556700Y23628238D01*
X39556699Y23628238D01*
X39433680Y23661200D01*
X39306320Y23661200D01*
X39183300Y23628238D01*
X39073003Y23564558D01*
X38982942Y23474497D01*
X38919262Y23364200D01*
X38904284Y23308299D01*
X38886300Y23241180D01*
X12476986Y23241180D01*
X12515737Y23308299D01*
X12548700Y23431320D01*
X12548700Y23558680D01*
X12515737Y23681701D01*
X12452056Y23791999D01*
X12367875Y23876180D01*
X20788800Y23876180D01*
X20788800Y23748821D01*
X20821109Y23628237D01*
X20821763Y23625799D01*
X20885444Y23515501D01*
X20975501Y23425444D01*
X21085799Y23361763D01*
X21208820Y23328800D01*
X21336179Y23328800D01*
X21336180Y23328800D01*
X21459201Y23361763D01*
X21569499Y23425444D01*
X21659556Y23515501D01*
X21723237Y23625799D01*
X21756200Y23748820D01*
X21756200Y23876180D01*
X22693800Y23876180D01*
X22693800Y23748821D01*
X22726109Y23628237D01*
X22726763Y23625799D01*
X22790444Y23515501D01*
X22880501Y23425444D01*
X22990799Y23361763D01*
X23113820Y23328800D01*
X23241179Y23328800D01*
X23241180Y23328800D01*
X23364201Y23361763D01*
X23474499Y23425444D01*
X23564556Y23515501D01*
X23628237Y23625799D01*
X23661200Y23748820D01*
X23661200Y23876180D01*
X24916300Y23876180D01*
X24916300Y23748821D01*
X24948609Y23628237D01*
X24949263Y23625799D01*
X25012944Y23515501D01*
X25103001Y23425444D01*
X25213299Y23361763D01*
X25336320Y23328800D01*
X25463679Y23328800D01*
X25463680Y23328800D01*
X25586701Y23361763D01*
X25696999Y23425444D01*
X25787056Y23515501D01*
X25850737Y23625799D01*
X25883700Y23748820D01*
X25883700Y23876180D01*
X26821300Y23876180D01*
X26821300Y23748821D01*
X26853609Y23628237D01*
X26854263Y23625799D01*
X26917944Y23515501D01*
X27008001Y23425444D01*
X27118299Y23361763D01*
X27241320Y23328800D01*
X27368679Y23328800D01*
X27368680Y23328800D01*
X27491701Y23361763D01*
X27601999Y23425444D01*
X27692056Y23515501D01*
X27755737Y23625799D01*
X27788700Y23748820D01*
X27788700Y23876180D01*
X29043800Y23876180D01*
X29043800Y23748821D01*
X29076109Y23628237D01*
X29076763Y23625799D01*
X29140444Y23515501D01*
X29230501Y23425444D01*
X29340799Y23361763D01*
X29463820Y23328800D01*
X29591179Y23328800D01*
X29591180Y23328800D01*
X29714201Y23361763D01*
X29824499Y23425444D01*
X29914556Y23515501D01*
X29978237Y23625799D01*
X30011200Y23748820D01*
X30011200Y23876180D01*
X30948800Y23876180D01*
X30948800Y23748821D01*
X30981109Y23628237D01*
X30981763Y23625799D01*
X31045444Y23515501D01*
X31135501Y23425444D01*
X31245799Y23361763D01*
X31368820Y23328800D01*
X31496179Y23328800D01*
X31496180Y23328800D01*
X31619201Y23361763D01*
X31729499Y23425444D01*
X31819556Y23515501D01*
X31883237Y23625799D01*
X31916200Y23748820D01*
X31916200Y23876180D01*
X34123800Y23876180D01*
X34123800Y23748821D01*
X34156109Y23628237D01*
X34156763Y23625799D01*
X34220444Y23515501D01*
X34310501Y23425444D01*
X34420799Y23361763D01*
X34543820Y23328800D01*
X34671180Y23328800D01*
X34794201Y23361763D01*
X34904499Y23425444D01*
X34994556Y23515501D01*
X35058237Y23625799D01*
X35091200Y23748820D01*
X35091200Y23876180D01*
X35058237Y23999201D01*
X34994556Y24109499D01*
X34904499Y24199556D01*
X34794201Y24263237D01*
X34794200Y24263238D01*
X34794199Y24263238D01*
X34671180Y24296200D01*
X34543820Y24296200D01*
X34420800Y24263238D01*
X34310503Y24199558D01*
X34220442Y24109497D01*
X34156762Y23999200D01*
X34123800Y23876180D01*
X31916200Y23876180D01*
X31883237Y23999201D01*
X31819556Y24109499D01*
X31729499Y24199556D01*
X31619201Y24263237D01*
X31619200Y24263238D01*
X31619199Y24263238D01*
X31496180Y24296200D01*
X31368820Y24296200D01*
X31245800Y24263238D01*
X31135503Y24199558D01*
X31045442Y24109497D01*
X30981762Y23999200D01*
X30948800Y23876180D01*
X30011200Y23876180D01*
X29978237Y23999201D01*
X29914556Y24109499D01*
X29824499Y24199556D01*
X29714201Y24263237D01*
X29714200Y24263238D01*
X29714199Y24263238D01*
X29591180Y24296200D01*
X29463820Y24296200D01*
X29340800Y24263238D01*
X29230503Y24199558D01*
X29140442Y24109497D01*
X29076762Y23999200D01*
X29043800Y23876180D01*
X27788700Y23876180D01*
X27755737Y23999201D01*
X27692056Y24109499D01*
X27601999Y24199556D01*
X27491701Y24263237D01*
X27491700Y24263238D01*
X27491699Y24263238D01*
X27368680Y24296200D01*
X27241320Y24296200D01*
X27118300Y24263238D01*
X27008003Y24199558D01*
X26917942Y24109497D01*
X26854262Y23999200D01*
X26821300Y23876180D01*
X25883700Y23876180D01*
X25850737Y23999201D01*
X25787056Y24109499D01*
X25696999Y24199556D01*
X25586701Y24263237D01*
X25586700Y24263238D01*
X25586699Y24263238D01*
X25463680Y24296200D01*
X25336320Y24296200D01*
X25213300Y24263238D01*
X25103003Y24199558D01*
X25012942Y24109497D01*
X24949262Y23999200D01*
X24916300Y23876180D01*
X23661200Y23876180D01*
X23628237Y23999201D01*
X23564556Y24109499D01*
X23474499Y24199556D01*
X23364201Y24263237D01*
X23364200Y24263238D01*
X23364199Y24263238D01*
X23241180Y24296200D01*
X23113820Y24296200D01*
X22990800Y24263238D01*
X22880503Y24199558D01*
X22790442Y24109497D01*
X22726762Y23999200D01*
X22693800Y23876180D01*
X21756200Y23876180D01*
X21723237Y23999201D01*
X21659556Y24109499D01*
X21569499Y24199556D01*
X21459201Y24263237D01*
X21459200Y24263238D01*
X21459199Y24263238D01*
X21336180Y24296200D01*
X21208820Y24296200D01*
X21085800Y24263238D01*
X20975503Y24199558D01*
X20885442Y24109497D01*
X20821762Y23999200D01*
X20788800Y23876180D01*
X12367875Y23876180D01*
X12361999Y23882056D01*
X12251701Y23945737D01*
X12251700Y23945738D01*
X12251699Y23945738D01*
X12128680Y23978700D01*
X12001320Y23978700D01*
X11878300Y23945738D01*
X11768003Y23882058D01*
X11677942Y23791997D01*
X11614262Y23681700D01*
X11599284Y23625799D01*
X11581300Y23558680D01*
X11278700Y23558680D01*
X11245737Y23681701D01*
X11182056Y23791999D01*
X11091999Y23882056D01*
X10981701Y23945737D01*
X10981700Y23945738D01*
X10981699Y23945738D01*
X10858680Y23978700D01*
X10731320Y23978700D01*
X10608300Y23945738D01*
X10498003Y23882058D01*
X10407942Y23791997D01*
X10344262Y23681700D01*
X10329284Y23625799D01*
X10311300Y23558680D01*
X8756361Y23558680D01*
X8844165Y23646484D01*
X8927174Y23770716D01*
X8984351Y23908754D01*
X8991708Y23945737D01*
X9013500Y24055296D01*
X9013500Y24204705D01*
X8984352Y24351243D01*
X8984351Y24351245D01*
X8984351Y24351246D01*
X8955762Y24420265D01*
X8927175Y24489283D01*
X8927173Y24489286D01*
X8912544Y24511180D01*
X16026300Y24511180D01*
X16026300Y24383821D01*
X16059262Y24260801D01*
X16091648Y24204706D01*
X16122944Y24150501D01*
X16213001Y24060444D01*
X16323299Y23996763D01*
X16446320Y23963800D01*
X16573680Y23963800D01*
X16696701Y23996763D01*
X16806999Y24060444D01*
X16897056Y24150501D01*
X16960737Y24260799D01*
X16993700Y24383820D01*
X16993700Y24511180D01*
X16960737Y24634201D01*
X16897056Y24744499D01*
X16806999Y24834556D01*
X16696701Y24898237D01*
X16696700Y24898238D01*
X16696699Y24898238D01*
X16573680Y24931200D01*
X16446320Y24931200D01*
X16323298Y24898237D01*
X16270252Y24867612D01*
X16270116Y24867532D01*
X16213001Y24834556D01*
X16211040Y24832595D01*
X16122942Y24744497D01*
X16059262Y24634200D01*
X16026300Y24511180D01*
X8912544Y24511180D01*
X8844168Y24613512D01*
X8844167Y24613513D01*
X8844165Y24613516D01*
X8738516Y24719165D01*
X8738512Y24719168D01*
X8738511Y24719169D01*
X8614285Y24802174D01*
X8614282Y24802176D01*
X8476246Y24859351D01*
X8476242Y24859353D01*
X8366090Y24881263D01*
X8329706Y24888500D01*
X8180294Y24888500D01*
X8147927Y24882062D01*
X8033757Y24859353D01*
X8033753Y24859351D01*
X7895717Y24802176D01*
X7895714Y24802174D01*
X7771488Y24719169D01*
X7665831Y24613512D01*
X7582826Y24489286D01*
X7582824Y24489283D01*
X7525649Y24351247D01*
X7525647Y24351243D01*
X7496500Y24204705D01*
X2028500Y24204705D01*
X1999352Y24351243D01*
X1999351Y24351245D01*
X1999351Y24351246D01*
X1970762Y24420265D01*
X1942175Y24489283D01*
X1942173Y24489286D01*
X1859168Y24613512D01*
X1859167Y24613513D01*
X1859165Y24613516D01*
X1753516Y24719165D01*
X1753512Y24719168D01*
X1753511Y24719169D01*
X1629285Y24802174D01*
X1629282Y24802176D01*
X1491246Y24859351D01*
X1491242Y24859353D01*
X1381090Y24881263D01*
X1344706Y24888500D01*
X1195294Y24888500D01*
X1162927Y24882062D01*
X1048757Y24859353D01*
X1048753Y24859351D01*
X910717Y24802176D01*
X910714Y24802174D01*
X786488Y24719169D01*
X680831Y24613512D01*
X597826Y24489286D01*
X597824Y24489283D01*
X540649Y24351247D01*
X540647Y24351243D01*
X511500Y24204705D01*
X127500Y24204705D01*
X127500Y25463680D01*
X15391300Y25463680D01*
X15391300Y25336320D01*
X15392875Y25330443D01*
X15418769Y25233800D01*
X15424263Y25213299D01*
X15487944Y25103001D01*
X15578001Y25012944D01*
X15688299Y24949263D01*
X15811320Y24916300D01*
X15938679Y24916300D01*
X15938680Y24916300D01*
X16061701Y24949263D01*
X16171999Y25012944D01*
X16262056Y25103001D01*
X16325737Y25213299D01*
X16358700Y25336320D01*
X16358700Y25463680D01*
X16325737Y25586701D01*
X16262056Y25696999D01*
X16177875Y25781180D01*
X20788800Y25781180D01*
X20788800Y25653821D01*
X20806784Y25586700D01*
X20821763Y25530799D01*
X20885444Y25420501D01*
X20975501Y25330444D01*
X21085799Y25266763D01*
X21208820Y25233800D01*
X21336179Y25233800D01*
X21336180Y25233800D01*
X21459201Y25266763D01*
X21569499Y25330444D01*
X21659556Y25420501D01*
X21723237Y25530799D01*
X21756200Y25653820D01*
X21756200Y25781180D01*
X22693800Y25781180D01*
X22693800Y25653821D01*
X22711784Y25586700D01*
X22726763Y25530799D01*
X22790444Y25420501D01*
X22880501Y25330444D01*
X22990799Y25266763D01*
X23113820Y25233800D01*
X23241179Y25233800D01*
X23241180Y25233800D01*
X23364201Y25266763D01*
X23474499Y25330444D01*
X23564556Y25420501D01*
X23628237Y25530799D01*
X23661200Y25653820D01*
X23661200Y25781180D01*
X24916300Y25781180D01*
X24916300Y25653821D01*
X24934284Y25586700D01*
X24949263Y25530799D01*
X25012944Y25420501D01*
X25103001Y25330444D01*
X25213299Y25266763D01*
X25336320Y25233800D01*
X25463679Y25233800D01*
X25463680Y25233800D01*
X25586701Y25266763D01*
X25696999Y25330444D01*
X25787056Y25420501D01*
X25850737Y25530799D01*
X25883700Y25653820D01*
X25883700Y25781180D01*
X26821300Y25781180D01*
X26821300Y25653821D01*
X26839284Y25586700D01*
X26854263Y25530799D01*
X26917944Y25420501D01*
X27008001Y25330444D01*
X27118299Y25266763D01*
X27241320Y25233800D01*
X27368679Y25233800D01*
X27368680Y25233800D01*
X27491701Y25266763D01*
X27601999Y25330444D01*
X27692056Y25420501D01*
X27755737Y25530799D01*
X27788700Y25653820D01*
X27788700Y25781180D01*
X29043800Y25781180D01*
X29043800Y25653821D01*
X29061784Y25586700D01*
X29076763Y25530799D01*
X29140444Y25420501D01*
X29230501Y25330444D01*
X29340799Y25266763D01*
X29463820Y25233800D01*
X29591179Y25233800D01*
X29591180Y25233800D01*
X29714201Y25266763D01*
X29824499Y25330444D01*
X29914556Y25420501D01*
X29978237Y25530799D01*
X30011200Y25653820D01*
X30011200Y25781180D01*
X30948800Y25781180D01*
X30948800Y25653821D01*
X30966784Y25586700D01*
X30981763Y25530799D01*
X31045444Y25420501D01*
X31135501Y25330444D01*
X31245799Y25266763D01*
X31368820Y25233800D01*
X31496179Y25233800D01*
X31496180Y25233800D01*
X31619201Y25266763D01*
X31729499Y25330444D01*
X31819556Y25420501D01*
X31844486Y25463680D01*
X34123800Y25463680D01*
X34123800Y25336320D01*
X34125375Y25330443D01*
X34151269Y25233800D01*
X34156763Y25213299D01*
X34220444Y25103001D01*
X34310501Y25012944D01*
X34420799Y24949263D01*
X34543820Y24916300D01*
X34671179Y24916300D01*
X34671180Y24916300D01*
X34794201Y24949263D01*
X34904499Y25012944D01*
X34994556Y25103001D01*
X35058237Y25213299D01*
X35091200Y25336320D01*
X35091200Y25463680D01*
X35058237Y25586701D01*
X34994556Y25696999D01*
X34904499Y25787056D01*
X34794201Y25850737D01*
X34794200Y25850738D01*
X34794199Y25850738D01*
X34671180Y25883700D01*
X34543820Y25883700D01*
X34420800Y25850738D01*
X34310503Y25787058D01*
X34220442Y25696997D01*
X34156762Y25586700D01*
X34141784Y25530799D01*
X34123800Y25463680D01*
X31844486Y25463680D01*
X31883237Y25530799D01*
X31916200Y25653820D01*
X31916200Y25781180D01*
X31883237Y25904201D01*
X31819556Y26014499D01*
X31729499Y26104556D01*
X31619201Y26168237D01*
X31619200Y26168238D01*
X31619199Y26168238D01*
X31496180Y26201200D01*
X31368820Y26201200D01*
X31245800Y26168238D01*
X31135503Y26104558D01*
X31045442Y26014497D01*
X30981762Y25904200D01*
X30948800Y25781180D01*
X30011200Y25781180D01*
X29978237Y25904201D01*
X29914556Y26014499D01*
X29824499Y26104556D01*
X29714201Y26168237D01*
X29714200Y26168238D01*
X29714199Y26168238D01*
X29591180Y26201200D01*
X29463820Y26201200D01*
X29340800Y26168238D01*
X29230503Y26104558D01*
X29140442Y26014497D01*
X29076762Y25904200D01*
X29043800Y25781180D01*
X27788700Y25781180D01*
X27755737Y25904201D01*
X27692056Y26014499D01*
X27601999Y26104556D01*
X27491701Y26168237D01*
X27491700Y26168238D01*
X27491699Y26168238D01*
X27368680Y26201200D01*
X27241320Y26201200D01*
X27118300Y26168238D01*
X27008003Y26104558D01*
X26917942Y26014497D01*
X26854262Y25904200D01*
X26821300Y25781180D01*
X25883700Y25781180D01*
X25850737Y25904201D01*
X25787056Y26014499D01*
X25696999Y26104556D01*
X25586701Y26168237D01*
X25586700Y26168238D01*
X25586699Y26168238D01*
X25463680Y26201200D01*
X25336320Y26201200D01*
X25213300Y26168238D01*
X25103003Y26104558D01*
X25012942Y26014497D01*
X24949262Y25904200D01*
X24916300Y25781180D01*
X23661200Y25781180D01*
X23628237Y25904201D01*
X23564556Y26014499D01*
X23474499Y26104556D01*
X23364201Y26168237D01*
X23364200Y26168238D01*
X23364199Y26168238D01*
X23241180Y26201200D01*
X23113820Y26201200D01*
X22990800Y26168238D01*
X22880503Y26104558D01*
X22790442Y26014497D01*
X22726762Y25904200D01*
X22693800Y25781180D01*
X21756200Y25781180D01*
X21723237Y25904201D01*
X21659556Y26014499D01*
X21569499Y26104556D01*
X21459201Y26168237D01*
X21459200Y26168238D01*
X21459199Y26168238D01*
X21336180Y26201200D01*
X21208820Y26201200D01*
X21085800Y26168238D01*
X20975503Y26104558D01*
X20885442Y26014497D01*
X20821762Y25904200D01*
X20788800Y25781180D01*
X16177875Y25781180D01*
X16171999Y25787056D01*
X16061701Y25850737D01*
X16061700Y25850738D01*
X16061699Y25850738D01*
X15938680Y25883700D01*
X15811320Y25883700D01*
X15688300Y25850738D01*
X15578003Y25787058D01*
X15487942Y25696997D01*
X15424262Y25586700D01*
X15409284Y25530799D01*
X15391300Y25463680D01*
X127500Y25463680D01*
X127500Y26744705D01*
X511500Y26744705D01*
X511500Y26595296D01*
X540647Y26448758D01*
X540649Y26448754D01*
X597824Y26310718D01*
X597826Y26310715D01*
X680831Y26186489D01*
X680832Y26186488D01*
X680835Y26186484D01*
X786484Y26080835D01*
X786487Y26080833D01*
X786488Y26080832D01*
X910714Y25997827D01*
X910717Y25997825D01*
X979735Y25969238D01*
X1048754Y25940649D01*
X1048755Y25940649D01*
X1048757Y25940648D01*
X1122522Y25925976D01*
X1195294Y25911500D01*
X1195296Y25911500D01*
X1344704Y25911500D01*
X1344706Y25911500D01*
X1441515Y25930757D01*
X1491242Y25940648D01*
X1491242Y25940649D01*
X1491246Y25940649D01*
X1629284Y25997826D01*
X1753516Y26080835D01*
X1859165Y26186484D01*
X1942174Y26310716D01*
X1999351Y26448754D01*
X2028500Y26595294D01*
X2028500Y26744705D01*
X7496500Y26744705D01*
X7496500Y26595296D01*
X7525647Y26448758D01*
X7525649Y26448754D01*
X7582824Y26310718D01*
X7582826Y26310715D01*
X7665831Y26186489D01*
X7665832Y26186488D01*
X7665835Y26186484D01*
X7771484Y26080835D01*
X7771487Y26080833D01*
X7771488Y26080832D01*
X7895714Y25997827D01*
X7895717Y25997825D01*
X7964735Y25969238D01*
X8033754Y25940649D01*
X8033755Y25940649D01*
X8033757Y25940648D01*
X8107522Y25925976D01*
X8180294Y25911500D01*
X8180296Y25911500D01*
X8329704Y25911500D01*
X8329706Y25911500D01*
X8426515Y25930757D01*
X8476242Y25940648D01*
X8476242Y25940649D01*
X8476246Y25940649D01*
X8614284Y25997826D01*
X8738516Y26080835D01*
X8844165Y26186484D01*
X8927174Y26310716D01*
X8984351Y26448754D01*
X9013500Y26595294D01*
X9013500Y26733680D01*
X34123800Y26733680D01*
X34123800Y26606320D01*
X34156763Y26483299D01*
X34220444Y26373001D01*
X34310501Y26282944D01*
X34420799Y26219263D01*
X34543820Y26186300D01*
X34671179Y26186300D01*
X34671180Y26186300D01*
X34794201Y26219263D01*
X34904499Y26282944D01*
X34994556Y26373001D01*
X35058237Y26483299D01*
X35091200Y26606320D01*
X35091200Y26733680D01*
X35058237Y26856701D01*
X34994556Y26966999D01*
X34904499Y27057056D01*
X34794201Y27120737D01*
X34794200Y27120738D01*
X34794199Y27120738D01*
X34671180Y27153700D01*
X34543820Y27153700D01*
X34420800Y27120738D01*
X34310503Y27057058D01*
X34220442Y26966997D01*
X34156762Y26856700D01*
X34126754Y26744706D01*
X34123800Y26733680D01*
X9013500Y26733680D01*
X9013500Y26744706D01*
X8984351Y26891246D01*
X8952973Y26966999D01*
X8927175Y27029283D01*
X8927173Y27029286D01*
X8844168Y27153512D01*
X8844167Y27153513D01*
X8844165Y27153516D01*
X8738516Y27259165D01*
X8738512Y27259168D01*
X8738511Y27259169D01*
X8614285Y27342174D01*
X8614282Y27342176D01*
X8476246Y27399351D01*
X8476242Y27399353D01*
X8366090Y27421263D01*
X8329706Y27428500D01*
X8180294Y27428500D01*
X8147927Y27422062D01*
X8033757Y27399353D01*
X8033753Y27399351D01*
X7895717Y27342176D01*
X7895714Y27342174D01*
X7771488Y27259169D01*
X7665831Y27153512D01*
X7582826Y27029286D01*
X7582824Y27029283D01*
X7525649Y26891247D01*
X7525647Y26891243D01*
X7496500Y26744705D01*
X2028500Y26744705D01*
X2028500Y26744706D01*
X1999351Y26891246D01*
X1967973Y26966999D01*
X1942175Y27029283D01*
X1942173Y27029286D01*
X1859168Y27153512D01*
X1859167Y27153513D01*
X1859165Y27153516D01*
X1753516Y27259165D01*
X1753512Y27259168D01*
X1753511Y27259169D01*
X1629285Y27342174D01*
X1629282Y27342176D01*
X1491246Y27399351D01*
X1491242Y27399353D01*
X1381090Y27421263D01*
X1344706Y27428500D01*
X1195294Y27428500D01*
X1162927Y27422062D01*
X1048757Y27399353D01*
X1048753Y27399351D01*
X910717Y27342176D01*
X910714Y27342174D01*
X786488Y27259169D01*
X680831Y27153512D01*
X597826Y27029286D01*
X597824Y27029283D01*
X540649Y26891247D01*
X540647Y26891243D01*
X511500Y26744705D01*
X127500Y26744705D01*
X127500Y28003680D01*
X5549400Y28003680D01*
X5549400Y27876320D01*
X5550975Y27870443D01*
X5576869Y27773800D01*
X5582363Y27753299D01*
X5646044Y27643001D01*
X5736101Y27552944D01*
X5846399Y27489263D01*
X5969420Y27456300D01*
X6096779Y27456300D01*
X6096780Y27456300D01*
X6219801Y27489263D01*
X6330099Y27552944D01*
X6420156Y27643001D01*
X6483837Y27753299D01*
X6516800Y27876320D01*
X6516800Y28003680D01*
X6483837Y28126701D01*
X6420156Y28236999D01*
X6335975Y28321180D01*
X14121300Y28321180D01*
X14121300Y28193821D01*
X14139284Y28126700D01*
X14154263Y28070799D01*
X14217944Y27960501D01*
X14308001Y27870444D01*
X14418299Y27806763D01*
X14541320Y27773800D01*
X14668679Y27773800D01*
X14668680Y27773800D01*
X14791701Y27806763D01*
X14901999Y27870444D01*
X14992056Y27960501D01*
X15016986Y28003680D01*
X20788800Y28003680D01*
X20788800Y27876320D01*
X20790375Y27870443D01*
X20816269Y27773800D01*
X20821763Y27753299D01*
X20885444Y27643001D01*
X20975501Y27552944D01*
X21085799Y27489263D01*
X21208820Y27456300D01*
X21336179Y27456300D01*
X21336180Y27456300D01*
X21459201Y27489263D01*
X21569499Y27552944D01*
X21659556Y27643001D01*
X21723237Y27753299D01*
X21756200Y27876320D01*
X21756200Y28003680D01*
X22693800Y28003680D01*
X22693800Y27876320D01*
X22695375Y27870443D01*
X22721269Y27773800D01*
X22726763Y27753299D01*
X22790444Y27643001D01*
X22880501Y27552944D01*
X22990799Y27489263D01*
X23113820Y27456300D01*
X23241179Y27456300D01*
X23241180Y27456300D01*
X23364201Y27489263D01*
X23474499Y27552944D01*
X23564556Y27643001D01*
X23628237Y27753299D01*
X23661200Y27876320D01*
X23661200Y28003680D01*
X24916300Y28003680D01*
X24916300Y27876320D01*
X24917875Y27870443D01*
X24943769Y27773800D01*
X24949263Y27753299D01*
X25012944Y27643001D01*
X25103001Y27552944D01*
X25213299Y27489263D01*
X25336320Y27456300D01*
X25463679Y27456300D01*
X25463680Y27456300D01*
X25586701Y27489263D01*
X25696999Y27552944D01*
X25787056Y27643001D01*
X25850737Y27753299D01*
X25883700Y27876320D01*
X25883700Y28003680D01*
X26821300Y28003680D01*
X26821300Y27876320D01*
X26822875Y27870443D01*
X26848769Y27773800D01*
X26854263Y27753299D01*
X26917944Y27643001D01*
X27008001Y27552944D01*
X27118299Y27489263D01*
X27241320Y27456300D01*
X27368679Y27456300D01*
X27368680Y27456300D01*
X27491701Y27489263D01*
X27601999Y27552944D01*
X27692056Y27643001D01*
X27755737Y27753299D01*
X27788700Y27876320D01*
X27788700Y28003680D01*
X29043800Y28003680D01*
X29043800Y27876320D01*
X29045375Y27870443D01*
X29071269Y27773800D01*
X29076763Y27753299D01*
X29140444Y27643001D01*
X29230501Y27552944D01*
X29340799Y27489263D01*
X29463820Y27456300D01*
X29591179Y27456300D01*
X29591180Y27456300D01*
X29714201Y27489263D01*
X29824499Y27552944D01*
X29914556Y27643001D01*
X29978237Y27753299D01*
X30011200Y27876320D01*
X30011200Y28003680D01*
X30948800Y28003680D01*
X30948800Y27876320D01*
X30950375Y27870443D01*
X30976269Y27773800D01*
X30981763Y27753299D01*
X31045444Y27643001D01*
X31135501Y27552944D01*
X31245799Y27489263D01*
X31368820Y27456300D01*
X31496179Y27456300D01*
X31496180Y27456300D01*
X31619201Y27489263D01*
X31729499Y27552944D01*
X31819556Y27643001D01*
X31883237Y27753299D01*
X31916200Y27876320D01*
X31916200Y28003680D01*
X31883237Y28126701D01*
X31819556Y28236999D01*
X31735375Y28321180D01*
X34123800Y28321180D01*
X34123800Y28193821D01*
X34141784Y28126700D01*
X34156763Y28070799D01*
X34220444Y27960501D01*
X34310501Y27870444D01*
X34420799Y27806763D01*
X34543820Y27773800D01*
X34671179Y27773800D01*
X34671180Y27773800D01*
X34794201Y27806763D01*
X34904499Y27870444D01*
X34994556Y27960501D01*
X35058237Y28070799D01*
X35091200Y28193820D01*
X35091200Y28321180D01*
X35058237Y28444201D01*
X34994556Y28554499D01*
X34904499Y28644556D01*
X34794201Y28708237D01*
X34794200Y28708238D01*
X34794199Y28708238D01*
X34671180Y28741200D01*
X34543820Y28741200D01*
X34420800Y28708238D01*
X34310503Y28644558D01*
X34220442Y28554497D01*
X34156762Y28444200D01*
X34123800Y28321180D01*
X31735375Y28321180D01*
X31729499Y28327056D01*
X31619201Y28390737D01*
X31619200Y28390738D01*
X31619199Y28390738D01*
X31496180Y28423700D01*
X31368820Y28423700D01*
X31245800Y28390738D01*
X31135503Y28327058D01*
X31045442Y28236997D01*
X30981762Y28126700D01*
X30966784Y28070799D01*
X30948800Y28003680D01*
X30011200Y28003680D01*
X29978237Y28126701D01*
X29914556Y28236999D01*
X29824499Y28327056D01*
X29714201Y28390737D01*
X29714200Y28390738D01*
X29714199Y28390738D01*
X29591180Y28423700D01*
X29463820Y28423700D01*
X29340800Y28390738D01*
X29230503Y28327058D01*
X29140442Y28236997D01*
X29076762Y28126700D01*
X29061784Y28070799D01*
X29043800Y28003680D01*
X27788700Y28003680D01*
X27755737Y28126701D01*
X27692056Y28236999D01*
X27601999Y28327056D01*
X27491701Y28390737D01*
X27491700Y28390738D01*
X27491699Y28390738D01*
X27368680Y28423700D01*
X27241320Y28423700D01*
X27118300Y28390738D01*
X27008003Y28327058D01*
X26917942Y28236997D01*
X26854262Y28126700D01*
X26839284Y28070799D01*
X26821300Y28003680D01*
X25883700Y28003680D01*
X25850737Y28126701D01*
X25787056Y28236999D01*
X25696999Y28327056D01*
X25586701Y28390737D01*
X25586700Y28390738D01*
X25586699Y28390738D01*
X25463680Y28423700D01*
X25336320Y28423700D01*
X25213300Y28390738D01*
X25103003Y28327058D01*
X25012942Y28236997D01*
X24949262Y28126700D01*
X24934284Y28070799D01*
X24916300Y28003680D01*
X23661200Y28003680D01*
X23628237Y28126701D01*
X23564556Y28236999D01*
X23474499Y28327056D01*
X23364201Y28390737D01*
X23364200Y28390738D01*
X23364199Y28390738D01*
X23241180Y28423700D01*
X23113820Y28423700D01*
X22990800Y28390738D01*
X22880503Y28327058D01*
X22790442Y28236997D01*
X22726762Y28126700D01*
X22711784Y28070799D01*
X22693800Y28003680D01*
X21756200Y28003680D01*
X21723237Y28126701D01*
X21659556Y28236999D01*
X21569499Y28327056D01*
X21459201Y28390737D01*
X21459200Y28390738D01*
X21459199Y28390738D01*
X21336180Y28423700D01*
X21208820Y28423700D01*
X21085800Y28390738D01*
X20975503Y28327058D01*
X20885442Y28236997D01*
X20821762Y28126700D01*
X20806784Y28070799D01*
X20788800Y28003680D01*
X15016986Y28003680D01*
X15055737Y28070799D01*
X15088700Y28193820D01*
X15088700Y28321180D01*
X15055737Y28444201D01*
X14992056Y28554499D01*
X14901999Y28644556D01*
X14791701Y28708237D01*
X14791700Y28708238D01*
X14791699Y28708238D01*
X14668680Y28741200D01*
X14541320Y28741200D01*
X14418300Y28708238D01*
X14308003Y28644558D01*
X14217942Y28554497D01*
X14154262Y28444200D01*
X14121300Y28321180D01*
X6335975Y28321180D01*
X6330099Y28327056D01*
X6219801Y28390737D01*
X6219800Y28390738D01*
X6219799Y28390738D01*
X6096780Y28423700D01*
X5969420Y28423700D01*
X5846400Y28390738D01*
X5736103Y28327058D01*
X5646042Y28236997D01*
X5582362Y28126700D01*
X5567384Y28070799D01*
X5549400Y28003680D01*
X127500Y28003680D01*
X127500Y29284705D01*
X7496500Y29284705D01*
X7496500Y29135296D01*
X7525647Y28988758D01*
X7525649Y28988754D01*
X7582824Y28850718D01*
X7582826Y28850715D01*
X7665831Y28726489D01*
X7665832Y28726488D01*
X7665835Y28726484D01*
X7771484Y28620835D01*
X7771487Y28620833D01*
X7771488Y28620832D01*
X7895714Y28537827D01*
X7895717Y28537825D01*
X7964735Y28509238D01*
X8033754Y28480649D01*
X8033755Y28480649D01*
X8033757Y28480648D01*
X8107522Y28465976D01*
X8180294Y28451500D01*
X8180296Y28451500D01*
X8329704Y28451500D01*
X8329706Y28451500D01*
X8426515Y28470757D01*
X8476242Y28480648D01*
X8476242Y28480649D01*
X8476246Y28480649D01*
X8614284Y28537826D01*
X8738516Y28620835D01*
X8844165Y28726484D01*
X8927174Y28850716D01*
X8984351Y28988754D01*
X9013500Y29135294D01*
X9013500Y29284706D01*
X8998264Y29361300D01*
X8984352Y29431243D01*
X8984351Y29431245D01*
X8984351Y29431246D01*
X8935990Y29548001D01*
X8927175Y29569283D01*
X8927173Y29569286D01*
X8844168Y29693512D01*
X8844167Y29693513D01*
X8844165Y29693516D01*
X8738516Y29799165D01*
X8675373Y29841356D01*
X8675373Y29841357D01*
X8614285Y29882174D01*
X8614282Y29882176D01*
X8550294Y29908680D01*
X20788800Y29908680D01*
X20788800Y29781320D01*
X20790375Y29775443D01*
X20816269Y29678800D01*
X20821763Y29658299D01*
X20885444Y29548001D01*
X20975501Y29457944D01*
X21085799Y29394263D01*
X21208820Y29361300D01*
X21336179Y29361300D01*
X21336180Y29361300D01*
X21459201Y29394263D01*
X21569499Y29457944D01*
X21659556Y29548001D01*
X21723237Y29658299D01*
X21756200Y29781320D01*
X21756200Y29908680D01*
X22693800Y29908680D01*
X22693800Y29781320D01*
X22695375Y29775443D01*
X22721269Y29678800D01*
X22726763Y29658299D01*
X22790444Y29548001D01*
X22880501Y29457944D01*
X22990799Y29394263D01*
X23113820Y29361300D01*
X23241179Y29361300D01*
X23241180Y29361300D01*
X23364201Y29394263D01*
X23474499Y29457944D01*
X23564556Y29548001D01*
X23628237Y29658299D01*
X23661200Y29781320D01*
X23661200Y29908680D01*
X24916300Y29908680D01*
X24916300Y29781320D01*
X24917875Y29775443D01*
X24943769Y29678800D01*
X24949263Y29658299D01*
X25012944Y29548001D01*
X25103001Y29457944D01*
X25213299Y29394263D01*
X25336320Y29361300D01*
X25463679Y29361300D01*
X25463680Y29361300D01*
X25586701Y29394263D01*
X25696999Y29457944D01*
X25787056Y29548001D01*
X25850737Y29658299D01*
X25883700Y29781320D01*
X25883700Y29908680D01*
X26821300Y29908680D01*
X26821300Y29781320D01*
X26822875Y29775443D01*
X26848769Y29678800D01*
X26854263Y29658299D01*
X26917944Y29548001D01*
X27008001Y29457944D01*
X27118299Y29394263D01*
X27241320Y29361300D01*
X27368679Y29361300D01*
X27368680Y29361300D01*
X27491701Y29394263D01*
X27601999Y29457944D01*
X27692056Y29548001D01*
X27755737Y29658299D01*
X27788700Y29781320D01*
X27788700Y29908680D01*
X29043800Y29908680D01*
X29043800Y29781320D01*
X29045375Y29775443D01*
X29071269Y29678800D01*
X29076763Y29658299D01*
X29140444Y29548001D01*
X29230501Y29457944D01*
X29340799Y29394263D01*
X29463820Y29361300D01*
X29591179Y29361300D01*
X29591180Y29361300D01*
X29714201Y29394263D01*
X29824499Y29457944D01*
X29914556Y29548001D01*
X29978237Y29658299D01*
X30011200Y29781320D01*
X30011200Y29908680D01*
X30948800Y29908680D01*
X30948800Y29781320D01*
X30950375Y29775443D01*
X30976269Y29678800D01*
X30981763Y29658299D01*
X31045444Y29548001D01*
X31135501Y29457944D01*
X31245799Y29394263D01*
X31368820Y29361300D01*
X31496179Y29361300D01*
X31496180Y29361300D01*
X31619201Y29394263D01*
X31729499Y29457944D01*
X31819556Y29548001D01*
X31883237Y29658299D01*
X31916200Y29781320D01*
X31916200Y29908680D01*
X31883237Y30031701D01*
X31819556Y30141999D01*
X31735375Y30226180D01*
X34123800Y30226180D01*
X34123800Y30098821D01*
X34156762Y29975801D01*
X34210816Y29882176D01*
X34220444Y29865501D01*
X34310501Y29775444D01*
X34420799Y29711763D01*
X34543820Y29678800D01*
X34671179Y29678800D01*
X34671180Y29678800D01*
X34794201Y29711763D01*
X34904499Y29775444D01*
X34994556Y29865501D01*
X35058237Y29975799D01*
X35091200Y30098820D01*
X35091200Y30226180D01*
X35058237Y30349201D01*
X34994556Y30459499D01*
X34904499Y30549556D01*
X34794201Y30613237D01*
X34794200Y30613238D01*
X34794199Y30613238D01*
X34671180Y30646200D01*
X34543820Y30646200D01*
X34420800Y30613238D01*
X34310503Y30549558D01*
X34220442Y30459497D01*
X34156762Y30349200D01*
X34123800Y30226180D01*
X31735375Y30226180D01*
X31729499Y30232056D01*
X31619201Y30295737D01*
X31619200Y30295738D01*
X31619199Y30295738D01*
X31496180Y30328700D01*
X31368820Y30328700D01*
X31245800Y30295738D01*
X31135503Y30232058D01*
X31045442Y30141997D01*
X30981762Y30031700D01*
X30957019Y29939353D01*
X30948800Y29908680D01*
X30011200Y29908680D01*
X29978237Y30031701D01*
X29914556Y30141999D01*
X29824499Y30232056D01*
X29714201Y30295737D01*
X29714200Y30295738D01*
X29714199Y30295738D01*
X29591180Y30328700D01*
X29463820Y30328700D01*
X29340800Y30295738D01*
X29230503Y30232058D01*
X29140442Y30141997D01*
X29076762Y30031700D01*
X29052019Y29939353D01*
X29043800Y29908680D01*
X27788700Y29908680D01*
X27755737Y30031701D01*
X27692056Y30141999D01*
X27601999Y30232056D01*
X27491701Y30295737D01*
X27491700Y30295738D01*
X27491699Y30295738D01*
X27368680Y30328700D01*
X27241320Y30328700D01*
X27118300Y30295738D01*
X27008003Y30232058D01*
X26917942Y30141997D01*
X26854262Y30031700D01*
X26829519Y29939353D01*
X26821300Y29908680D01*
X25883700Y29908680D01*
X25850737Y30031701D01*
X25787056Y30141999D01*
X25696999Y30232056D01*
X25586701Y30295737D01*
X25586700Y30295738D01*
X25586699Y30295738D01*
X25463680Y30328700D01*
X25336320Y30328700D01*
X25213300Y30295738D01*
X25103003Y30232058D01*
X25012942Y30141997D01*
X24949262Y30031700D01*
X24924519Y29939353D01*
X24916300Y29908680D01*
X23661200Y29908680D01*
X23628237Y30031701D01*
X23564556Y30141999D01*
X23474499Y30232056D01*
X23364201Y30295737D01*
X23364200Y30295738D01*
X23364199Y30295738D01*
X23241180Y30328700D01*
X23113820Y30328700D01*
X22990800Y30295738D01*
X22880503Y30232058D01*
X22790442Y30141997D01*
X22726762Y30031700D01*
X22702019Y29939353D01*
X22693800Y29908680D01*
X21756200Y29908680D01*
X21723237Y30031701D01*
X21659556Y30141999D01*
X21569499Y30232056D01*
X21459201Y30295737D01*
X21459200Y30295738D01*
X21459199Y30295738D01*
X21336180Y30328700D01*
X21208820Y30328700D01*
X21085800Y30295738D01*
X20975503Y30232058D01*
X20885442Y30141997D01*
X20821762Y30031700D01*
X20797019Y29939353D01*
X20788800Y29908680D01*
X8550294Y29908680D01*
X8476246Y29939351D01*
X8476242Y29939353D01*
X8366090Y29961263D01*
X8329706Y29968500D01*
X8180294Y29968500D01*
X8147927Y29962062D01*
X8033757Y29939353D01*
X8033753Y29939351D01*
X7895717Y29882176D01*
X7895714Y29882174D01*
X7771488Y29799169D01*
X7665831Y29693512D01*
X7582826Y29569286D01*
X7582824Y29569283D01*
X7525649Y29431247D01*
X7525647Y29431243D01*
X7496500Y29284705D01*
X127500Y29284705D01*
X127500Y31496180D01*
X1420700Y31496180D01*
X1420700Y31368821D01*
X1448120Y31266484D01*
X1453663Y31245799D01*
X1517344Y31135501D01*
X1607401Y31045444D01*
X1717699Y30981763D01*
X1840720Y30948800D01*
X1968079Y30948800D01*
X1968080Y30948800D01*
X2091101Y30981763D01*
X2201399Y31045444D01*
X2291456Y31135501D01*
X2355137Y31245799D01*
X2388100Y31368820D01*
X2388100Y31496180D01*
X2355137Y31619201D01*
X2291456Y31729499D01*
X2201399Y31819556D01*
X2192481Y31824705D01*
X7496500Y31824705D01*
X7496500Y31675296D01*
X7525647Y31528758D01*
X7525649Y31528754D01*
X7582824Y31390718D01*
X7582826Y31390715D01*
X7665831Y31266489D01*
X7665832Y31266488D01*
X7665835Y31266484D01*
X7771484Y31160835D01*
X7771487Y31160833D01*
X7771488Y31160832D01*
X7895714Y31077827D01*
X7895717Y31077825D01*
X7959705Y31051321D01*
X8033754Y31020649D01*
X8033755Y31020649D01*
X8033757Y31020648D01*
X8107522Y31005976D01*
X8180294Y30991500D01*
X8180296Y30991500D01*
X8329704Y30991500D01*
X8329706Y30991500D01*
X8426515Y31010757D01*
X8476242Y31020648D01*
X8476242Y31020649D01*
X8476246Y31020649D01*
X8614284Y31077826D01*
X8738516Y31160835D01*
X8844165Y31266484D01*
X8927174Y31390716D01*
X8984351Y31528754D01*
X8991708Y31565737D01*
X9013500Y31675296D01*
X9013500Y31824705D01*
X8984352Y31971243D01*
X8984351Y31971245D01*
X8984351Y31971246D01*
X8957279Y32036602D01*
X8929652Y32103303D01*
X8929651Y32103304D01*
X8927176Y32109280D01*
X8927173Y32109286D01*
X8912544Y32131180D01*
X11898800Y32131180D01*
X11898800Y32003821D01*
X11931762Y31880801D01*
X11964148Y31824706D01*
X11995444Y31770501D01*
X12085501Y31680444D01*
X12195799Y31616763D01*
X12318820Y31583800D01*
X12446179Y31583800D01*
X12446180Y31583800D01*
X12569201Y31616763D01*
X12679499Y31680444D01*
X12769556Y31770501D01*
X12833237Y31880799D01*
X12866200Y32003820D01*
X12866200Y32131180D01*
X12833237Y32254201D01*
X12769556Y32364499D01*
X12679499Y32454556D01*
X12569201Y32518237D01*
X12569200Y32518238D01*
X12569199Y32518238D01*
X12446180Y32551200D01*
X12318820Y32551200D01*
X12195800Y32518238D01*
X12085503Y32454558D01*
X11995442Y32364497D01*
X11931762Y32254200D01*
X11898800Y32131180D01*
X8912544Y32131180D01*
X8844168Y32233512D01*
X8844167Y32233513D01*
X8844165Y32233516D01*
X8738516Y32339165D01*
X8738512Y32339168D01*
X8738511Y32339169D01*
X8614285Y32422174D01*
X8614282Y32422176D01*
X8476246Y32479351D01*
X8476242Y32479353D01*
X8366090Y32501263D01*
X8329706Y32508500D01*
X8180294Y32508500D01*
X8147927Y32502062D01*
X8033757Y32479353D01*
X8033753Y32479351D01*
X7895717Y32422176D01*
X7895714Y32422174D01*
X7771488Y32339169D01*
X7665831Y32233512D01*
X7582826Y32109286D01*
X7582824Y32109283D01*
X7525649Y31971247D01*
X7525647Y31971243D01*
X7496500Y31824705D01*
X2192481Y31824705D01*
X2091101Y31883237D01*
X2091100Y31883238D01*
X2091099Y31883238D01*
X1968080Y31916200D01*
X1840720Y31916200D01*
X1717700Y31883238D01*
X1607403Y31819558D01*
X1517342Y31729497D01*
X1453662Y31619200D01*
X1420700Y31496180D01*
X127500Y31496180D01*
X127500Y33401180D01*
X26186300Y33401180D01*
X26186300Y33273820D01*
X26219263Y33150799D01*
X26282944Y33040501D01*
X26373001Y32950444D01*
X26483299Y32886763D01*
X26606320Y32853800D01*
X26733679Y32853800D01*
X26733680Y32853800D01*
X26856701Y32886763D01*
X26966999Y32950444D01*
X27057056Y33040501D01*
X27070126Y33063140D01*
X27116186Y33101788D01*
X27176313Y33101788D01*
X27222373Y33063140D01*
X27235444Y33040501D01*
X27325501Y32950444D01*
X27435799Y32886763D01*
X27558820Y32853800D01*
X27686179Y32853800D01*
X27686180Y32853800D01*
X27809201Y32886763D01*
X27919499Y32950444D01*
X28009556Y33040501D01*
X28073237Y33150799D01*
X28106200Y33273820D01*
X28106200Y33401180D01*
X28073237Y33524201D01*
X28009556Y33634499D01*
X27919499Y33724556D01*
X27809201Y33788237D01*
X27809200Y33788238D01*
X27809199Y33788238D01*
X27686180Y33821200D01*
X27558820Y33821200D01*
X27435800Y33788238D01*
X27325503Y33724558D01*
X27235441Y33634496D01*
X27222373Y33611861D01*
X27176312Y33573213D01*
X27116185Y33573213D01*
X27070127Y33611861D01*
X27057058Y33634496D01*
X27057057Y33634497D01*
X27057056Y33634499D01*
X26966999Y33724556D01*
X26856701Y33788237D01*
X26856700Y33788238D01*
X26856699Y33788238D01*
X26733680Y33821200D01*
X26606320Y33821200D01*
X26483300Y33788238D01*
X26373003Y33724558D01*
X26282942Y33634497D01*
X26219262Y33524200D01*
X26193750Y33428985D01*
X26186300Y33401180D01*
X127500Y33401180D01*
X127500Y34353680D01*
X2056300Y34353680D01*
X2056300Y34226320D01*
X2089263Y34103299D01*
X2152944Y33993001D01*
X2243001Y33902944D01*
X2353299Y33839263D01*
X2476320Y33806300D01*
X2603679Y33806300D01*
X2603680Y33806300D01*
X2726701Y33839263D01*
X2836999Y33902944D01*
X2927056Y33993001D01*
X2990737Y34103299D01*
X3023700Y34226320D01*
X3023700Y34353680D01*
X3020746Y34364705D01*
X7496500Y34364705D01*
X7496500Y34215296D01*
X7525647Y34068758D01*
X7525649Y34068754D01*
X7582824Y33930718D01*
X7582826Y33930715D01*
X7665831Y33806489D01*
X7665832Y33806488D01*
X7665835Y33806484D01*
X7771484Y33700835D01*
X7771487Y33700833D01*
X7771488Y33700832D01*
X7895714Y33617827D01*
X7895717Y33617825D01*
X7964735Y33589238D01*
X8033754Y33560649D01*
X8033755Y33560649D01*
X8033757Y33560648D01*
X8107522Y33545976D01*
X8180294Y33531500D01*
X8180296Y33531500D01*
X8329704Y33531500D01*
X8329706Y33531500D01*
X8426515Y33550757D01*
X8476242Y33560648D01*
X8476242Y33560649D01*
X8476246Y33560649D01*
X8614284Y33617826D01*
X8738516Y33700835D01*
X8844165Y33806484D01*
X8927174Y33930716D01*
X8984351Y34068754D01*
X9013500Y34215294D01*
X9013500Y34364706D01*
X8998264Y34441300D01*
X8984352Y34511243D01*
X8984351Y34511245D01*
X8984351Y34511246D01*
X8935990Y34628001D01*
X8927175Y34649283D01*
X8927173Y34649286D01*
X8844168Y34773512D01*
X8844167Y34773513D01*
X8844165Y34773516D01*
X8787751Y34829930D01*
X14915050Y34829930D01*
X14915050Y34702571D01*
X14948012Y34579551D01*
X15007392Y34476701D01*
X15011694Y34469251D01*
X15101751Y34379194D01*
X15212049Y34315513D01*
X15335070Y34282550D01*
X15462429Y34282550D01*
X15462430Y34282550D01*
X15585451Y34315513D01*
X15695749Y34379194D01*
X15785806Y34469251D01*
X15849487Y34579549D01*
X15882450Y34702570D01*
X15882450Y34789877D01*
X20035103Y34789877D01*
X20035103Y34662518D01*
X20068065Y34539498D01*
X20108620Y34469254D01*
X20131747Y34429198D01*
X20221804Y34339141D01*
X20332102Y34275460D01*
X20455123Y34242497D01*
X20582482Y34242497D01*
X20582483Y34242497D01*
X20705504Y34275460D01*
X20815802Y34339141D01*
X20905859Y34429198D01*
X20969540Y34539496D01*
X21002503Y34662517D01*
X21002503Y34789877D01*
X20969540Y34912898D01*
X20969539Y34912900D01*
X20969539Y34912901D01*
X20947838Y34950488D01*
X20947836Y34950490D01*
X20925787Y34988680D01*
X24281300Y34988680D01*
X24281300Y34861321D01*
X24313609Y34740737D01*
X24314263Y34738299D01*
X24377944Y34628001D01*
X24468001Y34537944D01*
X24578299Y34474263D01*
X24701320Y34441300D01*
X24828679Y34441300D01*
X24828680Y34441300D01*
X24951701Y34474263D01*
X25061999Y34537944D01*
X25152056Y34628001D01*
X25215737Y34738299D01*
X25248700Y34861320D01*
X25248700Y34988680D01*
X25215737Y35111701D01*
X25152056Y35221999D01*
X25061999Y35312056D01*
X24951701Y35375737D01*
X24951700Y35375738D01*
X24951699Y35375738D01*
X24828680Y35408700D01*
X24701320Y35408700D01*
X24578300Y35375738D01*
X24468003Y35312058D01*
X24377942Y35221997D01*
X24314262Y35111700D01*
X24281300Y34988680D01*
X20925787Y34988680D01*
X20905859Y35023196D01*
X20815802Y35113253D01*
X20705504Y35176934D01*
X20705503Y35176935D01*
X20705502Y35176935D01*
X20582483Y35209897D01*
X20455123Y35209897D01*
X20332103Y35176935D01*
X20221806Y35113255D01*
X20131745Y35023194D01*
X20068065Y34912897D01*
X20035103Y34789877D01*
X15882450Y34789877D01*
X15882450Y34829930D01*
X15849487Y34952951D01*
X15785806Y35063249D01*
X15695749Y35153306D01*
X15654824Y35176934D01*
X15585449Y35216988D01*
X15462430Y35249950D01*
X15335070Y35249950D01*
X15212050Y35216988D01*
X15101753Y35153308D01*
X15011692Y35063247D01*
X14948012Y34952950D01*
X14915050Y34829930D01*
X8787751Y34829930D01*
X8738516Y34879165D01*
X8738512Y34879168D01*
X8738511Y34879169D01*
X8614285Y34962174D01*
X8614282Y34962176D01*
X8476246Y35019351D01*
X8476242Y35019353D01*
X8366090Y35041263D01*
X8329706Y35048500D01*
X8180294Y35048500D01*
X8147927Y35042062D01*
X8033757Y35019353D01*
X8033753Y35019351D01*
X7895717Y34962176D01*
X7895714Y34962174D01*
X7771488Y34879169D01*
X7665831Y34773512D01*
X7582826Y34649286D01*
X7582824Y34649283D01*
X7525649Y34511247D01*
X7525647Y34511243D01*
X7496500Y34364705D01*
X3020746Y34364705D01*
X2990737Y34476701D01*
X2927056Y34586999D01*
X2836999Y34677056D01*
X2726701Y34740737D01*
X2726700Y34740738D01*
X2726699Y34740738D01*
X2603680Y34773700D01*
X2476320Y34773700D01*
X2353300Y34740738D01*
X2243003Y34677058D01*
X2152942Y34586997D01*
X2089262Y34476700D01*
X2063136Y34379194D01*
X2056300Y34353680D01*
X127500Y34353680D01*
X127500Y35941180D01*
X8088800Y35941180D01*
X8088800Y35813820D01*
X8090375Y35807943D01*
X8116269Y35711300D01*
X8121763Y35690799D01*
X8185444Y35580501D01*
X8275501Y35490444D01*
X8385799Y35426763D01*
X8508820Y35393800D01*
X8636179Y35393800D01*
X8636180Y35393800D01*
X8759201Y35426763D01*
X8869499Y35490444D01*
X8959556Y35580501D01*
X8984486Y35623680D01*
X18883800Y35623680D01*
X18883800Y35496320D01*
X18885375Y35490443D01*
X18916109Y35375737D01*
X18916763Y35373299D01*
X18980444Y35263001D01*
X19070501Y35172944D01*
X19180799Y35109263D01*
X19303820Y35076300D01*
X19431179Y35076300D01*
X19431180Y35076300D01*
X19554201Y35109263D01*
X19664499Y35172944D01*
X19754556Y35263001D01*
X19818237Y35373299D01*
X19851200Y35496320D01*
X19851200Y35623680D01*
X19818237Y35746701D01*
X19754556Y35856999D01*
X19664499Y35947056D01*
X19554201Y36010737D01*
X19554200Y36010738D01*
X19554199Y36010738D01*
X19431180Y36043700D01*
X19303820Y36043700D01*
X19180800Y36010738D01*
X19070503Y35947058D01*
X18980442Y35856997D01*
X18916762Y35746700D01*
X18901784Y35690799D01*
X18883800Y35623680D01*
X8984486Y35623680D01*
X9023237Y35690799D01*
X9056200Y35813820D01*
X9056200Y35941180D01*
X9023237Y36064201D01*
X8959556Y36174499D01*
X8875375Y36258680D01*
X17296300Y36258680D01*
X17296300Y36131320D01*
X17297875Y36125443D01*
X17328609Y36010737D01*
X17329263Y36008299D01*
X17392944Y35898001D01*
X17483001Y35807944D01*
X17593299Y35744263D01*
X17716320Y35711300D01*
X17843680Y35711300D01*
X17966701Y35744263D01*
X18076999Y35807944D01*
X18167056Y35898001D01*
X18230737Y36008299D01*
X18263700Y36131320D01*
X18263700Y36258680D01*
X35393800Y36258680D01*
X35393800Y36131320D01*
X35395375Y36125443D01*
X35426109Y36010737D01*
X35426763Y36008299D01*
X35490444Y35898001D01*
X35580501Y35807944D01*
X35690799Y35744263D01*
X35813820Y35711300D01*
X35941179Y35711300D01*
X35941180Y35711300D01*
X36064201Y35744263D01*
X36174499Y35807944D01*
X36264556Y35898001D01*
X36328237Y36008299D01*
X36361200Y36131320D01*
X36361200Y36258680D01*
X37298800Y36258680D01*
X37298800Y36131320D01*
X37300375Y36125443D01*
X37331109Y36010737D01*
X37331763Y36008299D01*
X37395444Y35898001D01*
X37485501Y35807944D01*
X37595799Y35744263D01*
X37718820Y35711300D01*
X37846179Y35711300D01*
X37846180Y35711300D01*
X37969201Y35744263D01*
X38079499Y35807944D01*
X38169556Y35898001D01*
X38233237Y36008299D01*
X38266200Y36131320D01*
X38266200Y36258680D01*
X39203800Y36258680D01*
X39203800Y36131320D01*
X39205375Y36125443D01*
X39236109Y36010737D01*
X39236763Y36008299D01*
X39300444Y35898001D01*
X39390501Y35807944D01*
X39500799Y35744263D01*
X39623820Y35711300D01*
X39751179Y35711300D01*
X39751180Y35711300D01*
X39874201Y35744263D01*
X39984499Y35807944D01*
X40074556Y35898001D01*
X40138237Y36008299D01*
X40171200Y36131320D01*
X40171200Y36258680D01*
X41108800Y36258680D01*
X41108800Y36131320D01*
X41110375Y36125443D01*
X41141109Y36010737D01*
X41141763Y36008299D01*
X41205444Y35898001D01*
X41295501Y35807944D01*
X41405799Y35744263D01*
X41528820Y35711300D01*
X41656179Y35711300D01*
X41656180Y35711300D01*
X41779201Y35744263D01*
X41889499Y35807944D01*
X41979556Y35898001D01*
X42043237Y36008299D01*
X42076200Y36131320D01*
X42076200Y36258680D01*
X42043237Y36381701D01*
X41979556Y36491999D01*
X41889499Y36582056D01*
X41779201Y36645737D01*
X41779200Y36645738D01*
X41779199Y36645738D01*
X41656180Y36678700D01*
X41528820Y36678700D01*
X41405800Y36645738D01*
X41295503Y36582058D01*
X41205442Y36491997D01*
X41141762Y36381700D01*
X41126784Y36325799D01*
X41108800Y36258680D01*
X40171200Y36258680D01*
X40138237Y36381701D01*
X40074556Y36491999D01*
X39984499Y36582056D01*
X39874201Y36645737D01*
X39874200Y36645738D01*
X39874199Y36645738D01*
X39751180Y36678700D01*
X39623820Y36678700D01*
X39500800Y36645738D01*
X39390503Y36582058D01*
X39300442Y36491997D01*
X39236762Y36381700D01*
X39221784Y36325799D01*
X39203800Y36258680D01*
X38266200Y36258680D01*
X38233237Y36381701D01*
X38169556Y36491999D01*
X38079499Y36582056D01*
X37969201Y36645737D01*
X37969200Y36645738D01*
X37969199Y36645738D01*
X37846180Y36678700D01*
X37718820Y36678700D01*
X37595800Y36645738D01*
X37485503Y36582058D01*
X37395442Y36491997D01*
X37331762Y36381700D01*
X37316784Y36325799D01*
X37298800Y36258680D01*
X36361200Y36258680D01*
X36328237Y36381701D01*
X36264556Y36491999D01*
X36174499Y36582056D01*
X36064201Y36645737D01*
X36064200Y36645738D01*
X36064199Y36645738D01*
X35941180Y36678700D01*
X35813820Y36678700D01*
X35690800Y36645738D01*
X35580503Y36582058D01*
X35490442Y36491997D01*
X35426762Y36381700D01*
X35411784Y36325799D01*
X35393800Y36258680D01*
X18263700Y36258680D01*
X18230737Y36381701D01*
X18167056Y36491999D01*
X18076999Y36582056D01*
X17966701Y36645737D01*
X17966700Y36645738D01*
X17966699Y36645738D01*
X17843680Y36678700D01*
X17716320Y36678700D01*
X17593300Y36645738D01*
X17483003Y36582058D01*
X17392942Y36491997D01*
X17329262Y36381700D01*
X17314284Y36325799D01*
X17296300Y36258680D01*
X8875375Y36258680D01*
X8869499Y36264556D01*
X8759201Y36328237D01*
X8759200Y36328238D01*
X8759199Y36328238D01*
X8636180Y36361200D01*
X8508820Y36361200D01*
X8385800Y36328238D01*
X8275503Y36264558D01*
X8185442Y36174497D01*
X8121762Y36064200D01*
X8106784Y36008299D01*
X8088800Y35941180D01*
X127500Y35941180D01*
X127500Y36576180D01*
X6818800Y36576180D01*
X6818800Y36448821D01*
X6851109Y36328237D01*
X6851763Y36325799D01*
X6915444Y36215501D01*
X7005501Y36125444D01*
X7115799Y36061763D01*
X7238820Y36028800D01*
X7366180Y36028800D01*
X7489201Y36061763D01*
X7599499Y36125444D01*
X7689556Y36215501D01*
X7753237Y36325799D01*
X7786200Y36448820D01*
X7786200Y36576180D01*
X7753237Y36699201D01*
X7689556Y36809499D01*
X7599499Y36899556D01*
X7489201Y36963237D01*
X7489200Y36963238D01*
X7489199Y36963238D01*
X7366180Y36996200D01*
X7238820Y36996200D01*
X7115800Y36963238D01*
X7005503Y36899558D01*
X6915442Y36809497D01*
X6851762Y36699200D01*
X6818800Y36576180D01*
X127500Y36576180D01*
X127500Y37211180D01*
X18883800Y37211180D01*
X18883800Y37083821D01*
X18916109Y36963237D01*
X18916763Y36960799D01*
X18980444Y36850501D01*
X19070501Y36760444D01*
X19180799Y36696763D01*
X19303820Y36663800D01*
X19431179Y36663800D01*
X19431180Y36663800D01*
X19554201Y36696763D01*
X19664499Y36760444D01*
X19754556Y36850501D01*
X19818237Y36960799D01*
X19851200Y37083820D01*
X19851200Y37211180D01*
X19818237Y37334201D01*
X19754556Y37444499D01*
X19664499Y37534556D01*
X19554201Y37598237D01*
X19554200Y37598238D01*
X19554199Y37598238D01*
X19431180Y37631200D01*
X19303820Y37631200D01*
X19180800Y37598238D01*
X19070503Y37534558D01*
X18980442Y37444497D01*
X18916762Y37334200D01*
X18883800Y37211180D01*
X127500Y37211180D01*
X127500Y38163680D01*
X32536300Y38163680D01*
X32536300Y38036320D01*
X32569263Y37913299D01*
X32632944Y37803001D01*
X32723001Y37712944D01*
X32833299Y37649263D01*
X32956320Y37616300D01*
X33083679Y37616300D01*
X33083680Y37616300D01*
X33206701Y37649263D01*
X33316999Y37712944D01*
X33407056Y37803001D01*
X33470737Y37913299D01*
X33503700Y38036320D01*
X33503700Y38163680D01*
X33470737Y38286701D01*
X33407056Y38396999D01*
X33316999Y38487056D01*
X33206701Y38550737D01*
X33206700Y38550738D01*
X33206699Y38550738D01*
X33083680Y38583700D01*
X32956320Y38583700D01*
X32833300Y38550738D01*
X32723003Y38487058D01*
X32632942Y38396997D01*
X32569262Y38286700D01*
X32536300Y38163680D01*
X127500Y38163680D01*
X127500Y40758011D01*
X739500Y40758011D01*
X739500Y40521989D01*
X770307Y40287986D01*
X831394Y40060007D01*
X879470Y39943941D01*
X921713Y39841957D01*
X921714Y39841955D01*
X921716Y39841951D01*
X933964Y39820737D01*
X1039728Y39637548D01*
X1166918Y39471792D01*
X1183408Y39450301D01*
X1350301Y39283408D01*
X1537550Y39139727D01*
X1741951Y39021716D01*
X1960007Y38931394D01*
X2187986Y38870307D01*
X2367541Y38846669D01*
X2421987Y38839500D01*
X2421989Y38839500D01*
X2658013Y38839500D01*
X2706784Y38845922D01*
X2892014Y38870307D01*
X3119993Y38931394D01*
X3338049Y39021716D01*
X3542450Y39139727D01*
X3729699Y39283408D01*
X3879971Y39433680D01*
X9993800Y39433680D01*
X9993800Y39306320D01*
X10026763Y39183299D01*
X10090444Y39073001D01*
X10180501Y38982944D01*
X10290799Y38919263D01*
X10413820Y38886300D01*
X10541179Y38886300D01*
X10541180Y38886300D01*
X10664201Y38919263D01*
X10774499Y38982944D01*
X10864556Y39073001D01*
X10928237Y39183299D01*
X10961200Y39306320D01*
X10961200Y39433680D01*
X10928237Y39556701D01*
X10864556Y39666999D01*
X10774499Y39757056D01*
X10664201Y39820737D01*
X10664200Y39820738D01*
X10664199Y39820738D01*
X10541180Y39853700D01*
X10413820Y39853700D01*
X10290800Y39820738D01*
X10180503Y39757058D01*
X10090442Y39666997D01*
X10026762Y39556700D01*
X9993800Y39433680D01*
X3879971Y39433680D01*
X3896592Y39450301D01*
X4040273Y39637550D01*
X4158284Y39841951D01*
X4248606Y40060007D01*
X4309693Y40287986D01*
X4340500Y40521989D01*
X4340500Y40758011D01*
X38839500Y40758011D01*
X38839500Y40521989D01*
X38870307Y40287986D01*
X38931394Y40060007D01*
X38979470Y39943941D01*
X39021713Y39841957D01*
X39021714Y39841955D01*
X39021716Y39841951D01*
X39033964Y39820737D01*
X39139728Y39637548D01*
X39266918Y39471792D01*
X39283408Y39450301D01*
X39450301Y39283408D01*
X39637550Y39139727D01*
X39841951Y39021716D01*
X40060007Y38931394D01*
X40287986Y38870307D01*
X40467541Y38846669D01*
X40521987Y38839500D01*
X40521989Y38839500D01*
X40758013Y38839500D01*
X40806784Y38845922D01*
X40992014Y38870307D01*
X41219993Y38931394D01*
X41438049Y39021716D01*
X41642450Y39139727D01*
X41829699Y39283408D01*
X41996592Y39450301D01*
X42140273Y39637550D01*
X42258284Y39841951D01*
X42348606Y40060007D01*
X42409693Y40287986D01*
X42440500Y40521989D01*
X42440500Y40758011D01*
X42439316Y40767001D01*
X42428292Y40850739D01*
X42409693Y40992014D01*
X42348606Y41219993D01*
X42258284Y41438049D01*
X42140273Y41642450D01*
X41996592Y41829699D01*
X41829699Y41996592D01*
X41687010Y42106081D01*
X41642452Y42140272D01*
X41501033Y42221920D01*
X41438049Y42258284D01*
X41438047Y42258285D01*
X41438045Y42258286D01*
X41438043Y42258287D01*
X41336059Y42300530D01*
X41219993Y42348606D01*
X41219441Y42348754D01*
X40992026Y42409690D01*
X40992014Y42409693D01*
X40758013Y42440500D01*
X40758011Y42440500D01*
X40521989Y42440500D01*
X40521987Y42440500D01*
X40287985Y42409693D01*
X40287973Y42409690D01*
X40060013Y42348608D01*
X40060009Y42348607D01*
X40060007Y42348606D01*
X40060005Y42348605D01*
X39841956Y42258287D01*
X39841954Y42258286D01*
X39637547Y42140272D01*
X39450304Y41996595D01*
X39283405Y41829696D01*
X39139728Y41642453D01*
X39021714Y41438046D01*
X39021713Y41438044D01*
X38931395Y41219995D01*
X38931392Y41219987D01*
X38870310Y40992027D01*
X38870307Y40992015D01*
X38840684Y40767001D01*
X38839500Y40758011D01*
X4340500Y40758011D01*
X4339316Y40767001D01*
X4328292Y40850739D01*
X4309693Y40992014D01*
X4248606Y41219993D01*
X4158284Y41438049D01*
X4040273Y41642450D01*
X3896592Y41829699D01*
X3741585Y41984706D01*
X13211500Y41984706D01*
X13211500Y41835294D01*
X13214324Y41821099D01*
X13240647Y41688758D01*
X13240649Y41688754D01*
X13297824Y41550718D01*
X13297826Y41550715D01*
X13380831Y41426489D01*
X13380832Y41426488D01*
X13380835Y41426484D01*
X13486484Y41320835D01*
X13486487Y41320833D01*
X13486488Y41320832D01*
X13610714Y41237827D01*
X13610717Y41237825D01*
X13653783Y41219987D01*
X13748754Y41180649D01*
X13748755Y41180649D01*
X13748757Y41180648D01*
X13822522Y41165976D01*
X13895294Y41151500D01*
X13895296Y41151500D01*
X14044704Y41151500D01*
X14044706Y41151500D01*
X14141515Y41170757D01*
X14191242Y41180648D01*
X14191242Y41180649D01*
X14191246Y41180649D01*
X14329284Y41237826D01*
X14453516Y41320835D01*
X14559165Y41426484D01*
X14642174Y41550716D01*
X14699351Y41688754D01*
X14728500Y41835294D01*
X14728500Y41984706D01*
X15751500Y41984706D01*
X15751500Y41835294D01*
X15754324Y41821099D01*
X15780647Y41688758D01*
X15780649Y41688754D01*
X15837824Y41550718D01*
X15837826Y41550715D01*
X15920831Y41426489D01*
X15920832Y41426488D01*
X15920835Y41426484D01*
X16026484Y41320835D01*
X16026487Y41320833D01*
X16026488Y41320832D01*
X16150714Y41237827D01*
X16150717Y41237825D01*
X16193783Y41219987D01*
X16288754Y41180649D01*
X16288755Y41180649D01*
X16288757Y41180648D01*
X16362522Y41165976D01*
X16435294Y41151500D01*
X16435296Y41151500D01*
X16584704Y41151500D01*
X16584706Y41151500D01*
X16681515Y41170757D01*
X16731242Y41180648D01*
X16731242Y41180649D01*
X16731246Y41180649D01*
X16869284Y41237826D01*
X16993516Y41320835D01*
X17099165Y41426484D01*
X17182174Y41550716D01*
X17239351Y41688754D01*
X17268500Y41835294D01*
X17268500Y41984706D01*
X17239351Y42131246D01*
X17201793Y42221920D01*
X17182175Y42269283D01*
X17182173Y42269286D01*
X17099168Y42393512D01*
X17099167Y42393513D01*
X17099165Y42393516D01*
X16993516Y42499165D01*
X16993512Y42499168D01*
X16993511Y42499169D01*
X16869285Y42582174D01*
X16869282Y42582176D01*
X16731246Y42639351D01*
X16731242Y42639353D01*
X16621090Y42661263D01*
X16584706Y42668500D01*
X16435294Y42668500D01*
X16402927Y42662062D01*
X16288757Y42639353D01*
X16288753Y42639351D01*
X16150717Y42582176D01*
X16150714Y42582174D01*
X16026488Y42499169D01*
X15920831Y42393512D01*
X15837826Y42269286D01*
X15837824Y42269283D01*
X15780649Y42131247D01*
X15780647Y42131243D01*
X15755118Y42002899D01*
X15751500Y41984706D01*
X14728500Y41984706D01*
X14699351Y42131246D01*
X14661793Y42221920D01*
X14642175Y42269283D01*
X14642173Y42269286D01*
X14559168Y42393512D01*
X14559167Y42393513D01*
X14559165Y42393516D01*
X14453516Y42499165D01*
X14453512Y42499168D01*
X14453511Y42499169D01*
X14329285Y42582174D01*
X14329282Y42582176D01*
X14191246Y42639351D01*
X14191242Y42639353D01*
X14081090Y42661263D01*
X14044706Y42668500D01*
X13895294Y42668500D01*
X13862927Y42662062D01*
X13748757Y42639353D01*
X13748753Y42639351D01*
X13610717Y42582176D01*
X13610714Y42582174D01*
X13486488Y42499169D01*
X13380831Y42393512D01*
X13297826Y42269286D01*
X13297824Y42269283D01*
X13240649Y42131247D01*
X13240647Y42131243D01*
X13215118Y42002899D01*
X13211500Y41984706D01*
X3741585Y41984706D01*
X3729699Y41996592D01*
X3587010Y42106081D01*
X3542452Y42140272D01*
X3401033Y42221920D01*
X3338049Y42258284D01*
X3338047Y42258285D01*
X3338045Y42258286D01*
X3338043Y42258287D01*
X3236059Y42300530D01*
X3119993Y42348606D01*
X3119441Y42348754D01*
X2892026Y42409690D01*
X2892014Y42409693D01*
X2658013Y42440500D01*
X2658011Y42440500D01*
X2421989Y42440500D01*
X2421987Y42440500D01*
X2187985Y42409693D01*
X2187973Y42409690D01*
X1960013Y42348608D01*
X1960009Y42348607D01*
X1960007Y42348606D01*
X1960005Y42348605D01*
X1741956Y42258287D01*
X1741954Y42258286D01*
X1537547Y42140272D01*
X1350304Y41996595D01*
X1183405Y41829696D01*
X1039728Y41642453D01*
X921714Y41438046D01*
X921713Y41438044D01*
X831395Y41219995D01*
X831392Y41219987D01*
X770310Y40992027D01*
X770307Y40992015D01*
X740684Y40767001D01*
X739500Y40758011D01*
X127500Y40758011D01*
X127500Y42964600D01*
X148065Y43021101D01*
X200136Y43051165D01*
X215400Y43052500D01*
X18408479Y43052500D01*
X18464980Y43031935D01*
G37*
%TD.AperFunction*%
%TD*%
M02*
