%TF.GenerationSoftware,KiCad,Pcbnew,9.0.1*%
%TF.CreationDate,2025-04-24T15:23:21-06:00*%
%TF.ProjectId,SparkFun_GNSS_ZED-X20P_panelized,53706172-6b46-4756-9e5f-474e53535f5a,rev?*%
%TF.SameCoordinates,Original*%
%TF.FileFunction,Soldermask,Top*%
%TF.FilePolarity,Negative*%
%FSLAX46Y46*%
G04 Gerber Fmt 4.6, Leading zero omitted, Abs format (unit mm)*
G04 Created by KiCad (PCBNEW 9.0.1) date 2025-04-24 15:23:21*
%MOMM*%
%LPD*%
G01*
G04 APERTURE LIST*
G04 Aperture macros list*
%AMRoundRect*
0 Rectangle with rounded corners*
0 $1 Rounding radius*
0 $2 $3 $4 $5 $6 $7 $8 $9 X,Y pos of 4 corners*
0 Add a 4 corners polygon primitive as box body*
4,1,4,$2,$3,$4,$5,$6,$7,$8,$9,$2,$3,0*
0 Add four circle primitives for the rounded corners*
1,1,$1+$1,$2,$3*
1,1,$1+$1,$4,$5*
1,1,$1+$1,$6,$7*
1,1,$1+$1,$8,$9*
0 Add four rect primitives between the rounded corners*
20,1,$1+$1,$2,$3,$4,$5,0*
20,1,$1+$1,$4,$5,$6,$7,0*
20,1,$1+$1,$6,$7,$8,$9,0*
20,1,$1+$1,$8,$9,$2,$3,0*%
G04 Aperture macros list end*
%ADD10C,0.000000*%
%ADD11C,3.000000*%
%ADD12C,3.200000*%
%ADD13RoundRect,0.050000X0.760000X0.425000X-0.760000X0.425000X-0.760000X-0.425000X0.760000X-0.425000X0*%
%ADD14RoundRect,0.050000X0.425000X-0.760000X0.425000X0.760000X-0.425000X0.760000X-0.425000X-0.760000X0*%
%ADD15RoundRect,0.050000X-0.760000X-0.425000X0.760000X-0.425000X0.760000X0.425000X-0.760000X0.425000X0*%
%ADD16RoundRect,0.050000X-0.425000X0.760000X-0.425000X-0.760000X0.425000X-0.760000X0.425000X0.760000X0*%
%ADD17RoundRect,0.050000X0.550000X-0.550000X0.550000X0.550000X-0.550000X0.550000X-0.550000X-0.550000X0*%
%ADD18RoundRect,0.050000X-0.550000X0.550000X-0.550000X-0.550000X0.550000X-0.550000X0.550000X0.550000X0*%
%ADD19RoundRect,0.225000X0.225000X0.300000X-0.225000X0.300000X-0.225000X-0.300000X0.225000X-0.300000X0*%
%ADD20RoundRect,0.050000X-0.635000X0.330200X-0.635000X-0.330200X0.635000X-0.330200X0.635000X0.330200X0*%
%ADD21RoundRect,0.050000X0.635000X-0.330200X0.635000X0.330200X-0.635000X0.330200X-0.635000X-0.330200X0*%
%ADD22RoundRect,0.225000X-0.225000X-0.300000X0.225000X-0.300000X0.225000X0.300000X-0.225000X0.300000X0*%
%ADD23RoundRect,0.250000X0.250000X0.275000X-0.250000X0.275000X-0.250000X-0.275000X0.250000X-0.275000X0*%
%ADD24RoundRect,0.050000X0.315000X0.415000X-0.315000X0.415000X-0.315000X-0.415000X0.315000X-0.415000X0*%
%ADD25RoundRect,0.250000X-0.250000X-0.275000X0.250000X-0.275000X0.250000X0.275000X-0.250000X0.275000X0*%
%ADD26RoundRect,0.050000X0.150000X0.350000X-0.150000X0.350000X-0.150000X-0.350000X0.150000X-0.350000X0*%
%ADD27RoundRect,0.250000X0.275000X-0.250000X0.275000X0.250000X-0.275000X0.250000X-0.275000X-0.250000X0*%
%ADD28RoundRect,0.243750X0.281250X-0.243750X0.281250X0.243750X-0.281250X0.243750X-0.281250X-0.243750X0*%
%ADD29RoundRect,0.050000X0.600000X-0.275000X0.600000X0.275000X-0.600000X0.275000X-0.600000X-0.275000X0*%
%ADD30RoundRect,0.050000X-0.300000X-0.675000X0.300000X-0.675000X0.300000X0.675000X-0.300000X0.675000X0*%
%ADD31RoundRect,0.050000X-0.600000X-1.000000X0.600000X-1.000000X0.600000X1.000000X-0.600000X1.000000X0*%
%ADD32RoundRect,0.165000X0.195000X-0.165000X0.195000X0.165000X-0.195000X0.165000X-0.195000X-0.165000X0*%
%ADD33RoundRect,0.050000X0.400000X0.600000X-0.400000X0.600000X-0.400000X-0.600000X0.400000X-0.600000X0*%
%ADD34RoundRect,0.225000X0.300000X-0.225000X0.300000X0.225000X-0.300000X0.225000X-0.300000X-0.225000X0*%
%ADD35C,1.979600*%
%ADD36RoundRect,0.050000X0.525000X0.500000X-0.525000X0.500000X-0.525000X-0.500000X0.525000X-0.500000X0*%
%ADD37RoundRect,0.050000X1.100000X0.425000X-1.100000X0.425000X-1.100000X-0.425000X1.100000X-0.425000X0*%
%ADD38RoundRect,0.050000X-0.600000X0.275000X-0.600000X-0.275000X0.600000X-0.275000X0.600000X0.275000X0*%
%ADD39RoundRect,0.050000X0.300000X0.675000X-0.300000X0.675000X-0.300000X-0.675000X0.300000X-0.675000X0*%
%ADD40RoundRect,0.050000X0.600000X1.000000X-0.600000X1.000000X-0.600000X-1.000000X0.600000X-1.000000X0*%
%ADD41RoundRect,0.050000X-2.000000X0.750000X-2.000000X-0.750000X2.000000X-0.750000X2.000000X0.750000X0*%
%ADD42RoundRect,0.165000X-0.195000X0.165000X-0.195000X-0.165000X0.195000X-0.165000X0.195000X0.165000X0*%
%ADD43C,0.600000*%
%ADD44RoundRect,0.050000X-0.850000X0.300000X-0.850000X-0.300000X0.850000X-0.300000X0.850000X0.300000X0*%
%ADD45RoundRect,0.050000X-1.350000X0.500000X-1.350000X-0.500000X1.350000X-0.500000X1.350000X0.500000X0*%
%ADD46RoundRect,0.050000X-0.315000X-0.415000X0.315000X-0.415000X0.315000X0.415000X-0.315000X0.415000X0*%
%ADD47RoundRect,0.250000X-0.275000X0.250000X-0.275000X-0.250000X0.275000X-0.250000X0.275000X0.250000X0*%
%ADD48C,0.750000*%
%ADD49RoundRect,0.050000X0.500000X-0.150000X0.500000X0.150000X-0.500000X0.150000X-0.500000X-0.150000X0*%
%ADD50RoundRect,0.050000X-0.500000X0.150000X-0.500000X-0.150000X0.500000X-0.150000X0.500000X0.150000X0*%
%ADD51RoundRect,0.050000X0.500000X-0.300000X0.500000X0.300000X-0.500000X0.300000X-0.500000X-0.300000X0*%
%ADD52RoundRect,0.050000X-0.500000X0.300000X-0.500000X-0.300000X0.500000X-0.300000X0.500000X0.300000X0*%
%ADD53O,1.700000X1.100000*%
%ADD54O,2.200000X1.100000*%
G04 APERTURE END LIST*
D10*
%TO.C,JP1*%
G36*
X139353000Y103184200D02*
G01*
X138872000Y103184200D01*
X138872000Y103692200D01*
X139353000Y103692200D01*
X139353000Y103184200D01*
G37*
G36*
X139353000Y59504200D02*
G01*
X138872000Y59504200D01*
X138872000Y60012200D01*
X139353000Y60012200D01*
X139353000Y59504200D01*
G37*
G36*
X139353000Y15824200D02*
G01*
X138872000Y15824200D01*
X138872000Y16332200D01*
X139353000Y16332200D01*
X139353000Y15824200D01*
G37*
G36*
X88053000Y103184200D02*
G01*
X87572000Y103184200D01*
X87572000Y103692200D01*
X88053000Y103692200D01*
X88053000Y103184200D01*
G37*
G36*
X88053000Y59504200D02*
G01*
X87572000Y59504200D01*
X87572000Y60012200D01*
X88053000Y60012200D01*
X88053000Y59504200D01*
G37*
G36*
X88053000Y15824200D02*
G01*
X87572000Y15824200D01*
X87572000Y16332200D01*
X88053000Y16332200D01*
X88053000Y15824200D01*
G37*
G36*
X36753000Y103184200D02*
G01*
X36272000Y103184200D01*
X36272000Y103692200D01*
X36753000Y103692200D01*
X36753000Y103184200D01*
G37*
G36*
X36753000Y59504200D02*
G01*
X36272000Y59504200D01*
X36272000Y60012200D01*
X36753000Y60012200D01*
X36753000Y59504200D01*
G37*
%TO.C,BT1*%
G36*
X115397855Y116405000D02*
G01*
X112912500Y116405000D01*
X112912500Y118890355D01*
X115397855Y116405000D01*
G37*
G36*
X117117500Y120110000D02*
G01*
X112917500Y120110000D01*
X112917500Y121810000D01*
X117117500Y121810000D01*
X117117500Y120110000D01*
G37*
G36*
X115397855Y72725000D02*
G01*
X112912500Y72725000D01*
X112912500Y75210355D01*
X115397855Y72725000D01*
G37*
G36*
X117117500Y76430000D02*
G01*
X112917500Y76430000D01*
X112917500Y78130000D01*
X117117500Y78130000D01*
X117117500Y76430000D01*
G37*
G36*
X115397855Y29045000D02*
G01*
X112912500Y29045000D01*
X112912500Y31530355D01*
X115397855Y29045000D01*
G37*
G36*
X117117500Y32750000D02*
G01*
X112917500Y32750000D01*
X112917500Y34450000D01*
X117117500Y34450000D01*
X117117500Y32750000D01*
G37*
G36*
X64097855Y116405000D02*
G01*
X61612500Y116405000D01*
X61612500Y118890355D01*
X64097855Y116405000D01*
G37*
G36*
X65817500Y120110000D02*
G01*
X61617500Y120110000D01*
X61617500Y121810000D01*
X65817500Y121810000D01*
X65817500Y120110000D01*
G37*
G36*
X64097855Y72725000D02*
G01*
X61612500Y72725000D01*
X61612500Y75210355D01*
X64097855Y72725000D01*
G37*
G36*
X65817500Y76430000D02*
G01*
X61617500Y76430000D01*
X61617500Y78130000D01*
X65817500Y78130000D01*
X65817500Y76430000D01*
G37*
G36*
X64097855Y29045000D02*
G01*
X61612500Y29045000D01*
X61612500Y31530355D01*
X64097855Y29045000D01*
G37*
G36*
X65817500Y32750000D02*
G01*
X61617500Y32750000D01*
X61617500Y34450000D01*
X65817500Y34450000D01*
X65817500Y32750000D01*
G37*
G36*
X12797855Y116405000D02*
G01*
X10312500Y116405000D01*
X10312500Y118890355D01*
X12797855Y116405000D01*
G37*
G36*
X14517500Y120110000D02*
G01*
X10317500Y120110000D01*
X10317500Y121810000D01*
X14517500Y121810000D01*
X14517500Y120110000D01*
G37*
G36*
X12797855Y72725000D02*
G01*
X10312500Y72725000D01*
X10312500Y75210355D01*
X12797855Y72725000D01*
G37*
G36*
X14517500Y76430000D02*
G01*
X10317500Y76430000D01*
X10317500Y78130000D01*
X14517500Y78130000D01*
X14517500Y76430000D01*
G37*
G36*
X12797855Y29045000D02*
G01*
X10312500Y29045000D01*
X10312500Y31530355D01*
X12797855Y29045000D01*
G37*
G36*
X14517500Y32750000D02*
G01*
X10317500Y32750000D01*
X10317500Y34450000D01*
X14517500Y34450000D01*
X14517500Y32750000D01*
G37*
%TO.C,JP1*%
G36*
X36753000Y15824200D02*
G01*
X36272000Y15824200D01*
X36272000Y16332200D01*
X36753000Y16332200D01*
X36753000Y15824200D01*
G37*
%TD*%
D11*
%TO.C,*%
X155487500Y128540000D03*
%TD*%
%TO.C,*%
X-9707500Y128540000D03*
%TD*%
%TO.C,*%
X-9707500Y2000000D03*
%TD*%
D12*
%TO.C,ST4*%
X105140000Y89900000D03*
%TD*%
%TO.C,ST4*%
X105140000Y46220000D03*
%TD*%
%TO.C,ST4*%
X105140000Y2540000D03*
%TD*%
%TO.C,ST4*%
X53840000Y89900000D03*
%TD*%
%TO.C,ST4*%
X53840000Y46220000D03*
%TD*%
%TO.C,ST4*%
X53840000Y2540000D03*
%TD*%
%TO.C,ST4*%
X2540000Y89900000D03*
%TD*%
%TO.C,ST4*%
X2540000Y46220000D03*
%TD*%
D13*
%TO.C,U5*%
X135450000Y101800000D03*
X135450000Y102900000D03*
X135450000Y104000000D03*
X135450000Y105100000D03*
X135450000Y106200000D03*
X135450000Y107300000D03*
X135450000Y108400000D03*
X135450000Y109500000D03*
X135450000Y110600000D03*
X135450000Y111700000D03*
X135450000Y112800000D03*
X135450000Y113900000D03*
X135450000Y115000000D03*
X135450000Y116100000D03*
D14*
X134600000Y118900000D03*
X133500000Y118900000D03*
X132400000Y118900000D03*
X131300000Y118900000D03*
X130200000Y118900000D03*
X129100000Y118900000D03*
X128000000Y118900000D03*
X126900000Y118900000D03*
X125800000Y118900000D03*
X124700000Y118900000D03*
X123600000Y118900000D03*
X122500000Y118900000D03*
X121400000Y118900000D03*
D15*
X120550000Y116100000D03*
X120550000Y115000000D03*
X120550000Y113900000D03*
X120550000Y112800000D03*
X120550000Y111700000D03*
X120550000Y110600000D03*
X120550000Y109500000D03*
X120550000Y108400000D03*
X120550000Y107300000D03*
X120550000Y106200000D03*
X120550000Y105100000D03*
X120550000Y104000000D03*
X120550000Y102900000D03*
X120550000Y101800000D03*
D16*
X121400000Y99000000D03*
X122500000Y99000000D03*
X123600000Y99000000D03*
X124700000Y99000000D03*
X125800000Y99000000D03*
X126900000Y99000000D03*
X128000000Y99000000D03*
X129100000Y99000000D03*
X130200000Y99000000D03*
X131300000Y99000000D03*
X132400000Y99000000D03*
X133500000Y99000000D03*
X134600000Y99000000D03*
D17*
X129050000Y107900000D03*
X129050000Y105800000D03*
X129050000Y103700000D03*
X129050000Y101600000D03*
X131100000Y107900000D03*
X131100000Y105800000D03*
X131100000Y103700000D03*
X131100000Y101600000D03*
X133150000Y107900000D03*
X133150000Y105800000D03*
X133150000Y103700000D03*
X133150000Y101600000D03*
X122850000Y107900000D03*
X122850000Y105800000D03*
X122850000Y103700000D03*
X122850000Y101600000D03*
X124900000Y107900000D03*
X124900000Y105800000D03*
X124900000Y103700000D03*
X124900000Y101600000D03*
X126950000Y107900000D03*
X126950000Y105800000D03*
X126950000Y103700000D03*
X126950000Y101600000D03*
D18*
X126950000Y110000000D03*
X126950000Y112100000D03*
X126950000Y114200000D03*
X126950000Y116300000D03*
X124900000Y110000000D03*
X124900000Y112100000D03*
X124900000Y114200000D03*
X124900000Y116300000D03*
X122850000Y110000000D03*
X122850000Y112100000D03*
X122850000Y114200000D03*
X122850000Y116300000D03*
X133150000Y110000000D03*
X133150000Y112100000D03*
X133150000Y114200000D03*
X133150000Y116300000D03*
X131100000Y110000000D03*
X131100000Y112100000D03*
X131100000Y114200000D03*
X131100000Y116300000D03*
X129050000Y110000000D03*
X129050000Y112100000D03*
X129050000Y114200000D03*
X129050000Y116300000D03*
%TD*%
D13*
%TO.C,U5*%
X135450000Y58120000D03*
X135450000Y59220000D03*
X135450000Y60320000D03*
X135450000Y61420000D03*
X135450000Y62520000D03*
X135450000Y63620000D03*
X135450000Y64720000D03*
X135450000Y65820000D03*
X135450000Y66920000D03*
X135450000Y68020000D03*
X135450000Y69120000D03*
X135450000Y70220000D03*
X135450000Y71320000D03*
X135450000Y72420000D03*
D14*
X134600000Y75220000D03*
X133500000Y75220000D03*
X132400000Y75220000D03*
X131300000Y75220000D03*
X130200000Y75220000D03*
X129100000Y75220000D03*
X128000000Y75220000D03*
X126900000Y75220000D03*
X125800000Y75220000D03*
X124700000Y75220000D03*
X123600000Y75220000D03*
X122500000Y75220000D03*
X121400000Y75220000D03*
D15*
X120550000Y72420000D03*
X120550000Y71320000D03*
X120550000Y70220000D03*
X120550000Y69120000D03*
X120550000Y68020000D03*
X120550000Y66920000D03*
X120550000Y65820000D03*
X120550000Y64720000D03*
X120550000Y63620000D03*
X120550000Y62520000D03*
X120550000Y61420000D03*
X120550000Y60320000D03*
X120550000Y59220000D03*
X120550000Y58120000D03*
D16*
X121400000Y55320000D03*
X122500000Y55320000D03*
X123600000Y55320000D03*
X124700000Y55320000D03*
X125800000Y55320000D03*
X126900000Y55320000D03*
X128000000Y55320000D03*
X129100000Y55320000D03*
X130200000Y55320000D03*
X131300000Y55320000D03*
X132400000Y55320000D03*
X133500000Y55320000D03*
X134600000Y55320000D03*
D17*
X129050000Y64220000D03*
X129050000Y62120000D03*
X129050000Y60020000D03*
X129050000Y57920000D03*
X131100000Y64220000D03*
X131100000Y62120000D03*
X131100000Y60020000D03*
X131100000Y57920000D03*
X133150000Y64220000D03*
X133150000Y62120000D03*
X133150000Y60020000D03*
X133150000Y57920000D03*
X122850000Y64220000D03*
X122850000Y62120000D03*
X122850000Y60020000D03*
X122850000Y57920000D03*
X124900000Y64220000D03*
X124900000Y62120000D03*
X124900000Y60020000D03*
X124900000Y57920000D03*
X126950000Y64220000D03*
X126950000Y62120000D03*
X126950000Y60020000D03*
X126950000Y57920000D03*
D18*
X126950000Y66320000D03*
X126950000Y68420000D03*
X126950000Y70520000D03*
X126950000Y72620000D03*
X124900000Y66320000D03*
X124900000Y68420000D03*
X124900000Y70520000D03*
X124900000Y72620000D03*
X122850000Y66320000D03*
X122850000Y68420000D03*
X122850000Y70520000D03*
X122850000Y72620000D03*
X133150000Y66320000D03*
X133150000Y68420000D03*
X133150000Y70520000D03*
X133150000Y72620000D03*
X131100000Y66320000D03*
X131100000Y68420000D03*
X131100000Y70520000D03*
X131100000Y72620000D03*
X129050000Y66320000D03*
X129050000Y68420000D03*
X129050000Y70520000D03*
X129050000Y72620000D03*
%TD*%
D13*
%TO.C,U5*%
X135450000Y14440000D03*
X135450000Y15540000D03*
X135450000Y16640000D03*
X135450000Y17740000D03*
X135450000Y18840000D03*
X135450000Y19940000D03*
X135450000Y21040000D03*
X135450000Y22140000D03*
X135450000Y23240000D03*
X135450000Y24340000D03*
X135450000Y25440000D03*
X135450000Y26540000D03*
X135450000Y27640000D03*
X135450000Y28740000D03*
D14*
X134600000Y31540000D03*
X133500000Y31540000D03*
X132400000Y31540000D03*
X131300000Y31540000D03*
X130200000Y31540000D03*
X129100000Y31540000D03*
X128000000Y31540000D03*
X126900000Y31540000D03*
X125800000Y31540000D03*
X124700000Y31540000D03*
X123600000Y31540000D03*
X122500000Y31540000D03*
X121400000Y31540000D03*
D15*
X120550000Y28740000D03*
X120550000Y27640000D03*
X120550000Y26540000D03*
X120550000Y25440000D03*
X120550000Y24340000D03*
X120550000Y23240000D03*
X120550000Y22140000D03*
X120550000Y21040000D03*
X120550000Y19940000D03*
X120550000Y18840000D03*
X120550000Y17740000D03*
X120550000Y16640000D03*
X120550000Y15540000D03*
X120550000Y14440000D03*
D16*
X121400000Y11640000D03*
X122500000Y11640000D03*
X123600000Y11640000D03*
X124700000Y11640000D03*
X125800000Y11640000D03*
X126900000Y11640000D03*
X128000000Y11640000D03*
X129100000Y11640000D03*
X130200000Y11640000D03*
X131300000Y11640000D03*
X132400000Y11640000D03*
X133500000Y11640000D03*
X134600000Y11640000D03*
D17*
X129050000Y20540000D03*
X129050000Y18440000D03*
X129050000Y16340000D03*
X129050000Y14240000D03*
X131100000Y20540000D03*
X131100000Y18440000D03*
X131100000Y16340000D03*
X131100000Y14240000D03*
X133150000Y20540000D03*
X133150000Y18440000D03*
X133150000Y16340000D03*
X133150000Y14240000D03*
X122850000Y20540000D03*
X122850000Y18440000D03*
X122850000Y16340000D03*
X122850000Y14240000D03*
X124900000Y20540000D03*
X124900000Y18440000D03*
X124900000Y16340000D03*
X124900000Y14240000D03*
X126950000Y20540000D03*
X126950000Y18440000D03*
X126950000Y16340000D03*
X126950000Y14240000D03*
D18*
X126950000Y22640000D03*
X126950000Y24740000D03*
X126950000Y26840000D03*
X126950000Y28940000D03*
X124900000Y22640000D03*
X124900000Y24740000D03*
X124900000Y26840000D03*
X124900000Y28940000D03*
X122850000Y22640000D03*
X122850000Y24740000D03*
X122850000Y26840000D03*
X122850000Y28940000D03*
X133150000Y22640000D03*
X133150000Y24740000D03*
X133150000Y26840000D03*
X133150000Y28940000D03*
X131100000Y22640000D03*
X131100000Y24740000D03*
X131100000Y26840000D03*
X131100000Y28940000D03*
X129050000Y22640000D03*
X129050000Y24740000D03*
X129050000Y26840000D03*
X129050000Y28940000D03*
%TD*%
D13*
%TO.C,U5*%
X84150000Y101800000D03*
X84150000Y102900000D03*
X84150000Y104000000D03*
X84150000Y105100000D03*
X84150000Y106200000D03*
X84150000Y107300000D03*
X84150000Y108400000D03*
X84150000Y109500000D03*
X84150000Y110600000D03*
X84150000Y111700000D03*
X84150000Y112800000D03*
X84150000Y113900000D03*
X84150000Y115000000D03*
X84150000Y116100000D03*
D14*
X83300000Y118900000D03*
X82200000Y118900000D03*
X81100000Y118900000D03*
X80000000Y118900000D03*
X78900000Y118900000D03*
X77800000Y118900000D03*
X76700000Y118900000D03*
X75600000Y118900000D03*
X74500000Y118900000D03*
X73400000Y118900000D03*
X72300000Y118900000D03*
X71200000Y118900000D03*
X70100000Y118900000D03*
D15*
X69250000Y116100000D03*
X69250000Y115000000D03*
X69250000Y113900000D03*
X69250000Y112800000D03*
X69250000Y111700000D03*
X69250000Y110600000D03*
X69250000Y109500000D03*
X69250000Y108400000D03*
X69250000Y107300000D03*
X69250000Y106200000D03*
X69250000Y105100000D03*
X69250000Y104000000D03*
X69250000Y102900000D03*
X69250000Y101800000D03*
D16*
X70100000Y99000000D03*
X71200000Y99000000D03*
X72300000Y99000000D03*
X73400000Y99000000D03*
X74500000Y99000000D03*
X75600000Y99000000D03*
X76700000Y99000000D03*
X77800000Y99000000D03*
X78900000Y99000000D03*
X80000000Y99000000D03*
X81100000Y99000000D03*
X82200000Y99000000D03*
X83300000Y99000000D03*
D17*
X77750000Y107900000D03*
X77750000Y105800000D03*
X77750000Y103700000D03*
X77750000Y101600000D03*
X79800000Y107900000D03*
X79800000Y105800000D03*
X79800000Y103700000D03*
X79800000Y101600000D03*
X81850000Y107900000D03*
X81850000Y105800000D03*
X81850000Y103700000D03*
X81850000Y101600000D03*
X71550000Y107900000D03*
X71550000Y105800000D03*
X71550000Y103700000D03*
X71550000Y101600000D03*
X73600000Y107900000D03*
X73600000Y105800000D03*
X73600000Y103700000D03*
X73600000Y101600000D03*
X75650000Y107900000D03*
X75650000Y105800000D03*
X75650000Y103700000D03*
X75650000Y101600000D03*
D18*
X75650000Y110000000D03*
X75650000Y112100000D03*
X75650000Y114200000D03*
X75650000Y116300000D03*
X73600000Y110000000D03*
X73600000Y112100000D03*
X73600000Y114200000D03*
X73600000Y116300000D03*
X71550000Y110000000D03*
X71550000Y112100000D03*
X71550000Y114200000D03*
X71550000Y116300000D03*
X81850000Y110000000D03*
X81850000Y112100000D03*
X81850000Y114200000D03*
X81850000Y116300000D03*
X79800000Y110000000D03*
X79800000Y112100000D03*
X79800000Y114200000D03*
X79800000Y116300000D03*
X77750000Y110000000D03*
X77750000Y112100000D03*
X77750000Y114200000D03*
X77750000Y116300000D03*
%TD*%
D13*
%TO.C,U5*%
X84150000Y58120000D03*
X84150000Y59220000D03*
X84150000Y60320000D03*
X84150000Y61420000D03*
X84150000Y62520000D03*
X84150000Y63620000D03*
X84150000Y64720000D03*
X84150000Y65820000D03*
X84150000Y66920000D03*
X84150000Y68020000D03*
X84150000Y69120000D03*
X84150000Y70220000D03*
X84150000Y71320000D03*
X84150000Y72420000D03*
D14*
X83300000Y75220000D03*
X82200000Y75220000D03*
X81100000Y75220000D03*
X80000000Y75220000D03*
X78900000Y75220000D03*
X77800000Y75220000D03*
X76700000Y75220000D03*
X75600000Y75220000D03*
X74500000Y75220000D03*
X73400000Y75220000D03*
X72300000Y75220000D03*
X71200000Y75220000D03*
X70100000Y75220000D03*
D15*
X69250000Y72420000D03*
X69250000Y71320000D03*
X69250000Y70220000D03*
X69250000Y69120000D03*
X69250000Y68020000D03*
X69250000Y66920000D03*
X69250000Y65820000D03*
X69250000Y64720000D03*
X69250000Y63620000D03*
X69250000Y62520000D03*
X69250000Y61420000D03*
X69250000Y60320000D03*
X69250000Y59220000D03*
X69250000Y58120000D03*
D16*
X70100000Y55320000D03*
X71200000Y55320000D03*
X72300000Y55320000D03*
X73400000Y55320000D03*
X74500000Y55320000D03*
X75600000Y55320000D03*
X76700000Y55320000D03*
X77800000Y55320000D03*
X78900000Y55320000D03*
X80000000Y55320000D03*
X81100000Y55320000D03*
X82200000Y55320000D03*
X83300000Y55320000D03*
D17*
X77750000Y64220000D03*
X77750000Y62120000D03*
X77750000Y60020000D03*
X77750000Y57920000D03*
X79800000Y64220000D03*
X79800000Y62120000D03*
X79800000Y60020000D03*
X79800000Y57920000D03*
X81850000Y64220000D03*
X81850000Y62120000D03*
X81850000Y60020000D03*
X81850000Y57920000D03*
X71550000Y64220000D03*
X71550000Y62120000D03*
X71550000Y60020000D03*
X71550000Y57920000D03*
X73600000Y64220000D03*
X73600000Y62120000D03*
X73600000Y60020000D03*
X73600000Y57920000D03*
X75650000Y64220000D03*
X75650000Y62120000D03*
X75650000Y60020000D03*
X75650000Y57920000D03*
D18*
X75650000Y66320000D03*
X75650000Y68420000D03*
X75650000Y70520000D03*
X75650000Y72620000D03*
X73600000Y66320000D03*
X73600000Y68420000D03*
X73600000Y70520000D03*
X73600000Y72620000D03*
X71550000Y66320000D03*
X71550000Y68420000D03*
X71550000Y70520000D03*
X71550000Y72620000D03*
X81850000Y66320000D03*
X81850000Y68420000D03*
X81850000Y70520000D03*
X81850000Y72620000D03*
X79800000Y66320000D03*
X79800000Y68420000D03*
X79800000Y70520000D03*
X79800000Y72620000D03*
X77750000Y66320000D03*
X77750000Y68420000D03*
X77750000Y70520000D03*
X77750000Y72620000D03*
%TD*%
D13*
%TO.C,U5*%
X84150000Y14440000D03*
X84150000Y15540000D03*
X84150000Y16640000D03*
X84150000Y17740000D03*
X84150000Y18840000D03*
X84150000Y19940000D03*
X84150000Y21040000D03*
X84150000Y22140000D03*
X84150000Y23240000D03*
X84150000Y24340000D03*
X84150000Y25440000D03*
X84150000Y26540000D03*
X84150000Y27640000D03*
X84150000Y28740000D03*
D14*
X83300000Y31540000D03*
X82200000Y31540000D03*
X81100000Y31540000D03*
X80000000Y31540000D03*
X78900000Y31540000D03*
X77800000Y31540000D03*
X76700000Y31540000D03*
X75600000Y31540000D03*
X74500000Y31540000D03*
X73400000Y31540000D03*
X72300000Y31540000D03*
X71200000Y31540000D03*
X70100000Y31540000D03*
D15*
X69250000Y28740000D03*
X69250000Y27640000D03*
X69250000Y26540000D03*
X69250000Y25440000D03*
X69250000Y24340000D03*
X69250000Y23240000D03*
X69250000Y22140000D03*
X69250000Y21040000D03*
X69250000Y19940000D03*
X69250000Y18840000D03*
X69250000Y17740000D03*
X69250000Y16640000D03*
X69250000Y15540000D03*
X69250000Y14440000D03*
D16*
X70100000Y11640000D03*
X71200000Y11640000D03*
X72300000Y11640000D03*
X73400000Y11640000D03*
X74500000Y11640000D03*
X75600000Y11640000D03*
X76700000Y11640000D03*
X77800000Y11640000D03*
X78900000Y11640000D03*
X80000000Y11640000D03*
X81100000Y11640000D03*
X82200000Y11640000D03*
X83300000Y11640000D03*
D17*
X77750000Y20540000D03*
X77750000Y18440000D03*
X77750000Y16340000D03*
X77750000Y14240000D03*
X79800000Y20540000D03*
X79800000Y18440000D03*
X79800000Y16340000D03*
X79800000Y14240000D03*
X81850000Y20540000D03*
X81850000Y18440000D03*
X81850000Y16340000D03*
X81850000Y14240000D03*
X71550000Y20540000D03*
X71550000Y18440000D03*
X71550000Y16340000D03*
X71550000Y14240000D03*
X73600000Y20540000D03*
X73600000Y18440000D03*
X73600000Y16340000D03*
X73600000Y14240000D03*
X75650000Y20540000D03*
X75650000Y18440000D03*
X75650000Y16340000D03*
X75650000Y14240000D03*
D18*
X75650000Y22640000D03*
X75650000Y24740000D03*
X75650000Y26840000D03*
X75650000Y28940000D03*
X73600000Y22640000D03*
X73600000Y24740000D03*
X73600000Y26840000D03*
X73600000Y28940000D03*
X71550000Y22640000D03*
X71550000Y24740000D03*
X71550000Y26840000D03*
X71550000Y28940000D03*
X81850000Y22640000D03*
X81850000Y24740000D03*
X81850000Y26840000D03*
X81850000Y28940000D03*
X79800000Y22640000D03*
X79800000Y24740000D03*
X79800000Y26840000D03*
X79800000Y28940000D03*
X77750000Y22640000D03*
X77750000Y24740000D03*
X77750000Y26840000D03*
X77750000Y28940000D03*
%TD*%
D13*
%TO.C,U5*%
X32850000Y101800000D03*
X32850000Y102900000D03*
X32850000Y104000000D03*
X32850000Y105100000D03*
X32850000Y106200000D03*
X32850000Y107300000D03*
X32850000Y108400000D03*
X32850000Y109500000D03*
X32850000Y110600000D03*
X32850000Y111700000D03*
X32850000Y112800000D03*
X32850000Y113900000D03*
X32850000Y115000000D03*
X32850000Y116100000D03*
D14*
X32000000Y118900000D03*
X30900000Y118900000D03*
X29800000Y118900000D03*
X28700000Y118900000D03*
X27600000Y118900000D03*
X26500000Y118900000D03*
X25400000Y118900000D03*
X24300000Y118900000D03*
X23200000Y118900000D03*
X22100000Y118900000D03*
X21000000Y118900000D03*
X19900000Y118900000D03*
X18800000Y118900000D03*
D15*
X17950000Y116100000D03*
X17950000Y115000000D03*
X17950000Y113900000D03*
X17950000Y112800000D03*
X17950000Y111700000D03*
X17950000Y110600000D03*
X17950000Y109500000D03*
X17950000Y108400000D03*
X17950000Y107300000D03*
X17950000Y106200000D03*
X17950000Y105100000D03*
X17950000Y104000000D03*
X17950000Y102900000D03*
X17950000Y101800000D03*
D16*
X18800000Y99000000D03*
X19900000Y99000000D03*
X21000000Y99000000D03*
X22100000Y99000000D03*
X23200000Y99000000D03*
X24300000Y99000000D03*
X25400000Y99000000D03*
X26500000Y99000000D03*
X27600000Y99000000D03*
X28700000Y99000000D03*
X29800000Y99000000D03*
X30900000Y99000000D03*
X32000000Y99000000D03*
D17*
X26450000Y107900000D03*
X26450000Y105800000D03*
X26450000Y103700000D03*
X26450000Y101600000D03*
X28500000Y107900000D03*
X28500000Y105800000D03*
X28500000Y103700000D03*
X28500000Y101600000D03*
X30550000Y107900000D03*
X30550000Y105800000D03*
X30550000Y103700000D03*
X30550000Y101600000D03*
X20250000Y107900000D03*
X20250000Y105800000D03*
X20250000Y103700000D03*
X20250000Y101600000D03*
X22300000Y107900000D03*
X22300000Y105800000D03*
X22300000Y103700000D03*
X22300000Y101600000D03*
X24350000Y107900000D03*
X24350000Y105800000D03*
X24350000Y103700000D03*
X24350000Y101600000D03*
D18*
X24350000Y110000000D03*
X24350000Y112100000D03*
X24350000Y114200000D03*
X24350000Y116300000D03*
X22300000Y110000000D03*
X22300000Y112100000D03*
X22300000Y114200000D03*
X22300000Y116300000D03*
X20250000Y110000000D03*
X20250000Y112100000D03*
X20250000Y114200000D03*
X20250000Y116300000D03*
X30550000Y110000000D03*
X30550000Y112100000D03*
X30550000Y114200000D03*
X30550000Y116300000D03*
X28500000Y110000000D03*
X28500000Y112100000D03*
X28500000Y114200000D03*
X28500000Y116300000D03*
X26450000Y110000000D03*
X26450000Y112100000D03*
X26450000Y114200000D03*
X26450000Y116300000D03*
%TD*%
D13*
%TO.C,U5*%
X32850000Y58120000D03*
X32850000Y59220000D03*
X32850000Y60320000D03*
X32850000Y61420000D03*
X32850000Y62520000D03*
X32850000Y63620000D03*
X32850000Y64720000D03*
X32850000Y65820000D03*
X32850000Y66920000D03*
X32850000Y68020000D03*
X32850000Y69120000D03*
X32850000Y70220000D03*
X32850000Y71320000D03*
X32850000Y72420000D03*
D14*
X32000000Y75220000D03*
X30900000Y75220000D03*
X29800000Y75220000D03*
X28700000Y75220000D03*
X27600000Y75220000D03*
X26500000Y75220000D03*
X25400000Y75220000D03*
X24300000Y75220000D03*
X23200000Y75220000D03*
X22100000Y75220000D03*
X21000000Y75220000D03*
X19900000Y75220000D03*
X18800000Y75220000D03*
D15*
X17950000Y72420000D03*
X17950000Y71320000D03*
X17950000Y70220000D03*
X17950000Y69120000D03*
X17950000Y68020000D03*
X17950000Y66920000D03*
X17950000Y65820000D03*
X17950000Y64720000D03*
X17950000Y63620000D03*
X17950000Y62520000D03*
X17950000Y61420000D03*
X17950000Y60320000D03*
X17950000Y59220000D03*
X17950000Y58120000D03*
D16*
X18800000Y55320000D03*
X19900000Y55320000D03*
X21000000Y55320000D03*
X22100000Y55320000D03*
X23200000Y55320000D03*
X24300000Y55320000D03*
X25400000Y55320000D03*
X26500000Y55320000D03*
X27600000Y55320000D03*
X28700000Y55320000D03*
X29800000Y55320000D03*
X30900000Y55320000D03*
X32000000Y55320000D03*
D17*
X26450000Y64220000D03*
X26450000Y62120000D03*
X26450000Y60020000D03*
X26450000Y57920000D03*
X28500000Y64220000D03*
X28500000Y62120000D03*
X28500000Y60020000D03*
X28500000Y57920000D03*
X30550000Y64220000D03*
X30550000Y62120000D03*
X30550000Y60020000D03*
X30550000Y57920000D03*
X20250000Y64220000D03*
X20250000Y62120000D03*
X20250000Y60020000D03*
X20250000Y57920000D03*
X22300000Y64220000D03*
X22300000Y62120000D03*
X22300000Y60020000D03*
X22300000Y57920000D03*
X24350000Y64220000D03*
X24350000Y62120000D03*
X24350000Y60020000D03*
X24350000Y57920000D03*
D18*
X24350000Y66320000D03*
X24350000Y68420000D03*
X24350000Y70520000D03*
X24350000Y72620000D03*
X22300000Y66320000D03*
X22300000Y68420000D03*
X22300000Y70520000D03*
X22300000Y72620000D03*
X20250000Y66320000D03*
X20250000Y68420000D03*
X20250000Y70520000D03*
X20250000Y72620000D03*
X30550000Y66320000D03*
X30550000Y68420000D03*
X30550000Y70520000D03*
X30550000Y72620000D03*
X28500000Y66320000D03*
X28500000Y68420000D03*
X28500000Y70520000D03*
X28500000Y72620000D03*
X26450000Y66320000D03*
X26450000Y68420000D03*
X26450000Y70520000D03*
X26450000Y72620000D03*
%TD*%
D19*
%TO.C,R7*%
X115490000Y114665000D03*
X113840000Y114665000D03*
%TD*%
%TO.C,R7*%
X115490000Y70985000D03*
X113840000Y70985000D03*
%TD*%
%TO.C,R7*%
X115490000Y27305000D03*
X113840000Y27305000D03*
%TD*%
%TO.C,R7*%
X64190000Y114665000D03*
X62540000Y114665000D03*
%TD*%
%TO.C,R7*%
X64190000Y70985000D03*
X62540000Y70985000D03*
%TD*%
%TO.C,R7*%
X64190000Y27305000D03*
X62540000Y27305000D03*
%TD*%
%TO.C,R7*%
X12890000Y114665000D03*
X11240000Y114665000D03*
%TD*%
%TO.C,R7*%
X12890000Y70985000D03*
X11240000Y70985000D03*
%TD*%
D20*
%TO.C,JP1*%
X139112500Y103958900D03*
X139112500Y102917500D03*
D21*
X139112500Y101876100D03*
%TD*%
D20*
%TO.C,JP1*%
X139112500Y60278900D03*
X139112500Y59237500D03*
D21*
X139112500Y58196100D03*
%TD*%
D20*
%TO.C,JP1*%
X139112500Y16598900D03*
X139112500Y15557500D03*
D21*
X139112500Y14516100D03*
%TD*%
D20*
%TO.C,JP1*%
X87812500Y103958900D03*
X87812500Y102917500D03*
D21*
X87812500Y101876100D03*
%TD*%
D20*
%TO.C,JP1*%
X87812500Y60278900D03*
X87812500Y59237500D03*
D21*
X87812500Y58196100D03*
%TD*%
D20*
%TO.C,JP1*%
X87812500Y16598900D03*
X87812500Y15557500D03*
D21*
X87812500Y14516100D03*
%TD*%
D20*
%TO.C,JP1*%
X36512500Y103958900D03*
X36512500Y102917500D03*
D21*
X36512500Y101876100D03*
%TD*%
D20*
%TO.C,JP1*%
X36512500Y60278900D03*
X36512500Y59237500D03*
D21*
X36512500Y58196100D03*
%TD*%
D22*
%TO.C,R12*%
X111300000Y94345000D03*
X112950000Y94345000D03*
%TD*%
%TO.C,R12*%
X111300000Y50665000D03*
X112950000Y50665000D03*
%TD*%
%TO.C,R12*%
X111300000Y6985000D03*
X112950000Y6985000D03*
%TD*%
%TO.C,R12*%
X60000000Y94345000D03*
X61650000Y94345000D03*
%TD*%
%TO.C,R12*%
X60000000Y50665000D03*
X61650000Y50665000D03*
%TD*%
%TO.C,R12*%
X60000000Y6985000D03*
X61650000Y6985000D03*
%TD*%
%TO.C,R12*%
X8700000Y94345000D03*
X10350000Y94345000D03*
%TD*%
%TO.C,R12*%
X8700000Y50665000D03*
X10350000Y50665000D03*
%TD*%
D23*
%TO.C,L2*%
X139252500Y100377500D03*
X137702500Y100377500D03*
%TD*%
%TO.C,L2*%
X139252500Y56697500D03*
X137702500Y56697500D03*
%TD*%
%TO.C,L2*%
X139252500Y13017500D03*
X137702500Y13017500D03*
%TD*%
%TO.C,L2*%
X87952500Y100377500D03*
X86402500Y100377500D03*
%TD*%
%TO.C,L2*%
X87952500Y56697500D03*
X86402500Y56697500D03*
%TD*%
%TO.C,L2*%
X87952500Y13017500D03*
X86402500Y13017500D03*
%TD*%
%TO.C,L2*%
X36652500Y100377500D03*
X35102500Y100377500D03*
%TD*%
%TO.C,L2*%
X36652500Y56697500D03*
X35102500Y56697500D03*
%TD*%
D12*
%TO.C,ST3*%
X105140000Y128000000D03*
%TD*%
%TO.C,ST3*%
X105140000Y84320000D03*
%TD*%
%TO.C,ST3*%
X105140000Y40640000D03*
%TD*%
%TO.C,ST3*%
X53840000Y128000000D03*
%TD*%
%TO.C,ST3*%
X53840000Y84320000D03*
%TD*%
%TO.C,ST3*%
X53840000Y40640000D03*
%TD*%
%TO.C,ST3*%
X2540000Y128000000D03*
%TD*%
%TO.C,ST3*%
X2540000Y84320000D03*
%TD*%
D22*
%TO.C,R6*%
X137652500Y108315000D03*
X139302500Y108315000D03*
%TD*%
%TO.C,R6*%
X137652500Y64635000D03*
X139302500Y64635000D03*
%TD*%
%TO.C,R6*%
X137652500Y20955000D03*
X139302500Y20955000D03*
%TD*%
%TO.C,R6*%
X86352500Y108315000D03*
X88002500Y108315000D03*
%TD*%
%TO.C,R6*%
X86352500Y64635000D03*
X88002500Y64635000D03*
%TD*%
%TO.C,R6*%
X86352500Y20955000D03*
X88002500Y20955000D03*
%TD*%
%TO.C,R6*%
X35052500Y108315000D03*
X36702500Y108315000D03*
%TD*%
%TO.C,R6*%
X35052500Y64635000D03*
X36702500Y64635000D03*
%TD*%
D24*
%TO.C,D6*%
X113275000Y104505000D03*
X110975000Y104505000D03*
%TD*%
%TO.C,D6*%
X113275000Y60825000D03*
X110975000Y60825000D03*
%TD*%
%TO.C,D6*%
X113275000Y17145000D03*
X110975000Y17145000D03*
%TD*%
%TO.C,D6*%
X61975000Y104505000D03*
X59675000Y104505000D03*
%TD*%
%TO.C,D6*%
X61975000Y60825000D03*
X59675000Y60825000D03*
%TD*%
%TO.C,D6*%
X61975000Y17145000D03*
X59675000Y17145000D03*
%TD*%
%TO.C,D6*%
X10675000Y104505000D03*
X8375000Y104505000D03*
%TD*%
%TO.C,D6*%
X10675000Y60825000D03*
X8375000Y60825000D03*
%TD*%
D19*
%TO.C,R9*%
X117077500Y103235000D03*
X115427500Y103235000D03*
%TD*%
%TO.C,R9*%
X117077500Y59555000D03*
X115427500Y59555000D03*
%TD*%
%TO.C,R9*%
X117077500Y15875000D03*
X115427500Y15875000D03*
%TD*%
%TO.C,R9*%
X65777500Y103235000D03*
X64127500Y103235000D03*
%TD*%
%TO.C,R9*%
X65777500Y59555000D03*
X64127500Y59555000D03*
%TD*%
%TO.C,R9*%
X65777500Y15875000D03*
X64127500Y15875000D03*
%TD*%
%TO.C,R9*%
X14477500Y103235000D03*
X12827500Y103235000D03*
%TD*%
%TO.C,R9*%
X14477500Y59555000D03*
X12827500Y59555000D03*
%TD*%
D25*
%TO.C,C13*%
X111350000Y97520000D03*
X112900000Y97520000D03*
%TD*%
%TO.C,C13*%
X111350000Y53840000D03*
X112900000Y53840000D03*
%TD*%
%TO.C,C13*%
X111350000Y10160000D03*
X112900000Y10160000D03*
%TD*%
%TO.C,C13*%
X60050000Y97520000D03*
X61600000Y97520000D03*
%TD*%
%TO.C,C13*%
X60050000Y53840000D03*
X61600000Y53840000D03*
%TD*%
%TO.C,C13*%
X60050000Y10160000D03*
X61600000Y10160000D03*
%TD*%
%TO.C,C13*%
X8750000Y97520000D03*
X10300000Y97520000D03*
%TD*%
%TO.C,C13*%
X8750000Y53840000D03*
X10300000Y53840000D03*
%TD*%
D26*
%TO.C,D8*%
X121030000Y124355000D03*
X120380000Y124355000D03*
X119730000Y124355000D03*
X119730000Y122755000D03*
X121030000Y122755000D03*
%TD*%
%TO.C,D8*%
X121030000Y80675000D03*
X120380000Y80675000D03*
X119730000Y80675000D03*
X119730000Y79075000D03*
X121030000Y79075000D03*
%TD*%
%TO.C,D8*%
X121030000Y36995000D03*
X120380000Y36995000D03*
X119730000Y36995000D03*
X119730000Y35395000D03*
X121030000Y35395000D03*
%TD*%
%TO.C,D8*%
X69730000Y124355000D03*
X69080000Y124355000D03*
X68430000Y124355000D03*
X68430000Y122755000D03*
X69730000Y122755000D03*
%TD*%
%TO.C,D8*%
X69730000Y80675000D03*
X69080000Y80675000D03*
X68430000Y80675000D03*
X68430000Y79075000D03*
X69730000Y79075000D03*
%TD*%
%TO.C,D8*%
X69730000Y36995000D03*
X69080000Y36995000D03*
X68430000Y36995000D03*
X68430000Y35395000D03*
X69730000Y35395000D03*
%TD*%
%TO.C,D8*%
X18430000Y124355000D03*
X17780000Y124355000D03*
X17130000Y124355000D03*
X17130000Y122755000D03*
X18430000Y122755000D03*
%TD*%
%TO.C,D8*%
X18430000Y80675000D03*
X17780000Y80675000D03*
X17130000Y80675000D03*
X17130000Y79075000D03*
X18430000Y79075000D03*
%TD*%
D27*
%TO.C,C1*%
X113395000Y108175000D03*
X113395000Y109725000D03*
%TD*%
%TO.C,C1*%
X113395000Y64495000D03*
X113395000Y66045000D03*
%TD*%
%TO.C,C1*%
X113395000Y20815000D03*
X113395000Y22365000D03*
%TD*%
%TO.C,C1*%
X62095000Y108175000D03*
X62095000Y109725000D03*
%TD*%
%TO.C,C1*%
X62095000Y64495000D03*
X62095000Y66045000D03*
%TD*%
%TO.C,C1*%
X62095000Y20815000D03*
X62095000Y22365000D03*
%TD*%
%TO.C,C1*%
X10795000Y108175000D03*
X10795000Y109725000D03*
%TD*%
%TO.C,C1*%
X10795000Y64495000D03*
X10795000Y66045000D03*
%TD*%
D28*
%TO.C,D9*%
X144192500Y117687500D03*
X144192500Y119262500D03*
%TD*%
%TO.C,D9*%
X144192500Y74007500D03*
X144192500Y75582500D03*
%TD*%
%TO.C,D9*%
X144192500Y30327500D03*
X144192500Y31902500D03*
%TD*%
%TO.C,D9*%
X92892500Y117687500D03*
X92892500Y119262500D03*
%TD*%
%TO.C,D9*%
X92892500Y74007500D03*
X92892500Y75582500D03*
%TD*%
%TO.C,D9*%
X92892500Y30327500D03*
X92892500Y31902500D03*
%TD*%
%TO.C,D9*%
X41592500Y117687500D03*
X41592500Y119262500D03*
%TD*%
%TO.C,D9*%
X41592500Y74007500D03*
X41592500Y75582500D03*
%TD*%
D29*
%TO.C,U1*%
X113425100Y99110000D03*
X113425100Y100060000D03*
X113425100Y101010000D03*
X110824900Y101010000D03*
X110825000Y100060000D03*
X110824900Y99110000D03*
%TD*%
%TO.C,U1*%
X113425100Y55430000D03*
X113425100Y56380000D03*
X113425100Y57330000D03*
X110824900Y57330000D03*
X110825000Y56380000D03*
X110824900Y55430000D03*
%TD*%
%TO.C,U1*%
X113425100Y11750000D03*
X113425100Y12700000D03*
X113425100Y13650000D03*
X110824900Y13650000D03*
X110825000Y12700000D03*
X110824900Y11750000D03*
%TD*%
%TO.C,U1*%
X62125100Y99110000D03*
X62125100Y100060000D03*
X62125100Y101010000D03*
X59524900Y101010000D03*
X59525000Y100060000D03*
X59524900Y99110000D03*
%TD*%
%TO.C,U1*%
X62125100Y55430000D03*
X62125100Y56380000D03*
X62125100Y57330000D03*
X59524900Y57330000D03*
X59525000Y56380000D03*
X59524900Y55430000D03*
%TD*%
%TO.C,U1*%
X62125100Y11750000D03*
X62125100Y12700000D03*
X62125100Y13650000D03*
X59524900Y13650000D03*
X59525000Y12700000D03*
X59524900Y11750000D03*
%TD*%
%TO.C,U1*%
X10825100Y99110000D03*
X10825100Y100060000D03*
X10825100Y101010000D03*
X8224900Y101010000D03*
X8225000Y100060000D03*
X8224900Y99110000D03*
%TD*%
%TO.C,U1*%
X10825100Y55430000D03*
X10825100Y56380000D03*
X10825100Y57330000D03*
X8224900Y57330000D03*
X8225000Y56380000D03*
X8224900Y55430000D03*
%TD*%
D30*
%TO.C,J4*%
X109990000Y92440000D03*
X110990000Y92440000D03*
X111990000Y92440000D03*
X112990000Y92440000D03*
D31*
X114290000Y88765000D03*
X108690000Y88765000D03*
%TD*%
D30*
%TO.C,J4*%
X109990000Y48760000D03*
X110990000Y48760000D03*
X111990000Y48760000D03*
X112990000Y48760000D03*
D31*
X114290000Y45085000D03*
X108690000Y45085000D03*
%TD*%
D30*
%TO.C,J4*%
X109990000Y5080000D03*
X110990000Y5080000D03*
X111990000Y5080000D03*
X112990000Y5080000D03*
D31*
X114290000Y1405000D03*
X108690000Y1405000D03*
%TD*%
D30*
%TO.C,J4*%
X58690000Y92440000D03*
X59690000Y92440000D03*
X60690000Y92440000D03*
X61690000Y92440000D03*
D31*
X62990000Y88765000D03*
X57390000Y88765000D03*
%TD*%
D30*
%TO.C,J4*%
X58690000Y48760000D03*
X59690000Y48760000D03*
X60690000Y48760000D03*
X61690000Y48760000D03*
D31*
X62990000Y45085000D03*
X57390000Y45085000D03*
%TD*%
D30*
%TO.C,J4*%
X58690000Y5080000D03*
X59690000Y5080000D03*
X60690000Y5080000D03*
X61690000Y5080000D03*
D31*
X62990000Y1405000D03*
X57390000Y1405000D03*
%TD*%
D30*
%TO.C,J4*%
X7390000Y92440000D03*
X8390000Y92440000D03*
X9390000Y92440000D03*
X10390000Y92440000D03*
D31*
X11690000Y88765000D03*
X6090000Y88765000D03*
%TD*%
D30*
%TO.C,J4*%
X7390000Y48760000D03*
X8390000Y48760000D03*
X9390000Y48760000D03*
X10390000Y48760000D03*
D31*
X11690000Y45085000D03*
X6090000Y45085000D03*
%TD*%
D32*
%TO.C,D14*%
X140700000Y99262500D03*
X140700000Y100222500D03*
%TD*%
%TO.C,D14*%
X140700000Y55582500D03*
X140700000Y56542500D03*
%TD*%
%TO.C,D14*%
X140700000Y11902500D03*
X140700000Y12862500D03*
%TD*%
%TO.C,D14*%
X89400000Y99262500D03*
X89400000Y100222500D03*
%TD*%
%TO.C,D14*%
X89400000Y55582500D03*
X89400000Y56542500D03*
%TD*%
%TO.C,D14*%
X89400000Y11902500D03*
X89400000Y12862500D03*
%TD*%
%TO.C,D14*%
X38100000Y99262500D03*
X38100000Y100222500D03*
%TD*%
%TO.C,D14*%
X38100000Y55582500D03*
X38100000Y56542500D03*
%TD*%
D33*
%TO.C,F1*%
X113025000Y106410000D03*
X111225000Y106410000D03*
%TD*%
%TO.C,F1*%
X113025000Y62730000D03*
X111225000Y62730000D03*
%TD*%
%TO.C,F1*%
X113025000Y19050000D03*
X111225000Y19050000D03*
%TD*%
%TO.C,F1*%
X61725000Y106410000D03*
X59925000Y106410000D03*
%TD*%
%TO.C,F1*%
X61725000Y62730000D03*
X59925000Y62730000D03*
%TD*%
%TO.C,F1*%
X61725000Y19050000D03*
X59925000Y19050000D03*
%TD*%
%TO.C,F1*%
X10425000Y106410000D03*
X8625000Y106410000D03*
%TD*%
%TO.C,F1*%
X10425000Y62730000D03*
X8625000Y62730000D03*
%TD*%
D26*
%TO.C,D10*%
X136270000Y124355000D03*
X135620000Y124355000D03*
X134970000Y124355000D03*
X134970000Y122755000D03*
X136270000Y122755000D03*
%TD*%
%TO.C,D10*%
X136270000Y80675000D03*
X135620000Y80675000D03*
X134970000Y80675000D03*
X134970000Y79075000D03*
X136270000Y79075000D03*
%TD*%
%TO.C,D10*%
X136270000Y36995000D03*
X135620000Y36995000D03*
X134970000Y36995000D03*
X134970000Y35395000D03*
X136270000Y35395000D03*
%TD*%
%TO.C,D10*%
X84970000Y124355000D03*
X84320000Y124355000D03*
X83670000Y124355000D03*
X83670000Y122755000D03*
X84970000Y122755000D03*
%TD*%
%TO.C,D10*%
X84970000Y80675000D03*
X84320000Y80675000D03*
X83670000Y80675000D03*
X83670000Y79075000D03*
X84970000Y79075000D03*
%TD*%
%TO.C,D10*%
X84970000Y36995000D03*
X84320000Y36995000D03*
X83670000Y36995000D03*
X83670000Y35395000D03*
X84970000Y35395000D03*
%TD*%
%TO.C,D10*%
X33670000Y124355000D03*
X33020000Y124355000D03*
X32370000Y124355000D03*
X32370000Y122755000D03*
X33670000Y122755000D03*
%TD*%
%TO.C,D10*%
X33670000Y80675000D03*
X33020000Y80675000D03*
X32370000Y80675000D03*
X32370000Y79075000D03*
X33670000Y79075000D03*
%TD*%
D34*
%TO.C,R11*%
X144192500Y120825000D03*
X144192500Y122475000D03*
%TD*%
%TO.C,R11*%
X144192500Y77145000D03*
X144192500Y78795000D03*
%TD*%
%TO.C,R11*%
X144192500Y33465000D03*
X144192500Y35115000D03*
%TD*%
%TO.C,R11*%
X92892500Y120825000D03*
X92892500Y122475000D03*
%TD*%
%TO.C,R11*%
X92892500Y77145000D03*
X92892500Y78795000D03*
%TD*%
%TO.C,R11*%
X92892500Y33465000D03*
X92892500Y35115000D03*
%TD*%
%TO.C,R11*%
X41592500Y120825000D03*
X41592500Y122475000D03*
%TD*%
%TO.C,R11*%
X41592500Y77145000D03*
X41592500Y78795000D03*
%TD*%
D35*
%TO.C,J3*%
X136890000Y129270000D03*
X134350000Y129270000D03*
X131810000Y129270000D03*
X129270000Y129270000D03*
X126730000Y129270000D03*
X124190000Y129270000D03*
X121650000Y129270000D03*
X119110000Y129270000D03*
X116570000Y129270000D03*
%TD*%
%TO.C,J3*%
X136890000Y85590000D03*
X134350000Y85590000D03*
X131810000Y85590000D03*
X129270000Y85590000D03*
X126730000Y85590000D03*
X124190000Y85590000D03*
X121650000Y85590000D03*
X119110000Y85590000D03*
X116570000Y85590000D03*
%TD*%
%TO.C,J3*%
X136890000Y41910000D03*
X134350000Y41910000D03*
X131810000Y41910000D03*
X129270000Y41910000D03*
X126730000Y41910000D03*
X124190000Y41910000D03*
X121650000Y41910000D03*
X119110000Y41910000D03*
X116570000Y41910000D03*
%TD*%
%TO.C,J3*%
X85590000Y129270000D03*
X83050000Y129270000D03*
X80510000Y129270000D03*
X77970000Y129270000D03*
X75430000Y129270000D03*
X72890000Y129270000D03*
X70350000Y129270000D03*
X67810000Y129270000D03*
X65270000Y129270000D03*
%TD*%
%TO.C,J3*%
X85590000Y85590000D03*
X83050000Y85590000D03*
X80510000Y85590000D03*
X77970000Y85590000D03*
X75430000Y85590000D03*
X72890000Y85590000D03*
X70350000Y85590000D03*
X67810000Y85590000D03*
X65270000Y85590000D03*
%TD*%
%TO.C,J3*%
X85590000Y41910000D03*
X83050000Y41910000D03*
X80510000Y41910000D03*
X77970000Y41910000D03*
X75430000Y41910000D03*
X72890000Y41910000D03*
X70350000Y41910000D03*
X67810000Y41910000D03*
X65270000Y41910000D03*
%TD*%
%TO.C,J3*%
X34290000Y129270000D03*
X31750000Y129270000D03*
X29210000Y129270000D03*
X26670000Y129270000D03*
X24130000Y129270000D03*
X21590000Y129270000D03*
X19050000Y129270000D03*
X16510000Y129270000D03*
X13970000Y129270000D03*
%TD*%
%TO.C,J3*%
X34290000Y85590000D03*
X31750000Y85590000D03*
X29210000Y85590000D03*
X26670000Y85590000D03*
X24130000Y85590000D03*
X21590000Y85590000D03*
X19050000Y85590000D03*
X16510000Y85590000D03*
X13970000Y85590000D03*
%TD*%
D26*
%TO.C,D12*%
X136270000Y95462500D03*
X135620000Y95462500D03*
X134970000Y95462500D03*
X134970000Y93862500D03*
X136270000Y93862500D03*
%TD*%
%TO.C,D12*%
X136270000Y51782500D03*
X135620000Y51782500D03*
X134970000Y51782500D03*
X134970000Y50182500D03*
X136270000Y50182500D03*
%TD*%
%TO.C,D12*%
X136270000Y8102500D03*
X135620000Y8102500D03*
X134970000Y8102500D03*
X134970000Y6502500D03*
X136270000Y6502500D03*
%TD*%
%TO.C,D12*%
X84970000Y95462500D03*
X84320000Y95462500D03*
X83670000Y95462500D03*
X83670000Y93862500D03*
X84970000Y93862500D03*
%TD*%
%TO.C,D12*%
X84970000Y51782500D03*
X84320000Y51782500D03*
X83670000Y51782500D03*
X83670000Y50182500D03*
X84970000Y50182500D03*
%TD*%
%TO.C,D12*%
X84970000Y8102500D03*
X84320000Y8102500D03*
X83670000Y8102500D03*
X83670000Y6502500D03*
X84970000Y6502500D03*
%TD*%
%TO.C,D12*%
X33670000Y95462500D03*
X33020000Y95462500D03*
X32370000Y95462500D03*
X32370000Y93862500D03*
X33670000Y93862500D03*
%TD*%
%TO.C,D12*%
X33670000Y51782500D03*
X33020000Y51782500D03*
X32370000Y51782500D03*
X32370000Y50182500D03*
X33670000Y50182500D03*
%TD*%
D25*
%TO.C,C7*%
X111350000Y102600000D03*
X112900000Y102600000D03*
%TD*%
%TO.C,C7*%
X111350000Y58920000D03*
X112900000Y58920000D03*
%TD*%
%TO.C,C7*%
X111350000Y15240000D03*
X112900000Y15240000D03*
%TD*%
%TO.C,C7*%
X60050000Y102600000D03*
X61600000Y102600000D03*
%TD*%
%TO.C,C7*%
X60050000Y58920000D03*
X61600000Y58920000D03*
%TD*%
%TO.C,C7*%
X60050000Y15240000D03*
X61600000Y15240000D03*
%TD*%
%TO.C,C7*%
X8750000Y102600000D03*
X10300000Y102600000D03*
%TD*%
%TO.C,C7*%
X8750000Y58920000D03*
X10300000Y58920000D03*
%TD*%
D23*
%TO.C,L1*%
X139252500Y106727500D03*
X137702500Y106727500D03*
%TD*%
%TO.C,L1*%
X139252500Y63047500D03*
X137702500Y63047500D03*
%TD*%
%TO.C,L1*%
X139252500Y19367500D03*
X137702500Y19367500D03*
%TD*%
%TO.C,L1*%
X87952500Y106727500D03*
X86402500Y106727500D03*
%TD*%
%TO.C,L1*%
X87952500Y63047500D03*
X86402500Y63047500D03*
%TD*%
%TO.C,L1*%
X87952500Y19367500D03*
X86402500Y19367500D03*
%TD*%
%TO.C,L1*%
X36652500Y106727500D03*
X35102500Y106727500D03*
%TD*%
%TO.C,L1*%
X36652500Y63047500D03*
X35102500Y63047500D03*
%TD*%
%TO.C,C8*%
X117027500Y110855000D03*
X115477500Y110855000D03*
%TD*%
%TO.C,C8*%
X117027500Y67175000D03*
X115477500Y67175000D03*
%TD*%
%TO.C,C8*%
X117027500Y23495000D03*
X115477500Y23495000D03*
%TD*%
%TO.C,C8*%
X65727500Y110855000D03*
X64177500Y110855000D03*
%TD*%
%TO.C,C8*%
X65727500Y67175000D03*
X64177500Y67175000D03*
%TD*%
%TO.C,C8*%
X65727500Y23495000D03*
X64177500Y23495000D03*
%TD*%
%TO.C,C8*%
X14427500Y110855000D03*
X12877500Y110855000D03*
%TD*%
%TO.C,C8*%
X14427500Y67175000D03*
X12877500Y67175000D03*
%TD*%
D36*
%TO.C,J10*%
X142032500Y100377500D03*
D37*
X143557500Y99002500D03*
X143557500Y101752500D03*
%TD*%
D36*
%TO.C,J10*%
X142032500Y56697500D03*
D37*
X143557500Y55322500D03*
X143557500Y58072500D03*
%TD*%
D36*
%TO.C,J10*%
X142032500Y13017500D03*
D37*
X143557500Y11642500D03*
X143557500Y14392500D03*
%TD*%
D36*
%TO.C,J10*%
X90732500Y100377500D03*
D37*
X92257500Y99002500D03*
X92257500Y101752500D03*
%TD*%
D36*
%TO.C,J10*%
X90732500Y56697500D03*
D37*
X92257500Y55322500D03*
X92257500Y58072500D03*
%TD*%
D36*
%TO.C,J10*%
X90732500Y13017500D03*
D37*
X92257500Y11642500D03*
X92257500Y14392500D03*
%TD*%
D36*
%TO.C,J10*%
X39432500Y100377500D03*
D37*
X40957500Y99002500D03*
X40957500Y101752500D03*
%TD*%
D36*
%TO.C,J10*%
X39432500Y56697500D03*
D37*
X40957500Y55322500D03*
X40957500Y58072500D03*
%TD*%
D38*
%TO.C,U2*%
X114952400Y106407500D03*
X114952400Y105457500D03*
X114952400Y104507500D03*
X117552600Y104507500D03*
X117552600Y106407500D03*
%TD*%
%TO.C,U2*%
X114952400Y62727500D03*
X114952400Y61777500D03*
X114952400Y60827500D03*
X117552600Y60827500D03*
X117552600Y62727500D03*
%TD*%
%TO.C,U2*%
X114952400Y19047500D03*
X114952400Y18097500D03*
X114952400Y17147500D03*
X117552600Y17147500D03*
X117552600Y19047500D03*
%TD*%
%TO.C,U2*%
X63652400Y106407500D03*
X63652400Y105457500D03*
X63652400Y104507500D03*
X66252600Y104507500D03*
X66252600Y106407500D03*
%TD*%
%TO.C,U2*%
X63652400Y62727500D03*
X63652400Y61777500D03*
X63652400Y60827500D03*
X66252600Y60827500D03*
X66252600Y62727500D03*
%TD*%
%TO.C,U2*%
X63652400Y19047500D03*
X63652400Y18097500D03*
X63652400Y17147500D03*
X66252600Y17147500D03*
X66252600Y19047500D03*
%TD*%
%TO.C,U2*%
X12352400Y106407500D03*
X12352400Y105457500D03*
X12352400Y104507500D03*
X14952600Y104507500D03*
X14952600Y106407500D03*
%TD*%
%TO.C,U2*%
X12352400Y62727500D03*
X12352400Y61777500D03*
X12352400Y60827500D03*
X14952600Y60827500D03*
X14952600Y62727500D03*
%TD*%
D12*
%TO.C,ST1*%
X143240000Y128000000D03*
%TD*%
%TO.C,ST1*%
X143240000Y84320000D03*
%TD*%
%TO.C,ST1*%
X143240000Y40640000D03*
%TD*%
%TO.C,ST1*%
X91940000Y128000000D03*
%TD*%
%TO.C,ST1*%
X91940000Y84320000D03*
%TD*%
%TO.C,ST1*%
X91940000Y40640000D03*
%TD*%
%TO.C,ST1*%
X40640000Y128000000D03*
%TD*%
%TO.C,ST1*%
X40640000Y84320000D03*
%TD*%
D39*
%TO.C,J7*%
X112990000Y125460000D03*
X111990000Y125460000D03*
X110990000Y125460000D03*
X109990000Y125460000D03*
D40*
X108690000Y129135000D03*
X114290000Y129135000D03*
%TD*%
D39*
%TO.C,J7*%
X112990000Y81780000D03*
X111990000Y81780000D03*
X110990000Y81780000D03*
X109990000Y81780000D03*
D40*
X108690000Y85455000D03*
X114290000Y85455000D03*
%TD*%
D39*
%TO.C,J7*%
X112990000Y38100000D03*
X111990000Y38100000D03*
X110990000Y38100000D03*
X109990000Y38100000D03*
D40*
X108690000Y41775000D03*
X114290000Y41775000D03*
%TD*%
D39*
%TO.C,J7*%
X61690000Y125460000D03*
X60690000Y125460000D03*
X59690000Y125460000D03*
X58690000Y125460000D03*
D40*
X57390000Y129135000D03*
X62990000Y129135000D03*
%TD*%
D39*
%TO.C,J7*%
X61690000Y81780000D03*
X60690000Y81780000D03*
X59690000Y81780000D03*
X58690000Y81780000D03*
D40*
X57390000Y85455000D03*
X62990000Y85455000D03*
%TD*%
D39*
%TO.C,J7*%
X61690000Y38100000D03*
X60690000Y38100000D03*
X59690000Y38100000D03*
X58690000Y38100000D03*
D40*
X57390000Y41775000D03*
X62990000Y41775000D03*
%TD*%
D39*
%TO.C,J7*%
X10390000Y125460000D03*
X9390000Y125460000D03*
X8390000Y125460000D03*
X7390000Y125460000D03*
D40*
X6090000Y129135000D03*
X11690000Y129135000D03*
%TD*%
D39*
%TO.C,J7*%
X10390000Y81780000D03*
X9390000Y81780000D03*
X8390000Y81780000D03*
X7390000Y81780000D03*
D40*
X6090000Y85455000D03*
X11690000Y85455000D03*
%TD*%
D19*
%TO.C,R1*%
X106600000Y94345000D03*
X104950000Y94345000D03*
%TD*%
%TO.C,R1*%
X106600000Y50665000D03*
X104950000Y50665000D03*
%TD*%
%TO.C,R1*%
X106600000Y6985000D03*
X104950000Y6985000D03*
%TD*%
%TO.C,R1*%
X55300000Y94345000D03*
X53650000Y94345000D03*
%TD*%
%TO.C,R1*%
X55300000Y50665000D03*
X53650000Y50665000D03*
%TD*%
%TO.C,R1*%
X55300000Y6985000D03*
X53650000Y6985000D03*
%TD*%
%TO.C,R1*%
X4000000Y94345000D03*
X2350000Y94345000D03*
%TD*%
%TO.C,R1*%
X4000000Y50665000D03*
X2350000Y50665000D03*
%TD*%
D35*
%TO.C,J9*%
X116570000Y88630000D03*
X119110000Y88630000D03*
X121650000Y88630000D03*
X124190000Y88630000D03*
%TD*%
%TO.C,J9*%
X116570000Y44950000D03*
X119110000Y44950000D03*
X121650000Y44950000D03*
X124190000Y44950000D03*
%TD*%
%TO.C,J9*%
X116570000Y1270000D03*
X119110000Y1270000D03*
X121650000Y1270000D03*
X124190000Y1270000D03*
%TD*%
%TO.C,J9*%
X65270000Y88630000D03*
X67810000Y88630000D03*
X70350000Y88630000D03*
X72890000Y88630000D03*
%TD*%
%TO.C,J9*%
X65270000Y44950000D03*
X67810000Y44950000D03*
X70350000Y44950000D03*
X72890000Y44950000D03*
%TD*%
%TO.C,J9*%
X65270000Y1270000D03*
X67810000Y1270000D03*
X70350000Y1270000D03*
X72890000Y1270000D03*
%TD*%
%TO.C,J9*%
X13970000Y88630000D03*
X16510000Y88630000D03*
X19050000Y88630000D03*
X21590000Y88630000D03*
%TD*%
%TO.C,J9*%
X13970000Y44950000D03*
X16510000Y44950000D03*
X19050000Y44950000D03*
X21590000Y44950000D03*
%TD*%
D41*
%TO.C,J5*%
X143557500Y106727500D03*
X143557500Y109267500D03*
X143557500Y104187500D03*
%TD*%
%TO.C,J5*%
X143557500Y63047500D03*
X143557500Y65587500D03*
X143557500Y60507500D03*
%TD*%
%TO.C,J5*%
X143557500Y19367500D03*
X143557500Y21907500D03*
X143557500Y16827500D03*
%TD*%
%TO.C,J5*%
X92257500Y106727500D03*
X92257500Y109267500D03*
X92257500Y104187500D03*
%TD*%
%TO.C,J5*%
X92257500Y63047500D03*
X92257500Y65587500D03*
X92257500Y60507500D03*
%TD*%
%TO.C,J5*%
X92257500Y19367500D03*
X92257500Y21907500D03*
X92257500Y16827500D03*
%TD*%
%TO.C,J5*%
X40957500Y106727500D03*
X40957500Y109267500D03*
X40957500Y104187500D03*
%TD*%
%TO.C,J5*%
X40957500Y63047500D03*
X40957500Y65587500D03*
X40957500Y60507500D03*
%TD*%
D42*
%TO.C,D3*%
X140700000Y107687500D03*
X140700000Y106727500D03*
%TD*%
%TO.C,D3*%
X140700000Y64007500D03*
X140700000Y63047500D03*
%TD*%
%TO.C,D3*%
X140700000Y20327500D03*
X140700000Y19367500D03*
%TD*%
%TO.C,D3*%
X89400000Y107687500D03*
X89400000Y106727500D03*
%TD*%
%TO.C,D3*%
X89400000Y64007500D03*
X89400000Y63047500D03*
%TD*%
%TO.C,D3*%
X89400000Y20327500D03*
X89400000Y19367500D03*
%TD*%
%TO.C,D3*%
X38100000Y107687500D03*
X38100000Y106727500D03*
%TD*%
%TO.C,D3*%
X38100000Y64007500D03*
X38100000Y63047500D03*
%TD*%
D43*
%TO.C,FID4*%
X145145000Y87995000D03*
%TD*%
%TO.C,FID4*%
X145145000Y44315000D03*
%TD*%
%TO.C,FID4*%
X145145000Y635000D03*
%TD*%
%TO.C,FID4*%
X93845000Y87995000D03*
%TD*%
%TO.C,FID4*%
X93845000Y44315000D03*
%TD*%
%TO.C,FID4*%
X93845000Y635000D03*
%TD*%
%TO.C,FID4*%
X42545000Y87995000D03*
%TD*%
%TO.C,FID4*%
X42545000Y44315000D03*
%TD*%
D28*
%TO.C,D2*%
X142287500Y117687500D03*
X142287500Y119262500D03*
%TD*%
%TO.C,D2*%
X142287500Y74007500D03*
X142287500Y75582500D03*
%TD*%
%TO.C,D2*%
X142287500Y30327500D03*
X142287500Y31902500D03*
%TD*%
%TO.C,D2*%
X90987500Y117687500D03*
X90987500Y119262500D03*
%TD*%
%TO.C,D2*%
X90987500Y74007500D03*
X90987500Y75582500D03*
%TD*%
%TO.C,D2*%
X90987500Y30327500D03*
X90987500Y31902500D03*
%TD*%
%TO.C,D2*%
X39687500Y117687500D03*
X39687500Y119262500D03*
%TD*%
%TO.C,D2*%
X39687500Y74007500D03*
X39687500Y75582500D03*
%TD*%
D23*
%TO.C,C2*%
X117027500Y107680000D03*
X115477500Y107680000D03*
%TD*%
%TO.C,C2*%
X117027500Y64000000D03*
X115477500Y64000000D03*
%TD*%
%TO.C,C2*%
X117027500Y20320000D03*
X115477500Y20320000D03*
%TD*%
%TO.C,C2*%
X65727500Y107680000D03*
X64177500Y107680000D03*
%TD*%
%TO.C,C2*%
X65727500Y64000000D03*
X64177500Y64000000D03*
%TD*%
%TO.C,C2*%
X65727500Y20320000D03*
X64177500Y20320000D03*
%TD*%
%TO.C,C2*%
X14427500Y107680000D03*
X12877500Y107680000D03*
%TD*%
%TO.C,C2*%
X14427500Y64000000D03*
X12877500Y64000000D03*
%TD*%
D34*
%TO.C,R4*%
X138477500Y120825000D03*
X138477500Y122475000D03*
%TD*%
%TO.C,R4*%
X138477500Y77145000D03*
X138477500Y78795000D03*
%TD*%
%TO.C,R4*%
X138477500Y33465000D03*
X138477500Y35115000D03*
%TD*%
%TO.C,R4*%
X87177500Y120825000D03*
X87177500Y122475000D03*
%TD*%
%TO.C,R4*%
X87177500Y77145000D03*
X87177500Y78795000D03*
%TD*%
%TO.C,R4*%
X87177500Y33465000D03*
X87177500Y35115000D03*
%TD*%
%TO.C,R4*%
X35877500Y120825000D03*
X35877500Y122475000D03*
%TD*%
%TO.C,R4*%
X35877500Y77145000D03*
X35877500Y78795000D03*
%TD*%
D28*
%TO.C,D1*%
X138477500Y117687500D03*
X138477500Y119262500D03*
%TD*%
%TO.C,D1*%
X138477500Y74007500D03*
X138477500Y75582500D03*
%TD*%
%TO.C,D1*%
X138477500Y30327500D03*
X138477500Y31902500D03*
%TD*%
%TO.C,D1*%
X87177500Y117687500D03*
X87177500Y119262500D03*
%TD*%
%TO.C,D1*%
X87177500Y74007500D03*
X87177500Y75582500D03*
%TD*%
%TO.C,D1*%
X87177500Y30327500D03*
X87177500Y31902500D03*
%TD*%
%TO.C,D1*%
X35877500Y117687500D03*
X35877500Y119262500D03*
%TD*%
%TO.C,D1*%
X35877500Y74007500D03*
X35877500Y75582500D03*
%TD*%
D34*
%TO.C,R5*%
X140382500Y120825000D03*
X140382500Y122475000D03*
%TD*%
%TO.C,R5*%
X140382500Y77145000D03*
X140382500Y78795000D03*
%TD*%
%TO.C,R5*%
X140382500Y33465000D03*
X140382500Y35115000D03*
%TD*%
%TO.C,R5*%
X89082500Y120825000D03*
X89082500Y122475000D03*
%TD*%
%TO.C,R5*%
X89082500Y77145000D03*
X89082500Y78795000D03*
%TD*%
%TO.C,R5*%
X89082500Y33465000D03*
X89082500Y35115000D03*
%TD*%
%TO.C,R5*%
X37782500Y120825000D03*
X37782500Y122475000D03*
%TD*%
%TO.C,R5*%
X37782500Y77145000D03*
X37782500Y78795000D03*
%TD*%
D19*
%TO.C,R2*%
X106600000Y105775000D03*
X104950000Y105775000D03*
%TD*%
%TO.C,R2*%
X106600000Y62095000D03*
X104950000Y62095000D03*
%TD*%
%TO.C,R2*%
X106600000Y18415000D03*
X104950000Y18415000D03*
%TD*%
%TO.C,R2*%
X55300000Y105775000D03*
X53650000Y105775000D03*
%TD*%
%TO.C,R2*%
X55300000Y62095000D03*
X53650000Y62095000D03*
%TD*%
%TO.C,R2*%
X55300000Y18415000D03*
X53650000Y18415000D03*
%TD*%
%TO.C,R2*%
X4000000Y105775000D03*
X2350000Y105775000D03*
%TD*%
%TO.C,R2*%
X4000000Y62095000D03*
X2350000Y62095000D03*
%TD*%
D44*
%TO.C,J8*%
X107525000Y117175000D03*
X107525000Y115925000D03*
X107525000Y114675000D03*
X107525000Y113425000D03*
D45*
X104325000Y119050000D03*
X104325000Y111550000D03*
%TD*%
D44*
%TO.C,J8*%
X107525000Y73495000D03*
X107525000Y72245000D03*
X107525000Y70995000D03*
X107525000Y69745000D03*
D45*
X104325000Y75370000D03*
X104325000Y67870000D03*
%TD*%
D44*
%TO.C,J8*%
X107525000Y29815000D03*
X107525000Y28565000D03*
X107525000Y27315000D03*
X107525000Y26065000D03*
D45*
X104325000Y31690000D03*
X104325000Y24190000D03*
%TD*%
D44*
%TO.C,J8*%
X56225000Y117175000D03*
X56225000Y115925000D03*
X56225000Y114675000D03*
X56225000Y113425000D03*
D45*
X53025000Y119050000D03*
X53025000Y111550000D03*
%TD*%
D44*
%TO.C,J8*%
X56225000Y73495000D03*
X56225000Y72245000D03*
X56225000Y70995000D03*
X56225000Y69745000D03*
D45*
X53025000Y75370000D03*
X53025000Y67870000D03*
%TD*%
D44*
%TO.C,J8*%
X56225000Y29815000D03*
X56225000Y28565000D03*
X56225000Y27315000D03*
X56225000Y26065000D03*
D45*
X53025000Y31690000D03*
X53025000Y24190000D03*
%TD*%
D44*
%TO.C,J8*%
X4925000Y117175000D03*
X4925000Y115925000D03*
X4925000Y114675000D03*
X4925000Y113425000D03*
D45*
X1725000Y119050000D03*
X1725000Y111550000D03*
%TD*%
D44*
%TO.C,J8*%
X4925000Y73495000D03*
X4925000Y72245000D03*
X4925000Y70995000D03*
X4925000Y69745000D03*
D45*
X1725000Y75370000D03*
X1725000Y67870000D03*
%TD*%
D46*
%TO.C,D5*%
X113515000Y112760000D03*
X115815000Y112760000D03*
%TD*%
%TO.C,D5*%
X113515000Y69080000D03*
X115815000Y69080000D03*
%TD*%
%TO.C,D5*%
X113515000Y25400000D03*
X115815000Y25400000D03*
%TD*%
%TO.C,D5*%
X62215000Y112760000D03*
X64515000Y112760000D03*
%TD*%
%TO.C,D5*%
X62215000Y69080000D03*
X64515000Y69080000D03*
%TD*%
%TO.C,D5*%
X62215000Y25400000D03*
X64515000Y25400000D03*
%TD*%
%TO.C,D5*%
X10915000Y112760000D03*
X13215000Y112760000D03*
%TD*%
%TO.C,D5*%
X10915000Y69080000D03*
X13215000Y69080000D03*
%TD*%
%TO.C,D7*%
X115737500Y123555000D03*
X118037500Y123555000D03*
%TD*%
%TO.C,D7*%
X115737500Y79875000D03*
X118037500Y79875000D03*
%TD*%
%TO.C,D7*%
X115737500Y36195000D03*
X118037500Y36195000D03*
%TD*%
%TO.C,D7*%
X64437500Y123555000D03*
X66737500Y123555000D03*
%TD*%
%TO.C,D7*%
X64437500Y79875000D03*
X66737500Y79875000D03*
%TD*%
%TO.C,D7*%
X64437500Y36195000D03*
X66737500Y36195000D03*
%TD*%
%TO.C,D7*%
X13137500Y123555000D03*
X15437500Y123555000D03*
%TD*%
%TO.C,D7*%
X13137500Y79875000D03*
X15437500Y79875000D03*
%TD*%
D25*
%TO.C,C3*%
X137702500Y98790000D03*
X139252500Y98790000D03*
%TD*%
%TO.C,C3*%
X137702500Y55110000D03*
X139252500Y55110000D03*
%TD*%
%TO.C,C3*%
X137702500Y11430000D03*
X139252500Y11430000D03*
%TD*%
%TO.C,C3*%
X86402500Y98790000D03*
X87952500Y98790000D03*
%TD*%
%TO.C,C3*%
X86402500Y55110000D03*
X87952500Y55110000D03*
%TD*%
%TO.C,C3*%
X86402500Y11430000D03*
X87952500Y11430000D03*
%TD*%
%TO.C,C3*%
X35102500Y98790000D03*
X36652500Y98790000D03*
%TD*%
%TO.C,C3*%
X35102500Y55110000D03*
X36652500Y55110000D03*
%TD*%
D22*
%TO.C,R13*%
X111300000Y95932500D03*
X112950000Y95932500D03*
%TD*%
%TO.C,R13*%
X111300000Y52252500D03*
X112950000Y52252500D03*
%TD*%
%TO.C,R13*%
X111300000Y8572500D03*
X112950000Y8572500D03*
%TD*%
%TO.C,R13*%
X60000000Y95932500D03*
X61650000Y95932500D03*
%TD*%
%TO.C,R13*%
X60000000Y52252500D03*
X61650000Y52252500D03*
%TD*%
%TO.C,R13*%
X60000000Y8572500D03*
X61650000Y8572500D03*
%TD*%
%TO.C,R13*%
X8700000Y95932500D03*
X10350000Y95932500D03*
%TD*%
%TO.C,R13*%
X8700000Y52252500D03*
X10350000Y52252500D03*
%TD*%
D47*
%TO.C,C9*%
X117205000Y114487500D03*
X117205000Y112937500D03*
%TD*%
%TO.C,C9*%
X117205000Y70807500D03*
X117205000Y69257500D03*
%TD*%
%TO.C,C9*%
X117205000Y27127500D03*
X117205000Y25577500D03*
%TD*%
%TO.C,C9*%
X65905000Y114487500D03*
X65905000Y112937500D03*
%TD*%
%TO.C,C9*%
X65905000Y70807500D03*
X65905000Y69257500D03*
%TD*%
%TO.C,C9*%
X65905000Y27127500D03*
X65905000Y25577500D03*
%TD*%
%TO.C,C9*%
X14605000Y114487500D03*
X14605000Y112937500D03*
%TD*%
%TO.C,C9*%
X14605000Y70807500D03*
X14605000Y69257500D03*
%TD*%
D12*
%TO.C,ST2*%
X143240000Y89900000D03*
%TD*%
%TO.C,ST2*%
X143240000Y46220000D03*
%TD*%
%TO.C,ST2*%
X143240000Y2540000D03*
%TD*%
%TO.C,ST2*%
X91940000Y89900000D03*
%TD*%
%TO.C,ST2*%
X91940000Y46220000D03*
%TD*%
%TO.C,ST2*%
X91940000Y2540000D03*
%TD*%
%TO.C,ST2*%
X40640000Y89900000D03*
%TD*%
%TO.C,ST2*%
X40640000Y46220000D03*
%TD*%
D48*
%TO.C,J1*%
X107505000Y102950000D03*
X107505000Y97170000D03*
D49*
X108610000Y101310000D03*
X108610000Y100310000D03*
D50*
X108610000Y99810000D03*
X108610000Y98810000D03*
X108610000Y98310000D03*
X108610000Y99310000D03*
D49*
X108610000Y100810000D03*
X108610000Y101810000D03*
D51*
X108610000Y103285000D03*
D52*
X108610000Y96835000D03*
D53*
X103855000Y104378000D03*
D54*
X108035000Y104378000D03*
X108035000Y95742000D03*
D53*
X103855000Y95742000D03*
D51*
X108610000Y102510000D03*
D52*
X108610000Y97610000D03*
%TD*%
D48*
%TO.C,J1*%
X107505000Y59270000D03*
X107505000Y53490000D03*
D49*
X108610000Y57630000D03*
X108610000Y56630000D03*
D50*
X108610000Y56130000D03*
X108610000Y55130000D03*
X108610000Y54630000D03*
X108610000Y55630000D03*
D49*
X108610000Y57130000D03*
X108610000Y58130000D03*
D51*
X108610000Y59605000D03*
D52*
X108610000Y53155000D03*
D53*
X103855000Y60698000D03*
D54*
X108035000Y60698000D03*
X108035000Y52062000D03*
D53*
X103855000Y52062000D03*
D51*
X108610000Y58830000D03*
D52*
X108610000Y53930000D03*
%TD*%
D48*
%TO.C,J1*%
X107505000Y15590000D03*
X107505000Y9810000D03*
D49*
X108610000Y13950000D03*
X108610000Y12950000D03*
D50*
X108610000Y12450000D03*
X108610000Y11450000D03*
X108610000Y10950000D03*
X108610000Y11950000D03*
D49*
X108610000Y13450000D03*
X108610000Y14450000D03*
D51*
X108610000Y15925000D03*
D52*
X108610000Y9475000D03*
D53*
X103855000Y17018000D03*
D54*
X108035000Y17018000D03*
X108035000Y8382000D03*
D53*
X103855000Y8382000D03*
D51*
X108610000Y15150000D03*
D52*
X108610000Y10250000D03*
%TD*%
D48*
%TO.C,J1*%
X56205000Y102950000D03*
X56205000Y97170000D03*
D49*
X57310000Y101310000D03*
X57310000Y100310000D03*
D50*
X57310000Y99810000D03*
X57310000Y98810000D03*
X57310000Y98310000D03*
X57310000Y99310000D03*
D49*
X57310000Y100810000D03*
X57310000Y101810000D03*
D51*
X57310000Y103285000D03*
D52*
X57310000Y96835000D03*
D53*
X52555000Y104378000D03*
D54*
X56735000Y104378000D03*
X56735000Y95742000D03*
D53*
X52555000Y95742000D03*
D51*
X57310000Y102510000D03*
D52*
X57310000Y97610000D03*
%TD*%
D48*
%TO.C,J1*%
X56205000Y59270000D03*
X56205000Y53490000D03*
D49*
X57310000Y57630000D03*
X57310000Y56630000D03*
D50*
X57310000Y56130000D03*
X57310000Y55130000D03*
X57310000Y54630000D03*
X57310000Y55630000D03*
D49*
X57310000Y57130000D03*
X57310000Y58130000D03*
D51*
X57310000Y59605000D03*
D52*
X57310000Y53155000D03*
D53*
X52555000Y60698000D03*
D54*
X56735000Y60698000D03*
X56735000Y52062000D03*
D53*
X52555000Y52062000D03*
D51*
X57310000Y58830000D03*
D52*
X57310000Y53930000D03*
%TD*%
D48*
%TO.C,J1*%
X56205000Y15590000D03*
X56205000Y9810000D03*
D49*
X57310000Y13950000D03*
X57310000Y12950000D03*
D50*
X57310000Y12450000D03*
X57310000Y11450000D03*
X57310000Y10950000D03*
X57310000Y11950000D03*
D49*
X57310000Y13450000D03*
X57310000Y14450000D03*
D51*
X57310000Y15925000D03*
D52*
X57310000Y9475000D03*
D53*
X52555000Y17018000D03*
D54*
X56735000Y17018000D03*
X56735000Y8382000D03*
D53*
X52555000Y8382000D03*
D51*
X57310000Y15150000D03*
D52*
X57310000Y10250000D03*
%TD*%
D48*
%TO.C,J1*%
X4905000Y102950000D03*
X4905000Y97170000D03*
D49*
X6010000Y101310000D03*
X6010000Y100310000D03*
D50*
X6010000Y99810000D03*
X6010000Y98810000D03*
X6010000Y98310000D03*
X6010000Y99310000D03*
D49*
X6010000Y100810000D03*
X6010000Y101810000D03*
D51*
X6010000Y103285000D03*
D52*
X6010000Y96835000D03*
D53*
X1255000Y104378000D03*
D54*
X5435000Y104378000D03*
X5435000Y95742000D03*
D53*
X1255000Y95742000D03*
D51*
X6010000Y102510000D03*
D52*
X6010000Y97610000D03*
%TD*%
D48*
%TO.C,J1*%
X4905000Y59270000D03*
X4905000Y53490000D03*
D49*
X6010000Y57630000D03*
X6010000Y56630000D03*
D50*
X6010000Y56130000D03*
X6010000Y55130000D03*
X6010000Y54630000D03*
X6010000Y55630000D03*
D49*
X6010000Y57130000D03*
X6010000Y58130000D03*
D51*
X6010000Y59605000D03*
D52*
X6010000Y53155000D03*
D53*
X1255000Y60698000D03*
D54*
X5435000Y60698000D03*
X5435000Y52062000D03*
D53*
X1255000Y52062000D03*
D51*
X6010000Y58830000D03*
D52*
X6010000Y53930000D03*
%TD*%
D23*
%TO.C,C5*%
X117027500Y109267500D03*
X115477500Y109267500D03*
%TD*%
%TO.C,C5*%
X117027500Y65587500D03*
X115477500Y65587500D03*
%TD*%
%TO.C,C5*%
X117027500Y21907500D03*
X115477500Y21907500D03*
%TD*%
%TO.C,C5*%
X65727500Y109267500D03*
X64177500Y109267500D03*
%TD*%
%TO.C,C5*%
X65727500Y65587500D03*
X64177500Y65587500D03*
%TD*%
%TO.C,C5*%
X65727500Y21907500D03*
X64177500Y21907500D03*
%TD*%
%TO.C,C5*%
X14427500Y109267500D03*
X12877500Y109267500D03*
%TD*%
%TO.C,C5*%
X14427500Y65587500D03*
X12877500Y65587500D03*
%TD*%
D34*
%TO.C,R3*%
X142287500Y120825000D03*
X142287500Y122475000D03*
%TD*%
%TO.C,R3*%
X142287500Y77145000D03*
X142287500Y78795000D03*
%TD*%
%TO.C,R3*%
X142287500Y33465000D03*
X142287500Y35115000D03*
%TD*%
%TO.C,R3*%
X90987500Y120825000D03*
X90987500Y122475000D03*
%TD*%
%TO.C,R3*%
X90987500Y77145000D03*
X90987500Y78795000D03*
%TD*%
%TO.C,R3*%
X90987500Y33465000D03*
X90987500Y35115000D03*
%TD*%
%TO.C,R3*%
X39687500Y120825000D03*
X39687500Y122475000D03*
%TD*%
%TO.C,R3*%
X39687500Y77145000D03*
X39687500Y78795000D03*
%TD*%
D22*
%TO.C,R8*%
X104950000Y109902500D03*
X106600000Y109902500D03*
%TD*%
%TO.C,R8*%
X104950000Y66222500D03*
X106600000Y66222500D03*
%TD*%
%TO.C,R8*%
X104950000Y22542500D03*
X106600000Y22542500D03*
%TD*%
%TO.C,R8*%
X53650000Y109902500D03*
X55300000Y109902500D03*
%TD*%
%TO.C,R8*%
X53650000Y66222500D03*
X55300000Y66222500D03*
%TD*%
%TO.C,R8*%
X53650000Y22542500D03*
X55300000Y22542500D03*
%TD*%
%TO.C,R8*%
X2350000Y109902500D03*
X4000000Y109902500D03*
%TD*%
%TO.C,R8*%
X2350000Y66222500D03*
X4000000Y66222500D03*
%TD*%
D43*
%TO.C,FID3*%
X103235000Y129905000D03*
%TD*%
%TO.C,FID3*%
X103235000Y86225000D03*
%TD*%
%TO.C,FID3*%
X103235000Y42545000D03*
%TD*%
%TO.C,FID3*%
X51935000Y129905000D03*
%TD*%
%TO.C,FID3*%
X51935000Y86225000D03*
%TD*%
%TO.C,FID3*%
X51935000Y42545000D03*
%TD*%
%TO.C,FID3*%
X635000Y129905000D03*
%TD*%
%TO.C,FID3*%
X635000Y86225000D03*
%TD*%
D35*
%TO.C,J11*%
X126730000Y88630000D03*
X129270000Y88630000D03*
X131810000Y88630000D03*
X134350000Y88630000D03*
X136890000Y88630000D03*
X139430000Y88630000D03*
%TD*%
%TO.C,J11*%
X126730000Y44950000D03*
X129270000Y44950000D03*
X131810000Y44950000D03*
X134350000Y44950000D03*
X136890000Y44950000D03*
X139430000Y44950000D03*
%TD*%
%TO.C,J11*%
X126730000Y1270000D03*
X129270000Y1270000D03*
X131810000Y1270000D03*
X134350000Y1270000D03*
X136890000Y1270000D03*
X139430000Y1270000D03*
%TD*%
%TO.C,J11*%
X75430000Y88630000D03*
X77970000Y88630000D03*
X80510000Y88630000D03*
X83050000Y88630000D03*
X85590000Y88630000D03*
X88130000Y88630000D03*
%TD*%
%TO.C,J11*%
X75430000Y44950000D03*
X77970000Y44950000D03*
X80510000Y44950000D03*
X83050000Y44950000D03*
X85590000Y44950000D03*
X88130000Y44950000D03*
%TD*%
%TO.C,J11*%
X75430000Y1270000D03*
X77970000Y1270000D03*
X80510000Y1270000D03*
X83050000Y1270000D03*
X85590000Y1270000D03*
X88130000Y1270000D03*
%TD*%
%TO.C,J11*%
X24130000Y88630000D03*
X26670000Y88630000D03*
X29210000Y88630000D03*
X31750000Y88630000D03*
X34290000Y88630000D03*
X36830000Y88630000D03*
%TD*%
%TO.C,J11*%
X24130000Y44950000D03*
X26670000Y44950000D03*
X29210000Y44950000D03*
X31750000Y44950000D03*
X34290000Y44950000D03*
X36830000Y44950000D03*
%TD*%
%TO.C,J2*%
X110855000Y121650000D03*
X110855000Y119110000D03*
X110855000Y116570000D03*
X110855000Y114030000D03*
X110855000Y111490000D03*
X110855000Y108950000D03*
%TD*%
%TO.C,J2*%
X110855000Y77970000D03*
X110855000Y75430000D03*
X110855000Y72890000D03*
X110855000Y70350000D03*
X110855000Y67810000D03*
X110855000Y65270000D03*
%TD*%
%TO.C,J2*%
X110855000Y34290000D03*
X110855000Y31750000D03*
X110855000Y29210000D03*
X110855000Y26670000D03*
X110855000Y24130000D03*
X110855000Y21590000D03*
%TD*%
%TO.C,J2*%
X59555000Y121650000D03*
X59555000Y119110000D03*
X59555000Y116570000D03*
X59555000Y114030000D03*
X59555000Y111490000D03*
X59555000Y108950000D03*
%TD*%
%TO.C,J2*%
X59555000Y77970000D03*
X59555000Y75430000D03*
X59555000Y72890000D03*
X59555000Y70350000D03*
X59555000Y67810000D03*
X59555000Y65270000D03*
%TD*%
%TO.C,J2*%
X59555000Y34290000D03*
X59555000Y31750000D03*
X59555000Y29210000D03*
X59555000Y26670000D03*
X59555000Y24130000D03*
X59555000Y21590000D03*
%TD*%
%TO.C,J2*%
X8255000Y121650000D03*
X8255000Y119110000D03*
X8255000Y116570000D03*
X8255000Y114030000D03*
X8255000Y111490000D03*
X8255000Y108950000D03*
%TD*%
%TO.C,J2*%
X8255000Y77970000D03*
X8255000Y75430000D03*
X8255000Y72890000D03*
X8255000Y70350000D03*
X8255000Y67810000D03*
X8255000Y65270000D03*
%TD*%
D28*
%TO.C,D4*%
X140382500Y117687500D03*
X140382500Y119262500D03*
%TD*%
%TO.C,D4*%
X140382500Y74007500D03*
X140382500Y75582500D03*
%TD*%
%TO.C,D4*%
X140382500Y30327500D03*
X140382500Y31902500D03*
%TD*%
%TO.C,D4*%
X89082500Y117687500D03*
X89082500Y119262500D03*
%TD*%
%TO.C,D4*%
X89082500Y74007500D03*
X89082500Y75582500D03*
%TD*%
%TO.C,D4*%
X89082500Y30327500D03*
X89082500Y31902500D03*
%TD*%
%TO.C,D4*%
X37782500Y117687500D03*
X37782500Y119262500D03*
%TD*%
%TO.C,D4*%
X37782500Y74007500D03*
X37782500Y75582500D03*
%TD*%
D26*
%TO.C,D13*%
X121030000Y95462500D03*
X120380000Y95462500D03*
X119730000Y95462500D03*
X119730000Y93862500D03*
X121030000Y93862500D03*
%TD*%
%TO.C,D13*%
X121030000Y51782500D03*
X120380000Y51782500D03*
X119730000Y51782500D03*
X119730000Y50182500D03*
X121030000Y50182500D03*
%TD*%
%TO.C,D13*%
X121030000Y8102500D03*
X120380000Y8102500D03*
X119730000Y8102500D03*
X119730000Y6502500D03*
X121030000Y6502500D03*
%TD*%
%TO.C,D13*%
X69730000Y95462500D03*
X69080000Y95462500D03*
X68430000Y95462500D03*
X68430000Y93862500D03*
X69730000Y93862500D03*
%TD*%
%TO.C,D13*%
X69730000Y51782500D03*
X69080000Y51782500D03*
X68430000Y51782500D03*
X68430000Y50182500D03*
X69730000Y50182500D03*
%TD*%
%TO.C,D13*%
X69730000Y8102500D03*
X69080000Y8102500D03*
X68430000Y8102500D03*
X68430000Y6502500D03*
X69730000Y6502500D03*
%TD*%
%TO.C,D13*%
X18430000Y95462500D03*
X17780000Y95462500D03*
X17130000Y95462500D03*
X17130000Y93862500D03*
X18430000Y93862500D03*
%TD*%
%TO.C,D13*%
X18430000Y51782500D03*
X17780000Y51782500D03*
X17130000Y51782500D03*
X17130000Y50182500D03*
X18430000Y50182500D03*
%TD*%
%TO.C,D13*%
X18430000Y8102500D03*
X17780000Y8102500D03*
X17130000Y8102500D03*
X17130000Y6502500D03*
X18430000Y6502500D03*
%TD*%
D28*
%TO.C,D4*%
X37782500Y30327500D03*
X37782500Y31902500D03*
%TD*%
D35*
%TO.C,J2*%
X8255000Y34290000D03*
X8255000Y31750000D03*
X8255000Y29210000D03*
X8255000Y26670000D03*
X8255000Y24130000D03*
X8255000Y21590000D03*
%TD*%
%TO.C,J11*%
X24130000Y1270000D03*
X26670000Y1270000D03*
X29210000Y1270000D03*
X31750000Y1270000D03*
X34290000Y1270000D03*
X36830000Y1270000D03*
%TD*%
D43*
%TO.C,FID3*%
X635000Y42545000D03*
%TD*%
D22*
%TO.C,R8*%
X2350000Y22542500D03*
X4000000Y22542500D03*
%TD*%
D34*
%TO.C,R3*%
X39687500Y33465000D03*
X39687500Y35115000D03*
%TD*%
D23*
%TO.C,C5*%
X14427500Y21907500D03*
X12877500Y21907500D03*
%TD*%
D48*
%TO.C,J1*%
X4905000Y15590000D03*
X4905000Y9810000D03*
D49*
X6010000Y13950000D03*
X6010000Y12950000D03*
D50*
X6010000Y12450000D03*
X6010000Y11450000D03*
X6010000Y10950000D03*
X6010000Y11950000D03*
D49*
X6010000Y13450000D03*
X6010000Y14450000D03*
D51*
X6010000Y15925000D03*
D52*
X6010000Y9475000D03*
D53*
X1255000Y17018000D03*
D54*
X5435000Y17018000D03*
X5435000Y8382000D03*
D53*
X1255000Y8382000D03*
D51*
X6010000Y15150000D03*
D52*
X6010000Y10250000D03*
%TD*%
D12*
%TO.C,ST2*%
X40640000Y2540000D03*
%TD*%
D47*
%TO.C,C9*%
X14605000Y27127500D03*
X14605000Y25577500D03*
%TD*%
D22*
%TO.C,R13*%
X8700000Y8572500D03*
X10350000Y8572500D03*
%TD*%
D25*
%TO.C,C3*%
X35102500Y11430000D03*
X36652500Y11430000D03*
%TD*%
D46*
%TO.C,D7*%
X13137500Y36195000D03*
X15437500Y36195000D03*
%TD*%
%TO.C,D5*%
X10915000Y25400000D03*
X13215000Y25400000D03*
%TD*%
D44*
%TO.C,J8*%
X4925000Y29815000D03*
X4925000Y28565000D03*
X4925000Y27315000D03*
X4925000Y26065000D03*
D45*
X1725000Y31690000D03*
X1725000Y24190000D03*
%TD*%
D19*
%TO.C,R2*%
X4000000Y18415000D03*
X2350000Y18415000D03*
%TD*%
D34*
%TO.C,R5*%
X37782500Y33465000D03*
X37782500Y35115000D03*
%TD*%
D28*
%TO.C,D1*%
X35877500Y30327500D03*
X35877500Y31902500D03*
%TD*%
D34*
%TO.C,R4*%
X35877500Y33465000D03*
X35877500Y35115000D03*
%TD*%
D23*
%TO.C,C2*%
X14427500Y20320000D03*
X12877500Y20320000D03*
%TD*%
D28*
%TO.C,D2*%
X39687500Y30327500D03*
X39687500Y31902500D03*
%TD*%
D43*
%TO.C,FID4*%
X42545000Y635000D03*
%TD*%
D42*
%TO.C,D3*%
X38100000Y20327500D03*
X38100000Y19367500D03*
%TD*%
D41*
%TO.C,J5*%
X40957500Y19367500D03*
X40957500Y21907500D03*
X40957500Y16827500D03*
%TD*%
D35*
%TO.C,J9*%
X13970000Y1270000D03*
X16510000Y1270000D03*
X19050000Y1270000D03*
X21590000Y1270000D03*
%TD*%
D19*
%TO.C,R1*%
X4000000Y6985000D03*
X2350000Y6985000D03*
%TD*%
D39*
%TO.C,J7*%
X10390000Y38100000D03*
X9390000Y38100000D03*
X8390000Y38100000D03*
X7390000Y38100000D03*
D40*
X6090000Y41775000D03*
X11690000Y41775000D03*
%TD*%
D12*
%TO.C,ST1*%
X40640000Y40640000D03*
%TD*%
D38*
%TO.C,U2*%
X12352400Y19047500D03*
X12352400Y18097500D03*
X12352400Y17147500D03*
X14952600Y17147500D03*
X14952600Y19047500D03*
%TD*%
D36*
%TO.C,J10*%
X39432500Y13017500D03*
D37*
X40957500Y11642500D03*
X40957500Y14392500D03*
%TD*%
D23*
%TO.C,C8*%
X14427500Y23495000D03*
X12877500Y23495000D03*
%TD*%
%TO.C,L1*%
X36652500Y19367500D03*
X35102500Y19367500D03*
%TD*%
D25*
%TO.C,C7*%
X8750000Y15240000D03*
X10300000Y15240000D03*
%TD*%
D26*
%TO.C,D12*%
X33670000Y8102500D03*
X33020000Y8102500D03*
X32370000Y8102500D03*
X32370000Y6502500D03*
X33670000Y6502500D03*
%TD*%
D35*
%TO.C,J3*%
X34290000Y41910000D03*
X31750000Y41910000D03*
X29210000Y41910000D03*
X26670000Y41910000D03*
X24130000Y41910000D03*
X21590000Y41910000D03*
X19050000Y41910000D03*
X16510000Y41910000D03*
X13970000Y41910000D03*
%TD*%
D34*
%TO.C,R11*%
X41592500Y33465000D03*
X41592500Y35115000D03*
%TD*%
D26*
%TO.C,D10*%
X33670000Y36995000D03*
X33020000Y36995000D03*
X32370000Y36995000D03*
X32370000Y35395000D03*
X33670000Y35395000D03*
%TD*%
D33*
%TO.C,F1*%
X10425000Y19050000D03*
X8625000Y19050000D03*
%TD*%
D32*
%TO.C,D14*%
X38100000Y11902500D03*
X38100000Y12862500D03*
%TD*%
D30*
%TO.C,J4*%
X7390000Y5080000D03*
X8390000Y5080000D03*
X9390000Y5080000D03*
X10390000Y5080000D03*
D31*
X11690000Y1405000D03*
X6090000Y1405000D03*
%TD*%
D29*
%TO.C,U1*%
X10825100Y11750000D03*
X10825100Y12700000D03*
X10825100Y13650000D03*
X8224900Y13650000D03*
X8225000Y12700000D03*
X8224900Y11750000D03*
%TD*%
D28*
%TO.C,D9*%
X41592500Y30327500D03*
X41592500Y31902500D03*
%TD*%
D27*
%TO.C,C1*%
X10795000Y20815000D03*
X10795000Y22365000D03*
%TD*%
D26*
%TO.C,D8*%
X18430000Y36995000D03*
X17780000Y36995000D03*
X17130000Y36995000D03*
X17130000Y35395000D03*
X18430000Y35395000D03*
%TD*%
D25*
%TO.C,C13*%
X8750000Y10160000D03*
X10300000Y10160000D03*
%TD*%
D19*
%TO.C,R9*%
X14477500Y15875000D03*
X12827500Y15875000D03*
%TD*%
D24*
%TO.C,D6*%
X10675000Y17145000D03*
X8375000Y17145000D03*
%TD*%
D22*
%TO.C,R6*%
X35052500Y20955000D03*
X36702500Y20955000D03*
%TD*%
D12*
%TO.C,ST3*%
X2540000Y40640000D03*
%TD*%
D23*
%TO.C,L2*%
X36652500Y13017500D03*
X35102500Y13017500D03*
%TD*%
D22*
%TO.C,R12*%
X8700000Y6985000D03*
X10350000Y6985000D03*
%TD*%
D20*
%TO.C,JP1*%
X36512500Y16598900D03*
X36512500Y15557500D03*
D21*
X36512500Y14516100D03*
%TD*%
D19*
%TO.C,R7*%
X12890000Y27305000D03*
X11240000Y27305000D03*
%TD*%
D13*
%TO.C,U5*%
X32850000Y14440000D03*
X32850000Y15540000D03*
X32850000Y16640000D03*
X32850000Y17740000D03*
X32850000Y18840000D03*
X32850000Y19940000D03*
X32850000Y21040000D03*
X32850000Y22140000D03*
X32850000Y23240000D03*
X32850000Y24340000D03*
X32850000Y25440000D03*
X32850000Y26540000D03*
X32850000Y27640000D03*
X32850000Y28740000D03*
D14*
X32000000Y31540000D03*
X30900000Y31540000D03*
X29800000Y31540000D03*
X28700000Y31540000D03*
X27600000Y31540000D03*
X26500000Y31540000D03*
X25400000Y31540000D03*
X24300000Y31540000D03*
X23200000Y31540000D03*
X22100000Y31540000D03*
X21000000Y31540000D03*
X19900000Y31540000D03*
X18800000Y31540000D03*
D15*
X17950000Y28740000D03*
X17950000Y27640000D03*
X17950000Y26540000D03*
X17950000Y25440000D03*
X17950000Y24340000D03*
X17950000Y23240000D03*
X17950000Y22140000D03*
X17950000Y21040000D03*
X17950000Y19940000D03*
X17950000Y18840000D03*
X17950000Y17740000D03*
X17950000Y16640000D03*
X17950000Y15540000D03*
X17950000Y14440000D03*
D16*
X18800000Y11640000D03*
X19900000Y11640000D03*
X21000000Y11640000D03*
X22100000Y11640000D03*
X23200000Y11640000D03*
X24300000Y11640000D03*
X25400000Y11640000D03*
X26500000Y11640000D03*
X27600000Y11640000D03*
X28700000Y11640000D03*
X29800000Y11640000D03*
X30900000Y11640000D03*
X32000000Y11640000D03*
D17*
X26450000Y20540000D03*
X26450000Y18440000D03*
X26450000Y16340000D03*
X26450000Y14240000D03*
X28500000Y20540000D03*
X28500000Y18440000D03*
X28500000Y16340000D03*
X28500000Y14240000D03*
X30550000Y20540000D03*
X30550000Y18440000D03*
X30550000Y16340000D03*
X30550000Y14240000D03*
X20250000Y20540000D03*
X20250000Y18440000D03*
X20250000Y16340000D03*
X20250000Y14240000D03*
X22300000Y20540000D03*
X22300000Y18440000D03*
X22300000Y16340000D03*
X22300000Y14240000D03*
X24350000Y20540000D03*
X24350000Y18440000D03*
X24350000Y16340000D03*
X24350000Y14240000D03*
D18*
X24350000Y22640000D03*
X24350000Y24740000D03*
X24350000Y26840000D03*
X24350000Y28940000D03*
X22300000Y22640000D03*
X22300000Y24740000D03*
X22300000Y26840000D03*
X22300000Y28940000D03*
X20250000Y22640000D03*
X20250000Y24740000D03*
X20250000Y26840000D03*
X20250000Y28940000D03*
X30550000Y22640000D03*
X30550000Y24740000D03*
X30550000Y26840000D03*
X30550000Y28940000D03*
X28500000Y22640000D03*
X28500000Y24740000D03*
X28500000Y26840000D03*
X28500000Y28940000D03*
X26450000Y22640000D03*
X26450000Y24740000D03*
X26450000Y26840000D03*
X26450000Y28940000D03*
%TD*%
D12*
%TO.C,ST4*%
X2540000Y2540000D03*
%TD*%
M02*
